  0
SECTION
  2
HEADER
  9
$ACADVER
  1
AC1014
  9
$HANDSEED
  5
FFFF
  9
$MEASUREMENT
 70
     1
  0
ENDSEC
  0
SECTION
  2
TABLES
  0
TABLE
  2
VPORT
  5
8
330
0
100
AcDbSymbolTable
 70
     4
  0
VPORT
  5
2E
330
8
100
AcDbSymbolTableRecord
100
AcDbViewportTableRecord
  2
*ACTIVE
 70
     0
 10
0.0
 20
0.0
 11
1.0
 21
1.0
 12
210.0
 22
148.5
 13
0.0
 23
0.0
 14
10.0
 24
10.0
 15
10.0
 25
10.0
 16
0.0
 26
0.0
 36
1.0
 17
0.0
 27
0.0
 37
0.0
 40
341.0
 41
1.24
 42
50.0
 43
0.0
 44
0.0
 50
0.0
 51
0.0
 71
     0
 72
   100
 73
     1
 74
     3
 75
     0
 76
     0
 77
     0
 78
     0
  0
ENDTAB
  0
TABLE
  2
LTYPE
  5
5
330
0
100
AcDbSymbolTable
 70
     1
  0
LTYPE
  5
14
330
5
100
AcDbSymbolTableRecord
100
AcDbLinetypeTableRecord
  2
BYBLOCK
 70
     0
  3

 72
    65
 73
     0
 40
0.0
  0
LTYPE
  5
15
330
5
100
AcDbSymbolTableRecord
100
AcDbLinetypeTableRecord
  2
BYLAYER
 70
     0
  3

 72
    65
 73
     0
 40
0.0
  0
LTYPE
  5
16
330
5
100
AcDbSymbolTableRecord
100
AcDbLinetypeTableRecord
  2
CONTINUOUS
 70
     0
  3
Solid line
 72
    65
 73
     0
 40
0.0
  0
ENDTAB
  0
TABLE
  2
LAYER
  5
2
100
AcDbSymbolTable
 70
2
  0
LAYER
  5
50
100
AcDbSymbolTableRecord
100
AcDbLayerTableRecord
  2
0
 70
0
  6
CONTINUOUS
  0
LAYER
  5
51
100
AcDbSymbolTableRecord
100
AcDbLayerTableRecord
  2
Layer_1
 70
0
  6
CONTINUOUS
  0
ENDTAB
  0
TABLE
  2
STYLE
  5
3
330
0
100
AcDbSymbolTable
 70
     1
  0
STYLE
  5
11
330
3
100
AcDbSymbolTableRecord
100
AcDbTextStyleTableRecord
  2
STANDARD
 70
     0
 40
0.0
 41
1.0
 50
0.0
 71
     0
 42
2.5
  3
txt
  4

  0
ENDTAB
  0
TABLE
  2
VIEW
  5
6
330
0
100
AcDbSymbolTable
 70
     0
  0
ENDTAB
  0
TABLE
  2
UCS
  5
7
330
0
100
AcDbSymbolTable
 70
     0
  0
ENDTAB
  0
TABLE
  2
APPID
  5
9
330
0
100
AcDbSymbolTable
 70
     2
  0
APPID
  5
12
330
9
100
AcDbSymbolTableRecord
100
AcDbRegAppTableRecord
  2
ACAD
 70
     0
  0
ENDTAB
  0
TABLE
  2
DIMSTYLE
  5
A
330
0
100
AcDbSymbolTable
 70
     1
  0
DIMSTYLE
105
27
330
A
100
AcDbSymbolTableRecord
100
AcDbDimStyleTableRecord
  2
ISO-25
 70
     0
  3

  4

  5

  6

  7

 40
1.0
 41
2.5
 42
0.625
 43
3.75
 44
1.25
 45
0.0
 46
0.0
 47
0.0
 48
0.0
140
2.5
141
2.5
142
0.0
143
0.03937007874016
144
1.0
145
0.0
146
1.0
147
0.625
 71
     0
 72
     0
 73
     0
 74
     0
 75
     0
 76
     0
 77
     1
 78
     8
170
     0
171
     3
172
     1
173
     0
174
     0
175
     0
176
     0
177
     0
178
     0
270
     2
271
     2
272
     2
273
     2
274
     3
340
11
275
     0
280
     0
281
     0
282
     0
283
     0
284
     8
285
     0
286
     0
287
     3
288
     0
  0
ENDTAB
  0
TABLE
  2
BLOCK_RECORD
  5
1
330
0
100
AcDbSymbolTable
 70
     1
  0
BLOCK_RECORD
  5
1F
330
1
100
AcDbSymbolTableRecord
100
AcDbBlockTableRecord
  2
*MODEL_SPACE
  0
BLOCK_RECORD
  5
1B
330
1
100
AcDbSymbolTableRecord
100
AcDbBlockTableRecord
  2
*PAPER_SPACE
  0
ENDTAB
  0
ENDSEC
  0
SECTION
  2
BLOCKS
  0
BLOCK
  5
20
330
1F
100
AcDbEntity
  8
0
100
AcDbBlockBegin
  2
*MODEL_SPACE
 70
     0
 10
0.0
 20
0.0
 30
0.0
  3
*MODEL_SPACE
  1

  0
ENDBLK
  5
21
330
1F
100
AcDbEntity
  8
0
100
AcDbBlockEnd
  0
BLOCK
  5
1C
330
1B
100
AcDbEntity
 67
     1
  8
0
100
AcDbBlockBegin
  2
*PAPER_SPACE
  1

  0
ENDBLK
  5
1D
330
1B
100
AcDbEntity
 67
     1
  8
0
100
AcDbBlockEnd
  0
ENDSEC
  0
SECTION
  2
ENTITIES
  0
LWPOLYLINE
  5
100
100
AcDbEntity
  8
Layer_1
 62
7
100
AcDbPolyline
 90
2
 70
0
 10
0.163889
 20
0.180705
 30
0.0
 10
0.163889
 20
0.180705
 30
0.0
  0
LWPOLYLINE
  5
101
100
AcDbEntity
  8
Layer_1
 62
7
100
AcDbPolyline
 90
14
 70
0
 10
36.564756
 20
34.462323
 30
0.0
 10
69.614819
 20
67.442417
 30
0.0
 10
69.614819
 20
68.504899
 30
0.0
 10
69.614819
 20
69.567381
 30
0.0
 10
68.599863
 20
69.567381
 30
0.0
 10
67.584907
 20
69.567381
 30
0.0
 10
34.535144
 20
36.587146
 30
0.0
 10
1.485381
 20
3.606940
 30
0.0
 10
1.485381
 20
2.544599
 30
0.0
 10
1.485381
 20
1.482258
 30
0.0
 10
2.500046
 20
1.482258
 30
0.0
 10
3.514697
 20
1.482258
 30
0.0
 10
36.564756
 20
34.462323
 30
0.0
 10
36.564756
 20
34.462323
 30
0.0
  0
SPLINE
  5
102
100
AcDbEntity
  8
Layer_1
 62
7
100
AcDbSpline
 70
0
 71
3
 72
31
 73
27
 74
25
 40
0.000000
 40
0.000000
 40
0.000000
 40
0.000000
 40
3.838460
 40
23.206194
 40
70.393669
 40
118.778991
 40
137.540518
 40
140.770964
 40
144.609690
 40
163.977389
 40
211.164255
 40
259.548983
 40
278.310471
 40
281.541177
 40
285.379636
 40
304.747363
 40
351.934818
 40
400.320160
 40
419.081694
 40
422.312141
 40
426.150871
 40
445.518569
 40
492.705437
 40
541.090167
 40
559.851655
 40
563.082365
 40
563.082365
 40
563.082365
 40
563.082365
 10
0.163889
 20
0.180705
 30
0.0
 10
0.124390
 20
1.459431
 30
0.0
 10
-0.114409
 20
9.190228
 30
0.0
 10
0.089667
 20
32.718778
 30
0.0
 10
0.415900
 20
70.423534
 30
0.0
 10
-1.283919
 20
110.589994
 30
0.0
 10
1.166568
 20
131.198333
 30
0.0
 10
-0.598587
 20
141.946834
 30
0.0
 10
10.813272
 20
139.585163
 30
0.0
 10
31.032332
 20
142.727000
 30
0.0
 10
71.062957
 20
140.048485
 30
0.0
 10
110.524171
 20
142.461914
 30
0.0
 10
131.199214
 20
139.942470
 30
0.0
 10
141.946202
 20
141.710424
 30
0.0
 10
139.585828
 20
130.298108
 30
0.0
 10
142.726270
 20
110.079578
 30
0.0
 10
140.048912
 20
70.047975
 30
0.0
 10
142.461455
 20
30.586816
 30
0.0
 10
139.942838
 20
9.911147
 30
0.0
 10
141.709989
 20
-0.835458
 30
0.0
 10
130.296006
 20
1.524137
 30
0.0
 10
110.137257
 20
-1.558038
 30
0.0
 10
69.498754
 20
0.518891
 30
0.0
 10
32.097975
 20
0.144636
 30
0.0
 10
8.563563
 20
-0.165788
 30
0.0
 10
1.239773
 20
0.136324
 30
0.0
 10
0.163889
 20
0.180705
 30
0.0
 11
0.163889
 21
0.180705
 31
0.0
 11
0.053766
 21
4.017585
 31
0.0
 11
0.008673
 21
23.385267
 31
0.0
 11
0.000000
 21
70.572741
 31
0.0
 11
0.008024
 21
118.958063
 31
0.0
 11
0.056293
 21
137.719527
 31
0.0
 11
0.181099
 21
140.947562
 31
0.0
 11
4.018251
 21
141.057471
 31
0.0
 11
23.385898
 21
141.102462
 31
0.0
 11
70.572763
 21
141.111110
 31
0.0
 11
118.957490
 21
141.103100
 31
0.0
 11
137.718917
 21
141.054933
 31
0.0
 11
140.947222
 21
140.930403
 31
0.0
 11
141.057345
 21
137.093524
 31
0.0
 11
141.102438
 21
117.725849
 31
0.0
 11
141.111111
 21
70.538395
 31
0.0
 11
141.103081
 21
22.153054
 31
0.0
 11
141.054809
 21
3.391582
 31
0.0
 11
140.930023
 21
0.163546
 31
0.0
 11
137.092866
 21
0.053637
 31
0.0
 11
117.725221
 21
0.008646
 31
0.0
 11
70.538354
 21
-0.000001
 31
0.0
 11
22.153624
 21
0.008008
 31
0.0
 11
3.392198
 21
0.056175
 31
0.0
 11
0.163889
 21
0.180705
 31
0.0
  0
LWPOLYLINE
  5
103
100
AcDbEntity
  8
Layer_1
 62
7
100
AcDbPolyline
 90
3
 70
0
 10
69.535709
 20
3.927996
 30
0.0
 10
69.565303
 20
6.373705
 30
0.0
 10
70.270576
 20
7.608935
 30
0.0
  0
SPLINE
  5
104
100
AcDbEntity
  8
Layer_1
 62
7
100
AcDbSpline
 70
0
 71
3
 72
43
 73
39
 74
37
 40
0.000000
 40
0.000000
 40
0.000000
 40
0.000000
 40
4.471808
 40
8.157805
 40
10.866922
 40
11.235518
 40
11.514997
 40
11.690498
 40
11.952574
 40
12.452853
 40
13.084538
 40
18.736171
 40
24.043755
 40
28.878177
 40
31.303587
 40
33.700634
 40
36.221744
 40
38.797575
 40
41.204205
 40
43.743823
 40
48.745170
 40
54.207517
 40
60.088365
 40
61.814465
 40
63.373489
 40
64.811521
 40
65.306255
 40
65.670495
 40
65.830869
 40
68.847231
 40
74.365064
 40
77.381504
 40
101.074977
 40
144.988359
 40
168.681604
 40
171.285317
 40
180.950730
 40
200.465083
 40
200.465083
 40
200.465083
 40
200.465083
 10
70.270576
 20
7.608935
 30
0.0
 10
70.982555
 20
8.920915
 30
0.0
 10
72.281400
 20
11.314325
 30
0.0
 10
73.595928
 20
14.690194
 30
0.0
 10
74.124959
 20
16.914548
 30
0.0
 10
74.106357
 20
18.037530
 30
0.0
 10
74.075890
 20
18.308490
 30
0.0
 10
73.995775
 20
18.544747
 30
0.0
 10
73.704116
 20
18.699711
 30
0.0
 10
73.325559
 20
18.953778
 30
0.0
 10
71.325744
 20
20.034825
 30
0.0
 10
68.092897
 20
22.168473
 30
0.0
 10
64.279933
 20
25.848286
 30
0.0
 10
61.919446
 20
29.364007
 30
0.0
 10
60.732663
 20
32.369515
 30
0.0
 10
60.205772
 20
34.771439
 30
0.0
 10
60.060167
 20
37.272056
 30
0.0
 10
60.198121
 20
39.777829
 30
0.0
 10
60.766048
 20
42.233726
 30
0.0
 10
62.054244
 20
45.302445
 30
0.0
 10
64.522832
 20
48.921044
 30
0.0
 10
68.543469
 20
52.651144
 30
0.0
 10
72.253797
 20
54.980701
 30
0.0
 10
74.991740
 20
56.335885
 30
0.0
 10
76.425063
 20
56.990100
 30
0.0
 10
77.517372
 20
57.393015
 30
0.0
 10
78.230535
 20
57.672268
 30
0.0
 10
78.546613
 20
57.795913
 30
0.0
 10
79.503246
 20
58.563460
 30
0.0
 10
74.849593
 20
60.817634
 30
0.0
 10
73.533260
 20
63.302264
 30
0.0
 10
65.221797
 20
71.880453
 30
0.0
 10
47.363003
 20
35.120592
 30
0.0
 10
38.164694
 20
29.083201
 30
0.0
 10
-2.056514
 20
1.419303
 30
0.0
 10
11.168427
 20
1.562388
 30
0.0
 10
21.280362
 20
1.438740
 30
0.0
 10
31.134040
 20
1.464818
 30
0.0
 10
37.723818
 20
1.482258
 30
0.0
 11
70.270576
 21
7.608935
 31
0.0
 11
72.312754
 21
11.587198
 31
0.0
 11
73.623274
 21
15.032356
 31
0.0
 11
74.108293
 21
17.697703
 31
0.0
 11
74.099270
 21
18.066188
 31
0.0
 11
74.059214
 21
18.342781
 31
0.0
 11
73.991422
 21
18.504661
 31
0.0
 11
73.781746
 21
18.661885
 31
0.0
 11
73.356102
 21
18.924768
 31
0.0
 11
72.806642
 21
19.236406
 31
0.0
 11
68.106199
 21
22.374366
 31
0.0
 11
64.314574
 21
26.088398
 31
0.0
 11
61.676003
 21
30.139272
 31
0.0
 11
60.791567
 21
32.397676
 31
0.0
 11
60.275797
 21
34.738576
 31
0.0
 11
60.108386
 21
37.254122
 31
0.0
 11
60.277291
 21
39.824409
 31
0.0
 11
60.819236
 21
42.169225
 31
0.0
 11
61.787066
 21
44.517196
 31
0.0
 11
64.569540
 21
48.673073
 31
0.0
 11
68.540224
 21
52.424193
 31
0.0
 11
73.500652
 21
55.583073
 31
0.0
 11
75.045964
 21
56.352119
 31
0.0
 11
76.469366
 21
56.988106
 31
0.0
 11
77.809945
 21
57.508477
 31
0.0
 11
78.270937
 21
57.688054
 31
0.0
 11
78.599733
 21
57.844784
 31
0.0
 11
78.725149
 21
57.944736
 31
0.0
 11
76.637599
 21
60.122023
 31
0.0
 11
72.734698
 21
64.022515
 31
0.0
 11
70.556069
 21
66.108776
 31
0.0
 11
53.739286
 21
49.418166
 31
0.0
 11
22.661008
 21
18.393565
 31
0.0
 11
5.941520
 21
1.605815
 31
0.0
 11
8.544127
 21
1.529943
 31
0.0
 11
18.209467
 21
1.492372
 31
0.0
 11
37.723818
 21
1.482258
 31
0.0
  0
LWPOLYLINE
  5
105
100
AcDbEntity
  8
Layer_1
 62
7
100
AcDbPolyline
 90
4
 70
0
 10
37.723818
 20
1.482258
 30
0.0
 10
69.506109
 20
1.482258
 30
0.0
 10
69.535709
 20
3.927996
 30
0.0
 10
69.535709
 20
3.927996
 30
0.0
  0
SPLINE
  5
106
100
AcDbEntity
  8
Layer_1
 62
7
100
AcDbSpline
 70
0
 71
3
 72
16
 73
12
 74
10
 40
0.000000
 40
0.000000
 40
0.000000
 40
0.000000
 40
6.228655
 40
17.683868
 40
23.913227
 40
24.166463
 40
24.686654
 40
25.362539
 40
33.294130
 40
41.800122
 40
50.429523
 40
50.429523
 40
50.429523
 40
50.429523
 10
135.268617
 20
1.605533
 30
0.0
 10
133.837665
 20
3.162872
 30
0.0
 10
129.775029
 20
7.584339
 30
0.0
 10
123.640595
 20
11.212983
 30
0.0
 10
120.248132
 20
19.106380
 30
0.0
 10
117.996506
 20
18.377337
 30
0.0
 10
117.555806
 20
18.183689
 30
0.0
 10
114.791868
 20
16.905253
 30
0.0
 10
109.377547
 20
15.028815
 30
0.0
 10
101.080981
 20
13.635647
 30
0.0
 10
95.361056
 20
13.810076
 30
0.0
 10
92.480497
 20
13.897919
 30
0.0
 11
135.268617
 21
1.605533
 31
0.0
 11
130.916984
 21
6.061925
 31
0.0
 11
122.800169
 21
14.145193
 31
0.0
 11
118.325302
 21
18.478837
 31
0.0
 11
118.083788
 21
18.402682
 31
0.0
 11
117.603435
 21
18.203033
 31
0.0
 11
116.988240
 21
17.923113
 31
0.0
 11
109.503405
 21
15.298730
 31
0.0
 11
101.109869
 21
13.920157
 31
0.0
 11
92.480497
 21
13.897919
 31
0.0
  0
LWPOLYLINE
  5
107
100
AcDbEntity
  8
Layer_1
 62
7
100
AcDbPolyline
 90
3
 70
0
 10
92.480497
 20
13.897919
 30
0.0
 10
90.441306
 20
14.063668
 30
0.0
 10
88.073871
 20
12.775662
 30
0.0
  0
SPLINE
  5
108
100
AcDbEntity
  8
Layer_1
 62
7
100
AcDbSpline
 70
0
 71
3
 72
10
 73
6
 74
4
 40
0.000000
 40
0.000000
 40
0.000000
 40
0.000000
 40
7.351224
 40
13.139253
 40
17.109859
 40
17.109859
 40
17.109859
 40
17.109859
 10
88.073871
 20
12.775662
 30
0.0
 10
85.911690
 20
11.623772
 30
0.0
 10
82.047105
 20
9.564934
 30
0.0
 10
76.936664
 20
7.016952
 30
0.0
 10
73.896736
 20
5.855246
 30
0.0
 10
72.659847
 20
5.382569
 30
0.0
 11
88.073871
 21
12.775662
 31
0.0
 11
81.568580
 21
9.351968
 31
0.0
 11
76.349792
 21
6.848864
 31
0.0
 11
72.659847
 21
5.382569
 31
0.0
  0
LWPOLYLINE
  5
109
100
AcDbEntity
  8
Layer_1
 62
7
100
AcDbPolyline
 90
5
 70
0
 10
72.659847
 20
5.382569
 30
0.0
 10
71.496301
 20
5.010741
 30
0.0
 10
71.496301
 20
3.246485
 30
0.0
 10
71.496301
 20
1.482258
 30
0.0
 10
103.382453
 20
1.482258
 30
0.0
  0
LWPOLYLINE
  5
10a
100
AcDbEntity
  8
Layer_1
 62
7
100
AcDbPolyline
 90
2
 70
0
 10
135.268617
 20
1.605533
 30
0.0
 10
135.268617
 20
1.605533
 30
0.0
  0
SPLINE
  5
10b
100
AcDbEntity
  8
Layer_1
 62
7
100
AcDbSpline
 70
0
 71
3
 72
10
 73
6
 74
4
 40
0.000000
 40
0.000000
 40
0.000000
 40
0.000000
 40
19.561463
 40
29.266795
 40
31.887329
 40
31.887329
 40
31.887329
 40
31.887329
 10
103.382453
 20
1.482258
 30
0.0
 10
109.902583
 20
1.500755
 30
0.0
 10
119.657644
 20
1.528429
 30
0.0
 10
130.288787
 20
1.447994
 30
0.0
 10
134.395510
 20
1.577911
 30
0.0
 10
135.268617
 20
1.605533
 30
0.0
 11
103.382453
 21
1.482258
 31
0.0
 11
122.943914
 21
1.492405
 31
0.0
 11
132.649173
 21
1.529947
 31
0.0
 11
135.268617
 21
1.605533
 31
0.0
  0
LWPOLYLINE
  5
10c
100
AcDbEntity
  8
Layer_1
 62
7
100
AcDbPolyline
 90
11
 70
0
 10
139.625730
 20
2.544486
 30
0.0
 10
139.625730
 20
3.606714
 30
0.0
 10
106.576083
 20
36.587033
 30
0.0
 10
73.526430
 20
69.567381
 30
0.0
 10
72.560877
 20
69.567381
 30
0.0
 10
71.595324
 20
69.567381
 30
0.0
 10
71.595324
 20
68.504702
 30
0.0
 10
71.595324
 20
67.442022
 30
0.0
 10
76.200003
 20
62.847811
 30
0.0
 10
80.804681
 20
58.253629
 30
0.0
 10
80.804681
 20
57.739928
 30
0.0
  0
SPLINE
  5
10d
100
AcDbEntity
  8
Layer_1
 62
7
100
AcDbSpline
 70
0
 71
3
 72
40
 73
36
 74
34
 40
0.000000
 40
0.000000
 40
0.000000
 40
0.000000
 40
0.619861
 40
1.305857
 40
2.645447
 40
8.205245
 40
13.375770
 40
18.025153
 40
21.909926
 40
25.557309
 40
29.034712
 40
32.782795
 40
36.944779
 40
41.374211
 40
44.511302
 40
48.036199
 40
51.643819
 40
52.278490
 40
52.830047
 40
53.181662
 40
53.786293
 40
54.635072
 40
55.754353
 40
58.257489
 40
61.194293
 40
64.879392
 40
66.096686
 40
66.691902
 40
66.849088
 40
67.768785
 40
69.584332
 40
71.258843
 40
75.047212
 40
79.948600
 40
85.280562
 40
85.280562
 40
85.280562
 40
85.280562
 10
80.804681
 20
57.739928
 30
0.0
 10
80.796648
 20
57.521130
 30
0.0
 10
80.779723
 20
57.060191
 30
0.0
 10
79.961908
 20
56.545350
 30
0.0
 10
77.620818
 20
55.763422
 30
0.0
 10
73.890588
 20
54.085799
 30
0.0
 10
69.545767
 20
51.360947
 30
0.0
 10
66.138846
 20
48.265059
 30
0.0
 10
63.744337
 20
44.952821
 30
0.0
 10
62.207322
 20
41.597022
 30
0.0
 10
61.407897
 20
38.018836
 30
0.0
 10
61.775748
 20
34.177107
 30
0.0
 10
63.277727
 20
30.310282
 30
0.0
 10
65.437365
 20
27.007045
 30
0.0
 10
68.078878
 20
24.401276
 30
0.0
 10
70.795701
 20
22.304188
 30
0.0
 10
73.023143
 20
20.979432
 30
0.0
 10
74.429704
 20
20.215999
 30
0.0
 10
74.858713
 20
19.939681
 30
0.0
 10
75.280080
 20
19.651647
 30
0.0
 10
75.537800
 20
19.075611
 30
0.0
 10
75.646647
 20
18.225565
 30
0.0
 10
75.612928
 20
16.729583
 30
0.0
 10
75.230302
 20
14.565216
 30
0.0
 10
74.232857
 20
11.683843
 30
0.0
 10
72.985938
 20
9.356757
 30
0.0
 10
72.286192
 20
7.696810
 30
0.0
 10
71.864209
 20
7.133142
 30
0.0
 10
72.003179
 20
6.524145
 30
0.0
 10
73.249969
 20
7.552637
 30
0.0
 10
74.401973
 20
7.706341
 30
0.0
 10
76.710254
 20
8.817168
 30
0.0
 10
79.761174
 20
10.267229
 30
0.0
 10
83.943791
 20
12.424717
 30
0.0
 10
86.946138
 20
14.033531
 30
0.0
 10
88.510474
 20
14.871783
 30
0.0
 11
80.804681
 21
57.739928
 31
0.0
 11
80.693434
 21
57.130131
 31
0.0
 11
80.164079
 21
56.693813
 31
0.0
 11
78.923199
 21
56.189117
 31
0.0
 11
73.846762
 21
53.921707
 31
0.0
 11
69.490856
 21
51.135955
 31
0.0
 11
66.080550
 21
47.975801
 31
0.0
 11
63.811802
 21
44.822352
 31
0.0
 11
62.306981
 21
41.499865
 31
0.0
 11
61.604909
 21
38.094072
 31
0.0
 11
61.921183
 21
34.359357
 31
0.0
 11
63.371014
 21
30.458063
 31
0.0
 11
65.815410
 21
26.764176
 31
0.0
 11
68.025506
 21
24.537785
 31
0.0
 11
70.812535
 21
22.379691
 31
0.0
 11
73.896065
 21
20.507055
 31
0.0
 11
74.449186
 21
20.195827
 31
0.0
 11
74.914656
 21
19.899933
 31
0.0
 11
75.191702
 21
19.683418
 31
0.0
 11
75.477669
 21
19.150688
 31
0.0
 11
75.616954
 21
18.313415
 31
0.0
 11
75.605798
 21
17.194190
 31
0.0
 11
75.196888
 21
14.724680
 31
0.0
 11
74.249849
 21
11.944762
 31
0.0
 11
72.681437
 21
8.610091
 31
0.0
 11
72.135923
 21
7.521873
 31
0.0
 11
71.910378
 21
6.971044
 31
0.0
 11
71.947789
 21
6.818375
 31
0.0
 11
72.811297
 21
7.134910
 31
0.0
 11
74.491612
 21
7.822479
 31
0.0
 11
76.028177
 21
8.488029
 31
0.0
 11
79.440021
 21
10.134560
 31
0.0
 11
83.803832
 21
12.366319
 31
0.0
 11
88.510474
 21
14.871783
 31
0.0
  0
LWPOLYLINE
  5
10e
100
AcDbEntity
  8
Layer_1
 62
7
100
AcDbPolyline
 90
3
 70
0
 10
88.510474
 20
14.871783
 30
0.0
 10
89.928161
 20
15.641573
 30
0.0
 10
90.738545
 20
15.580020
 30
0.0
  0
SPLINE
  5
10f
100
AcDbEntity
  8
Layer_1
 62
7
100
AcDbSpline
 70
0
 71
3
 72
19
 73
15
 74
13
 40
0.000000
 40
0.000000
 40
0.000000
 40
0.000000
 40
0.613897
 40
1.442110
 40
2.305363
 40
6.392643
 40
10.924512
 40
15.474435
 40
19.133790
 40
22.580578
 40
26.083338
 40
27.309245
 40
28.001706
 40
28.458475
 40
28.458475
 40
28.458475
 40
28.458475
 10
90.738545
 20
15.580020
 30
0.0
 10
90.942481
 20
15.563143
 30
0.0
 10
91.421547
 20
15.523497
 30
0.0
 10
92.186853
 20
15.453803
 30
0.0
 10
94.103017
 20
15.256746
 30
0.0
 10
97.268852
 20
15.153937
 30
0.0
 10
101.654958
 20
15.433461
 30
0.0
 10
105.861771
 20
16.054337
 30
0.0
 10
109.649918
 20
16.934342
 30
0.0
 10
113.026695
 20
17.996212
 30
0.0
 10
115.540905
 20
19.065973
 30
0.0
 10
117.181788
 20
19.806847
 30
0.0
 10
117.920556
 20
20.115705
 30
0.0
 10
118.304281
 20
20.146478
 30
0.0
 10
118.456795
 20
20.158709
 30
0.0
 11
90.738545
 21
15.580020
 31
0.0
 11
91.350291
 21
15.528673
 31
0.0
 11
92.175066
 21
15.453294
 31
0.0
 11
93.034310
 21
15.370188
 31
0.0
 11
97.118863
 21
15.220912
 31
0.0
 11
101.642419
 21
15.495277
 31
0.0
 11
106.142748
 21
16.165236
 31
0.0
 11
109.706381
 21
16.996737
 31
0.0
 11
112.990477
 21
18.043191
 31
0.0
 11
116.228529
 21
19.378985
 31
0.0
 11
117.349802
 21
19.874559
 31
0.0
 11
118.003402
 21
20.103270
 31
0.0
 11
118.456795
 21
20.158709
 31
0.0
  0
LWPOLYLINE
  5
110
100
AcDbEntity
  8
Layer_1
 62
7
100
AcDbPolyline
 90
8
 70
0
 10
118.456795
 20
20.158709
 30
0.0
 10
118.979343
 20
20.158709
 30
0.0
 10
128.336842
 20
10.820483
 30
0.0
 10
137.694340
 20
1.482258
 30
0.0
 10
138.660037
 20
1.482258
 30
0.0
 10
139.625730
 20
1.482258
 30
0.0
 10
139.625730
 20
2.544486
 30
0.0
 10
139.625730
 20
2.544486
 30
0.0
  0
SPLINE
  5
111
100
AcDbEntity
  8
Layer_1
 62
7
100
AcDbSpline
 70
0
 71
3
 72
13
 73
9
 74
7
 40
0.000000
 40
0.000000
 40
0.000000
 40
0.000000
 40
22.586750
 40
38.718466
 40
44.902745
 40
46.066646
 40
49.195465
 40
53.692974
 40
53.692974
 40
53.692974
 40
53.692974
 10
33.409952
 20
37.711350
 30
0.0
 10
39.398640
 20
43.295939
 30
0.0
 10
49.664517
 20
52.869105
 30
0.0
 10
54.772996
 20
61.303619
 30
0.0
 10
67.263852
 20
69.587556
 30
0.0
 10
63.190380
 20
69.504315
 30
0.0
 10
60.462405
 20
69.580033
 30
0.0
 10
57.877404
 20
69.572075
 30
0.0
 10
56.352940
 20
69.567381
 30
0.0
 11
33.409952
 21
37.711350
 31
0.0
 11
49.381485
 21
53.682306
 31
0.0
 11
60.781579
 21
65.095899
 31
0.0
 11
65.142172
 21
69.481162
 31
0.0
 11
63.979103
 21
69.525152
 31
0.0
 11
60.850434
 21
69.555847
 31
0.0
 11
56.352940
 21
69.567381
 31
0.0
  0
LWPOLYLINE
  5
112
100
AcDbEntity
  8
Layer_1
 62
7
100
AcDbPolyline
 90
3
 70
0
 10
56.352940
 20
69.567381
 30
0.0
 10
47.530698
 20
69.567381
 30
0.0
 10
44.957506
 20
68.282762
 30
0.0
  0
LWPOLYLINE
  5
113
100
AcDbEntity
  8
Layer_1
 62
7
100
AcDbPolyline
 90
2
 70
0
 10
33.409969
 20
37.711350
 30
0.0
 10
33.409952
 20
37.711350
 30
0.0
  0
SPLINE
  5
114
100
AcDbEntity
  8
Layer_1
 62
7
100
AcDbSpline
 70
0
 71
3
 72
52
 73
48
 74
46
 40
0.000000
 40
0.000000
 40
0.000000
 40
0.000000
 40
1.496738
 40
2.611077
 40
3.126666
 40
3.318038
 40
3.564213
 40
3.817977
 40
4.199880
 40
4.394486
 40
4.598262
 40
4.718626
 40
4.802267
 40
4.902035
 40
5.107921
 40
5.368627
 40
5.645671
 40
7.895343
 40
13.809303
 40
22.360711
 40
33.405788
 40
38.151060
 40
39.384155
 40
39.683640
 40
39.902117
 40
40.092550
 40
40.248459
 40
40.407489
 40
40.543999
 40
40.680510
 40
40.839540
 40
40.995449
 40
41.310593
 40
42.318780
 40
44.797919
 40
46.628191
 40
47.974727
 40
48.546518
 40
49.891248
 40
56.235489
 40
71.229273
 40
84.577964
 40
91.726179
 40
93.848995
 40
100.031042
 40
116.161108
 40
138.747200
 40
138.747200
 40
138.747200
 40
138.747200
 10
44.957506
 20
68.282762
 30
0.0
 10
44.509921
 20
68.055089
 30
0.0
 10
43.729102
 20
67.657910
 30
0.0
 10
42.780731
 20
67.289046
 30
0.0
 10
42.219152
 20
66.960489
 30
0.0
 10
41.900696
 20
67.032246
 30
0.0
 10
41.687330
 20
67.116355
 30
0.0
 10
41.428602
 20
67.262386
 30
0.0
 10
41.219027
 20
67.432706
 30
0.0
 10
40.936501
 20
67.507692
 30
0.0
 10
40.811220
 20
67.359665
 30
0.0
 10
40.725102
 20
67.255927
 30
0.0
 10
40.714433
 20
67.144474
 30
0.0
 10
40.813620
 20
67.049100
 30
0.0
 10
40.893044
 20
66.874149
 30
0.0
 10
40.904201
 20
66.622436
 30
0.0
 10
40.702001
 20
65.687961
 30
0.0
 10
37.255884
 20
65.134358
 30
0.0
 10
33.066839
 20
62.003603
 30
0.0
 10
25.077760
 20
58.534135
 30
0.0
 10
17.930947
 20
54.679399
 30
0.0
 10
12.848787
 20
52.397096
 30
0.0
 10
10.925437
 20
51.352467
 30
0.0
 10
10.339197
 20
51.392679
 30
0.0
 10
10.103012
 20
51.446902
 30
0.0
 10
9.960090
 20
51.574892
 30
0.0
 10
9.835651
 20
51.688995
 30
0.0
 10
9.699027
 20
51.755097
 30
0.0
 10
9.555908
 20
51.791931
 30
0.0
 10
9.413153
 20
51.754769
 30
0.0
 10
9.275262
 20
51.690551
 30
0.0
 10
9.126402
 20
51.538610
 30
0.0
 10
8.657727
 20
51.343018
 30
0.0
 10
7.365417
 20
51.446537
 30
0.0
 10
5.620915
 20
51.360579
 30
0.0
 10
3.692465
 20
51.407549
 30
0.0
 10
2.527630
 20
51.314899
 30
0.0
 10
1.258710
 20
51.439411
 30
0.0
 10
2.053541
 20
47.643403
 30
0.0
 10
0.930703
 20
41.416369
 30
0.0
 10
1.706079
 20
29.122806
 30
0.0
 10
1.347494
 20
17.021588
 30
0.0
 10
1.668286
 20
10.324567
 30
0.0
 10
1.304320
 20
3.822932
 30
0.0
 10
9.652001
 20
15.925511
 30
0.0
 10
18.315115
 20
21.686029
 30
0.0
 10
27.848448
 20
31.807010
 30
0.0
 10
33.409969
 20
37.711350
 30
0.0
 11
44.957506
 21
68.282762
 31
0.0
 11
43.611080
 21
67.629033
 31
0.0
 11
42.595294
 21
67.170852
 31
0.0
 11
42.109492
 21
66.998143
 31
0.0
 11
41.921139
 21
67.032002
 31
0.0
 11
41.691520
 21
67.120757
 31
0.0
 11
41.470349
 21
67.245172
 31
0.0
 11
41.144006
 21
67.443543
 31
0.0
 11
40.951284
 21
67.470548
 31
0.0
 11
40.794960
 21
67.339829
 31
0.0
 11
40.729850
 21
67.238595
 31
0.0
 11
40.726057
 21
67.155041
 31
0.0
 11
40.782852
 21
67.073017
 31
0.0
 11
40.873979
 21
66.888395
 31
0.0
 11
40.892891
 21
66.628376
 31
0.0
 11
40.834897
 21
66.357470
 31
0.0
 11
38.849662
 21
65.299233
 31
0.0
 11
33.576579
 21
62.621636
 31
0.0
 11
25.931712
 21
58.789851
 31
0.0
 11
16.043172
 21
53.869435
 31
0.0
 11
11.770766
 21
51.804449
 31
0.0
 11
10.611208
 21
51.384989
 31
0.0
 11
10.312316
 21
51.403817
 31
0.0
 11
10.103043
 21
51.466566
 31
0.0
 11
9.952067
 21
51.582629
 31
0.0
 11
9.832066
 21
51.682166
 31
0.0
 11
9.689763
 21
51.753160
 31
0.0
 11
9.555965
 21
51.780241
 31
0.0
 11
9.422168
 21
51.753160
 31
0.0
 11
9.279864
 21
51.682166
 31
0.0
 11
9.159864
 21
51.582629
 31
0.0
 11
8.875579
 21
51.446622
 31
0.0
 11
7.868774
 21
51.393845
 31
0.0
 11
5.389651
 21
51.384989
 31
0.0
 11
3.559398
 21
51.376747
 31
0.0
 11
2.213034
 21
51.355178
 31
0.0
 11
1.642039
 21
51.325017
 31
0.0
 11
1.538229
 21
49.984300
 31
0.0
 11
1.494410
 21
43.640210
 31
0.0
 11
1.485400
 21
28.646429
 31
0.0
 11
1.495971
 21
15.297742
 31
0.0
 11
1.531581
 21
8.149616
 31
0.0
 11
1.598081
 21
6.027842
 31
0.0
 11
5.998802
 21
10.369657
 31
0.0
 11
17.427518
 21
21.752252
 31
0.0
 11
33.409969
 21
37.711350
 31
0.0
  0
LWPOLYLINE
  5
115
100
AcDbEntity
  8
Layer_1
 62
7
100
AcDbPolyline
 90
3
 70
0
 10
139.625730
 20
22.515518
 30
0.0
 10
139.625730
 20
39.003166
 30
0.0
 10
139.312997
 20
39.437986
 30
0.0
  0
SPLINE
  5
116
100
AcDbEntity
  8
Layer_1
 62
7
100
AcDbSpline
 70
0
 71
3
 72
31
 73
27
 74
25
 40
0.000000
 40
0.000000
 40
0.000000
 40
0.000000
 40
1.360296
 40
2.906798
 40
4.244180
 40
8.469764
 40
12.381094
 40
16.255229
 40
17.136532
 40
18.401984
 40
19.778184
 40
21.991042
 40
23.424849
 40
24.760878
 40
26.748227
 40
28.705424
 40
30.854660
 40
32.867211
 40
34.741941
 40
36.753994
 40
39.650569
 40
42.812075
 40
46.570104
 40
49.690415
 40
53.302692
 40
57.856652
 40
57.856652
 40
57.856652
 40
57.856652
 10
139.312997
 20
39.437986
 30
0.0
 10
139.037546
 20
39.798271
 30
0.0
 10
138.448937
 20
40.568158
 30
0.0
 10
137.518887
 20
41.635529
 30
0.0
 10
135.898677
 20
43.364623
 30
0.0
 10
133.319722
 20
45.277817
 30
0.0
 10
129.460720
 20
46.579466
 30
0.0
 10
126.502228
 20
46.502295
 30
0.0
 10
124.553574
 20
46.023202
 30
0.0
 10
123.418041
 20
45.723317
 30
0.0
 10
121.861730
 20
45.279953
 30
0.0
 10
120.257744
 20
44.800165
 30
0.0
 10
118.639467
 20
44.416457
 30
0.0
 10
117.066414
 20
44.208047
 30
0.0
 10
115.296872
 20
44.150139
 30
0.0
 10
113.288047
 20
44.559240
 30
0.0
 10
111.406627
 20
45.366795
 30
0.0
 10
109.643372
 20
46.342577
 30
0.0
 10
108.050154
 20
47.505147
 30
0.0
 10
106.403341
 20
49.060264
 30
0.0
 10
104.661377
 20
51.123650
 30
0.0
 10
102.977228
 20
53.941952
 30
0.0
 10
101.581292
 20
56.987775
 30
0.0
 10
100.343486
 20
60.260755
 30
0.0
 10
99.269003
 20
63.869096
 30
0.0
 10
98.617973
 20
66.512309
 30
0.0
 10
98.254922
 20
67.986316
 30
0.0
 11
139.312997
 21
39.437986
 31
0.0
 11
138.476049
 21
40.510331
 31
0.0
 11
137.465797
 21
41.681253
 31
0.0
 11
136.542636
 21
42.648913
 31
0.0
 11
133.126475
 21
45.135959
 31
0.0
 11
129.409327
 21
46.353050
 31
0.0
 11
125.536494
 21
46.252608
 31
0.0
 11
124.678382
 21
46.051761
 31
0.0
 11
123.454789
 21
45.728982
 31
0.0
 11
122.130617
 21
45.354154
 31
0.0
 11
120.001656
 21
44.750608
 31
0.0
 11
118.603340
 21
44.433568
 31
0.0
 11
117.279403
 21
44.254221
 31
0.0
 11
115.292227
 21
44.228008
 31
0.0
 11
113.372042
 21
44.606834
 31
0.0
 11
111.381664
 21
45.417767
 31
0.0
 11
109.626069
 21
46.401763
 31
0.0
 11
108.111922
 21
47.507190
 31
0.0
 11
106.640280
 21
48.879279
 31
0.0
 11
104.779894
 21
51.099438
 31
0.0
 11
103.126563
 21
53.794177
 31
0.0
 11
101.535840
 21
57.198936
 31
0.0
 11
100.434494
 21
60.118418
 31
0.0
 11
99.383383
 21
63.574386
 31
0.0
 11
98.254922
 21
67.986316
 31
0.0
  0
LWPOLYLINE
  5
117
100
AcDbEntity
  8
Layer_1
 62
7
100
AcDbPolyline
 90
3
 70
0
 10
98.254922
 20
67.986316
 30
0.0
 10
97.886554
 20
69.517992
 30
0.0
 10
86.919497
 20
69.543110
 30
0.0
  0
LWPOLYLINE
  5
118
100
AcDbEntity
  8
Layer_1
 62
7
100
AcDbPolyline
 90
2
 70
0
 10
139.625730
 20
22.515518
 30
0.0
 10
139.625730
 20
22.515518
 30
0.0
  0
SPLINE
  5
119
100
AcDbEntity
  8
Layer_1
 62
7
100
AcDbSpline
 70
0
 71
3
 72
16
 73
12
 74
10
 40
0.000000
 40
0.000000
 40
0.000000
 40
0.000000
 40
5.524148
 40
9.464204
 40
10.967485
 40
34.276779
 40
77.506589
 40
100.816075
 40
103.075807
 40
108.999217
 40
117.304128
 40
117.304128
 40
117.304128
 40
117.304128
 10
86.919497
 20
69.543110
 30
0.0
 10
85.065961
 20
69.548186
 30
0.0
 10
81.890404
 20
69.556881
 30
0.0
 10
78.334467
 20
69.523671
 30
0.0
 10
68.114152
 20
69.553923
 30
0.0
 10
109.070131
 20
41.832318
 30
0.0
 10
111.873421
 20
38.767058
 30
0.0
 10
139.800832
 20
-1.860070
 30
0.0
 10
139.551310
 20
9.655379
 30
0.0
 10
139.645332
 20
14.932028
 30
0.0
 10
139.632955
 20
19.720526
 30
0.0
 10
139.625730
 20
22.515518
 30
0.0
 11
86.919497
 21
69.543110
 31
0.0
 11
81.395350
 21
69.545610
 31
0.0
 11
77.455333
 21
69.527929
 31
0.0
 11
75.952440
 21
69.493778
 31
0.0
 11
92.419415
 21
52.996447
 31
0.0
 11
123.019493
 21
22.460374
 31
0.0
 11
139.551402
 21
6.027842
 31
0.0
 11
139.588841
 21
8.287264
 31
0.0
 11
139.615544
 21
14.210614
 31
0.0
 11
139.625730
 21
22.515518
 31
0.0
  0
LWPOLYLINE
  5
11a
100
AcDbEntity
  8
Layer_1
 62
7
100
AcDbPolyline
 90
3
 70
0
 10
139.625730
 20
43.376595
 30
0.0
 10
139.625730
 20
44.854649
 30
0.0
 10
138.844054
 20
45.740488
 30
0.0
  0
SPLINE
  5
11b
100
AcDbEntity
  8
Layer_1
 62
7
100
AcDbSpline
 70
0
 71
3
 72
79
 73
75
 74
73
 40
0.000000
 40
0.000000
 40
0.000000
 40
0.000000
 40
2.039421
 40
3.709398
 40
5.308201
 40
6.923916
 40
9.082287
 40
11.623454
 40
12.686499
 40
13.664011
 40
14.344648
 40
14.906673
 40
15.145353
 40
15.285482
 40
16.811067
 40
19.384362
 40
20.792087
 40
20.978511
 40
21.340888
 40
21.802284
 40
23.660453
 40
24.811338
 40
25.578258
 40
25.863292
 40
26.109482
 40
26.497661
 40
26.902068
 40
27.188970
 40
27.606182
 40
28.075617
 40
28.744834
 40
29.469202
 40
34.147920
 40
38.219821
 40
41.949390
 40
43.821931
 40
46.038651
 40
49.241708
 40
52.017269
 40
53.834053
 40
55.303296
 40
55.779956
 40
56.149416
 40
56.332767
 40
57.955241
 40
60.801645
 40
62.356136
 40
62.595740
 40
63.117509
 40
63.808854
 40
67.731070
 40
71.476073
 40
74.657617
 40
77.655098
 40
80.434270
 40
83.465495
 40
86.131048
 40
88.689063
 40
92.503546
 40
95.212832
 40
96.933480
 40
98.805111
 40
100.708787
 40
102.156967
 40
103.641669
 40
105.801311
 40
108.070743
 40
110.769000
 40
111.840662
 40
112.619965
 40
112.938817
 40
113.141776
 40
113.671301
 40
114.415052
 40
114.415052
 40
114.415052
 40
114.415052
 10
138.844054
 20
45.740488
 30
0.0
 10
138.401847
 20
46.258112
 30
0.0
 10
137.597540
 20
47.199592
 30
0.0
 10
136.689180
 20
48.729422
 30
0.0
 10
136.133210
 20
50.272801
 30
0.0
 10
135.894467
 20
52.055656
 30
0.0
 10
135.840770
 20
54.162284
 30
0.0
 10
135.934554
 20
56.080388
 30
0.0
 10
136.043246
 20
57.606845
 30
0.0
 10
136.086565
 20
58.505587
 30
0.0
 10
136.118394
 20
59.263385
 30
0.0
 10
136.097651
 20
59.715366
 30
0.0
 10
136.099301
 20
60.093725
 30
0.0
 10
135.409675
 20
60.242887
 30
0.0
 10
134.198107
 20
59.128970
 30
0.0
 10
132.998308
 20
58.337241
 30
0.0
 10
130.949946
 20
57.858156
 30
0.0
 10
131.184284
 20
57.210880
 30
0.0
 10
131.316786
 20
56.908599
 30
0.0
 10
131.713922
 20
56.101157
 30
0.0
 10
132.200741
 20
55.071604
 30
0.0
 10
132.603051
 20
53.827606
 30
0.0
 10
132.359850
 20
53.089023
 30
0.0
 10
132.060721
 20
52.761023
 30
0.0
 10
131.760536
 20
52.659808
 30
0.0
 10
131.413876
 20
52.676894
 30
0.0
 10
131.048797
 20
52.654794
 30
0.0
 10
130.699656
 20
52.808888
 30
0.0
 10
130.435482
 20
53.104338
 30
0.0
 10
130.084102
 20
53.483294
 30
0.0
 10
129.679470
 20
53.955533
 30
0.0
 10
128.386388
 20
55.511725
 30
0.0
 10
126.293324
 20
57.885576
 30
0.0
 10
123.127262
 20
60.609423
 30
0.0
 10
120.352126
 20
62.284665
 30
0.0
 10
117.957201
 20
63.323098
 30
0.0
 10
115.629960
 20
64.036673
 30
0.0
 10
112.978367
 20
64.694171
 30
0.0
 10
110.456926
 20
65.318113
 30
0.0
 10
108.512947
 20
65.882181
 30
0.0
 10
107.358603
 20
66.374916
 30
0.0
 10
106.655276
 20
66.695743
 30
0.0
 10
106.340737
 20
66.827531
 30
0.0
 10
105.640136
 20
67.062688
 30
0.0
 10
104.290974
 20
65.622387
 30
0.0
 10
103.035605
 20
64.737054
 30
0.0
 10
100.851163
 20
64.146338
 30
0.0
 10
101.091228
 20
63.368171
 30
0.0
 10
101.215842
 20
62.910791
 30
0.0
 10
101.724028
 20
61.266182
 30
0.0
 10
102.657431
 20
58.647232
 30
0.0
 10
104.127896
 20
55.336109
 30
0.0
 10
105.740983
 20
52.441335
 30
0.0
 10
107.562578
 20
50.056206
 30
0.0
 10
109.801339
 20
48.115623
 30
0.0
 10
112.277709
 20
46.758133
 30
0.0
 10
114.844587
 20
45.637536
 30
0.0
 10
117.928538
 20
45.759773
 30
0.0
 10
120.827489
 20
46.639607
 30
0.0
 10
123.455882
 20
47.439946
 30
0.0
 10
125.521792
 20
47.861039
 30
0.0
 10
127.358072
 20
47.898765
 30
0.0
 10
129.098946
 20
47.933571
 30
0.0
 10
130.708602
 20
47.758077
 30
0.0
 10
132.346198
 20
47.293537
 30
0.0
 10
134.177378
 20
46.544967
 30
0.0
 10
136.157571
 20
45.175392
 30
0.0
 10
137.593777
 20
43.847843
 30
0.0
 10
138.702047
 20
42.663990
 30
0.0
 10
139.149905
 20
42.334123
 30
0.0
 10
139.572691
 20
41.781770
 30
0.0
 10
139.596547
 20
42.263778
 30
0.0
 10
139.623066
 20
42.678953
 30
0.0
 10
139.624748
 20
43.119367
 30
0.0
 10
139.625730
 20
43.376623
 30
0.0
 11
138.844054
 21
45.740488
 31
0.0
 11
137.568682
 21
47.331923
 31
0.0
 11
136.725888
 21
48.773630
 31
0.0
 11
136.190313
 21
50.280061
 31
0.0
 11
135.943434
 21
51.876803
 31
0.0
 11
135.868586
 21
54.033875
 31
0.0
 11
135.971955
 21
56.572939
 31
0.0
 11
136.040953
 21
57.633742
 31
0.0
 11
136.090379
 21
58.610004
 31
0.0
 11
136.109529
 21
59.290372
 31
0.0
 11
136.099339
 21
59.852305
 31
0.0
 11
136.044751
 21
60.084658
 31
0.0
 11
135.912281
 21
60.130350
 31
0.0
 11
134.536129
 21
59.471854
 31
0.0
 11
132.289203
 21
58.217594
 31
0.0
 11
131.109551
 21
57.449408
 31
0.0
 11
131.163931
 21
57.271092
 31
0.0
 11
131.306494
 21
56.937936
 31
0.0
 11
131.506375
 21
56.522082
 31
0.0
 11
132.261250
 21
54.824156
 31
0.0
 11
132.494125
 21
53.697078
 31
0.0
 11
132.239540
 21
52.973646
 31
0.0
 11
132.037078
 21
52.773014
 31
0.0
 11
131.806206
 21
52.687529
 31
0.0
 11
131.418440
 21
52.669608
 31
0.0
 11
131.014554
 21
52.690117
 31
0.0
 11
130.751203
 21
52.803954
 31
0.0
 11
130.447093
 21
53.089583
 31
0.0
 11
130.130896
 21
53.436553
 31
0.0
 11
129.692813
 21
53.942452
 31
0.0
 11
129.227684
 21
54.497759
 31
0.0
 11
126.077267
 21
57.956844
 31
0.0
 11
122.969904
 21
60.588321
 31
0.0
 11
119.771149
 21
62.506040
 31
0.0
 11
118.051620
 21
63.247411
 31
0.0
 11
115.940735
 21
63.924177
 31
0.0
 11
112.840217
 21
64.728145
 31
0.0
 11
110.151417
 21
65.416689
 31
0.0
 11
108.415469
 21
65.952588
 31
0.0
 11
107.057444
 21
66.513342
 31
0.0
 11
106.622237
 21
66.707765
 31
0.0
 11
106.279790
 21
66.846439
 31
0.0
 11
106.104236
 21
66.899337
 31
0.0
 11
104.693977
 21
66.097095
 31
0.0
 11
102.283424
 21
64.583409
 31
0.0
 11
101.005846
 21
63.697836
 31
0.0
 11
101.060630
 21
63.464580
 31
0.0
 11
101.204254
 21
62.962967
 31
0.0
 11
101.405622
 21
62.301598
 31
0.0
 11
102.725118
 21
58.607994
 31
0.0
 11
104.258941
 21
55.191501
 31
0.0
 11
105.837739
 21
52.429324
 31
0.0
 11
107.686035
 21
50.069515
 31
0.0
 11
109.787770
 21
48.251135
 31
0.0
 11
112.414854
 21
46.738934
 31
0.0
 11
114.919190
 21
45.825984
 31
0.0
 11
117.477203
 21
45.828370
 31
0.0
 11
121.179390
 21
46.747118
 31
0.0
 11
123.786034
 21
47.485792
 31
0.0
 11
125.477464
 21
47.801534
 31
0.0
 11
127.346589
 21
47.898359
 31
0.0
 11
129.250247
 21
47.890171
 31
0.0
 11
130.688409
 21
47.720120
 31
0.0
 11
132.121947
 21
47.333717
 31
0.0
 11
134.109878
 21
46.489808
 31
0.0
 11
135.996936
 21
45.229119
 31
0.0
 11
137.991813
 21
43.412239
 31
0.0
 11
138.750181
 21
42.655047
 31
0.0
 11
139.310499
 21
42.113423
 31
0.0
 11
139.551461
 21
41.904608
 31
0.0
 11
139.588871
 21
42.104089
 31
0.0
 11
139.615553
 21
42.632942
 31
0.0
 11
139.625730
 21
43.376623
 31
0.0
  0
LWPOLYLINE
  5
11c
100
AcDbEntity
  8
Layer_1
 62
7
100
AcDbPolyline
 90
2
 70
0
 10
139.625730
 20
43.376623
 30
0.0
 10
139.625730
 20
43.376595
 30
0.0
  0
SPLINE
  5
11d
100
AcDbEntity
  8
Layer_1
 62
7
100
AcDbSpline
 70
0
 71
3
 72
25
 73
21
 74
19
 40
0.000000
 40
0.000000
 40
0.000000
 40
0.000000
 40
22.050182
 40
37.777165
 40
43.776223
 40
67.085580
 40
110.315326
 40
133.624494
 40
135.090543
 40
138.932818
 40
144.319805
 40
151.698901
 40
154.545449
 40
155.031830
 40
155.935364
 40
157.653482
 40
159.427357
 40
160.276255
 40
160.837359
 40
161.353291
 40
161.353291
 40
161.353291
 40
161.353291
 10
139.625730
 20
91.307185
 30
0.0
 10
139.693380
 20
98.821060
 30
0.0
 10
139.809278
 20
111.694101
 30
0.0
 10
139.218654
 20
124.939849
 30
0.0
 10
140.594660
 20
143.317671
 30
0.0
 10
112.425830
 20
103.772909
 30
0.0
 10
108.983510
 20
99.004286
 30
0.0
 10
68.119328
 20
71.588271
 30
0.0
 10
78.273160
 20
71.581142
 30
0.0
 10
81.750182
 20
71.545613
 30
0.0
 10
87.276180
 20
71.523175
 30
0.0
 10
92.703144
 20
71.624945
 30
0.0
 10
95.918920
 20
71.488240
 30
0.0
 10
97.617555
 20
71.682765
 30
0.0
 10
96.884594
 20
72.996451
 30
0.0
 10
96.740824
 20
74.236927
 30
0.0
 10
96.236626
 20
75.669508
 30
0.0
 10
95.910101
 20
76.669140
 30
0.0
 10
95.766556
 20
77.300498
 30
0.0
 10
95.773956
 20
77.660566
 30
0.0
 10
95.777502
 20
77.833049
 30
0.0
 11
139.625730
 21
91.307185
 31
0.0
 11
139.615544
 21
113.357365
 31
0.0
 11
139.588841
 21
129.084325
 31
0.0
 11
139.551402
 21
135.083266
 31
0.0
 11
123.019621
 21
118.650789
 31
0.0
 11
92.419479
 21
88.114870
 31
0.0
 11
75.952440
 21
71.617782
 31
0.0
 11
77.418015
 21
71.580490
 31
0.0
 11
81.260198
 21
71.553897
 31
0.0
 11
86.647175
 21
71.543755
 31
0.0
 11
94.026267
 21
71.551824
 31
0.0
 11
96.872394
 21
71.600777
 31
0.0
 11
97.341913
 21
71.727736
 31
0.0
 11
97.139946
 21
72.608408
 31
0.0
 11
96.672110
 21
74.261604
 31
0.0
 11
96.145500
 21
75.955509
 31
0.0
 11
95.894908
 21
76.766577
 31
0.0
 11
95.786985
 21
77.317204
 31
0.0
 11
95.777502
 21
77.833049
 31
0.0
  0
LWPOLYLINE
  5
11e
100
AcDbEntity
  8
Layer_1
 62
7
100
AcDbPolyline
 90
3
 70
0
 10
95.777502
 20
77.833049
 30
0.0
 10
95.807022
 20
78.510354
 30
0.0
 10
96.219828
 20
78.540355
 30
0.0
  0
SPLINE
  5
11f
100
AcDbEntity
  8
Layer_1
 62
7
100
AcDbSpline
 70
0
 71
3
 72
34
 73
30
 74
28
 40
0.000000
 40
0.000000
 40
0.000000
 40
0.000000
 40
0.310055
 40
0.670768
 40
1.171551
 40
4.784032
 40
8.922177
 40
13.883672
 40
15.099753
 40
16.666791
 40
18.245579
 40
25.131145
 40
30.173050
 40
34.460087
 40
39.076065
 40
43.188361
 40
47.362974
 40
49.046528
 40
51.434479
 40
53.747360
 40
55.752813
 40
57.502781
 40
58.851393
 40
60.424604
 40
62.026335
 40
62.878397
 40
68.068633
 40
82.986665
 40
106.654739
 40
106.654739
 40
106.654739
 40
106.654739
 10
96.219828
 20
78.540355
 30
0.0
 10
96.323776
 20
78.541044
 30
0.0
 10
96.548653
 20
78.542537
 30
0.0
 10
96.924418
 20
78.418013
 30
0.0
 10
98.259675
 20
77.759799
 30
0.0
 10
100.829827
 20
76.734587
 30
0.0
 10
104.996160
 20
75.884310
 30
0.0
 10
108.423615
 20
75.562526
 30
0.0
 10
111.001694
 20
75.430226
 30
0.0
 10
112.454071
 20
75.361676
 30
0.0
 10
115.795281
 20
75.230025
 30
0.0
 10
120.291782
 20
75.001484
 30
0.0
 10
125.653098
 20
74.111399
 30
0.0
 10
129.999990
 20
72.399017
 30
0.0
 10
133.700155
 20
70.024302
 30
0.0
 10
136.407832
 20
66.579706
 30
0.0
 10
137.464648
 20
63.336478
 30
0.0
 10
137.586062
 20
60.587066
 30
0.0
 10
137.586945
 20
58.458279
 30
0.0
 10
137.464214
 20
56.226109
 30
0.0
 10
137.333750
 20
54.205872
 30
0.0
 10
137.390704
 20
52.504325
 30
0.0
 10
137.583230
 20
50.951235
 30
0.0
 10
138.204941
 20
49.543532
 30
0.0
 10
138.726158
 20
48.377633
 30
0.0
 10
140.692229
 20
46.163444
 30
0.0
 10
138.195678
 20
59.469519
 30
0.0
 10
140.429926
 20
68.536343
 30
0.0
 10
139.931434
 20
82.650064
 30
0.0
 10
139.625668
 20
91.307185
 30
0.0
 11
96.219828
 21
78.540355
 31
0.0
 11
96.529590
 21
78.526872
 31
0.0
 11
96.876125
 21
78.426734
 31
0.0
 11
97.331784
 21
78.218988
 31
0.0
 11
100.693478
 21
76.896478
 31
0.0
 11
104.734799
 21
76.006552
 31
0.0
 11
109.670565
 21
75.501922
 31
0.0
 11
110.884909
 21
75.436948
 31
0.0
 11
112.450242
 21
75.363884
 31
0.0
 11
114.027678
 21
75.298553
 31
0.0
 11
120.896549
 21
74.819345
 31
0.0
 11
125.851110
 21
73.884933
 31
0.0
 11
129.840838
 21
72.316254
 31
0.0
 11
133.661620
 21
69.726104
 31
0.0
 11
136.182818
 21
66.477329
 31
0.0
 11
137.457166
 21
62.501976
 31
0.0
 11
137.565537
 21
60.821913
 31
0.0
 11
137.564588
 21
58.433962
 31
0.0
 11
137.454626
 21
56.123697
 31
0.0
 11
137.363232
 21
54.120327
 31
0.0
 11
137.424883
 21
52.371446
 31
0.0
 11
137.633874
 21
51.039125
 31
0.0
 11
138.194778
 21
49.569303
 31
0.0
 11
138.956780
 21
48.160440
 31
0.0
 11
139.531220
 21
47.531131
 31
0.0
 11
139.582281
 21
52.721117
 31
0.0
 11
139.614469
 21
67.639114
 31
0.0
 11
139.625668
 21
91.307185
 31
0.0
  0
LWPOLYLINE
  5
120
100
AcDbEntity
  8
Layer_1
 62
7
100
AcDbPolyline
 90
2
 70
0
 10
139.625668
 20
91.307185
 30
0.0
 10
139.625730
 20
91.307185
 30
0.0
  0
SPLINE
  5
121
100
AcDbEntity
  8
Layer_1
 62
7
100
AcDbSpline
 70
0
 71
3
 72
22
 73
18
 74
16
 40
0.000000
 40
0.000000
 40
0.000000
 40
0.000000
 40
0.276572
 40
0.884600
 40
1.694301
 40
7.628410
 40
13.618358
 40
19.824954
 40
24.728682
 40
29.552476
 40
34.318580
 40
34.922617
 40
35.387704
 40
35.613552
 40
35.852309
 40
36.725785
 40
38.551138
 40
38.551138
 40
38.551138
 40
38.551138
 10
7.186380
 20
52.899337
 30
0.0
 10
7.178283
 20
52.991247
 30
0.0
 10
7.152386
 20
53.285218
 30
0.0
 10
7.018564
 20
53.835701
 30
0.0
 10
6.436850
 20
56.214118
 30
0.0
 10
5.528527
 20
60.368943
 30
0.0
 10
4.922469
 20
66.393011
 30
0.0
 10
4.872362
 20
72.101402
 30
0.0
 10
5.232829
 20
77.400181
 30
0.0
 10
5.940484
 20
82.201797
 30
0.0
 10
6.637407
 20
85.481329
 30
0.0
 10
7.185866
 20
87.398168
 30
0.0
 10
7.236564
 20
87.786915
 30
0.0
 10
7.395226
 20
88.149331
 30
0.0
 10
6.829552
 20
88.239867
 30
0.0
 10
5.966901
 20
88.227149
 30
0.0
 10
5.036144
 20
88.237118
 30
0.0
 10
4.406626
 20
88.243860
 30
0.0
 11
7.186380
 21
52.899337
 31
0.0
 11
7.157791
 21
53.174427
 31
0.0
 11
7.034456
 21
53.769815
 31
0.0
 11
6.843076
 21
54.556574
 31
0.0
 11
5.644449
 21
60.368367
 31
0.0
 11
5.019426
 21
66.325617
 31
0.0
 11
4.957140
 21
72.531900
 31
0.0
 11
5.299411
 21
77.423669
 31
0.0
 11
5.990716
 21
82.197670
 31
0.0
 11
7.030345
 21
86.849005
 31
0.0
 11
7.180210
 21
87.434155
 31
0.0
 11
7.287101
 21
87.886793
 31
0.0
 11
7.327875
 21
88.108930
 31
0.0
 11
7.104496
 21
88.193231
 31
0.0
 11
6.231951
 21
88.233538
 31
0.0
 11
4.406626
 21
88.243860
 31
0.0
  0
LWPOLYLINE
  5
122
100
AcDbEntity
  8
Layer_1
 62
7
100
AcDbPolyline
 90
3
 70
0
 10
4.406626
 20
88.243860
 30
0.0
 10
1.485381
 20
88.243860
 30
0.0
 10
1.485381
 20
70.563823
 30
0.0
  0
SPLINE
  5
123
100
AcDbEntity
  8
Layer_1
 62
7
100
AcDbSpline
 70
0
 71
3
 72
16
 73
12
 74
10
 40
0.000000
 40
0.000000
 40
0.000000
 40
0.000000
 40
10.833008
 40
16.238407
 40
17.732024
 40
18.165376
 40
19.180613
 40
20.558400
 40
22.221437
 40
23.059074
 40
23.323443
 40
23.323443
 40
23.323443
 40
23.323443
 10
1.485381
 20
70.563823
 30
0.0
 10
1.306349
 20
66.758835
 30
0.0
 10
1.037986
 20
61.055254
 30
0.0
 10
2.087850
 20
56.254953
 30
0.0
 10
1.160975
 20
52.762998
 30
0.0
 10
2.268676
 20
52.825138
 30
0.0
 10
3.160933
 20
52.772731
 30
0.0
 10
4.538084
 20
52.768549
 30
0.0
 10
5.813057
 20
52.810452
 30
0.0
 10
6.754834
 20
52.747325
 30
0.0
 10
7.102883
 20
52.869925
 30
0.0
 10
7.186380
 20
52.899337
 30
0.0
 11
1.485381
 21
70.563823
 31
0.0
 11
1.495610
 21
59.730820
 31
0.0
 11
1.533345
 21
54.325553
 31
0.0
 11
1.609161
 21
52.833861
 31
0.0
 11
2.041722
 21
52.807706
 31
0.0
 11
3.056748
 21
52.786996
 31
0.0
 11
4.434493
 21
52.776231
 31
0.0
 11
6.097519
 21
52.782171
 31
0.0
 11
6.934319
 21
52.819606
 31
0.0
 11
7.186380
 21
52.899337
 31
0.0
  0
LWPOLYLINE
  5
124
100
AcDbEntity
  8
Layer_1
 62
7
100
AcDbPolyline
 90
2
 70
0
 10
7.186380
 20
52.899337
 30
0.0
 10
7.186380
 20
52.899337
 30
0.0
  0
SPLINE
  5
125
100
AcDbEntity
  8
Layer_1
 62
7
100
AcDbSpline
 70
0
 71
3
 72
40
 73
36
 74
34
 40
0.000000
 40
0.000000
 40
0.000000
 40
0.000000
 40
7.646451
 40
13.127623
 40
15.257038
 40
15.355668
 40
15.521366
 40
15.727368
 40
16.537475
 40
17.426762
 40
18.527691
 40
19.782102
 40
20.840409
 40
21.849800
 40
22.185062
 40
22.440788
 40
22.566864
 40
30.529242
 40
45.163398
 40
53.079203
 40
53.167858
 40
53.285730
 40
53.415506
 40
53.813774
 40
54.631061
 40
55.690443
 40
65.873120
 40
75.596200
 40
85.564992
 40
86.915498
 40
87.651271
 40
87.923182
 40
90.046666
 40
95.523672
 40
103.168542
 40
103.168542
 40
103.168542
 40
103.168542
 10
24.946139
 20
60.126229
 30
0.0
 10
27.341792
 20
61.186083
 30
0.0
 10
31.454711
 20
63.005667
 30
0.0
 10
35.039629
 20
65.950358
 30
0.0
 10
38.513251
 20
66.303196
 30
0.0
 10
38.581067
 20
67.118105
 30
0.0
 10
38.518909
 20
67.266606
 30
0.0
 10
38.330688
 20
67.609807
 30
0.0
 10
38.027461
 20
68.174776
 30
0.0
 10
37.824379
 20
69.094230
 30
0.0
 10
37.737714
 20
70.172720
 30
0.0
 10
37.735882
 20
71.312569
 30
0.0
 10
37.907689
 20
72.415714
 30
0.0
 10
38.227780
 20
73.156839
 30
0.0
 10
38.453522
 20
73.637459
 30
0.0
 10
38.551046
 20
73.859528
 30
0.0
 10
38.727146
 20
76.665667
 30
0.0
 10
27.256546
 20
77.819538
 30
0.0
 10
20.954453
 20
81.048034
 30
0.0
 10
13.397074
 20
89.146206
 30
0.0
 10
11.159189
 20
87.558534
 30
0.0
 10
11.102871
 20
87.457961
 30
0.0
 10
11.038110
 20
87.253053
 30
0.0
 10
10.944321
 20
86.813541
 30
0.0
 10
10.751453
 20
86.080532
 30
0.0
 10
9.765920
 20
82.183509
 30
0.0
 10
8.464931
 20
75.278724
 30
0.0
 10
8.501266
 20
65.279940
 30
0.0
 10
9.664812
 20
58.299684
 30
0.0
 10
10.819831
 20
54.464473
 30
0.0
 10
10.985607
 20
53.685435
 30
0.0
 10
11.707733
 20
52.845023
 30
0.0
 10
14.351647
 20
55.666217
 30
0.0
 10
18.675632
 20
56.605620
 30
0.0
 10
22.637762
 20
58.830186
 30
0.0
 10
24.946119
 20
60.126229
 30
0.0
 11
24.946139
 21
60.126229
 31
0.0
 11
31.784210
 21
63.548070
 31
0.0
 11
36.678327
 21
66.016038
 31
0.0
 11
38.568940
 21
66.995829
 31
0.0
 11
38.573260
 21
67.094364
 31
0.0
 11
38.522234
 21
67.252009
 31
0.0
 11
38.426906
 21
67.434628
 31
0.0
 11
38.073513
 21
68.163590
 31
0.0
 11
37.857931
 21
69.026351
 31
0.0
 11
37.755282
 21
70.122484
 31
0.0
 11
37.771329
 21
71.376793
 31
0.0
 11
37.954360
 21
72.419152
 31
0.0
 11
38.323526
 21
73.358613
 31
0.0
 11
38.463780
 21
73.663128
 31
0.0
 11
38.548998
 21
73.904237
 31
0.0
 11
38.560731
 21
74.029766
 31
0.0
 11
31.461380
 21
77.635135
 31
0.0
 11
18.357999
 21
84.151263
 31
0.0
 11
11.240575
 21
87.615690
 31
0.0
 11
11.171352
 21
87.560303
 31
0.0
 11
11.108635
 21
87.460501
 31
0.0
 11
11.066004
 21
87.337927
 31
0.0
 11
10.971567
 21
86.951017
 31
0.0
 11
10.773066
 21
86.158202
 31
0.0
 11
10.513472
 21
85.131118
 31
0.0
 11
8.765983
 21
75.099508
 31
0.0
 11
8.760594
 21
65.376430
 31
0.0
 11
10.497075
 21
55.560043
 31
0.0
 11
10.856425
 21
54.258224
 31
0.0
 11
11.104349
 21
53.565478
 31
0.0
 11
11.283961
 21
53.361335
 31
0.0
 11
13.194399
 21
54.288379
 31
0.0
 11
18.102655
 21
56.718734
 31
0.0
 11
24.946119
 21
60.126229
 31
0.0
  0
LWPOLYLINE
  5
126
100
AcDbEntity
  8
Layer_1
 62
7
100
AcDbPolyline
 90
2
 70
0
 10
24.946119
 20
60.126229
 30
0.0
 10
24.946139
 20
60.126229
 30
0.0
  0
SPLINE
  5
127
100
AcDbEntity
  8
Layer_1
 62
7
100
AcDbSpline
 70
0
 71
3
 72
31
 73
27
 74
25
 40
0.000000
 40
0.000000
 40
0.000000
 40
0.000000
 40
0.214251
 40
0.735292
 40
1.587974
 40
7.438861
 40
13.299084
 40
19.125254
 40
23.682450
 40
28.157287
 40
32.799031
 40
33.723002
 40
34.154682
 40
34.353946
 40
34.608869
 40
35.231899
 40
36.598862
 40
42.868234
 40
48.901753
 40
54.566186
 40
58.362010
 40
61.991463
 40
65.594156
 40
67.923571
 40
68.905058
 40
69.234729
 40
69.234729
 40
69.234729
 40
69.234729
 10
9.172123
 20
53.758986
 30
0.0
 10
9.180485
 20
53.830276
 30
0.0
 10
9.209183
 20
54.074937
 30
0.0
 10
9.067843
 20
54.595645
 30
0.0
 10
8.530252
 20
56.929737
 30
0.0
 10
7.622639
 20
61.036897
 30
0.0
 10
7.048498
 20
66.863023
 30
0.0
 10
7.019125
 20
72.283705
 30
0.0
 10
7.420498
 20
77.231470
 30
0.0
 10
8.039361
 20
81.721820
 30
0.0
 10
8.912477
 20
85.052783
 30
0.0
 10
9.255656
 20
86.920935
 30
0.0
 10
9.445118
 20
87.490853
 30
0.0
 10
9.155195
 20
87.708383
 30
0.0
 10
8.823158
 20
87.433840
 30
0.0
 10
8.690704
 20
86.695941
 30
0.0
 10
7.900688
 20
84.055650
 30
0.0
 10
7.073687
 20
79.563882
 30
0.0
 10
6.369888
 20
73.608770
 30
0.0
 10
6.338974
 20
68.439285
 30
0.0
 10
6.676467
 20
64.069845
 30
0.0
 10
7.186527
 20
60.481424
 30
0.0
 10
7.754111
 20
57.169925
 30
0.0
 10
8.449917
 20
55.322982
 30
0.0
 10
8.583039
 20
53.635919
 30
0.0
 10
9.053766
 20
53.734259
 30
0.0
 10
9.172123
 20
53.758986
 30
0.0
 11
9.172123
 21
53.758986
 31
0.0
 11
9.189216
 21
53.972554
 31
0.0
 11
9.100246
 21
54.485942
 31
0.0
 11
8.902409
 21
55.315357
 31
0.0
 11
7.738782
 21
61.049365
 31
0.0
 11
7.138275
 21
66.878739
 31
0.0
 11
7.111052
 21
72.704846
 31
0.0
 11
7.464676
 21
77.248300
 31
0.0
 11
8.123399
 21
81.674388
 31
0.0
 11
9.120652
 21
86.207740
 31
0.0
 11
9.324524
 21
87.108938
 31
0.0
 11
9.340790
 21
87.540311
 31
0.0
 11
9.175075
 21
87.650968
 31
0.0
 11
8.955070
 21
87.522192
 31
0.0
 11
8.727448
 21
86.942230
 31
0.0
 11
8.378210
 21
85.620633
 31
0.0
 11
7.127553
 21
79.477272
 31
0.0
 11
6.471119
 21
73.479569
 31
0.0
 11
6.429460
 21
67.815289
 31
0.0
 11
6.720474
 21
64.030637
 31
0.0
 11
7.211643
 21
60.434572
 31
0.0
 11
7.920019
 21
56.902207
 31
0.0
 11
8.480562
 21
54.641242
 31
0.0
 11
8.843780
 21
53.729436
 31
0.0
 11
9.172123
 21
53.758986
 31
0.0
  0
LWPOLYLINE
  5
128
100
AcDbEntity
  8
Layer_1
 62
7
100
AcDbPolyline
 90
2
 70
0
 10
9.172123
 20
53.758986
 30
0.0
 10
9.172123
 20
53.758986
 30
0.0
  0
SPLINE
  5
129
100
AcDbEntity
  8
Layer_1
 62
7
100
AcDbSpline
 70
0
 71
3
 72
25
 73
21
 74
19
 40
0.000000
 40
0.000000
 40
0.000000
 40
0.000000
 40
2.174552
 40
4.451810
 40
6.536507
 40
8.855413
 40
11.310443
 40
13.780035
 40
15.220492
 40
15.345459
 40
16.929705
 40
20.550499
 40
24.207784
 40
28.504505
 40
29.615781
 40
30.399267
 40
30.687355
 40
30.790409
 40
30.993047
 40
31.255042
 40
31.255042
 40
31.255042
 40
31.255042
 10
128.871596
 20
57.825582
 30
0.0
 10
128.453485
 20
58.419179
 30
0.0
 10
127.597514
 20
59.634410
 30
0.0
 10
126.074670
 20
61.198410
 30
0.0
 10
124.331859
 20
62.620387
 30
0.0
 10
122.371266
 20
63.692579
 30
0.0
 10
119.962677
 20
64.816463
 30
0.0
 10
118.546473
 20
64.895852
 30
0.0
 10
116.157710
 20
66.123266
 30
0.0
 10
116.562805
 20
65.058580
 30
0.0
 10
118.794613
 20
65.144892
 30
0.0
 10
121.168824
 20
63.610356
 30
0.0
 10
124.566094
 20
61.583432
 30
0.0
 10
126.663787
 20
59.608969
 30
0.0
 10
128.267390
 20
58.015346
 30
0.0
 10
128.648881
 20
57.721726
 30
0.0
 10
129.145604
 20
57.214033
 30
0.0
 10
129.078435
 20
57.462277
 30
0.0
 10
128.997028
 20
57.611815
 30
0.0
 10
128.916822
 20
57.748506
 30
0.0
 10
128.871596
 20
57.825582
 30
0.0
 11
128.871596
 21
57.825582
 31
0.0
 11
127.574030
 21
59.570575
 31
0.0
 11
125.996648
 21
61.213064
 31
0.0
 11
124.368292
 21
62.514761
 31
0.0
 11
122.357622
 21
63.669981
 31
0.0
 11
120.102171
 21
64.639574
 31
0.0
 11
117.741130
 21
65.363709
 31
0.0
 11
116.334091
 21
65.672184
 31
0.0
 11
116.377771
 21
65.555098
 31
0.0
 11
117.869132
 21
65.020612
 31
0.0
 11
121.205173
 21
63.613139
 31
0.0
 11
124.273975
 21
61.623618
 31
0.0
 11
127.495125
 21
58.780029
 31
0.0
 11
128.297388
 21
58.011063
 31
0.0
 11
128.877590
 21
57.484550
 31
0.0
 11
129.110119
 21
57.314478
 31
0.0
 11
129.088648
 21
57.415271
 31
0.0
 11
129.002957
 21
57.598899
 31
0.0
 11
128.871596
 21
57.825582
 31
0.0
  0
LWPOLYLINE
  5
12a
100
AcDbEntity
  8
Layer_1
 62
7
100
AcDbPolyline
 90
2
 70
0
 10
128.871596
 20
57.825582
 30
0.0
 10
128.871596
 20
57.825582
 30
0.0
  0
SPLINE
  5
12b
100
AcDbEntity
  8
Layer_1
 62
7
100
AcDbSpline
 70
0
 71
3
 72
40
 73
36
 74
34
 40
0.000000
 40
0.000000
 40
0.000000
 40
0.000000
 40
1.915785
 40
2.999903
 40
3.384267
 40
4.088462
 40
5.204659
 40
6.257695
 40
6.807701
 40
7.397949
 40
7.901688
 40
11.628709
 40
16.027368
 40
20.897991
 40
22.773922
 40
24.237834
 40
24.894842
 40
26.623929
 40
29.699806
 40
31.388926
 40
31.607186
 40
32.086800
 40
32.724800
 40
35.195891
 40
37.510038
 40
39.654608
 40
41.194980
 40
43.031411
 40
44.682129
 40
45.236134
 40
45.645794
 40
45.824501
 40
46.313489
 40
47.522020
 40
49.188754
 40
49.188754
 40
49.188754
 40
49.188754
 10
132.986230
 20
60.785190
 30
0.0
 10
133.551866
 20
61.099496
 30
0.0
 10
134.437588
 20
61.591663
 30
0.0
 10
135.358077
 20
62.143090
 30
0.0
 10
136.030287
 20
62.598157
 30
0.0
 10
135.598517
 20
63.412340
 30
0.0
 10
135.411967
 20
64.274664
 30
0.0
 10
135.057236
 20
65.135172
 30
0.0
 10
134.726272
 20
65.783907
 30
0.0
 10
134.458729
 20
66.262976
 30
0.0
 10
133.615057
 20
67.631814
 30
0.0
 10
131.446462
 20
69.627926
 30
0.0
 10
127.608392
 20
71.700193
 30
0.0
 10
124.045054
 20
72.753736
 30
0.0
 10
121.306512
 20
73.241367
 30
0.0
 10
120.060931
 20
73.390070
 30
0.0
 10
118.596243
 20
73.560300
 30
0.0
 10
118.901368
 20
70.889545
 30
0.0
 10
118.780432
 20
69.447323
 30
0.0
 10
117.713903
 20
67.152997
 30
0.0
 10
118.498867
 20
66.865290
 30
0.0
 10
118.911913
 20
66.723764
 30
0.0
 10
120.062572
 20
66.374462
 30
0.0
 10
121.770452
 20
65.786865
 30
0.0
 10
123.858854
 20
64.788026
 30
0.0
 10
125.568579
 20
63.734816
 30
0.0
 10
126.959743
 20
62.525041
 30
0.0
 10
128.154080
 20
61.344829
 30
0.0
 10
129.042677
 20
60.340591
 30
0.0
 10
129.585899
 20
59.644899
 30
0.0
 10
129.829175
 20
59.374238
 30
0.0
 10
130.097719
 20
59.078194
 30
0.0
 10
130.695199
 20
59.666416
 30
0.0
 10
131.650482
 20
59.984139
 30
0.0
 10
132.496063
 20
60.491236
 30
0.0
 10
132.986230
 20
60.785190
 30
0.0
 11
132.986230
 21
60.785190
 31
0.0
 11
134.654681
 21
61.726734
 31
0.0
 11
135.578338
 21
62.294333
 31
0.0
 11
135.862766
 21
62.552861
 31
0.0
 11
135.714863
 21
63.241348
 31
0.0
 11
135.370229
 21
64.303009
 31
0.0
 11
134.977471
 21
65.280059
 31
0.0
 11
134.729203
 21
65.770843
 31
0.0
 11
134.440747
 21
66.285805
 31
0.0
 11
134.174552
 21
66.713465
 31
0.0
 11
131.540000
 21
69.349716
 31
0.0
 11
127.696843
 21
71.489424
 31
0.0
 11
123.038986
 21
72.913267
 31
0.0
 11
121.192164
 21
73.242460
 31
0.0
 11
119.739952
 21
73.427175
 31
0.0
 11
119.083032
 21
73.416441
 31
0.0
 11
118.779785
 21
71.714154
 31
0.0
 11
118.366635
 21
68.666149
 31
0.0
 11
118.211154
 21
66.984201
 31
0.0
 11
118.411579
 21
66.897787
 31
0.0
 11
118.865295
 21
66.742316
 31
0.0
 11
119.474073
 21
66.551442
 31
0.0
 11
121.802581
 21
65.724192
 31
0.0
 11
123.890300
 21
64.725840
 31
0.0
 11
125.699540
 21
63.574392
 31
0.0
 11
126.875030
 21
62.578918
 31
0.0
 11
128.181107
 21
61.287932
 31
0.0
 11
129.268869
 21
60.046304
 31
0.0
 11
129.617539
 21
59.615780
 31
0.0
 11
129.888714
 21
59.308719
 31
0.0
 11
130.023687
 21
59.191594
 31
0.0
 11
130.461203
 21
59.409971
 31
0.0
 11
131.525524
 21
59.982481
 31
0.0
 11
132.986230
 21
60.785190
 31
0.0
  0
LWPOLYLINE
  5
12c
100
AcDbEntity
  8
Layer_1
 62
7
100
AcDbPolyline
 90
2
 70
0
 10
132.986230
 20
60.785190
 30
0.0
 10
132.986230
 20
60.785190
 30
0.0
  0
SPLINE
  5
12d
100
AcDbEntity
  8
Layer_1
 62
7
100
AcDbSpline
 70
0
 71
3
 72
55
 73
51
 74
49
 40
0.000000
 40
0.000000
 40
0.000000
 40
0.000000
 40
1.055316
 40
1.836972
 40
2.177359
 40
2.358725
 40
2.751538
 40
3.277546
 40
4.428856
 40
5.120102
 40
5.801128
 40
6.133780
 40
6.392788
 40
6.787657
 40
7.189144
 40
7.472068
 40
7.870869
 40
9.659941
 40
11.704313
 40
14.012214
 40
16.365191
 40
18.820512
 40
20.006965
 40
21.522437
 40
24.330012
 40
26.088506
 40
26.165499
 40
26.267594
 40
26.387551
 40
27.023901
 40
28.475451
 40
30.428158
 40
36.575907
 40
40.916860
 40
44.532881
 40
44.991054
 40
45.336065
 40
45.496429
 40
45.616517
 40
45.878074
 40
46.231418
 40
47.862724
 40
49.956215
 40
52.579460
 40
54.845363
 40
55.846997
 40
56.089908
 40
56.417764
 40
57.191712
 40
58.244248
 40
58.244248
 40
58.244248
 40
58.244248
 10
102.440043
 20
66.946129
 30
0.0
 10
102.752550
 20
67.130075
 30
0.0
 10
103.296526
 20
67.450266
 30
0.0
 10
103.778353
 20
67.872398
 30
0.0
 10
104.318932
 20
68.094705
 30
0.0
 10
104.130146
 20
68.400216
 30
0.0
 10
103.917884
 20
68.668806
 30
0.0
 10
103.444921
 20
69.191941
 30
0.0
 10
102.898226
 20
69.737024
 30
0.0
 10
102.562283
 20
70.604028
 30
0.0
 10
102.919766
 20
71.110486
 30
0.0
 10
103.197192
 20
71.434236
 30
0.0
 10
103.516010
 20
71.556538
 30
0.0
 10
103.869569
 20
71.535995
 30
0.0
 10
104.233281
 20
71.557053
 30
0.0
 10
104.577497
 20
71.412585
 30
0.0
 10
105.131258
 20
70.789385
 30
0.0
 10
106.268465
 20
69.939776
 30
0.0
 10
108.123280
 20
69.037135
 30
0.0
 10
110.258966
 20
68.417493
 30
0.0
 10
112.650752
 20
67.920409
 30
0.0
 10
114.430991
 20
67.787386
 30
0.0
 10
116.541877
 20
67.121407
 30
0.0
 10
116.341262
 20
69.657079
 30
0.0
 10
116.663197
 20
71.327414
 30
0.0
 10
117.232081
 20
72.943574
 30
0.0
 10
117.020773
 20
73.571374
 30
0.0
 10
116.933135
 20
73.629984
 30
0.0
 10
116.663386
 20
73.723121
 30
0.0
 10
115.910070
 20
73.689692
 30
0.0
 10
114.578357
 20
73.811400
 30
0.0
 10
111.387344
 20
73.906195
 30
0.0
 10
107.259938
 20
74.120404
 30
0.0
 10
102.551367
 20
74.687314
 30
0.0
 10
99.898402
 20
75.433829
 30
0.0
 10
98.459588
 20
75.945618
 30
0.0
 10
98.187460
 20
75.997944
 30
0.0
 10
97.917342
 20
76.088955
 30
0.0
 10
97.921683
 20
75.858870
 30
0.0
 10
97.961631
 20
75.641950
 30
0.0
 10
98.156271
 20
74.897887
 30
0.0
 10
98.529270
 20
73.610924
 30
0.0
 10
99.050756
 20
71.545876
 30
0.0
 10
99.558384
 20
69.298856
 30
0.0
 10
100.122264
 20
67.354087
 30
0.0
 10
100.256337
 20
66.270799
 30
0.0
 10
100.608294
 20
65.732526
 30
0.0
 10
101.021183
 20
66.152630
 30
0.0
 10
101.617082
 20
66.404780
 30
0.0
 10
102.139178
 20
66.748218
 30
0.0
 10
102.440043
 20
66.946129
 30
0.0
 11
102.440043
 21
66.946129
 31
0.0
 11
103.332193
 21
67.509831
 31
0.0
 11
103.981342
 21
67.945253
 31
0.0
 11
104.246945
 21
68.158133
 31
0.0
 11
104.174566
 21
68.324431
 31
0.0
 11
103.937614
 21
68.637729
 31
0.0
 11
103.587398
 21
69.030199
 31
0.0
 11
102.862316
 21
69.924499
 31
0.0
 11
102.680284
 21
70.591346
 31
0.0
 11
102.996613
 21
71.194449
 31
0.0
 11
103.232918
 21
71.428579
 31
0.0
 11
103.473318
 21
71.524979
 31
0.0
 11
103.867740
 21
71.543755
 31
0.0
 11
104.268709
 21
71.523360
 31
0.0
 11
104.529678
 21
71.414083
 31
0.0
 11
104.822907
 21
71.143790
 31
0.0
 11
106.227687
 21
70.035921
 31
0.0
 11
108.059522
 21
69.128267
 31
0.0
 11
110.264716
 21
68.447439
 31
0.0
 11
112.571288
 21
67.982439
 31
0.0
 11
114.993768
 21
67.582193
 31
0.0
 11
116.174994
 21
67.470950
 31
0.0
 11
116.435778
 21
68.963816
 31
0.0
 11
116.838861
 21
71.742304
 31
0.0
 11
117.047953
 21
73.488323
 31
0.0
 11
117.017420
 21
73.559003
 31
0.0
 11
116.937375
 21
73.622376
 31
0.0
 11
116.825147
 21
73.664740
 31
0.0
 11
116.190467
 21
73.710813
 31
0.0
 11
114.740753
 21
73.783804
 31
0.0
 11
112.789863
 21
73.867996
 31
0.0
 11
106.653036
 21
74.234302
 31
0.0
 11
102.353338
 21
74.831352
 31
0.0
 11
98.869731
 21
75.800936
 31
0.0
 11
98.434024
 21
75.942648
 31
0.0
 11
98.100112
 21
76.029453
 31
0.0
 11
97.940283
 21
76.042547
 31
0.0
 11
97.922301
 21
75.923813
 31
0.0
 11
97.960236
 21
75.665021
 31
0.0
 11
98.045834
 21
75.322203
 31
0.0
 11
98.480343
 21
73.749828
 31
0.0
 11
98.998456
 21
71.721463
 31
0.0
 11
99.616768
 21
69.172129
 31
0.0
 11
100.152885
 21
66.970563
 31
0.0
 11
100.434966
 21
66.009469
 31
0.0
 11
100.597883
 21
65.829291
 31
0.0
 11
100.881242
 21
65.994206
 31
0.0
 11
101.543055
 21
66.395454
 31
0.0
 11
102.440043
 21
66.946129
 31
0.0
  0
LWPOLYLINE
  5
12e
100
AcDbEntity
  8
Layer_1
 62
7
100
AcDbPolyline
 90
2
 70
0
 10
102.440043
 20
66.946129
 30
0.0
 10
102.440043
 20
66.946129
 30
0.0
  0
SPLINE
  5
12f
100
AcDbEntity
  8
Layer_1
 62
7
100
AcDbSpline
 70
0
 71
3
 72
25
 73
21
 74
19
 40
0.000000
 40
0.000000
 40
0.000000
 40
0.000000
 40
0.926088
 40
1.599185
 40
1.876052
 40
2.865993
 40
4.651192
 40
5.681104
 40
6.091026
 40
6.752297
 40
7.353687
 40
7.912831
 40
8.590703
 40
9.167639
 40
9.320773
 40
9.438551
 40
9.496873
 40
9.767544
 40
10.438055
 40
11.363370
 40
11.363370
 40
11.363370
 40
11.363370
 10
43.916970
 20
69.590721
 30
0.0
 10
44.197709
 20
69.732590
 30
0.0
 10
44.682494
 20
69.977573
 30
0.0
 10
45.185381
 20
70.258837
 30
0.0
 10
45.852032
 20
70.652252
 30
0.0
 10
44.110484
 20
71.196834
 30
0.0
 10
43.466026
 20
71.507438
 30
0.0
 10
42.248200
 20
72.443254
 30
0.0
 10
41.816637
 20
71.773477
 30
0.0
 10
41.598005
 20
71.291863
 30
0.0
 10
41.376615
 20
70.703564
 30
0.0
 10
41.466945
 20
70.082422
 30
0.0
 10
41.660017
 20
69.511937
 30
0.0
 10
41.886342
 20
69.089888
 30
0.0
 10
42.090234
 20
68.891601
 30
0.0
 10
42.168750
 20
68.817416
 30
0.0
 10
42.299228
 20
68.730566
 30
0.0
 10
42.609009
 20
69.019938
 30
0.0
 10
43.162029
 20
69.181471
 30
0.0
 10
43.639890
 20
69.440517
 30
0.0
 10
43.916970
 20
69.590721
 30
0.0
 11
43.916970
 21
69.590721
 31
0.0
 11
44.740369
 21
70.014576
 31
0.0
 11
45.327647
 21
70.343460
 31
0.0
 11
45.551660
 21
70.506165
 31
0.0
 11
44.705973
 21
71.020748
 31
0.0
 11
43.102350
 21
71.805180
 31
0.0
 11
42.140954
 21
72.174550
 31
0.0
 11
41.879979
 21
71.858436
 31
0.0
 11
41.593361
 21
71.262508
 31
0.0
 11
41.424665
 21
70.685263
 31
0.0
 11
41.475594
 21
70.128443
 31
0.0
 11
41.690649
 21
69.485589
 31
0.0
 11
41.990820
 21
68.992890
 31
0.0
 11
42.098563
 21
68.884072
 31
0.0
 11
42.187148
 21
68.806456
 31
0.0
 11
42.237398
 21
68.776849
 31
0.0
 11
42.484022
 21
68.888379
 31
0.0
 11
43.087422
 21
69.180769
 31
0.0
 11
43.916970
 21
69.590721
 31
0.0
  0
LWPOLYLINE
  5
130
100
AcDbEntity
  8
Layer_1
 62
7
100
AcDbPolyline
 90
2
 70
0
 10
43.916970
 20
69.590721
 30
0.0
 10
43.916970
 20
69.590721
 30
0.0
  0
SPLINE
  5
131
100
AcDbEntity
  8
Layer_1
 62
7
100
AcDbSpline
 70
0
 71
3
 72
13
 73
9
 74
7
 40
0.000000
 40
0.000000
 40
0.000000
 40
0.000000
 40
23.310351
 40
66.473307
 40
89.702708
 40
92.836451
 40
100.984232
 40
112.382244
 40
112.382244
 40
112.382244
 40
112.382244
 10
65.059650
 20
71.667312
 30
0.0
 10
59.412243
 20
77.587396
 30
0.0
 10
43.307732
 20
94.469489
 30
0.0
 10
27.033405
 20
103.650483
 30
0.0
 10
1.141665
 20
142.932106
 30
0.0
 10
1.605531
 20
129.948989
 30
0.0
 10
1.442504
 20
122.788101
 30
0.0
 10
1.469587
 20
116.189880
 30
0.0
 10
1.485381
 20
112.342167
 30
0.0
 11
65.059650
 21
71.667312
 31
0.0
 11
48.614796
 21
88.188185
 31
0.0
 11
18.057909
 21
118.672893
 31
0.0
 11
1.555502
 21
135.021460
 31
0.0
 11
1.520179
 21
131.887916
 31
0.0
 11
1.494989
 21
123.740174
 31
0.0
 11
1.485381
 21
112.342167
 31
0.0
  0
LWPOLYLINE
  5
132
100
AcDbEntity
  8
Layer_1
 62
7
100
AcDbPolyline
 90
3
 70
0
 10
1.485381
 20
112.342167
 30
0.0
 10
1.485381
 20
89.732836
 30
0.0
 10
5.322612
 20
89.683617
 30
0.0
  0
SPLINE
  5
133
100
AcDbEntity
  8
Layer_1
 62
7
100
AcDbSpline
 70
0
 71
3
 72
37
 73
33
 74
31
 40
0.000000
 40
0.000000
 40
0.000000
 40
0.000000
 40
2.000853
 40
3.557446
 40
4.332787
 40
4.637903
 40
4.962407
 40
5.236851
 40
6.229230
 40
10.706723
 40
21.957074
 40
30.255361
 40
36.272636
 40
38.706227
 40
38.955755
 40
39.144034
 40
39.368835
 40
39.555663
 40
39.728726
 40
39.860026
 40
40.062881
 40
40.182168
 40
40.392508
 40
40.568502
 40
40.780137
 40
41.057169
 40
41.322019
 40
41.580290
 40
41.785282
 40
42.276248
 40
43.320452
 40
44.777942
 40
44.777942
 40
44.777942
 40
44.777942
 10
5.322612
 20
89.683617
 30
0.0
 10
5.989494
 20
89.674262
 30
0.0
 10
7.175185
 20
89.657629
 30
0.0
 10
8.619432
 20
89.643856
 30
0.0
 10
9.498148
 20
89.620401
 30
0.0
 10
9.966652
 20
89.624874
 30
0.0
 10
10.267409
 20
89.636776
 30
0.0
 10
10.796014
 20
89.734965
 30
0.0
 10
12.611027
 20
88.846611
 30
0.0
 10
17.518955
 20
86.521768
 30
0.0
 10
24.734864
 20
82.832991
 30
0.0
 10
32.361679
 20
79.091153
 30
0.0
 10
37.314087
 20
76.484533
 30
0.0
 10
39.953341
 20
75.303364
 30
0.0
 10
40.772028
 20
74.785622
 30
0.0
 10
40.892761
 20
74.590177
 30
0.0
 10
40.902896
 20
74.385209
 30
0.0
 10
40.883857
 20
74.191929
 30
0.0
 10
40.835965
 20
74.032103
 30
0.0
 10
40.744527
 20
73.891479
 30
0.0
 10
40.588104
 20
73.801235
 30
0.0
 10
40.645533
 20
73.597530
 30
0.0
 10
40.832435
 20
73.560064
 30
0.0
 10
41.028005
 20
73.542306
 30
0.0
 10
41.243259
 20
73.621240
 30
0.0
 10
41.452304
 20
73.757878
 30
0.0
 10
41.683950
 20
73.893015
 30
0.0
 10
41.911112
 20
73.977441
 30
0.0
 10
42.230789
 20
74.042660
 30
0.0
 10
42.771394
 20
73.750578
 30
0.0
 10
43.676820
 20
73.383239
 30
0.0
 10
44.423479
 20
73.001411
 30
0.0
 10
44.858483
 20
72.778957
 30
0.0
 11
5.322612
 21
89.683617
 31
0.0
 11
7.323291
 21
89.657236
 31
0.0
 11
8.879732
 21
89.635434
 31
0.0
 11
9.654972
 21
89.622939
 31
0.0
 11
9.960070
 21
89.626288
 31
0.0
 11
10.283976
 21
89.645968
 31
0.0
 11
10.556567
 21
89.677803
 31
0.0
 11
11.505808
 21
89.388390
 31
0.0
 11
15.539574
 21
87.445024
 31
0.0
 11
25.608421
 21
82.426188
 31
0.0
 11
33.029457
 21
78.712729
 31
0.0
 11
38.406567
 21
76.011933
 31
0.0
 11
40.575634
 21
74.908521
 31
0.0
 11
40.774855
 21
74.758273
 31
0.0
 11
40.871920
 21
74.596942
 31
0.0
 11
40.897466
 21
74.373597
 31
0.0
 11
40.877111
 21
74.187882
 31
0.0
 11
40.823748
 21
74.023251
 31
0.0
 11
40.748929
 21
73.915353
 31
0.0
 11
40.617118
 21
73.761158
 31
0.0
 11
40.647014
 21
73.645678
 31
0.0
 11
40.840254
 21
73.562604
 31
0.0
 11
41.016093
 21
73.555227
 31
0.0
 11
41.217824
 21
73.619209
 31
0.0
 11
41.457395
 21
73.758325
 31
0.0
 11
41.688870
 21
73.887027
 31
0.0
 11
41.931050
 21
73.976765
 31
0.0
 11
42.133514
 21
74.008853
 31
0.0
 11
42.598249
 21
73.850519
 31
0.0
 11
43.549999
 21
73.420945
 31
0.0
 11
44.858483
 21
72.778957
 31
0.0
  0
LWPOLYLINE
  5
134
100
AcDbEntity
  8
Layer_1
 62
7
100
AcDbPolyline
 90
3
 70
0
 10
44.858483
 20
72.778957
 30
0.0
 10
47.284603
 20
71.554367
 30
0.0
 10
56.172128
 20
71.549005
 30
0.0
  0
LWPOLYLINE
  5
135
100
AcDbEntity
  8
Layer_1
 62
7
100
AcDbPolyline
 90
2
 70
0
 10
65.059650
 20
71.667284
 30
0.0
 10
65.059650
 20
71.667312
 30
0.0
  0
LWPOLYLINE
  5
136
100
AcDbEntity
  8
Layer_1
 62
7
100
AcDbPolyline
 90
14
 70
0
 10
69.614819
 20
72.605955
 30
0.0
 10
69.614819
 20
73.668211
 30
0.0
 10
36.565165
 20
106.648531
 30
0.0
 10
3.515510
 20
139.628850
 30
0.0
 10
2.500449
 20
139.628850
 30
0.0
 10
1.485381
 20
139.628850
 30
0.0
 10
1.485381
 20
138.555870
 30
0.0
 10
1.485381
 20
137.482861
 30
0.0
 10
34.485577
 20
104.508355
 30
0.0
 10
67.485774
 20
71.533877
 30
0.0
 10
68.550296
 20
71.538957
 30
0.0
 10
69.614819
 20
71.544037
 30
0.0
 10
69.614819
 20
72.606265
 30
0.0
 10
69.614819
 20
72.605955
 30
0.0
  0
SPLINE
  5
137
100
AcDbEntity
  8
Layer_1
 62
7
100
AcDbSpline
 70
0
 71
3
 72
10
 73
6
 74
4
 40
0.000000
 40
0.000000
 40
0.000000
 40
0.000000
 40
5.437091
 40
8.150052
 40
8.891584
 40
8.891584
 40
8.891584
 40
8.891584
 10
56.172128
 20
71.549005
 30
0.0
 10
57.983262
 20
71.565921
 30
0.0
 10
60.698103
 20
71.591279
 30
0.0
 10
63.668985
 20
71.511733
 30
0.0
 10
64.813888
 20
71.639794
 30
0.0
 10
65.059650
 20
71.667284
 30
0.0
 11
56.172128
 21
71.549005
 31
0.0
 11
61.609214
 21
71.556019
 31
0.0
 11
64.321935
 21
71.592141
 31
0.0
 11
65.059650
 21
71.667284
 31
0.0
  0
LWPOLYLINE
  5
138
100
AcDbEntity
  8
Layer_1
 62
7
100
AcDbPolyline
 90
14
 70
0
 10
106.575964
 20
104.523962
 30
0.0
 10
139.625730
 20
137.504169
 30
0.0
 10
139.625730
 20
138.566509
 30
0.0
 10
139.625730
 20
139.628850
 30
0.0
 10
138.660293
 20
139.628850
 30
0.0
 10
137.694845
 20
139.628850
 30
0.0
 10
104.645087
 20
106.648644
 30
0.0
 10
71.595324
 20
73.668409
 30
0.0
 10
71.595324
 20
72.606096
 30
0.0
 10
71.595324
 20
71.543755
 30
0.0
 10
72.560767
 20
71.543755
 30
0.0
 10
73.526207
 20
71.543755
 30
0.0
 10
106.575964
 20
104.523962
 30
0.0
 10
106.575964
 20
104.523962
 30
0.0
  0
SPLINE
  5
139
100
AcDbEntity
  8
Layer_1
 62
7
100
AcDbSpline
 70
0
 71
3
 72
67
 73
63
 74
61
 40
0.000000
 40
0.000000
 40
0.000000
 40
0.000000
 40
5.452697
 40
9.359334
 40
10.874453
 40
11.223960
 40
12.065146
 40
13.216875
 40
14.976994
 40
15.664129
 40
16.853593
 40
17.424098
 40
17.964795
 40
18.360905
 40
19.159051
 40
19.979526
 40
20.614480
 40
21.628326
 40
22.971097
 40
24.875398
 40
29.737080
 40
34.570482
 40
39.486319
 40
41.716333
 40
42.660744
 40
43.890673
 40
46.436606
 40
48.718758
 40
50.974538
 40
54.871223
 40
58.690897
 40
62.757749
 40
64.137754
 40
65.711530
 40
66.740142
 40
67.159419
 40
68.327681
 40
70.576005
 40
74.530053
 40
78.153739
 40
80.988921
 40
83.377791
 40
85.069124
 40
86.200864
 40
86.558720
 40
86.834148
 40
87.187935
 40
87.735865
 40
88.258544
 40
88.848351
 40
89.077380
 40
89.263568
 40
89.372870
 40
90.632840
 40
92.891162
 40
94.154678
 40
101.899611
 40
116.230786
 40
123.975765
 40
125.474458
 40
129.369551
 40
134.817842
 40
134.817842
 40
134.817842
 40
134.817842
 10
78.304054
 20
82.635738
 30
0.0
 10
79.706076
 20
83.916794
 30
0.0
 10
82.112591
 20
86.115674
 30
0.0
 10
83.699116
 20
88.723188
 30
0.0
 10
86.295167
 20
90.057020
 30
0.0
 10
85.600758
 20
90.774166
 30
0.0
 10
85.113920
 20
91.341796
 30
0.0
 10
84.190882
 20
92.212534
 30
0.0
 10
83.550584
 20
93.255593
 30
0.0
 10
82.269825
 20
93.699979
 30
0.0
 10
81.676989
 20
92.928389
 30
0.0
 10
81.033095
 20
92.539778
 30
0.0
 10
80.602660
 20
92.276210
 30
0.0
 10
80.086358
 20
92.011463
 30
0.0
 10
79.412810
 20
91.892490
 30
0.0
 10
78.665202
 20
91.882848
 30
0.0
 10
77.830871
 20
92.065677
 30
0.0
 10
77.205234
 20
92.964730
 30
0.0
 10
77.093960
 20
94.404013
 30
0.0
 10
77.536089
 20
97.077618
 30
0.0
 10
78.397939
 20
100.846992
 30
0.0
 10
79.549359
 20
105.571400
 30
0.0
 10
80.428692
 20
109.492898
 30
0.0
 10
81.360906
 20
111.997272
 30
0.0
 10
81.377030
 20
113.567048
 30
0.0
 10
80.045132
 20
114.613611
 30
0.0
 10
78.763369
 20
116.111430
 30
0.0
 10
76.850754
 20
117.547167
 30
0.0
 10
74.420030
 20
118.955462
 30
0.0
 10
71.248505
 20
120.092843
 30
0.0
 10
67.272803
 20
120.303479
 30
0.0
 10
64.229369
 20
119.653563
 30
0.0
 10
62.024155
 20
118.806253
 30
0.0
 10
60.905204
 20
118.179687
 30
0.0
 10
59.816993
 20
117.876556
 30
0.0
 10
59.518206
 20
117.018640
 30
0.0
 10
59.283683
 20
115.779466
 30
0.0
 10
58.805020
 20
113.357412
 30
0.0
 10
58.227443
 20
110.139354
 30
0.0
 10
57.620377
 20
106.720103
 30
0.0
 10
57.171135
 20
103.805320
 30
0.0
 10
56.787536
 20
101.532647
 30
0.0
 10
56.312357
 20
99.851645
 30
0.0
 10
55.743477
 20
98.930768
 30
0.0
 10
55.291954
 20
98.543273
 30
0.0
 10
54.979235
 20
98.420799
 30
0.0
 10
54.583126
 20
98.416376
 30
0.0
 10
54.105706
 20
98.463060
 30
0.0
 10
53.602408
 20
98.730000
 30
0.0
 10
53.307932
 20
99.072481
 30
0.0
 10
53.094247
 20
99.329669
 30
0.0
 10
52.970062
 20
99.454137
 30
0.0
 10
52.483572
 20
99.685500
 30
0.0
 10
51.720734
 20
98.078366
 30
0.0
 10
50.616364
 20
97.346568
 30
0.0
 10
47.704725
 20
94.364070
 30
0.0
 10
59.185537
 20
88.681322
 30
0.0
 10
63.056132
 20
84.657576
 30
0.0
 10
69.124271
 20
73.063549
 30
0.0
 10
72.248232
 20
76.747320
 30
0.0
 10
74.811784
 20
79.086829
 30
0.0
 10
77.017729
 20
81.328622
 30
0.0
 10
78.304054
 20
82.635851
 30
0.0
 11
78.304054
 21
82.635738
 31
0.0
 11
82.156776
 21
86.494292
 31
0.0
 11
84.903562
 21
89.272237
 31
0.0
 11
85.949748
 21
90.368175
 31
0.0
 11
85.731947
 21
90.641522
 31
0.0
 11
85.164931
 21
91.262880
 31
0.0
 11
84.371505
 21
92.097717
 31
0.0
 11
83.139085
 21
93.354365
 31
0.0
 11
82.474387
 21
93.528521
 31
0.0
 11
81.496803
 21
92.850912
 31
0.0
 11
81.023086
 21
92.533001
 31
0.0
 11
80.557619
 21
92.257875
 31
0.0
 11
80.201175
 21
92.085102
 31
0.0
 11
79.421285
 21
91.915365
 31
0.0
 11
78.600816
 21
91.918279
 31
0.0
 11
77.990375
 21
92.093004
 31
0.0
 11
77.353850
 21
92.882130
 31
0.0
 11
77.153402
 21
94.209855
 31
0.0
 11
77.385438
 21
96.099967
 31
0.0
 11
78.411021
 21
100.852243
 31
0.0
 11
79.529921
 21
105.554353
 31
0.0
 11
80.767276
 21
110.311916
 31
0.0
 11
81.334266
 21
112.468646
 31
0.0
 11
81.258739
 21
113.410033
 31
0.0
 11
80.444741
 21
114.332059
 31
0.0
 11
78.629136
 21
116.116815
 31
0.0
 11
76.822759
 21
117.511526
 31
0.0
 11
74.868222
 21
118.637726
 31
0.0
 11
71.185905
 21
119.912365
 31
0.0
 11
67.372798
 21
120.136240
 31
0.0
 11
63.390427
 21
119.311616
 31
0.0
 11
62.106379
 21
118.806012
 31
0.0
 11
60.676686
 21
118.148177
 31
0.0
 11
59.777260
 21
117.649101
 31
0.0
 11
59.609622
 21
117.264795
 31
0.0
 11
59.348198
 21
116.126159
 31
0.0
 11
58.920815
 21
113.918829
 31
0.0
 11
58.209016
 21
110.029377
 31
0.0
 11
57.589705
 21
106.459006
 31
0.0
 11
57.141248
 21
103.659515
 31
0.0
 11
56.698911
 21
101.311956
 31
0.0
 11
56.172503
 21
99.704629
 31
0.0
 11
55.538886
 21
98.766883
 31
0.0
 11
55.258533
 21
98.544481
 31
0.0
 11
55.001687
 21
98.445028
 31
0.0
 11
54.648639
 21
98.422176
 31
0.0
 11
54.106233
 21
98.499780
 31
0.0
 11
53.643287
 21
98.742421
 31
0.0
 11
53.231666
 21
99.164844
 31
0.0
 11
53.082089
 21
99.338282
 31
0.0
 11
52.942942
 21
99.461993
 31
0.0
 11
52.844353
 21
99.509183
 31
0.0
 11
51.921351
 21
98.651516
 31
0.0
 11
50.346824
 21
97.032602
 31
0.0
 11
49.512672
 21
96.083570
 31
0.0
 11
54.961849
 21
90.579894
 31
0.0
 11
65.098136
 21
80.448839
 31
0.0
 11
70.604659
 21
75.002473
 31
0.0
 11
71.677897
 21
76.048533
 31
0.0
 11
74.443974
 21
78.790899
 31
0.0
 11
78.304054
 21
82.635851
 31
0.0
  0
LWPOLYLINE
  5
13a
100
AcDbEntity
  8
Layer_1
 62
7
100
AcDbPolyline
 90
2
 70
0
 10
78.304054
 20
82.635851
 30
0.0
 10
78.304054
 20
82.635738
 30
0.0
  0
SPLINE
  5
13b
100
AcDbEntity
  8
Layer_1
 62
7
100
AcDbSpline
 70
0
 71
3
 72
43
 73
39
 74
37
 40
0.000000
 40
0.000000
 40
0.000000
 40
0.000000
 40
17.007152
 40
29.150961
 40
33.802419
 40
37.371562
 40
46.728028
 40
59.846321
 40
74.687069
 40
83.182338
 40
85.890708
 40
86.038570
 40
86.336273
 40
86.721109
 40
87.878309
 40
89.872094
 40
93.048427
 40
99.509078
 40
104.387969
 40
108.674870
 40
110.487694
 40
112.647015
 40
114.581892
 40
118.614765
 40
122.859779
 40
127.387014
 40
130.336324
 40
133.377800
 40
136.719619
 40
138.028161
 40
138.981354
 40
139.374061
 40
140.531616
 40
142.588698
 40
143.740375
 40
148.402885
 40
160.554534
 40
177.564646
 40
177.564646
 40
177.564646
 40
177.564646
 10
111.378673
 20
115.640865
 30
0.0
 10
115.726036
 20
119.785787
 30
0.0
 10
123.177595
 20
126.890355
 30
0.0
 10
128.382019
 20
133.709719
 30
0.0
 10
137.221020
 20
140.204969
 30
0.0
 10
128.673988
 20
139.162906
 30
0.0
 10
121.599896
 20
139.892528
 30
0.0
 10
108.796685
 20
139.324192
 30
0.0
 10
95.325232
 20
140.417984
 30
0.0
 10
89.574771
 20
138.466522
 30
0.0
 10
82.824932
 20
140.349321
 30
0.0
 10
83.256981
 20
139.338080
 30
0.0
 10
83.402841
 20
139.107281
 30
0.0
 10
83.731824
 20
138.586504
 30
0.0
 10
84.510667
 20
137.697475
 30
0.0
 10
86.006715
 20
136.211090
 30
0.0
 10
88.836881
 20
133.562677
 30
0.0
 10
92.311366
 20
130.179450
 30
0.0
 10
95.384538
 20
125.933366
 30
0.0
 10
96.750651
 20
122.472501
 30
0.0
 10
97.110258
 20
119.736117
 30
0.0
 10
97.171233
 20
117.765512
 30
0.0
 10
97.002204
 20
115.055854
 30
0.0
 10
96.153790
 20
111.733694
 30
0.0
 10
94.544387
 20
107.770227
 30
0.0
 10
92.559947
 20
104.388237
 30
0.0
 10
90.511007
 20
101.542336
 30
0.0
 10
88.491873
 20
99.163886
 30
0.0
 10
86.713371
 20
97.341287
 30
0.0
 10
85.344718
 20
96.024807
 30
0.0
 10
84.787625
 20
95.402821
 30
0.0
 10
84.084477
 20
94.758293
 30
0.0
 10
85.620265
 20
93.824802
 30
0.0
 10
86.261566
 20
92.873295
 30
0.0
 10
88.300046
 20
90.629921
 30
0.0
 10
92.409144
 20
98.955646
 30
0.0
 10
100.518753
 20
103.725063
 30
0.0
 10
107.377786
 20
111.250982
 30
0.0
 10
111.378673
 20
115.640865
 30
0.0
 11
111.378673
 21
115.640865
 31
0.0
 11
123.412128
 21
127.659149
 31
0.0
 11
131.994811
 21
136.250404
 31
0.0
 11
135.268617
 21
139.554682
 31
0.0
 11
131.699670
 21
139.592049
 31
0.0
 11
122.343242
 21
139.618690
 31
0.0
 11
109.224953
 21
139.628850
 31
0.0
 11
94.384209
 21
139.618010
 31
0.0
 11
85.889008
 21
139.584008
 31
0.0
 11
83.181289
 21
139.524626
 31
0.0
 11
83.238351
 21
139.388218
 31
0.0
 11
83.387948
 21
139.130832
 31
0.0
 11
83.597691
 21
138.808176
 31
0.0
 11
84.333263
 21
137.914843
 31
0.0
 11
85.732409
 21
136.494431
 31
0.0
 11
88.033530
 21
134.304926
 31
0.0
 11
92.532823
 21
129.668507
 31
0.0
 11
95.313378
 21
125.659506
 31
0.0
 11
96.814792
 21
121.644126
 31
0.0
 11
97.067688
 21
119.849029
 31
0.0
 11
97.138108
 21
117.690856
 31
0.0
 11
97.006771
 21
115.760442
 31
0.0
 11
96.087694
 21
111.833692
 31
0.0
 11
94.490265
 21
107.900708
 31
0.0
 11
92.222890
 21
103.982180
 31
0.0
 11
90.497671
 21
101.590099
 31
0.0
 11
88.535308
 21
99.266372
 31
0.0
 11
86.211952
 21
96.864338
 31
0.0
 11
85.283950
 21
95.941790
 31
0.0
 11
84.622065
 21
95.255870
 31
0.0
 11
84.369594
 21
94.955076
 31
0.0
 11
85.121064
 21
94.074607
 31
0.0
 11
86.542383
 21
92.587516
 31
0.0
 11
87.383916
 21
91.801271
 31
0.0
 11
90.710521
 21
95.068182
 31
0.0
 11
99.330859
 21
103.632779
 31
0.0
 11
111.378673
 21
115.640865
 31
0.0
  0
LWPOLYLINE
  5
13c
100
AcDbEntity
  8
Layer_1
 62
7
100
AcDbPolyline
 90
2
 70
0
 10
111.378673
 20
115.640865
 30
0.0
 10
111.378673
 20
115.640865
 30
0.0
  0
SPLINE
  5
13d
100
AcDbEntity
  8
Layer_1
 62
7
100
AcDbSpline
 70
0
 71
3
 72
22
 73
18
 74
16
 40
0.000000
 40
0.000000
 40
0.000000
 40
0.000000
 40
2.481384
 40
5.669384
 40
8.844816
 40
15.744479
 40
22.033876
 40
27.835780
 40
31.383620
 40
35.033682
 40
39.035972
 40
41.602471
 40
44.833708
 40
50.129533
 40
52.952782
 40
54.757072
 40
55.950442
 40
55.950442
 40
55.950442
 40
55.950442
 10
79.863942
 20
93.728172
 30
0.0
 10
80.550565
 20
94.190540
 30
0.0
 10
82.119339
 20
95.246945
 30
0.0
 10
84.339133
 20
97.197817
 30
0.0
 10
87.494352
 20
100.295122
 30
0.0
 10
90.895426
 20
104.601851
 30
0.0
 10
93.940629
 20
110.179734
 30
0.0
 10
95.545250
 20
115.198131
 30
0.0
 10
95.753586
 20
119.576023
 30
0.0
 10
94.796876
 20
123.239914
 30
0.0
 10
93.143653
 20
126.244193
 30
0.0
 10
91.204115
 20
128.879644
 30
0.0
 10
88.645291
 20
131.557631
 30
0.0
 10
85.899407
 20
134.163678
 30
0.0
 10
83.544572
 20
136.475844
 30
0.0
 10
82.193119
 20
137.889292
 30
0.0
 10
81.708351
 20
138.766740
 30
0.0
 10
81.515365
 20
139.116053
 30
0.0
 11
79.863942
 21
93.728172
 31
0.0
 11
81.895858
 21
95.152455
 31
0.0
 11
84.321402
 21
97.221290
 31
0.0
 11
86.578290
 21
99.455081
 31
0.0
 11
90.850873
 21
104.872681
 31
0.0
 11
93.829879
 21
110.411818
 31
0.0
 11
95.464819
 21
115.978600
 31
0.0
 11
95.574548
 21
119.524743
 31
0.0
 11
94.694013
 21
123.067004
 31
0.0
 11
92.823264
 21
126.605170
 31
0.0
 11
91.298470
 21
128.669612
 31
0.0
 11
89.107714
 21
131.044793
 31
0.0
 11
85.317195
 21
134.743132
 31
0.0
 11
83.311606
 21
136.730179
 31
0.0
 11
82.127797
 21
138.091816
 31
0.0
 11
81.515365
 21
139.116053
 31
0.0
  0
LWPOLYLINE
  5
13e
100
AcDbEntity
  8
Layer_1
 62
7
100
AcDbPolyline
 90
5
 70
0
 10
81.515365
 20
139.116053
 30
0.0
 10
81.294300
 20
139.628850
 30
0.0
 10
71.023175
 20
139.628850
 30
0.0
 10
60.752050
 20
139.628850
 30
0.0
 10
60.363250
 20
138.873144
 30
0.0
  0
SPLINE
  5
13f
100
AcDbEntity
  8
Layer_1
 62
7
100
AcDbSpline
 70
0
 71
3
 72
55
 73
51
 74
49
 40
0.000000
 40
0.000000
 40
0.000000
 40
0.000000
 40
1.182691
 40
2.377319
 40
3.654276
 40
7.276919
 40
9.774409
 40
11.345460
 40
12.830977
 40
14.552478
 40
16.723430
 40
18.441059
 40
20.036686
 40
21.882804
 40
25.488369
 40
29.334228
 40
33.670371
 40
37.591219
 40
41.491647
 40
44.433859
 40
44.961067
 40
45.243167
 40
46.034643
 40
47.098477
 40
48.369438
 40
50.114758
 40
55.175652
 40
60.781260
 40
63.620529
 40
65.310745
 40
67.973324
 40
70.835392
 40
72.660675
 40
74.988186
 40
76.876584
 40
79.551503
 40
82.264040
 40
85.104992
 40
86.840055
 40
89.034725
 40
90.904626
 40
91.817430
 40
93.017153
 40
95.652614
 40
102.742548
 40
108.932371
 40
111.938473
 40
112.438929
 40
112.819927
 40
113.507798
 40
113.507798
 40
113.507798
 40
113.507798
 10
60.363250
 20
138.873144
 30
0.0
 10
60.162787
 20
138.532323
 30
0.0
 10
59.759838
 20
137.847241
 30
0.0
 10
58.889253
 20
136.974786
 30
0.0
 10
57.185216
 20
135.861573
 30
0.0
 10
55.026518
 20
134.667748
 30
0.0
 10
52.872859
 20
133.279796
 30
0.0
 10
51.357328
 20
132.202968
 30
0.0
 10
50.321472
 20
130.966553
 30
0.0
 10
49.559559
 20
129.328403
 30
0.0
 10
49.047220
 20
127.527249
 30
0.0
 10
48.646224
 20
125.742361
 30
0.0
 10
48.425197
 20
124.034325
 30
0.0
 10
48.310040
 20
121.687040
 30
0.0
 10
48.390564
 20
118.580455
 30
0.0
 10
48.994663
 20
114.694096
 30
0.0
 10
49.972663
 20
110.756598
 30
0.0
 10
51.268419
 20
106.977783
 30
0.0
 10
52.616762
 20
103.436747
 30
0.0
 10
53.699680
 20
101.690163
 30
0.0
 10
54.371912
 20
100.190672
 30
0.0
 10
54.914032
 20
100.541501
 30
0.0
 10
54.980023
 20
101.287340
 30
0.0
 10
55.333887
 20
102.259851
 30
0.0
 10
55.563594
 20
103.608818
 30
0.0
 10
55.976040
 20
106.261074
 30
0.0
 10
56.562915
 20
110.408162
 30
0.0
 10
57.756731
 20
114.588956
 30
0.0
 10
57.729865
 20
118.360089
 30
0.0
 10
59.938217
 20
119.670595
 30
0.0
 10
62.100925
 20
120.591428
 30
0.0
 10
64.458917
 20
121.372299
 30
0.0
 10
66.791909
 20
121.595176
 30
0.0
 10
68.803815
 20
121.660346
 30
0.0
 10
71.106189
 20
121.600862
 30
0.0
 10
73.485794
 20
121.035756
 30
0.0
 10
76.020658
 20
119.969415
 30
0.0
 10
78.099973
 20
118.680707
 30
0.0
 10
79.802207
 20
117.198467
 30
0.0
 10
81.198982
 20
115.846091
 30
0.0
 10
82.335806
 20
114.679748
 30
0.0
 10
83.189883
 20
113.572850
 30
0.0
 10
82.861273
 20
111.908836
 30
0.0
 10
81.921605
 20
108.483589
 30
0.0
 10
80.493453
 20
103.321236
 30
0.0
 10
79.592001
 20
97.930824
 30
0.0
 10
78.467855
 20
94.937889
 30
0.0
 10
78.766936
 20
93.495826
 30
0.0
 10
79.362592
 20
93.402808
 30
0.0
 10
79.667633
 20
93.601287
 30
0.0
 10
79.863942
 20
93.729018
 30
0.0
 11
60.363250
 21
138.873144
 31
0.0
 11
59.721416
 21
137.879761
 31
0.0
 11
58.884975
 21
137.026825
 31
0.0
 11
57.837039
 21
136.297132
 31
0.0
 11
54.723497
 21
134.445268
 31
0.0
 11
52.624398
 21
133.092035
 31
0.0
 11
51.379270
 21
132.133988
 31
0.0
 11
50.424323
 21
130.996079
 31
0.0
 11
49.661567
 21
129.452780
 31
0.0
 11
49.027887
 21
127.376370
 31
0.0
 11
48.664265
 21
125.697672
 31
0.0
 11
48.455531
 21
124.115756
 31
0.0
 11
48.354420
 21
122.272409
 31
0.0
 11
48.462784
 21
118.668472
 31
0.0
 11
49.022969
 21
114.863631
 31
0.0
 11
50.064913
 21
110.654534
 31
0.0
 11
51.307329
 21
106.935738
 31
0.0
 11
52.784975
 21
103.326042
 31
0.0
 11
54.135006
 21
100.711845
 31
0.0
 11
54.470601
 21
100.305243
 31
0.0
 11
54.718712
 21
100.439486
 31
0.0
 11
54.999407
 21
101.179516
 31
0.0
 11
55.282865
 21
102.204892
 31
0.0
 11
55.534084
 21
103.450777
 31
0.0
 11
55.805045
 21
105.174936
 31
0.0
 11
56.635872
 21
110.167167
 31
0.0
 11
57.662488
 21
115.677965
 31
0.0
 11
58.278022
 21
118.449709
 31
0.0
 11
59.634860
 21
119.457590
 31
0.0
 11
62.068153
 21
120.538522
 31
0.0
 11
64.812088
 21
121.352309
 31
0.0
 11
66.625242
 21
121.562384
 31
0.0
 11
68.951454
 21
121.640129
 31
0.0
 11
70.837874
 21
121.553702
 31
0.0
 11
73.448267
 21
120.969717
 31
0.0
 11
75.950920
 21
119.923495
 31
0.0
 11
78.355723
 21
118.410904
 31
0.0
 11
79.678556
 21
117.288158
 31
0.0
 11
81.262457
 21
115.769003
 31
0.0
 11
82.536894
 21
114.400667
 31
0.0
 11
83.016466
 21
113.623994
 31
0.0
 11
82.954336
 21
112.425881
 31
0.0
 11
82.302073
 21
109.872412
 31
0.0
 11
80.542830
 21
103.004207
 31
0.0
 11
79.163364
 21
96.970056
 31
0.0
 11
78.674397
 21
94.003987
 31
0.0
 11
78.862115
 21
93.540072
 31
0.0
 11
79.233325
 21
93.454264
 31
0.0
 11
79.863942
 21
93.729018
 31
0.0
  0
LWPOLYLINE
  5
140
100
AcDbEntity
  8
Layer_1
 62
7
100
AcDbPolyline
 90
2
 70
0
 10
79.863942
 20
93.729018
 30
0.0
 10
79.863942
 20
93.728172
 30
0.0
  0
SPLINE
  5
141
100
AcDbEntity
  8
Layer_1
 62
7
100
AcDbSpline
 70
0
 71
3
 72
43
 73
39
 74
37
 40
0.000000
 40
0.000000
 40
0.000000
 40
0.000000
 40
1.322916
 40
2.294852
 40
2.707439
 40
2.945585
 40
3.436157
 40
4.074113
 40
9.203787
 40
14.259618
 40
19.210085
 40
21.874292
 40
25.175244
 40
27.691985
 40
29.300976
 40
30.995248
 40
32.455888
 40
34.975416
 40
38.210869
 40
43.307745
 40
44.192629
 40
44.922144
 40
45.339353
 40
45.901674
 40
46.456576
 40
46.790134
 40
48.728948
 40
56.541537
 40
73.231831
 40
86.549644
 40
96.048413
 40
99.671833
 40
115.118800
 40
143.735915
 40
159.183187
 40
159.576990
 40
160.536230
 40
161.854401
 40
161.854401
 40
161.854401
 40
161.854401
 10
49.987127
 20
99.402221
 30
0.0
 10
50.303829
 20
99.720451
 30
0.0
 10
50.853209
 20
100.272482
 30
0.0
 10
51.352739
 20
100.949267
 30
0.0
 10
51.859554
 20
101.353924
 30
0.0
 10
51.675975
 20
101.733076
 30
0.0
 10
51.530137
 20
102.146111
 30
0.0
 10
50.651515
 20
104.061922
 30
0.0
 10
49.319015
 20
107.398741
 30
0.0
 10
47.927380
 20
112.259464
 30
0.0
 10
47.060758
 20
116.407106
 30
0.0
 10
46.867142
 20
120.047075
 30
0.0
 10
46.881482
 20
122.871845
 30
0.0
 10
46.977706
 20
125.353793
 30
0.0
 10
47.371552
 20
127.257288
 30
0.0
 10
47.754986
 20
128.797972
 30
0.0
 10
48.283169
 20
130.614803
 30
0.0
 10
49.477492
 20
132.766041
 30
0.0
 10
52.385831
 20
135.014996
 30
0.0
 10
55.031306
 20
136.552641
 30
0.0
 10
56.967082
 20
137.676783
 30
0.0
 10
57.539691
 20
138.037003
 30
0.0
 10
58.018630
 20
138.348903
 30
0.0
 10
58.356758
 20
138.746840
 30
0.0
 10
58.647317
 20
139.106690
 30
0.0
 10
59.132682
 20
140.059273
 30
0.0
 10
53.436416
 20
138.730468
 30
0.0
 10
47.416582
 20
140.408661
 30
0.0
 10
33.246892
 20
139.375596
 30
0.0
 10
20.138858
 20
139.766319
 30
0.0
 10
12.018449
 20
139.397271
 30
0.0
 10
0.546540
 20
140.148821
 30
0.0
 10
26.229962
 20
121.803275
 30
0.0
 10
33.047438
 20
118.019656
 30
0.0
 10
44.235866
 20
94.188300
 30
0.0
 10
48.526926
 20
97.912511
 30
0.0
 10
49.147725
 20
98.544766
 30
0.0
 10
49.679388
 20
99.087871
 30
0.0
 10
49.987115
 20
99.402221
 30
0.0
 11
49.987127
 21
99.402221
 31
0.0
 11
50.895369
 21
100.364095
 31
0.0
 11
51.543160
 21
101.088683
 31
0.0
 11
51.790256
 21
101.419094
 31
0.0
 11
51.720791
 21
101.646884
 31
0.0
 11
51.538681
 21
102.102402
 31
0.0
 11
51.283351
 21
102.687034
 31
0.0
 11
49.390449
 21
107.454683
 31
0.0
 11
47.977840
 21
112.309162
 31
0.0
 11
47.067428
 21
117.175194
 31
0.0
 11
46.901554
 21
119.834233
 31
0.0
 11
46.903908
 21
123.135184
 31
0.0
 11
47.073467
 21
125.646207
 31
0.0
 11
47.375825
 21
127.226533
 31
0.0
 11
47.785249
 21
128.870591
 31
0.0
 11
48.223435
 21
130.263955
 31
0.0
 11
49.472039
 21
132.452336
 31
0.0
 11
51.910847
 21
134.578453
 31
0.0
 11
56.246384
 21
137.258240
 31
0.0
 11
57.008702
 21
137.707564
 31
0.0
 11
57.626966
 21
138.094786
 31
0.0
 11
57.967324
 21
138.336075
 31
0.0
 11
58.352709
 21
138.745566
 31
0.0
 11
58.681734
 21
139.192398
 31
0.0
 11
58.821043
 21
139.495472
 31
0.0
 11
56.884058
 21
139.579660
 31
0.0
 11
49.071569
 21
139.619075
 31
0.0
 11
32.381277
 21
139.628850
 31
0.0
 11
19.063468
 21
139.618708
 31
0.0
 11
9.564736
 21
139.592115
 31
0.0
 11
5.941509
 21
139.554823
 31
0.0
 11
16.840729
 21
128.608783
 31
0.0
 11
37.104234
 21
108.401615
 31
0.0
 11
48.080792
 21
97.532697
 31
0.0
 11
48.379867
 21
97.788888
 31
0.0
 11
49.064731
 21
98.460530
 31
0.0
 11
49.987115
 21
99.402221
 31
0.0
  0
LWPOLYLINE
  5
142
100
AcDbEntity
  8
Layer_1
 62
7
100
AcDbPolyline
 90
2
 70
0
 10
49.987115
 20
99.402221
 30
0.0
 10
49.987127
 20
99.402221
 30
0.0
  0
ENDSEC
  0
SECTION
  2
OBJECTS
  0
DICTIONARY
  5
C
330
0
100
AcDbDictionary
  3
ACAD_GROUP
350
D
  3
ACAD_MLINESTYLE
350
17
  0
DICTIONARY
  5
D
330
C
100
AcDbDictionary
  0
DICTIONARY
  5
1A
330
C
100
AcDbDictionary
  0
DICTIONARY
  5
17
330
C
100
AcDbDictionary
  3
STANDARD
350
18
  0
DICTIONARY
  5
19
330
C
100
AcDbDictionary
  0
ENDSEC
  0
EOF
