<?xml version="1.0" encoding="UTF-8" standalone="no"?>
<!-- Created with Inkscape (http://www.inkscape.org/) -->

<svg
   xmlns:dc="http://purl.org/dc/elements/1.1/"
   xmlns:cc="http://creativecommons.org/ns#"
   xmlns:rdf="http://www.w3.org/1999/02/22-rdf-syntax-ns#"
   xmlns:svg="http://www.w3.org/2000/svg"
   xmlns="http://www.w3.org/2000/svg"
   xmlns:sodipodi="http://sodipodi.sourceforge.net/DTD/sodipodi-0.dtd"
   xmlns:inkscape="http://www.inkscape.org/namespaces/inkscape"
   width="744.09448819"
   height="1052.3622047"
   id="svg3016"
   version="1.1"
   inkscape:version="0.48.4 r9939"
   sodipodi:docname="New document 3">
  <defs
     id="defs3018" />
  <sodipodi:namedview
     id="base"
     pagecolor="#ffffff"
     bordercolor="#666666"
     borderopacity="1.0"
     inkscape:pageopacity="0.0"
     inkscape:pageshadow="2"
     inkscape:zoom="0.98994949"
     inkscape:cx="415.85211"
     inkscape:cy="332.69017"
     inkscape:document-units="px"
     inkscape:current-layer="g3089"
     showgrid="false"
     inkscape:window-width="1858"
     inkscape:window-height="1177"
     inkscape:window-x="54"
     inkscape:window-y="-8"
     inkscape:window-maximized="1" />
  <metadata
     id="metadata3021">
    <rdf:RDF>
      <cc:Work
         rdf:about="">
        <dc:format>image/svg+xml</dc:format>
        <dc:type
           rdf:resource="http://purl.org/dc/dcmitype/StillImage" />
        <dc:title></dc:title>
      </cc:Work>
    </rdf:RDF>
  </metadata>
  <g
     inkscape:label="Layer 1"
     inkscape:groupmode="layer"
     id="layer1">
    <g
       id="g3089"
       transform="translate(848.57143,-545.71429)">
      <path
         style="fill:#000000"
         d="m -847.99072,1597.4362 c -0.5392,-0.5946 -0.58071,-18.4193 -0.58071,-249.4206 0,-240.5695 0.021,-248.7993 0.64169,-249.3596 0.59579,-0.5382 18.42147,-0.5795 249.41928,-0.5795 240.56612,0 248.79681,0.021 249.35832,0.6403 0.5392,0.5946 0.58071,18.4193 0.58071,249.4205 0,240.5696 -0.0211,248.7994 -0.64165,249.3597 -0.59583,0.5382 -18.42147,0.5795 -249.4193,0.5795 -240.56614,0 -248.7968,-0.021 -249.35834,-0.6403 z m 128.97945,-121.4703 117.10652,-116.8586 0,-3.7647 0,-3.7647 -3.5963,0 -3.5963,0 -117.10546,116.8591 -117.10546,116.859 0,3.7642 0,3.7642 3.59527,0 3.59522,0 117.10651,-116.8585 z m 116.82621,108.1925 0.10486,-8.6659 2.499,-4.3768 c 8.42147,-14.7493 13.45298,-27.9764 13.59821,-35.7476 0.0269,-1.4415 -0.12866,-2.5159 -0.41411,-2.8593 -0.25149,-0.3027 -2.14061,-1.4694 -4.19804,-2.5928 -17.97676,-9.8156 -32.42128,-23.9645 -39.43927,-38.6322 -3.81096,-7.9649 -5.55455,-15.8785 -5.55455,-25.2101 0,-9.7768 1.70182,-17.1401 5.94808,-25.7353 7.51965,-15.2212 22.40944,-29.2876 41.50483,-39.2098 5.73766,-2.9813 10.61964,-5.1627 15.26915,-6.8223 1.78357,-0.6367 3.24285,-1.3323 3.24285,-1.5458 0,-0.4838 -28.46148,-28.9277 -28.94556,-28.9277 -0.51712,0 -228.94919,228.0375 -228.94919,228.5538 0,0.3495 22.72919,0.4378 112.61444,0.4378 l 112.61442,0 0.10488,-8.666 z m 232.91188,8.2292 c 0,-0.6524 -59.38039,-59.7873 -60.03537,-59.7873 -0.30979,0 -2.44173,0.8861 -4.73762,1.9691 -24.11645,11.3756 -56.63884,16.7172 -86.83846,14.2625 l -7.22548,-0.5873 -8.38855,4.5638 c -25.04325,13.6249 -44.53682,22.9746 -54.61662,26.196 l -4.1228,1.3175 0,6.2513 0,6.2512 112.98243,0 c 90.04615,0 112.98247,-0.089 112.98247,-0.4368 z m 15.43859,-3.327 0,-3.7638 -117.10505,-116.8594 -117.10507,-116.8595 -3.42125,0 -3.42125,0 0,3.7654 0,3.7654 16.31579,16.2787 16.31579,16.2786 0,1.8202 c 0,2.7537 -0.66272,3.2999 -6.66667,5.495 -18.99808,6.9458 -35.36279,17.4116 -45.50545,29.1023 -9.34643,10.7729 -14.83896,22.8999 -15.85857,35.014 -1.05178,12.4964 4.65999,27.8659 14.9191,40.1453 6.4777,7.7533 17.51227,16.2978 28.63224,22.1709 1.99615,1.0543 4.06202,2.3675 4.59084,2.9184 1.2687,1.3214 1.77777,4.3815 1.46727,8.8201 -0.59384,8.4889 -3.60536,17.3289 -10.36191,30.4161 -2.56714,4.9724 -3.13062,6.3486 -2.59954,6.3486 0.47806,0 10.40274,-4.0611 14.45807,-5.9161 9.6832,-4.4294 27.66361,-13.625 44.22861,-22.6196 l 5.0233,-2.7276 2.87144,0.2181 c 1.57929,0.1201 5.23987,0.4546 8.1346,0.7435 13.14912,1.3126 31.08827,0.2245 46.44722,-2.8171 13.39807,-2.6533 24.0694,-6.0537 35.73702,-11.3873 5.11747,-2.3393 6.32772,-2.7628 7.89543,-2.7628 l 1.85155,0 33.15649,33.0882 33.15649,33.0882 3.42176,0 3.42175,0 0,-3.7638 z m -376.35512,-124.607 c 61.77602,-61.7456 112.37267,-112.4021 112.437,-112.5702 0.0661,-0.1725 -13.48671,-0.3055 -31.14295,-0.3055 l -31.25991,0 -9.11761,4.5518 c -5.12113,2.5566 -9.54444,4.5518 -10.09139,4.5518 -0.53557,0 -1.55468,-0.394 -2.26468,-0.8753 -1.50789,-1.0226 -1.78886,-1.0619 -2.39311,-0.3354 -0.3402,0.4091 -0.35062,0.6384 -0.0429,0.9454 0.44529,0.4444 0.53169,1.6324 0.18441,2.5354 -0.12741,0.3313 -22.59843,11.7418 -52.80656,26.8144 -47.94462,23.9224 -52.73483,26.2377 -54.28525,26.2377 -1.25484,0 -1.86687,-0.1835 -2.33554,-0.7003 -0.3493,-0.3851 -0.98088,-0.7002 -1.40351,-0.7002 -0.42263,0 -1.05421,0.3151 -1.40351,0.7002 -0.61284,0.6758 -1.0807,0.7003 -13.35902,0.7003 -6.99817,0 -12.97368,0.096 -13.27894,0.2125 -0.50386,0.193 -0.55502,7.5987 -0.55502,80.3572 0,59.6706 0.102,80.1446 0.39926,80.1446 0.21958,0 50.94327,-50.519 112.71929,-112.2644 z m 376.35512,53.8435 0,-58.4208 -1.10811,-1.5407 c -2.35098,-3.2685 -7.00704,-8.6652 -9.81624,-11.3773 -11.39965,-11.0061 -25.1713,-15.5153 -38.99814,-12.769 -2.08017,0.4131 -7.51081,1.8457 -12.06807,3.1835 -9.61313,2.8219 -11.85488,3.3301 -17.18934,3.8974 -7.32189,0.7785 -13.55859,-0.4519 -20.8975,-4.1228 -6.88334,-3.443 -11.42604,-6.7595 -16.80018,-12.2652 -7.12936,-7.304 -12.39049,-15.879 -18.0866,-29.4791 -4.1421,-9.8896 -7.33908,-20.4011 -11.6253,-38.223 l -1.30524,-5.4272 -38.85965,-0.089 c -21.37281,-0.049 -38.85965,0.029 -38.85965,0.1748 0,0.3444 225.00553,224.8793 225.35065,224.8793 0.14485,0 0.26337,-26.2894 0.26337,-58.4209 z m 0,-73.9172 0,-5.2372 -2.76972,-3.1388 c -5.43347,-6.1575 -7.90154,-10.3794 -9.40302,-16.0851 -1.17224,-4.4544 -1.46302,-12.8348 -0.77371,-22.2976 0.26652,-3.6589 0.48589,-7.9918 0.48747,-9.6287 0.003,-2.7438 -0.052,-2.9763 -0.69891,-2.9763 -1.04439,0 -17.01755,8.9164 -17.01755,9.4994 0,0.2723 0.63274,1.751 1.40607,3.2858 3.64036,7.2251 4.32271,10.5275 2.59783,12.5732 -0.81881,0.9711 -1.10572,1.0773 -2.90941,1.0773 -1.8942,0 -2.07789,-0.079 -3.44178,-1.4881 -0.79243,-0.8185 -2.73675,-3.0638 -4.32074,-4.9896 -11.39797,-13.8573 -21.85253,-22.7108 -33.50741,-28.3758 -6.1061,-2.9679 -11.11242,-4.573 -24.55842,-7.8736 -11.89442,-2.9198 -15.66874,-4.0849 -20.49014,-6.3255 -1.61885,-0.7522 -3.1387,-1.3677 -3.37751,-1.3677 -0.70519,0 -18.06516,10.901 -18.06516,11.3439 0,0.2228 0.63744,2.4491 1.41653,4.9473 4.09564,13.133 10.23053,26.798 15.70435,34.9805 6.42123,9.5986 12.74428,15.0692 23.30474,20.1628 10.06652,4.8553 14.62239,4.8511 31.05544,-0.029 12.14842,-3.6076 13.62375,-3.883 21.85228,-4.0792 8.11428,-0.1934 11.30495,0.1839 16.92056,2.0007 7.46905,2.4165 13.29277,6.3072 20.79874,13.895 2.89473,2.9264 5.38157,5.3302 5.52631,5.342 0.14474,0.012 0.26316,-2.3354 0.26316,-5.2158 z m 0,-169.8328 c 0,-85.3117 -0.11852,-155.1121 -0.26337,-155.1121 -0.3441,0 -225.35065,224.5343 -225.35065,224.8777 0,0.1443 17.05263,0.2623 37.89473,0.2623 36.72411,0 37.89474,-0.02 37.89474,-0.6519 0,-0.8875 -2.51379,-9.7705 -4.23926,-14.9803 -1.19292,-3.6018 -1.39249,-4.62 -1.30393,-6.6527 l 0.1046,-2.3999 1.4627,-0.1063 c 1.11789,-0.081 2.04667,0.1872 3.94,1.1387 10.96117,5.5083 24.39279,8.4661 43.72009,9.6274 3.2807,0.1972 10.22807,0.5215 15.43859,0.7206 28.85144,1.103 42.48197,3.6737 56.03088,10.5672 15.90291,8.0911 24.61828,19.3216 26.98699,34.775 0.57803,3.771 0.5734,15.4797 -0.009,22.6002 -0.60172,7.358 -0.35968,14.2248 0.63513,18.0162 1.17214,4.4673 5.4788,12.4299 6.72288,12.4299 0.21186,0 0.33466,-56.9017 0.33466,-155.112 z m -469.27329,136.0908 c 0.0981,-0.255 -0.4493,-2.8976 -1.21643,-5.8721 -5.27617,-20.4576 -7.44589,-41.1378 -6.68245,-63.6921 0.59357,-17.5359 3.046,-34.4719 7.346,-50.7299 0.57982,-2.1924 1.05424,-4.2013 1.05424,-4.4643 0,-0.3932 -1.8366,-0.4781 -10.35088,-0.4781 l -10.35087,0 0,62.6458 c 0,49.7891 0.09,62.6823 0.43859,62.8227 0.24123,0.097 4.74618,0.189 10.01102,0.2042 7.64162,0.022 9.60839,-0.066 9.75078,-0.4362 z m 62.92828,-25.6071 c 26.42196,-13.1835 48.14335,-24.137 48.26977,-24.3411 0.12641,-0.2041 -0.10006,-0.9038 -0.50327,-1.5548 -1.52572,-2.4635 -2.18675,-5.1089 -2.37977,-9.5239 -0.21636,-4.9487 0.35301,-8.1913 2.01346,-11.4666 0.57268,-1.1297 0.9509,-2.1997 0.84049,-2.3781 -0.35671,-0.5758 -96.35093,-48.3124 -96.8037,-48.1391 -0.24077,0.092 -0.51913,0.5351 -0.61856,0.9842 -0.0995,0.4491 -0.98049,3.9678 -1.95779,7.8194 -9.27856,36.5663 -9.2967,69.357 -0.0581,104.7794 1.52162,5.8341 2.22186,7.7907 2.78818,7.7907 0.20312,0 21.98726,-10.7866 48.40922,-23.9701 z m -55.89218,22.5611 c 0.24516,-0.2447 -0.0585,-1.9968 -0.95568,-5.5147 -5.10874,-20.0319 -7.27853,-41.0949 -6.34733,-61.6163 0.75196,-16.5721 2.94781,-31.3265 7.12063,-47.8449 1.0614,-4.2017 1.09578,-5.1138 0.19284,-5.1138 -0.9007,0 -1.23597,0.8543 -2.82354,7.1941 -5.45994,21.8041 -7.87085,43.832 -6.90502,63.0898 0.69669,13.8918 2.36656,26.1175 5.28151,38.6684 2.52764,10.8832 3.14308,12.4282 4.43659,11.1374 z m 424.13199,-14.4092 c -3.83165,-6.0832 -10.3668,-12.8881 -15.95659,-16.6152 -6.52635,-4.3515 -15.09351,-8.0344 -23.48207,-10.0947 -7.55933,-1.8566 -7.392,-1.408 0.45355,1.2157 12.78965,4.2772 21.92884,10.2022 34.10785,22.1123 3.08772,3.0196 5.66281,5.3564 5.72242,5.1929 0.0596,-0.1634 -0.3207,-0.9785 -0.84516,-1.811 z m 14.57941,-10.4868 c 7.35603,-4.0753 10.19245,-5.8183 10.19245,-6.2634 0,-1.2377 -1.83547,-6.8919 -3.13687,-9.6633 -0.73473,-1.5645 -2.01498,-3.85 -2.84499,-5.079 -6.72856,-9.9617 -21.97438,-18.45 -39.45673,-21.9678 -6.76972,-1.3622 -13.57172,-2.2274 -14.01716,-1.7829 -0.44565,0.4447 -3.42905,22.4548 -3.08933,22.7914 0.14541,0.1441 2.15912,0.8341 4.47491,1.5334 8.6327,2.6068 16.18593,6.2187 22.05874,10.5486 3.52168,2.5964 9.59182,8.5964 12.64723,12.5011 1.3034,1.6657 2.50694,3.0285 2.67455,3.0285 0.16762,0 4.89137,-2.5409 10.4972,-5.6466 z m -108.23452,-21.8301 c 3.42568,-2.1133 6.3068,-4.0458 6.40241,-4.2945 0.0957,-0.2487 -0.95599,-1.6392 -2.33698,-3.09 -3.58407,-3.7651 -4.04432,-5.4512 -2.09333,-7.6686 1.00712,-1.1446 1.23916,-1.2377 3.08667,-1.2377 1.87224,0 2.08484,0.089 3.38445,1.4172 4.15755,4.2488 10.87028,7.5749 19.282,9.554 6.3646,1.4975 20.5585,3.8427 20.94193,3.46 0.27474,-0.2741 3.09316,-19.7018 3.09316,-21.3214 0,-0.2472 -0.35526,-0.5284 -0.78947,-0.6251 -0.43421,-0.097 -6.86843,-0.4206 -14.29825,-0.7202 -26.20537,-1.0566 -37.21969,-2.586 -49.3233,-6.849 -1.63881,-0.5772 -3.12079,-0.9625 -3.29332,-0.8561 -0.17253,0.1064 -0.004,1.255 0.374,2.5524 1.41108,4.8403 3.17831,11.7588 5.5663,21.7916 2.50899,10.5413 2.95095,12.047 3.47639,11.8447 0.16432,-0.063 3.10161,-1.844 6.52734,-3.9573 z m -207.36522,-9.3706 c 3.18571,-1.586 5.79221,-3.0457 5.79221,-3.2437 0,-0.5363 -11.47019,-6.1471 -12.08518,-5.9116 -0.70972,0.2718 -2.31877,3.6173 -2.53803,5.277 -0.20364,1.5416 0.88499,4.7958 2.00606,5.9966 0.39306,0.421 0.78622,0.7655 0.8737,0.7655 0.0875,0 2.76553,-1.2977 5.95124,-2.8838 z m 74.91501,-7.358 c 0,-0.6105 -224.70881,-224.7885 -225.0147,-224.4832 -0.13667,0.1363 -0.24846,36.2981 -0.24846,80.3597 l 0,80.1118 13.59649,0.1744 c 7.47807,0.096 14.38597,0.1928 15.35088,0.215 0.96491,0.022 2.40249,-0.065 3.19463,-0.1944 1.38365,-0.2258 3.47934,0.7838 53.33334,25.6947 28.5412,14.2614 52.40624,26.2483 53.03343,26.6374 0.92308,0.5729 1.14035,0.934 1.14035,1.8954 0,0.6533 -0.23684,1.384 -0.52631,1.6237 -0.7516,0.6224 -0.65244,1.0055 0.32359,1.2499 0.59129,0.1481 1.2567,-0.063 2.18672,-0.6935 0.74167,-0.503 1.80822,-0.8982 2.3957,-0.8877 0.63,0.011 4.54091,1.7763 9.6554,4.3579 l 8.59649,4.3391 31.49123,0.019 c 24.97697,0.015 31.49122,-0.072 31.49122,-0.4191 z m 16.14036,-3.3259 0,-3.7639 -117.10507,-116.8594 -117.10508,-116.8594 -3.59667,0 -3.5967,0 0,3.8019 0,3.802 116.92983,116.8388 116.92983,116.8387 3.77193,-0.018 3.77193,-0.018 0,-3.7638 z m 130.96469,-113.0953 117.10547,-116.859 0,-3.7642 0,-3.7642 -3.42084,0 -3.42088,0 -117.10544,116.859 -117.10546,116.8591 0,3.7641 0,3.7642 3.42086,0 3.42085,0 117.10544,-116.859 z m -100.17606,77.5567 c 14.90835,-14.8762 27.09932,-27.2054 27.09104,-27.3984 -0.008,-0.1931 -2.52477,-2.9509 -5.5922,-6.1283 -6.41273,-6.643 -5.12766,-6.3063 -10.18595,-2.6688 -1.57412,1.1319 -3.63999,2.353 -4.59081,2.7135 -2.3955,0.9083 -6.33865,0.8945 -7.83354,-0.028 -3.03223,-1.87 -3.72762,-6.4762 -2.14348,-14.1979 3.49832,-17.0524 7.35901,-33.2768 11.98289,-50.3573 3.03401,-11.2077 3.16305,-9.5993 -1.14284,-14.2446 -6.63549,-7.1585 -12.38541,-11.598 -19.75932,-15.2563 -12.8613,-6.3807 -26.21327,-7.1646 -40.66935,-2.3878 -3.49342,1.1545 -11.35339,4.771 -12.80256,5.8908 -0.51308,0.3966 -1.14103,3.1316 -3.03465,13.2175 -2.59342,13.8132 -5.11178,28.3318 -6.30555,36.3519 -1.44572,9.713 -3.2153,15.1162 -5.67766,17.3361 -1.17641,1.0606 -1.59164,1.2214 -3.15442,1.2214 -2.09592,0 -3.61997,-0.7988 -5.02077,-2.6315 -0.5129,-0.671 -1.13047,-1.2201 -1.37237,-1.2201 -0.47223,0 -11.80517,11.6524 -11.80517,12.138 0,0.3046 74.4306,74.6968 74.73539,74.6968 0.0964,0 12.37296,-12.1714 27.28132,-27.0474 z m 117.19353,-116.9473 c 46.55719,-46.4592 84.64941,-84.5894 84.64941,-84.734 0,-0.1446 -41.52632,-0.2628 -92.2807,-0.2628 -64.48655,0 -92.2807,0.1113 -92.2807,0.3693 0,0.2032 0.66395,1.3455 1.47544,2.5386 1.71231,2.5174 5.6844,6.5499 15.71754,15.9564 19.5066,18.2884 27.54172,29.8735 31.11471,44.8611 1.1966,5.0195 1.52582,15.109 0.68024,20.8477 -2.04484,13.8782 -7.73977,27.8995 -16.95076,41.734 -5.83912,8.7702 -12.2804,16.3976 -21.2986,25.2207 -3.59042,3.5127 -6.52804,6.557 -6.52804,6.7651 0,0.5008 10.20199,11.1749 10.68067,11.1749 0.20428,0 38.46363,-38.012 85.02079,-84.471 z m -111.66637,77.6434 c 5.83822,-3.3383 16.75706,-12.6514 23.791,-20.2922 17.37121,-18.87 28.13546,-38.885 31.4877,-58.5479 2.14326,-12.5717 -0.97694,-25.1239 -9.35984,-37.6532 -5.32588,-7.9602 -9.22819,-12.191 -26.59631,-28.8353 -8.85807,-8.4889 -12.01755,-12.123 -13.47105,-15.4946 l -0.7833,-1.817 -36.39375,0 -36.39375,0 -1.37764,2.6777 c -1.94938,3.789 -4.84334,6.7401 -8.95114,9.1276 -13.01901,7.5673 -19.79339,11.9346 -22.88186,14.7513 -3.79871,3.4646 -6.24048,8.405 -8.33167,16.8577 -1.61866,6.5427 -2.16288,10.6671 -2.3863,18.0849 -0.38115,12.6541 1.48001,25.2952 6.0608,41.1657 3.55696,12.3232 10.29266,28.7777 14.42159,35.23 1.48592,2.3222 1.86871,2.115 3.06284,-1.6571 1.12289,-3.547 1.79815,-6.896 2.85462,-14.157 1.88023,-12.9227 8.02656,-45.9157 8.76252,-47.0366 1.99608,-3.04 13.78375,-8.2764 23.1522,-10.2848 4.39019,-0.9412 16.57162,-1.3483 21.35121,-0.7136 9.45198,1.2552 18.27877,4.9452 26.63805,11.1359 3.55082,2.6296 11.52157,10.2746 14.81517,14.2095 2.60178,3.1084 2.58184,3.493 -0.83204,16.045 -6.30316,23.1752 -13.30228,53.7912 -12.85397,56.2267 0.42972,2.3344 1.43121,2.5659 4.21492,0.9743 z m -105.86273,-20.1049 c 3.51397,-3.6433 6.38904,-6.8593 6.38904,-7.1464 0,-0.2872 -0.80825,-2.3089 -1.79612,-4.4927 -7.53217,-16.6505 -12.62803,-34.1626 -14.93831,-51.336 -0.88699,-6.5934 -0.87442,-24.2087 0.0214,-30.0154 0.78918,-5.1153 2.56359,-12.2405 4.07469,-16.3621 3.15003,-8.5919 8.87081,-13.5792 28.42777,-24.7829 2.79825,-1.6031 5.54227,-3.3217 6.09782,-3.8191 1.30788,-1.1709 3.02499,-3.5028 3.02499,-4.1081 0,-0.3955 -15.27097,-0.4726 -93.68421,-0.4726 -51.52632,0 -93.68422,0.118 -93.68422,0.2623 0,0.4099 148.90137,148.8973 149.31242,148.8973 0.20111,0 3.24072,-2.9809 6.75469,-6.6243 z"
         id="path3095"
         inkscape:connector-curvature="0" />
    </g>
  </g>
</svg>
