<?xml version="1.0" encoding="UTF-8" standalone="no"?>
<!-- Created with Inkscape (http://www.inkscape.org/) -->

<svg
   xmlns:dc="http://purl.org/dc/elements/1.1/"
   xmlns:cc="http://creativecommons.org/ns#"
   xmlns:rdf="http://www.w3.org/1999/02/22-rdf-syntax-ns#"
   xmlns:svg="http://www.w3.org/2000/svg"
   xmlns="http://www.w3.org/2000/svg"
   xmlns:sodipodi="http://sodipodi.sourceforge.net/DTD/sodipodi-0.dtd"
   xmlns:inkscape="http://www.inkscape.org/namespaces/inkscape"
   width="744.09448819"
   height="1052.3622047"
   id="svg2"
   version="1.1"
   inkscape:version="0.48.4 r9939"
   sodipodi:docname="logo_cutter_layer_edge.svg">
  <defs
     id="defs4" />
  <sodipodi:namedview
     id="base"
     pagecolor="#ffffff"
     bordercolor="#666666"
     borderopacity="1.0"
     inkscape:pageopacity="0.0"
     inkscape:pageshadow="2"
     inkscape:zoom="0.98994949"
     inkscape:cx="339.46535"
     inkscape:cy="244.1962"
     inkscape:document-units="px"
     inkscape:current-layer="g2998"
     showgrid="false"
     inkscape:window-width="1115"
     inkscape:window-height="787"
     inkscape:window-x="449"
     inkscape:window-y="180"
     inkscape:window-maximized="0" />
  <metadata
     id="metadata7">
    <rdf:RDF>
      <cc:Work
         rdf:about="">
        <dc:format>image/svg+xml</dc:format>
        <dc:type
           rdf:resource="http://purl.org/dc/dcmitype/StillImage" />
      </cc:Work>
    </rdf:RDF>
  </metadata>
  <g
     inkscape:label="Layer 1"
     inkscape:groupmode="layer"
     id="layer1">
    <g
       id="g2998"
       transform="matrix(0.44380953,0,0,0.44380953,0.79455785,25.150558)">
      <path
         style="fill:#000000"
         d="m -0.74115952,2313.5353 c -0.86759178,-0.8662 -1.04915318,-98.1377 -1.04915318,-562.0848 0,-508.8204 0.1160443,-561.1533 1.24681997,-562.2822 1.13076934,-1.1288 53.44604273,-1.2447 562.06311273,-1.2451 508.71778,-5e-4 560.93218,0.1151 562.06358,1.2446 1.1316,1.1296 1.2463,53.3393 1.2352,562.1412 -0.01,308.4926 -0.3011,561.3505 -0.6543,561.9061 -0.9708,1.5269 -1123.37636348,1.8464 -1124.90525952,0.3202 z M 292.37087,2041.5368 c 236.31172,-235.9004 267.04431,-266.3087 269.14905,-266.3087 2.0769,0 7.24973,4.8645 41.08434,38.6355 41.35251,41.2747 40.87205,40.697 36.92187,44.3983 -0.98252,0.9206 -7.6815,3.8732 -14.88664,6.5614 -43.03273,16.0547 -80.79636,40.9669 -103.8763,68.5256 -25.24704,30.1464 -37.44327,66.2797 -33.17301,98.2806 2.11786,15.8711 5.72443,27.4365 13.22292,42.4033 15.45371,30.8451 43.2201,57.8544 81.14575,78.9333 4.479,2.4894 9.69455,5.3983 11.59011,6.4643 5.21873,2.9348 5.95925,5.4285 5.47323,18.4312 -0.44644,11.9438 -2.13603,19.5391 -7.79947,35.0611 -3.71276,10.1757 -15.73202,35.2998 -22.37615,46.7733 -5.30267,9.157 -5.34837,9.1235 6.86419,5.0383 22.77024,-7.6169 81.42804,-36.2087 131.49996,-64.0977 11.38942,-6.3436 10.04146,-6.1554 30.20077,-4.2177 20.01217,1.9235 31.96864,2.2419 49.19467,1.3101 55.17844,-2.9847 102.93232,-14.2035 144.89661,-34.0405 6.55012,-3.0963 12.9767,-5.6324 14.28133,-5.6356 2.09,-0.01 11.29487,8.8997 77.4162,74.8934 l 75.0441,74.8993 9.7203,0 9.7203,0 0,-10.8975 0,-10.8977 -266.50395,-266.0455 c -242.55734,-242.14 -266.50391,-266.2709 -266.50391,-268.5544 0,-2.2836 23.94657,-26.4143 266.50391,-268.5545 l 266.50395,-266.0455 0,-10.8976 0,-10.8976 -10.1213,0 -10.1213,0 -266.773,266.3089 c -212.48612,212.1163 -267.17576,266.3088 -268.75228,266.3088 -1.57653,0 -56.26617,-54.1925 -268.75229,-266.3088 l -266.773001,-266.3089 -10.518278,0 -10.5182766,0 0,10.8964 0,10.8965 266.7685856,266.3132 c 202.98455,202.6381 266.76859,266.7562 266.76859,268.1658 0,1.4087 -63.91109,65.7611 -266.76859,268.6104 l -266.7685856,266.7578 0,10.5752 0,10.575 10.1212996,0 10.1213,0 266.772996,-266.3088 z m 724.74493,194.8434 -71.58871,-71.4653 -3.83638,1.6516 c -2.10994,0.9084 -8.48094,3.7875 -14.15771,6.3978 -53.71664,24.7008 -128.85201,36.2613 -193.86129,29.8279 l -13.63369,-1.3492 -14.55168,7.9128 c -35.89079,19.5166 -62.12336,33.0781 -83.17459,42.9992 -31.2609,14.7326 -48.27189,21.1977 -57.79509,21.9654 -10.49161,0.8458 -10.73966,-1.7796 -1.68697,-17.8551 7.81694,-13.881 16.76424,-32.3808 21.21088,-43.8565 6.33158,-16.3401 9.83705,-34.0707 8.49817,-42.9835 -0.54925,-3.6565 -0.60296,-3.711 -6.65569,-6.7644 -22.11956,-11.1585 -45.00602,-28.0355 -62.29919,-45.9409 -22.43388,-23.2281 -35.96819,-48.1277 -41.62126,-76.5721 -2.16487,-10.8929 -1.92621,-34.4027 0.46262,-45.5736 5.16235,-24.1408 16.48544,-46.1382 34.54051,-67.1021 24.96564,-28.9878 63.81452,-54.2501 108.26923,-70.4043 4.47591,-1.6266 8.13803,-3.1867 8.13803,-3.4671 0,-0.2803 -16.07829,-16.5572 -35.72952,-36.1709 l -35.72951,-35.6614 -263.39255,262.9386 -263.392556,262.9385 526.787866,0 526.78788,0 -71.5888,-71.4654 z M 530.95291,1751.8468 c 0,-0.4365 -118.25947,-118.8488 -262.79882,-263.1384 L 5.3552744,1226.3633 l 0,186.8517 0,186.8517 29.6215316,0 c 23.446845,0 29.923629,0.2205 31.070766,1.0578 1.382139,1.0089 1.260045,1.7504 -2.636896,16.0138 -8.603041,31.4887 -14.768548,65.6896 -17.568887,97.457 -0.461129,5.2311 -1.05276,18.7843 -1.314737,30.1182 -1.13814,49.2392 5.300021,97.3728 19.628289,146.7467 3.724375,12.8338 7.347442,11.3742 -28.232832,11.3742 l -30.5672346,0 0,187.2478 0,187.248 262.7988156,-262.345 c 144.53935,-144.2897 262.79882,-262.702 262.79882,-263.1384 z M 78.513906,1901.4474 c -1.125771,-2.1246 -6.059942,-19.1193 -9.147098,-31.5053 -9.951016,-39.9246 -14.016918,-73.3665 -14.02088,-115.3212 -0.0032,-34.2718 2.943513,-64.4028 9.528005,-97.4258 3.242572,-16.2623 8.79039,-38.6997 12.31272,-49.797 1.93498,-6.0964 2.220867,-6.536 4.224276,-6.4959 3.314186,0.067 238.685291,118.1147 239.011271,119.874 0.15243,0.8227 -1.08567,2.8873 -2.92766,4.8822 -12.85001,13.9166 -12.88077,38.4269 -0.0657,52.3057 1.71938,1.8621 3.12615,3.9697 3.12615,4.6835 0,0.9321 -33.56004,18.0493 -119.09207,60.7423 -65.5006,32.6945 -119.794488,59.4445 -120.653055,59.4445 -0.858566,0 -1.891765,-0.6242 -2.295999,-1.387 z m 118.979384,-63.6056 c 62.0072,-30.9508 112.73122,-56.5414 112.72004,-56.868 -0.0112,-0.3267 -1.27568,-2.5555 -2.81002,-4.9531 -4.55292,-7.1145 -6.27895,-13.9211 -6.23045,-24.5702 0.035,-7.6879 0.35828,-10.0031 2.06495,-14.7899 1.1129,-3.1212 3.14223,-7.33 4.50965,-9.3526 1.36741,-2.0226 2.4862,-4.016 2.4862,-4.4298 0,-1.1134 -225.589845,-113.5178 -226.302133,-112.7593 -1.597381,1.701 -9.575463,33.7136 -13.395629,53.7509 -6.538498,34.2952 -8.32796,53.6191 -8.367181,90.3548 -0.03446,32.2433 0.649693,42.1252 4.801136,69.3512 3.912399,25.6583 14.742556,70.5402 17.021609,70.5402 0.418795,0 51.494618,-25.3235 113.501828,-56.2742 z m 129.81143,-64.7933 c -2.18717,-2.1481 -4.88404,-5.9772 -6.28,-8.9166 -2.16912,-4.5675 -2.44709,-5.9629 -2.45059,-12.3018 -0.004,-6.4652 0.2425,-7.6496 2.56948,-12.3683 3.04056,-6.1656 9.40649,-12.5814 12.48357,-12.5814 1.11362,0 11.27982,4.6221 22.59156,10.2715 18.76138,9.3699 20.61135,10.4741 21.0746,12.5796 1.16383,5.2897 1.02343,5.3984 -21.45467,16.6086 -11.55013,5.7602 -21.83281,10.4732 -22.8504,10.4732 -1.13991,0 -3.32178,-1.4453 -5.68355,-3.7648 z m 24.22145,-12.0904 c 9.60305,-4.7971 17.46009,-8.8971 17.46009,-9.1113 0,-0.9271 -34.98275,-17.7648 -36.05533,-17.3539 -1.97049,0.7549 -5.86856,7.5652 -7.15732,12.5045 -1.33071,5.1002 -0.83232,9.1539 1.86146,15.1402 1.32872,2.9528 4.97322,7.5424 5.98923,7.5424 0.24298,0 8.29883,-3.9249 17.90187,-8.7219 z m 764.43013,238.968 c -11.0624,-15.1748 -26.4106,-31.1437 -37.6225,-39.144 -14.1372,-10.0878 -30.4721,-16.4162 -47.4676,-18.3897 -14.8766,-1.7274 -28.7415,0.1132 -51.58129,6.8476 -6.62983,1.9548 -17.59204,5.0431 -24.3605,6.8629 l -12.30628,3.3086 -14.68816,0.023 c -14.0198,0.022 -14.99525,-0.078 -21.43676,-2.2121 -9.20351,-3.0485 -26.59548,-12.0855 -35.68895,-18.5443 -14.70522,-10.4445 -29.74462,-27.3021 -40.24037,-45.1052 -6.27605,-10.6456 -15.19922,-29.4258 -21.20755,-44.6346 -6.82142,-17.2671 -12.14869,-34.6508 -18.45973,-60.2365 -2.84943,-11.5519 -7.643,-30.9901 -10.65241,-43.1959 -3.00948,-12.2058 -7.4538,-28.3553 -9.87631,-35.8877 -4.47631,-13.9183 -5.31147,-18.8994 -3.29809,-19.6707 0.60857,-0.2331 3.72357,0.8919 6.92225,2.4999 14.20591,7.1417 34.75509,13.6057 53.8997,16.955 19.49245,3.4101 37.39572,4.9177 75.82262,6.3849 48.79182,1.863 69.32212,4.1232 93.8353,10.3308 29.45003,7.4577 54.31893,20.6859 71.66733,38.121 14.7485,14.8225 23.4972,33.2115 26.1555,54.9773 1.2464,10.205 1.0791,31.6665 -0.3833,49.1481 -2.9378,35.1197 1.9055,53.3857 19.5522,73.7397 l 3.1436,3.626 0,-360.0799 0,-360.0798 -262.7988,262.3453 c -144.53936,144.2896 -262.79883,262.8799 -262.79883,263.5338 0,0.6539 118.17015,119.1557 262.60034,263.3375 l 262.60029,262.1486 0.2009,-137.3159 0.2009,-137.316 -1.7335,-2.3777 z m -2.0271,-48.5288 c -7.6609,-8.8024 -13.0385,-15.7982 -16.0059,-20.8225 -9.6066,-16.2656 -11.8714,-32.7166 -9.2213,-66.9822 3.389,-43.819 -1.7296,-67.8237 -19.0169,-89.183 -17.3389,-21.423 -53.2053,-39.1795 -92.72417,-45.9053 -19.12786,-3.2554 -37.98888,-4.7702 -79.59819,-6.3929 -57.78771,-2.2537 -86.48391,-6.8132 -114.29619,-18.1606 -4.34849,-1.7742 -7.96931,-3.2258 -8.04633,-3.2258 -0.077,0 0.90043,3.2992 2.1721,7.3315 4.03623,12.798 8.41274,29.5337 14.97485,57.2643 12.71429,53.7287 20.80222,78.3415 35.68124,108.5842 18.28531,37.166 36.94617,56.7145 68.43908,71.6948 12.68119,6.032 18.91953,7.5387 31.24551,7.5462 12.33931,0.01 18.34272,-1.1914 43.59308,-8.7058 26.88305,-8.0003 30.57422,-8.6476 49.29952,-8.6449 13.4988,0 16.9865,0.2604 23.2665,1.7244 14.9221,3.4787 28.8532,10.2691 41.8378,20.3931 6.9276,5.4015 22.5168,21.0815 28.1915,28.3557 l 3.5666,4.5719 0.214,-17.5461 0.2139,-17.546 -3.7867,-4.351 z m -68.7733,-60.6498 c -1.0758,-0.9809 -6.4521,-7.1941 -11.9475,-13.8071 -31.9373,-38.4327 -61.28209,-60.4597 -95.75098,-71.8737 -5.89511,-1.952 -22.42412,-6.4363 -36.73117,-9.965 -38.65612,-9.5342 -51.35454,-14.8631 -66.08819,-27.734 -7.7235,-6.747 -12.30398,-12.4907 -12.30398,-15.4289 0,-5.4996 6.58346,-8.0292 10.3815,-3.9888 3.35327,3.5672 12.82466,10.399 19.02386,13.7221 11.71368,6.2792 24.61464,9.592 63.75158,16.3706 39.75241,6.8851 64.95457,16.2675 86.80138,32.3146 7.201,5.2894 22.5408,20.7081 28.7477,28.8956 8.6053,11.3512 16.6769,25.4466 21.8512,38.1587 3.2189,7.9082 3.3414,9.6772 0.8727,12.606 -2.5703,3.0495 -5.767,3.3205 -8.6081,0.7299 z m 2.1425,-9.1148 c -1.5849,-4.6882 -11.1644,-23.1163 -15.1415,-29.1275 -19.9209,-30.1098 -42.26603,-46.7737 -78.42342,-58.4842 -13.42695,-4.3487 -23.49246,-6.6277 -48.03422,-10.8756 -36.39367,-6.2995 -49.23905,-10.1362 -63.08998,-18.8441 -5.31139,-3.3393 -1.54003,0.2892 4.39367,4.2272 12.24324,8.1252 24.7042,12.5188 60.36885,21.2857 27.03009,6.6443 39.12106,10.5178 51.91936,16.633 27.23295,13.0122 53.18344,34.9243 80.05214,67.5948 7.1509,8.695 8.889,10.3534 7.9551,7.5907 z m -989.542155,14.0708 c 0,-0.4346 -1.776345,-7.657 -3.947436,-16.0499 -6.87708,-26.5849 -11.137048,-50.2904 -14.065432,-78.2702 -1.992717,-19.0398 -1.991154,-74.0524 0.0026,-93.5251 3.228086,-31.5274 8.761318,-62.2179 16.046292,-89.002 1.516833,-5.5768 2.757879,-10.481 2.757879,-10.898 0,-0.4677 -10.195459,-0.7584 -26.597466,-0.7584 l -26.5974633,0 0,144.6469 0,144.6469 26.2004863,0 c 16.883794,0 26.200489,-0.281 26.200489,-0.7902 z m 768.547125,-438.6509 262.40143,-261.9973 -215.35965,0 c -177.74436,0 -215.35959,0.1826 -215.35959,1.0452 0,1.6664 5.6138,10.3976 9.71569,15.1109 2.06857,2.3769 15.17262,15.2344 29.1201,28.5723 25.02846,23.9346 35.58901,35.0882 45.18828,47.7262 14.59996,19.2217 24.38468,39.936 28.45544,60.2402 1.94352,9.6939 1.93939,33.2959 -0.008,43.8665 -8.19123,44.4707 -30.95737,87.1888 -69.37008,130.1653 -18.69711,20.9184 -49.12535,47.1822 -61.88199,53.4127 -6.30085,3.0774 -12.45765,3.4474 -16.08473,0.9665 -4.30408,-2.944 -5.95253,-6.995 -5.89737,-14.4925 0.0773,-10.5068 14.02819,-72.8198 26.98149,-120.5154 3.67005,-13.5136 7.07815,-26.2434 7.57354,-28.2883 l 0.90072,-3.7181 -5.7848,-6.8021 c -41.52433,-48.8262 -96.40269,-63.809 -152.55397,-41.6502 -9.95482,3.9285 -22.75157,10.8562 -23.29259,12.6098 -1.40353,4.5494 -16.40461,88.3636 -18.66901,104.3079 -4.21318,29.666 -8.85713,43.7554 -15.45769,46.8975 -7.079,3.3699 -13.59052,-3.7283 -24.559,-26.7719 -18.71473,-39.3183 -31.62304,-82.9746 -36.7677,-124.3507 -1.87371,-15.0693 -1.86035,-46.8794 0.0252,-59.8402 1.90727,-13.1108 4.8859,-26.0613 8.18199,-35.5738 8.04524,-23.2185 17.24277,-31.3187 71.05085,-62.574 8.32996,-4.8386 11.7977,-8.2862 15.71572,-15.6245 l 2.51969,-4.7193 -218.97895,0 -218.978968,0 263.144048,262.6914 c 206.93436,206.5784 263.40941,262.5432 264.38628,261.9974 0.68322,-0.3818 119.32284,-118.593 263.64359,-262.6915 z m -193.17666,113.2916 c 7.85511,-2.3287 28.54552,-18.4553 47.76832,-37.2318 48.79113,-47.6584 78.93312,-102.8043 84.34487,-154.3122 2.67539,-25.4634 -5.23756,-52.6249 -23.10721,-79.3165 -12.15624,-18.1577 -21.45962,-28.2961 -55.21153,-60.1668 -11.3776,-10.7435 -22.67774,-21.9766 -25.11144,-24.9625 -5.75663,-7.0627 -10.09023,-13.9184 -10.68979,-16.911 l -0.47844,-2.3881 -85.12103,0 -85.12103,0 -3.31393,6.6763 c -5.16608,10.4076 -9.44055,14.1789 -28.70796,25.3289 -31.57787,18.2739 -44.06217,27.4009 -50.26448,36.747 -10.84261,16.3386 -17.4867,46.6422 -17.42197,79.4614 0.0557,28.2121 4.43333,55.9194 14.07096,89.0578 10.97464,37.7355 32.8674,86.1036 38.97295,86.1036 2.28679,0 6.45689,-11.0896 9.00895,-23.9576 0.88813,-4.4782 2.54242,-14.562 3.67618,-22.4086 1.78076,-12.3244 4.5618,-28.0231 16.06188,-90.6679 1.98588,-10.8178 2.23855,-11.5489 4.87395,-14.104 3.46264,-3.357 20.76859,-11.892 31.79245,-15.6794 4.55959,-1.5665 12.77701,-3.8019 18.26094,-4.9677 9.09043,-1.9323 11.51295,-2.1193 27.43775,-2.1172 15.04749,0 18.58748,0.245 25.55612,1.7545 20.3948,4.4175 38.70015,13.3587 56.7383,27.7133 11.76266,9.3607 30.92377,29.889 31.99513,34.2781 0.30462,1.248 -1.6771,9.9464 -5.41422,23.7647 -9.56743,35.3762 -12.08832,45.2569 -17.08697,66.9735 -7.46454,32.4295 -12.78992,58.3797 -12.78992,62.3242 0,4.7958 1.39555,8.579 3.47371,9.4167 0.92784,0.3741 1.71146,0.7028 1.74138,0.7304 0.0299,0.028 1.85964,-0.485 4.06608,-1.1391 z"
         id="path3012"
         inkscape:connector-curvature="0" />
    </g>
  </g>
</svg>
