  0
SECTION
  2
HEADER
  9
$ACADVER
  1
AC1014
  9
$HANDSEED
  5
FFFF
  9
$MEASUREMENT
 70
     1
  0
ENDSEC
  0
SECTION
  2
TABLES
  0
TABLE
  2
VPORT
  5
8
330
0
100
AcDbSymbolTable
 70
     4
  0
VPORT
  5
2E
330
8
100
AcDbSymbolTableRecord
100
AcDbViewportTableRecord
  2
*ACTIVE
 70
     0
 10
0.0
 20
0.0
 11
1.0
 21
1.0
 12
210.0
 22
148.5
 13
0.0
 23
0.0
 14
10.0
 24
10.0
 15
10.0
 25
10.0
 16
0.0
 26
0.0
 36
1.0
 17
0.0
 27
0.0
 37
0.0
 40
341.0
 41
1.24
 42
50.0
 43
0.0
 44
0.0
 50
0.0
 51
0.0
 71
     0
 72
   100
 73
     1
 74
     3
 75
     0
 76
     0
 77
     0
 78
     0
  0
ENDTAB
  0
TABLE
  2
LTYPE
  5
5
330
0
100
AcDbSymbolTable
 70
     1
  0
LTYPE
  5
14
330
5
100
AcDbSymbolTableRecord
100
AcDbLinetypeTableRecord
  2
BYBLOCK
 70
     0
  3

 72
    65
 73
     0
 40
0.0
  0
LTYPE
  5
15
330
5
100
AcDbSymbolTableRecord
100
AcDbLinetypeTableRecord
  2
BYLAYER
 70
     0
  3

 72
    65
 73
     0
 40
0.0
  0
LTYPE
  5
16
330
5
100
AcDbSymbolTableRecord
100
AcDbLinetypeTableRecord
  2
CONTINUOUS
 70
     0
  3
Solid line
 72
    65
 73
     0
 40
0.0
  0
ENDTAB
  0
TABLE
  2
LAYER
  5
2
100
AcDbSymbolTable
 70
2
  0
LAYER
  5
50
100
AcDbSymbolTableRecord
100
AcDbLayerTableRecord
  2
0
 70
0
  6
CONTINUOUS
  0
LAYER
  5
51
100
AcDbSymbolTableRecord
100
AcDbLayerTableRecord
  2
Layer_1
 70
0
  6
CONTINUOUS
  0
ENDTAB
  0
TABLE
  2
STYLE
  5
3
330
0
100
AcDbSymbolTable
 70
     1
  0
STYLE
  5
11
330
3
100
AcDbSymbolTableRecord
100
AcDbTextStyleTableRecord
  2
STANDARD
 70
     0
 40
0.0
 41
1.0
 50
0.0
 71
     0
 42
2.5
  3
txt
  4

  0
ENDTAB
  0
TABLE
  2
VIEW
  5
6
330
0
100
AcDbSymbolTable
 70
     0
  0
ENDTAB
  0
TABLE
  2
UCS
  5
7
330
0
100
AcDbSymbolTable
 70
     0
  0
ENDTAB
  0
TABLE
  2
APPID
  5
9
330
0
100
AcDbSymbolTable
 70
     2
  0
APPID
  5
12
330
9
100
AcDbSymbolTableRecord
100
AcDbRegAppTableRecord
  2
ACAD
 70
     0
  0
ENDTAB
  0
TABLE
  2
DIMSTYLE
  5
A
330
0
100
AcDbSymbolTable
 70
     1
  0
DIMSTYLE
105
27
330
A
100
AcDbSymbolTableRecord
100
AcDbDimStyleTableRecord
  2
ISO-25
 70
     0
  3

  4

  5

  6

  7

 40
1.0
 41
2.5
 42
0.625
 43
3.75
 44
1.25
 45
0.0
 46
0.0
 47
0.0
 48
0.0
140
2.5
141
2.5
142
0.0
143
0.03937007874016
144
1.0
145
0.0
146
1.0
147
0.625
 71
     0
 72
     0
 73
     0
 74
     0
 75
     0
 76
     0
 77
     1
 78
     8
170
     0
171
     3
172
     1
173
     0
174
     0
175
     0
176
     0
177
     0
178
     0
270
     2
271
     2
272
     2
273
     2
274
     3
340
11
275
     0
280
     0
281
     0
282
     0
283
     0
284
     8
285
     0
286
     0
287
     3
288
     0
  0
ENDTAB
  0
TABLE
  2
BLOCK_RECORD
  5
1
330
0
100
AcDbSymbolTable
 70
     1
  0
BLOCK_RECORD
  5
1F
330
1
100
AcDbSymbolTableRecord
100
AcDbBlockTableRecord
  2
*MODEL_SPACE
  0
BLOCK_RECORD
  5
1B
330
1
100
AcDbSymbolTableRecord
100
AcDbBlockTableRecord
  2
*PAPER_SPACE
  0
ENDTAB
  0
ENDSEC
  0
SECTION
  2
BLOCKS
  0
BLOCK
  5
20
330
1F
100
AcDbEntity
  8
0
100
AcDbBlockBegin
  2
*MODEL_SPACE
 70
     0
 10
0.0
 20
0.0
 30
0.0
  3
*MODEL_SPACE
  1

  0
ENDBLK
  5
21
330
1F
100
AcDbEntity
  8
0
100
AcDbBlockEnd
  0
BLOCK
  5
1C
330
1B
100
AcDbEntity
 67
     1
  8
0
100
AcDbBlockBegin
  2
*PAPER_SPACE
  1

  0
ENDBLK
  5
1D
330
1B
100
AcDbEntity
 67
     1
  8
0
100
AcDbBlockEnd
  0
ENDSEC
  0
SECTION
  2
ENTITIES
  0
SPLINE
  5
100
100
AcDbEntity
  8
Layer_1
 62
7
100
AcDbSpline
 70
8
 71
3
 72
8
 73
4
 74
0
 40
0
 40
0
 40
0
 40
0
 40
1
 40
1
 40
1
 40
1
 10
0.372499
 20
0.354106
 30
0.0
 10
0.064463
 20
0.661648
 30
0.0
 10
0.000000
 20
35.197663
 30
0.0
 10
0.000000
 20
199.920979
 30
0.0
  0
SPLINE
  5
101
100
AcDbEntity
  8
Layer_1
 62
7
100
AcDbSpline
 70
8
 71
3
 72
8
 73
4
 74
0
 40
0
 40
0
 40
0
 40
0
 40
1
 40
1
 40
1
 40
1
 10
0.000000
 20
199.920979
 30
0.0
 10
0.000000
 20
380.576453
 30
0.0
 10
0.041201
 20
399.157125
 30
0.0
 10
0.442680
 20
399.557938
 30
0.0
  0
SPLINE
  5
102
100
AcDbEntity
  8
Layer_1
 62
7
100
AcDbSpline
 70
8
 71
3
 72
8
 73
4
 74
0
 40
0
 40
0
 40
0
 40
0
 40
1
 40
1
 40
1
 40
1
 10
0.442680
 20
399.557938
 30
0.0
 10
0.844157
 20
399.958716
 30
0.0
 10
19.418571
 20
399.999866
 30
0.0
 10
200.001853
 20
400.000008
 30
0.0
  0
SPLINE
  5
103
100
AcDbEntity
  8
Layer_1
 62
7
100
AcDbSpline
 70
8
 71
3
 72
8
 73
4
 74
0
 40
0
 40
0
 40
0
 40
0
 40
1
 40
1
 40
1
 40
1
 10
200.001853
 20
400.000008
 30
0.0
 10
380.620892
 20
400.000185
 30
0.0
 10
399.159491
 20
399.959142
 30
0.0
 10
399.561192
 20
399.558115
 30
0.0
  0
SPLINE
  5
104
100
AcDbEntity
  8
Layer_1
 62
7
100
AcDbSpline
 70
8
 71
3
 72
8
 73
4
 74
0
 40
0
 40
0
 40
0
 40
0
 40
1
 40
1
 40
1
 40
1
 10
399.561192
 20
399.558115
 30
0.0
 10
399.962964
 20
399.157054
 30
0.0
 10
400.003688
 20
380.620124
 30
0.0
 10
399.999747
 20
199.971218
 30
0.0
  0
SPLINE
  5
105
100
AcDbEntity
  8
Layer_1
 62
7
100
AcDbSpline
 70
8
 71
3
 72
8
 73
4
 74
0
 40
0
 40
0
 40
0
 40
0
 40
1
 40
1
 40
1
 40
1
 10
399.999747
 20
199.971218
 30
0.0
 10
399.996196
 20
90.441653
 30
0.0
 10
399.892842
 20
0.665057
 30
0.0
 10
399.767439
 20
0.467792
 30
0.0
  0
SPLINE
  5
106
100
AcDbEntity
  8
Layer_1
 62
7
100
AcDbSpline
 70
8
 71
3
 72
8
 73
4
 74
0
 40
0
 40
0
 40
0
 40
0
 40
1
 40
1
 40
1
 40
1
 10
399.767439
 20
0.467792
 30
0.0
 10
399.422759
 20
-0.074330
 30
0.0
 10
0.915330
 20
-0.187768
 30
0.0
 10
0.372499
 20
0.354106
 30
0.0
  0
LINE
  5
107
100
AcDbEntity
  8
Layer_1
 62
7
100
AcDbLine
 10
0.372499
 20
0.354106
 30
0.0
 11
0.372499
 21
0.354106
 31
0.0
  0
SPLINE
  5
108
100
AcDbEntity
  8
Layer_1
 62
7
100
AcDbSpline
 70
8
 71
3
 72
8
 73
4
 74
0
 40
0
 40
0
 40
0
 40
0
 40
1
 40
1
 40
1
 40
1
 10
104.441229
 20
96.926527
 30
0.0
 10
188.343144
 20
180.682404
 30
0.0
 10
199.254677
 20
191.478798
 30
0.0
 10
200.001960
 20
191.478798
 30
0.0
  0
SPLINE
  5
109
100
AcDbEntity
  8
Layer_1
 62
7
100
AcDbSpline
 70
8
 71
3
 72
8
 73
4
 74
0
 40
0
 40
0
 40
0
 40
0
 40
1
 40
1
 40
1
 40
1
 10
200.001960
 20
191.478798
 30
0.0
 10
200.739358
 20
191.478798
 30
0.0
 10
202.575959
 20
189.751669
 30
0.0
 10
214.588857
 20
177.761356
 30
0.0
  0
SPLINE
  5
10a
100
AcDbEntity
  8
Layer_1
 62
7
100
AcDbSpline
 70
8
 71
3
 72
8
 73
4
 74
0
 40
0
 40
0
 40
0
 40
0
 40
1
 40
1
 40
1
 40
1
 10
214.588857
 20
177.761356
 30
0.0
 10
229.270967
 20
163.106872
 30
0.0
 10
229.100381
 20
163.311983
 30
0.0
 10
227.697879
 20
161.997845
 30
0.0
  0
SPLINE
  5
10b
100
AcDbEntity
  8
Layer_1
 62
7
100
AcDbSpline
 70
8
 71
3
 72
8
 73
4
 74
0
 40
0
 40
0
 40
0
 40
0
 40
1
 40
1
 40
1
 40
1
 10
227.697879
 20
161.997845
 30
0.0
 10
227.349038
 20
161.670988
 30
0.0
 10
224.970581
 20
160.622675
 30
0.0
 10
222.412413
 20
159.668236
 30
0.0
  0
SPLINE
  5
10c
100
AcDbEntity
  8
Layer_1
 62
7
100
AcDbSpline
 70
8
 71
3
 72
8
 73
4
 74
0
 40
0
 40
0
 40
0
 40
0
 40
1
 40
1
 40
1
 40
1
 10
222.412413
 20
159.668236
 30
0.0
 10
207.133745
 20
153.968052
 30
0.0
 10
193.725857
 20
145.123035
 30
0.0
 10
185.531380
 20
135.338384
 30
0.0
  0
SPLINE
  5
10d
100
AcDbEntity
  8
Layer_1
 62
7
100
AcDbSpline
 70
8
 71
3
 72
8
 73
4
 74
0
 40
0
 40
0
 40
0
 40
0
 40
1
 40
1
 40
1
 40
1
 10
185.531380
 20
135.338384
 30
0.0
 10
176.567478
 20
124.634976
 30
0.0
 10
172.237236
 20
111.805934
 30
0.0
 10
173.753381
 20
100.444091
 30
0.0
  0
SPLINE
  5
10e
100
AcDbEntity
  8
Layer_1
 62
7
100
AcDbSpline
 70
8
 71
3
 72
8
 73
4
 74
0
 40
0
 40
0
 40
0
 40
0
 40
1
 40
1
 40
1
 40
1
 10
173.753381
 20
100.444091
 30
0.0
 10
174.505322
 20
94.809094
 30
0.0
 10
175.785826
 20
90.702826
 30
0.0
 10
178.448148
 20
85.388900
 30
0.0
  0
SPLINE
  5
10f
100
AcDbEntity
  8
Layer_1
 62
7
100
AcDbSpline
 70
8
 71
3
 72
8
 73
4
 74
0
 40
0
 40
0
 40
0
 40
0
 40
1
 40
1
 40
1
 40
1
 10
178.448148
 20
85.388900
 30
0.0
 10
183.934951
 20
74.437420
 30
0.0
 10
193.793341
 20
64.847832
 30
0.0
 10
207.258753
 20
57.363819
 30
0.0
  0
SPLINE
  5
110
100
AcDbEntity
  8
Layer_1
 62
7
100
AcDbSpline
 70
8
 71
3
 72
8
 73
4
 74
0
 40
0
 40
0
 40
0
 40
0
 40
1
 40
1
 40
1
 40
1
 10
207.258753
 20
57.363819
 30
0.0
 10
208.849012
 20
56.479963
 30
0.0
 10
210.700780
 20
55.447165
 30
0.0
 10
211.373794
 20
55.068685
 30
0.0
  0
SPLINE
  5
111
100
AcDbEntity
  8
Layer_1
 62
7
100
AcDbSpline
 70
8
 71
3
 72
8
 73
4
 74
0
 40
0
 40
0
 40
0
 40
0
 40
1
 40
1
 40
1
 40
1
 10
211.373794
 20
55.068685
 30
0.0
 10
213.226692
 20
54.026691
 30
0.0
 10
213.489612
 20
53.141309
 30
0.0
 10
213.317052
 20
48.524731
 30
0.0
  0
SPLINE
  5
112
100
AcDbEntity
  8
Layer_1
 62
7
100
AcDbSpline
 70
8
 71
3
 72
8
 73
4
 74
0
 40
0
 40
0
 40
0
 40
0
 40
1
 40
1
 40
1
 40
1
 10
213.317052
 20
48.524731
 30
0.0
 10
213.158544
 20
44.284113
 30
0.0
 10
212.558659
 20
41.587420
 30
0.0
 10
210.547868
 20
36.076371
 30
0.0
  0
SPLINE
  5
113
100
AcDbEntity
  8
Layer_1
 62
7
100
AcDbSpline
 70
8
 71
3
 72
8
 73
4
 74
0
 40
0
 40
0
 40
0
 40
0
 40
1
 40
1
 40
1
 40
1
 10
210.547868
 20
36.076371
 30
0.0
 10
209.229662
 20
32.463513
 30
0.0
 10
204.962252
 20
23.543261
 30
0.0
 10
202.603269
 20
19.469622
 30
0.0
  0
SPLINE
  5
114
100
AcDbEntity
  8
Layer_1
 62
7
100
AcDbSpline
 70
8
 71
3
 72
8
 73
4
 74
0
 40
0
 40
0
 40
0
 40
0
 40
1
 40
1
 40
1
 40
1
 10
202.603269
 20
19.469622
 30
0.0
 10
200.720569
 20
16.218451
 30
0.0
 10
200.704343
 20
16.230345
 30
0.0
 10
205.040384
 20
17.680785
 30
0.0
  0
SPLINE
  5
115
100
AcDbEntity
  8
Layer_1
 62
7
100
AcDbSpline
 70
8
 71
3
 72
8
 73
4
 74
0
 40
0
 40
0
 40
0
 40
0
 40
1
 40
1
 40
1
 40
1
 10
205.040384
 20
17.680785
 30
0.0
 10
213.124903
 20
20.385147
 30
0.0
 10
233.951216
 20
30.536598
 30
0.0
 10
251.729132
 20
40.438521
 30
0.0
  0
SPLINE
  5
116
100
AcDbEntity
  8
Layer_1
 62
7
100
AcDbSpline
 70
8
 71
3
 72
8
 73
4
 74
0
 40
0
 40
0
 40
0
 40
0
 40
1
 40
1
 40
1
 40
1
 10
251.729132
 20
40.438521
 30
0.0
 10
255.772919
 20
42.690801
 30
0.0
 10
255.294329
 20
42.623981
 30
0.0
 10
262.451844
 20
41.936006
 30
0.0
  0
SPLINE
  5
117
100
AcDbEntity
  8
Layer_1
 62
7
100
AcDbSpline
 70
8
 71
3
 72
8
 73
4
 74
0
 40
0
 40
0
 40
0
 40
0
 40
1
 40
1
 40
1
 40
1
 10
262.451844
 20
41.936006
 30
0.0
 10
269.557117
 20
41.253072
 30
0.0
 10
273.802233
 20
41.140024
 30
0.0
 10
279.918294
 20
41.470858
 30
0.0
  0
SPLINE
  5
118
100
AcDbEntity
  8
Layer_1
 62
7
100
AcDbSpline
 70
8
 71
3
 72
8
 73
4
 74
0
 40
0
 40
0
 40
0
 40
0
 40
1
 40
1
 40
1
 40
1
 10
279.918294
 20
41.470858
 30
0.0
 10
299.509268
 20
42.530568
 30
0.0
 10
316.464170
 20
46.513777
 30
0.0
 10
331.363492
 20
53.556856
 30
0.0
  0
SPLINE
  5
119
100
AcDbEntity
  8
Layer_1
 62
7
100
AcDbSpline
 70
8
 71
3
 72
8
 73
4
 74
0
 40
0
 40
0
 40
0
 40
0
 40
1
 40
1
 40
1
 40
1
 10
331.363492
 20
53.556856
 30
0.0
 10
333.689096
 20
54.656190
 30
0.0
 10
335.970838
 20
55.556627
 30
0.0
 10
336.434044
 20
55.557763
 30
0.0
  0
SPLINE
  5
11a
100
AcDbEntity
  8
Layer_1
 62
7
100
AcDbSpline
 70
8
 71
3
 72
8
 73
4
 74
0
 40
0
 40
0
 40
0
 40
0
 40
1
 40
1
 40
1
 40
1
 10
336.434044
 20
55.557763
 30
0.0
 10
337.176093
 20
55.561313
 30
0.0
 10
340.444261
 20
52.397945
 30
0.0
 10
363.920482
 20
28.967039
 30
0.0
  0
LINE
  5
11b
100
AcDbEntity
  8
Layer_1
 62
7
100
AcDbLine
 10
363.920482
 20
28.967039
 30
0.0
 11
390.564711
 21
2.374221
 31
0.0
  0
LINE
  5
11c
100
AcDbEntity
  8
Layer_1
 62
7
100
AcDbLine
 10
390.564711
 20
2.374221
 30
0.0
 11
394.015880
 21
2.374221
 31
0.0
  0
LINE
  5
11d
100
AcDbEntity
  8
Layer_1
 62
7
100
AcDbLine
 10
394.015880
 20
2.374221
 30
0.0
 11
397.467050
 21
2.374221
 31
0.0
  0
LINE
  5
11e
100
AcDbEntity
  8
Layer_1
 62
7
100
AcDbLine
 10
397.467050
 20
2.374221
 30
0.0
 11
397.467050
 21
6.243352
 31
0.0
  0
LINE
  5
11f
100
AcDbEntity
  8
Layer_1
 62
7
100
AcDbLine
 10
397.467050
 20
6.243352
 30
0.0
 11
397.467050
 21
10.112554
 31
0.0
  0
LINE
  5
120
100
AcDbEntity
  8
Layer_1
 62
7
100
AcDbLine
 10
397.467050
 20
10.112554
 30
0.0
 11
302.845456
 21
104.571377
 31
0.0
  0
SPLINE
  5
121
100
AcDbEntity
  8
Layer_1
 62
7
100
AcDbSpline
 70
8
 71
3
 72
8
 73
4
 74
0
 40
0
 40
0
 40
0
 40
0
 40
1
 40
1
 40
1
 40
1
 10
302.845456
 20
104.571377
 30
0.0
 10
216.726048
 20
190.542609
 30
0.0
 10
208.223876
 20
199.110228
 30
0.0
 10
208.223876
 20
199.920979
 30
0.0
  0
SPLINE
  5
122
100
AcDbEntity
  8
Layer_1
 62
7
100
AcDbSpline
 70
8
 71
3
 72
8
 73
4
 74
0
 40
0
 40
0
 40
0
 40
0
 40
1
 40
1
 40
1
 40
1
 10
208.223876
 20
199.920979
 30
0.0
 10
208.223876
 20
200.731766
 30
0.0
 10
216.726048
 20
209.299313
 30
0.0
 10
302.845456
 20
295.270616
 30
0.0
  0
LINE
  5
123
100
AcDbEntity
  8
Layer_1
 62
7
100
AcDbLine
 10
302.845456
 20
295.270616
 30
0.0
 11
397.467050
 21
389.729439
 31
0.0
  0
LINE
  5
124
100
AcDbEntity
  8
Layer_1
 62
7
100
AcDbLine
 10
397.467050
 20
389.729439
 30
0.0
 11
397.467050
 21
393.598606
 31
0.0
  0
LINE
  5
125
100
AcDbEntity
  8
Layer_1
 62
7
100
AcDbLine
 10
397.467050
 20
393.598606
 30
0.0
 11
397.467050
 21
397.467773
 31
0.0
  0
LINE
  5
126
100
AcDbEntity
  8
Layer_1
 62
7
100
AcDbLine
 10
397.467050
 20
397.467773
 30
0.0
 11
393.873506
 21
397.467773
 31
0.0
  0
LINE
  5
127
100
AcDbEntity
  8
Layer_1
 62
7
100
AcDbLine
 10
393.873506
 20
397.467773
 30
0.0
 11
390.279963
 21
397.467773
 31
0.0
  0
LINE
  5
128
100
AcDbEntity
  8
Layer_1
 62
7
100
AcDbLine
 10
390.279963
 20
397.467773
 30
0.0
 11
295.562843
 21
302.915430
 31
0.0
  0
SPLINE
  5
129
100
AcDbEntity
  8
Layer_1
 62
7
100
AcDbSpline
 70
8
 71
3
 72
8
 73
4
 74
0
 40
0
 40
0
 40
0
 40
0
 40
1
 40
1
 40
1
 40
1
 10
295.562843
 20
302.915430
 30
0.0
 10
220.120151
 20
227.604042
 30
0.0
 10
200.702724
 20
208.363124
 30
0.0
 10
200.142985
 20
208.363124
 30
0.0
  0
SPLINE
  5
12a
100
AcDbEntity
  8
Layer_1
 62
7
100
AcDbSpline
 70
8
 71
3
 72
8
 73
4
 74
0
 40
0
 40
0
 40
0
 40
0
 40
1
 40
1
 40
1
 40
1
 10
200.142985
 20
208.363124
 30
0.0
 10
199.583241
 20
208.363124
 30
0.0
 10
180.165815
 20
227.604042
 30
0.0
 10
104.723123
 20
302.915430
 30
0.0
  0
LINE
  5
12b
100
AcDbEntity
  8
Layer_1
 62
7
100
AcDbLine
 10
104.723123
 20
302.915430
 30
0.0
 11
10.006002
 21
397.467773
 31
0.0
  0
LINE
  5
12c
100
AcDbEntity
  8
Layer_1
 62
7
100
AcDbLine
 10
10.006002
 20
397.467773
 30
0.0
 11
6.271513
 21
397.467773
 31
0.0
  0
LINE
  5
12d
100
AcDbEntity
  8
Layer_1
 62
7
100
AcDbLine
 10
6.271513
 20
397.467773
 30
0.0
 11
2.537024
 21
397.467773
 31
0.0
  0
LINE
  5
12e
100
AcDbEntity
  8
Layer_1
 62
7
100
AcDbLine
 10
2.537024
 20
397.467773
 30
0.0
 11
2.537024
 21
393.599032
 31
0.0
  0
LINE
  5
12f
100
AcDbEntity
  8
Layer_1
 62
7
100
AcDbLine
 10
2.537024
 20
393.599032
 30
0.0
 11
2.537024
 21
389.730255
 31
0.0
  0
LINE
  5
130
100
AcDbEntity
  8
Layer_1
 62
7
100
AcDbLine
 10
2.537024
 20
389.730255
 30
0.0
 11
97.252576
 21
295.176386
 31
0.0
  0
SPLINE
  5
131
100
AcDbEntity
  8
Layer_1
 62
7
100
AcDbSpline
 70
8
 71
3
 72
8
 73
4
 74
0
 40
0
 40
0
 40
0
 40
0
 40
1
 40
1
 40
1
 40
1
 10
97.252576
 20
295.176386
 30
0.0
 10
169.321758
 20
223.230210
 30
0.0
 10
191.968130
 20
200.465231
 30
0.0
 10
191.968130
 20
199.964756
 30
0.0
  0
SPLINE
  5
132
100
AcDbEntity
  8
Layer_1
 62
7
100
AcDbSpline
 70
8
 71
3
 72
8
 73
4
 74
0
 40
0
 40
0
 40
0
 40
0
 40
1
 40
1
 40
1
 40
1
 10
191.968130
 20
199.964756
 30
0.0
 10
191.968130
 20
199.464601
 30
0.0
 10
169.276650
 20
176.616434
 30
0.0
 10
97.252576
 20
104.595272
 30
0.0
  0
LINE
  5
133
100
AcDbEntity
  8
Layer_1
 62
7
100
AcDbLine
 10
97.252576
 20
104.595272
 30
0.0
 11
2.537024
 21
9.883549
 31
0.0
  0
LINE
  5
134
100
AcDbEntity
  8
Layer_1
 62
7
100
AcDbLine
 10
2.537024
 20
9.883549
 30
0.0
 11
2.537024
 21
6.128849
 31
0.0
  0
LINE
  5
135
100
AcDbEntity
  8
Layer_1
 62
7
100
AcDbLine
 10
2.537024
 20
6.128849
 30
0.0
 11
2.537024
 21
2.374221
 31
0.0
  0
LINE
  5
136
100
AcDbEntity
  8
Layer_1
 62
7
100
AcDbLine
 10
2.537024
 20
2.374221
 30
0.0
 11
6.130567
 21
2.374221
 31
0.0
  0
LINE
  5
137
100
AcDbEntity
  8
Layer_1
 62
7
100
AcDbLine
 10
6.130567
 20
2.374221
 30
0.0
 11
9.724111
 21
2.374221
 31
0.0
  0
LINE
  5
138
100
AcDbEntity
  8
Layer_1
 62
7
100
AcDbLine
 10
9.724111
 20
2.374221
 30
0.0
 11
104.441229
 21
96.926527
 31
0.0
  0
LINE
  5
139
100
AcDbEntity
  8
Layer_1
 62
7
100
AcDbLine
 10
104.441229
 20
96.926527
 30
0.0
 11
104.441229
 21
96.926527
 31
0.0
  0
LINE
  5
13a
100
AcDbEntity
  8
Layer_1
 62
7
100
AcDbLine
 10
361.760194
 20
27.747841
 30
0.0
 11
336.342793
 21
53.121426
 31
0.0
  0
LINE
  5
13b
100
AcDbEntity
  8
Layer_1
 62
7
100
AcDbLine
 10
336.342793
 20
53.121426
 30
0.0
 11
334.980695
 21
52.535029
 31
0.0
  0
SPLINE
  5
13c
100
AcDbEntity
  8
Layer_1
 62
7
100
AcDbSpline
 70
8
 71
3
 72
8
 73
4
 74
0
 40
0
 40
0
 40
0
 40
0
 40
1
 40
1
 40
1
 40
1
 10
334.980695
 20
52.535029
 30
0.0
 10
334.231566
 20
52.212504
 30
0.0
 10
331.969558
 20
51.190286
 30
0.0
 10
329.954034
 20
50.263506
 30
0.0
  0
SPLINE
  5
13d
100
AcDbEntity
  8
Layer_1
 62
7
100
AcDbSpline
 70
8
 71
3
 72
8
 73
4
 74
0
 40
0
 40
0
 40
0
 40
0
 40
1
 40
1
 40
1
 40
1
 10
329.954034
 20
50.263506
 30
0.0
 10
310.882069
 20
41.493545
 30
0.0
 10
284.205434
 20
37.389017
 30
0.0
 10
261.124044
 20
39.673181
 30
0.0
  0
LINE
  5
13e
100
AcDbEntity
  8
Layer_1
 62
7
100
AcDbLine
 10
261.124044
 20
39.673181
 30
0.0
 11
256.283434
 21
40.152211
 31
0.0
  0
LINE
  5
13f
100
AcDbEntity
  8
Layer_1
 62
7
100
AcDbLine
 10
256.283434
 20
40.152211
 30
0.0
 11
251.116895
 21
37.342790
 31
0.0
  0
SPLINE
  5
140
100
AcDbEntity
  8
Layer_1
 62
7
100
AcDbSpline
 70
8
 71
3
 72
8
 73
4
 74
0
 40
0
 40
0
 40
0
 40
0
 40
1
 40
1
 40
1
 40
1
 10
251.116895
 20
37.342790
 30
0.0
 10
238.373955
 20
30.413468
 30
0.0
 10
229.060144
 20
25.598489
 30
0.0
 10
221.585955
 20
22.076026
 30
0.0
  0
SPLINE
  5
141
100
AcDbEntity
  8
Layer_1
 62
7
100
AcDbSpline
 70
8
 71
3
 72
8
 73
4
 74
0
 40
0
 40
0
 40
0
 40
0
 40
1
 40
1
 40
1
 40
1
 10
221.585955
 20
22.076026
 30
0.0
 10
210.486846
 20
16.845252
 30
0.0
 10
204.447135
 20
14.549833
 30
0.0
 10
201.065945
 20
14.277263
 30
0.0
  0
SPLINE
  5
142
100
AcDbEntity
  8
Layer_1
 62
7
100
AcDbSpline
 70
8
 71
3
 72
8
 73
4
 74
0
 40
0
 40
0
 40
0
 40
0
 40
1
 40
1
 40
1
 40
1
 10
201.065945
 20
14.277263
 30
0.0
 10
197.340924
 20
13.976964
 30
0.0
 10
197.252854
 20
14.909106
 30
0.0
 10
200.466990
 20
20.616674
 30
0.0
  0
SPLINE
  5
143
100
AcDbEntity
  8
Layer_1
 62
7
100
AcDbSpline
 70
8
 71
3
 72
8
 73
4
 74
0
 40
0
 40
0
 40
0
 40
0
 40
1
 40
1
 40
1
 40
1
 10
200.466990
 20
20.616674
 30
0.0
 10
203.242376
 20
25.545090
 30
0.0
 10
206.419094
 20
32.113400
 30
0.0
 10
207.997863
 20
36.187820
 30
0.0
  0
SPLINE
  5
144
100
AcDbEntity
  8
Layer_1
 62
7
100
AcDbSpline
 70
8
 71
3
 72
8
 73
4
 74
0
 40
0
 40
0
 40
0
 40
0
 40
1
 40
1
 40
1
 40
1
 10
207.997863
 20
36.187820
 30
0.0
 10
210.245875
 20
41.989334
 30
0.0
 10
211.490484
 20
48.284541
 30
0.0
 10
211.015118
 20
51.449010
 30
0.0
  0
SPLINE
  5
145
100
AcDbEntity
  8
Layer_1
 62
7
100
AcDbSpline
 70
8
 71
3
 72
8
 73
4
 74
0
 40
0
 40
0
 40
0
 40
0
 40
1
 40
1
 40
1
 40
1
 10
211.015118
 20
51.449010
 30
0.0
 10
210.820108
 20
52.747241
 30
0.0
 10
210.801039
 20
52.766591
 30
0.0
 10
208.652031
 20
53.850694
 30
0.0
  0
SPLINE
  5
146
100
AcDbEntity
  8
Layer_1
 62
7
100
AcDbSpline
 70
8
 71
3
 72
8
 73
4
 74
0
 40
0
 40
0
 40
0
 40
0
 40
1
 40
1
 40
1
 40
1
 10
208.652031
 20
53.850694
 30
0.0
 10
200.798534
 20
57.812493
 30
0.0
 10
192.672751
 20
63.804631
 30
0.0
 10
186.532852
 20
70.161901
 30
0.0
  0
SPLINE
  5
147
100
AcDbEntity
  8
Layer_1
 62
7
100
AcDbSpline
 70
8
 71
3
 72
8
 73
4
 74
0
 40
0
 40
0
 40
0
 40
0
 40
1
 40
1
 40
1
 40
1
 10
186.532852
 20
70.161901
 30
0.0
 10
178.567756
 20
78.408983
 30
0.0
 10
173.762431
 20
87.249527
 30
0.0
 10
171.755322
 20
97.348643
 30
0.0
  0
SPLINE
  5
148
100
AcDbEntity
  8
Layer_1
 62
7
100
AcDbSpline
 70
8
 71
3
 72
8
 73
4
 74
0
 40
0
 40
0
 40
0
 40
0
 40
1
 40
1
 40
1
 40
1
 10
171.755322
 20
97.348643
 30
0.0
 10
170.986690
 20
101.216142
 30
0.0
 10
171.071426
 20
109.563240
 30
0.0
 10
171.919574
 20
113.529442
 30
0.0
  0
SPLINE
  5
149
100
AcDbEntity
  8
Layer_1
 62
7
100
AcDbSpline
 70
8
 71
3
 72
8
 73
4
 74
0
 40
0
 40
0
 40
0
 40
0
 40
1
 40
1
 40
1
 40
1
 10
171.919574
 20
113.529442
 30
0.0
 10
173.752455
 20
122.100575
 30
0.0
 10
177.772691
 20
129.910700
 30
0.0
 10
184.183100
 20
137.353883
 30
0.0
  0
SPLINE
  5
14a
100
AcDbEntity
  8
Layer_1
 62
7
100
AcDbSpline
 70
8
 71
3
 72
8
 73
4
 74
0
 40
0
 40
0
 40
0
 40
0
 40
1
 40
1
 40
1
 40
1
 10
184.183100
 20
137.353883
 30
0.0
 10
193.047092
 20
147.645932
 30
0.0
 10
206.840294
 20
156.615252
 30
0.0
 10
222.623833
 20
162.350762
 30
0.0
  0
SPLINE
  5
14b
100
AcDbEntity
  8
Layer_1
 62
7
100
AcDbSpline
 70
8
 71
3
 72
8
 73
4
 74
0
 40
0
 40
0
 40
0
 40
0
 40
1
 40
1
 40
1
 40
1
 10
222.623833
 20
162.350762
 30
0.0
 10
224.212994
 20
162.928283
 30
0.0
 10
225.513221
 20
163.482193
 30
0.0
 10
225.513221
 20
163.581748
 30
0.0
  0
SPLINE
  5
14c
100
AcDbEntity
  8
Layer_1
 62
7
100
AcDbSpline
 70
8
 71
3
 72
8
 73
4
 74
0
 40
0
 40
0
 40
0
 40
0
 40
1
 40
1
 40
1
 40
1
 10
225.513221
 20
163.581748
 30
0.0
 10
225.513221
 20
163.681268
 30
0.0
 10
219.804663
 20
169.460342
 30
0.0
 10
212.827540
 20
176.424140
 30
0.0
  0
LINE
  5
14d
100
AcDbEntity
  8
Layer_1
 62
7
100
AcDbLine
 10
212.827540
 20
176.424140
 30
0.0
 11
200.141863
 21
189.085635
 31
0.0
  0
LINE
  5
14e
100
AcDbEntity
  8
Layer_1
 62
7
100
AcDbLine
 10
200.141863
 20
189.085635
 30
0.0
 11
106.624964
 21
95.729910
 31
0.0
  0
LINE
  5
14f
100
AcDbEntity
  8
Layer_1
 62
7
100
AcDbLine
 10
106.624964
 20
95.729910
 30
0.0
 11
13.108062
 21
2.374221
 31
0.0
  0
LINE
  5
150
100
AcDbEntity
  8
Layer_1
 62
7
100
AcDbLine
 10
13.108062
 20
2.374221
 30
0.0
 11
200.142843
 21
2.374221
 31
0.0
  0
LINE
  5
151
100
AcDbEntity
  8
Layer_1
 62
7
100
AcDbLine
 10
200.142843
 20
2.374221
 30
0.0
 11
387.177628
 21
2.374221
 31
0.0
  0
LINE
  5
152
100
AcDbEntity
  8
Layer_1
 62
7
100
AcDbLine
 10
387.177628
 20
2.374221
 30
0.0
 11
361.760194
 21
27.747841
 31
0.0
  0
LINE
  5
153
100
AcDbEntity
  8
Layer_1
 62
7
100
AcDbLine
 10
361.760194
 20
27.747841
 30
0.0
 11
361.760194
 21
27.747841
 31
0.0
  0
SPLINE
  5
154
100
AcDbEntity
  8
Layer_1
 62
7
100
AcDbSpline
 70
8
 71
3
 72
8
 73
4
 74
0
 40
0
 40
0
 40
0
 40
0
 40
1
 40
1
 40
1
 40
1
 10
189.149215
 20
199.780273
 30
0.0
 10
189.149215
 20
199.935252
 30
0.0
 10
147.161472
 20
241.977257
 30
0.0
 10
95.843119
 20
293.206937
 30
0.0
  0
LINE
  5
155
100
AcDbEntity
  8
Layer_1
 62
7
100
AcDbLine
 10
95.843119
 20
293.206937
 30
0.0
 11
2.537024
 21
386.351942
 31
0.0
  0
LINE
  5
156
100
AcDbEntity
  8
Layer_1
 62
7
100
AcDbLine
 10
2.537024
 20
386.351942
 30
0.0
 11
2.537024
 21
320.010689
 31
0.0
  0
LINE
  5
157
100
AcDbEntity
  8
Layer_1
 62
7
100
AcDbLine
 10
2.537024
 20
320.010689
 30
0.0
 11
2.537024
 21
253.669437
 31
0.0
  0
LINE
  5
158
100
AcDbEntity
  8
Layer_1
 62
7
100
AcDbLine
 10
2.537024
 20
253.669437
 30
0.0
 11
13.054078
 21
253.669437
 31
0.0
  0
SPLINE
  5
159
100
AcDbEntity
  8
Layer_1
 62
7
100
AcDbSpline
 70
8
 71
3
 72
8
 73
4
 74
0
 40
0
 40
0
 40
0
 40
0
 40
1
 40
1
 40
1
 40
1
 10
13.054078
 20
253.669437
 30
0.0
 10
21.378825
 20
253.669437
 30
0.0
 10
23.678392
 20
253.591149
 30
0.0
 10
24.085680
 20
253.293868
 30
0.0
  0
SPLINE
  5
15a
100
AcDbEntity
  8
Layer_1
 62
7
100
AcDbSpline
 70
8
 71
3
 72
8
 73
4
 74
0
 40
0
 40
0
 40
0
 40
0
 40
1
 40
1
 40
1
 40
1
 10
24.085680
 20
253.293868
 30
0.0
 10
24.576405
 20
252.935660
 30
0.0
 10
24.533056
 20
252.672393
 30
0.0
 10
23.149456
 20
247.608206
 30
0.0
  0
SPLINE
  5
15b
100
AcDbEntity
  8
Layer_1
 62
7
100
AcDbSpline
 70
8
 71
3
 72
8
 73
4
 74
0
 40
0
 40
0
 40
0
 40
0
 40
1
 40
1
 40
1
 40
1
 10
23.149456
 20
247.608206
 30
0.0
 10
20.094967
 20
236.428218
 30
0.0
 10
17.905918
 20
224.285270
 30
0.0
 10
16.911665
 20
213.006330
 30
0.0
  0
SPLINE
  5
15c
100
AcDbEntity
  8
Layer_1
 62
7
100
AcDbSpline
 70
8
 71
3
 72
8
 73
4
 74
0
 40
0
 40
0
 40
0
 40
0
 40
1
 40
1
 40
1
 40
1
 10
16.911665
 20
213.006330
 30
0.0
 10
16.747942
 20
211.149040
 30
0.0
 10
16.537885
 20
206.337009
 30
0.0
 10
16.444870
 20
202.312935
 30
0.0
  0
SPLINE
  5
15d
100
AcDbEntity
  8
Layer_1
 62
7
100
AcDbSpline
 70
8
 71
3
 72
8
 73
4
 74
0
 40
0
 40
0
 40
0
 40
0
 40
1
 40
1
 40
1
 40
1
 10
16.444870
 20
202.312935
 30
0.0
 10
16.040776
 20
184.830674
 30
0.0
 10
18.326630
 20
167.740953
 30
0.0
 10
23.413848
 20
150.210867
 30
0.0
  0
SPLINE
  5
15e
100
AcDbEntity
  8
Layer_1
 62
7
100
AcDbSpline
 70
8
 71
3
 72
8
 73
4
 74
0
 40
0
 40
0
 40
0
 40
0
 40
1
 40
1
 40
1
 40
1
 10
23.413848
 20
150.210867
 30
0.0
 10
24.736178
 20
145.654257
 30
0.0
 10
26.022539
 20
146.172485
 30
0.0
 10
13.389848
 20
146.172485
 30
0.0
  0
LINE
  5
15f
100
AcDbEntity
  8
Layer_1
 62
7
100
AcDbLine
 10
13.389848
 20
146.172485
 30
0.0
 11
2.537024
 21
146.172485
 31
0.0
  0
LINE
  5
160
100
AcDbEntity
  8
Layer_1
 62
7
100
AcDbLine
 10
2.537024
 20
146.172485
 30
0.0
 11
2.537024
 21
79.690598
 31
0.0
  0
LINE
  5
161
100
AcDbEntity
  8
Layer_1
 62
7
100
AcDbLine
 10
2.537024
 20
79.690598
 30
0.0
 11
2.537024
 21
13.208641
 31
0.0
  0
LINE
  5
162
100
AcDbEntity
  8
Layer_1
 62
7
100
AcDbLine
 10
2.537024
 20
13.208641
 30
0.0
 11
95.843119
 21
106.353610
 31
0.0
  0
SPLINE
  5
163
100
AcDbEntity
  8
Layer_1
 62
7
100
AcDbSpline
 70
8
 71
3
 72
8
 73
4
 74
0
 40
0
 40
0
 40
0
 40
0
 40
1
 40
1
 40
1
 40
1
 10
95.843119
 20
106.353610
 30
0.0
 10
147.161472
 20
157.583325
 30
0.0
 10
189.149215
 20
199.625331
 30
0.0
 10
189.149215
 20
199.780273
 30
0.0
  0
LINE
  5
164
100
AcDbEntity
  8
Layer_1
 62
7
100
AcDbLine
 10
189.149215
 20
199.780273
 30
0.0
 11
189.149215
 21
199.780273
 31
0.0
  0
SPLINE
  5
165
100
AcDbEntity
  8
Layer_1
 62
7
100
AcDbSpline
 70
8
 71
3
 72
8
 73
4
 74
0
 40
0
 40
0
 40
0
 40
0
 40
1
 40
1
 40
1
 40
1
 10
28.511822
 20
146.664936
 30
0.0
 10
28.112120
 20
147.419270
 30
0.0
 10
26.360254
 20
153.453198
 30
0.0
 10
25.264167
 20
157.850818
 30
0.0
  0
SPLINE
  5
166
100
AcDbEntity
  8
Layer_1
 62
7
100
AcDbSpline
 70
8
 71
3
 72
8
 73
4
 74
0
 40
0
 40
0
 40
0
 40
0
 40
1
 40
1
 40
1
 40
1
 10
25.264167
 20
157.850818
 30
0.0
 10
21.731082
 20
172.025952
 30
0.0
 10
20.287493
 20
183.899419
 30
0.0
 10
20.286087
 20
198.795336
 30
0.0
  0
SPLINE
  5
167
100
AcDbEntity
  8
Layer_1
 62
7
100
AcDbSpline
 70
8
 71
3
 72
8
 73
4
 74
0
 40
0
 40
0
 40
0
 40
0
 40
1
 40
1
 40
1
 40
1
 10
20.286087
 20
198.795336
 30
0.0
 10
20.284950
 20
210.963457
 30
0.0
 10
21.331174
 20
221.661397
 30
0.0
 10
23.668982
 20
233.386135
 30
0.0
  0
SPLINE
  5
168
100
AcDbEntity
  8
Layer_1
 62
7
100
AcDbSpline
 70
8
 71
3
 72
8
 73
4
 74
0
 40
0
 40
0
 40
0
 40
0
 40
1
 40
1
 40
1
 40
1
 10
23.668982
 20
233.386135
 30
0.0
 10
24.820250
 20
239.160026
 30
0.0
 10
26.789989
 20
247.126371
 30
0.0
 10
28.040584
 20
251.066441
 30
0.0
  0
SPLINE
  5
169
100
AcDbEntity
  8
Layer_1
 62
7
100
AcDbSpline
 70
8
 71
3
 72
8
 73
4
 74
0
 40
0
 40
0
 40
0
 40
0
 40
1
 40
1
 40
1
 40
1
 10
28.040584
 20
251.066441
 30
0.0
 10
28.727594
 20
253.230953
 30
0.0
 10
28.829098
 20
253.387032
 30
0.0
 10
29.540403
 20
253.372795
 30
0.0
  0
SPLINE
  5
16a
100
AcDbEntity
  8
Layer_1
 62
7
100
AcDbSpline
 70
8
 71
3
 72
8
 73
4
 74
0
 40
0
 40
0
 40
0
 40
0
 40
1
 40
1
 40
1
 40
1
 10
29.540403
 20
253.372795
 30
0.0
 10
30.717097
 20
253.349007
 30
0.0
 10
114.285049
 20
211.436451
 30
0.0
 10
114.400787
 20
210.811816
 30
0.0
  0
SPLINE
  5
16b
100
AcDbEntity
  8
Layer_1
 62
7
100
AcDbSpline
 70
8
 71
3
 72
8
 73
4
 74
0
 40
0
 40
0
 40
0
 40
0
 40
1
 40
1
 40
1
 40
1
 10
114.400787
 20
210.811816
 30
0.0
 10
114.454907
 20
210.519718
 30
0.0
 10
114.015323
 20
209.786687
 30
0.0
 10
113.361328
 20
209.078403
 30
0.0
  0
SPLINE
  5
16c
100
AcDbEntity
  8
Layer_1
 62
7
100
AcDbSpline
 70
8
 71
3
 72
8
 73
4
 74
0
 40
0
 40
0
 40
0
 40
0
 40
1
 40
1
 40
1
 40
1
 10
113.361328
 20
209.078403
 30
0.0
 10
108.798963
 20
204.137347
 30
0.0
 10
108.788042
 20
195.435023
 30
0.0
 10
113.338002
 20
190.507388
 30
0.0
  0
SPLINE
  5
16d
100
AcDbEntity
  8
Layer_1
 62
7
100
AcDbSpline
 70
8
 71
3
 72
8
 73
4
 74
0
 40
0
 40
0
 40
0
 40
0
 40
1
 40
1
 40
1
 40
1
 10
113.338002
 20
190.507388
 30
0.0
 10
113.948463
 20
189.846254
 30
0.0
 10
114.447934
 20
189.097956
 30
0.0
 10
114.447934
 20
188.844523
 30
0.0
  0
SPLINE
  5
16e
100
AcDbEntity
  8
Layer_1
 62
7
100
AcDbSpline
 70
8
 71
3
 72
8
 73
4
 74
0
 40
0
 40
0
 40
0
 40
0
 40
1
 40
1
 40
1
 40
1
 10
114.447934
 20
188.844523
 30
0.0
 10
114.447934
 20
188.513583
 30
0.0
 10
102.532521
 20
182.436161
 30
0.0
 10
72.164577
 20
167.278113
 30
0.0
  0
SPLINE
  5
16f
100
AcDbEntity
  8
Layer_1
 62
7
100
AcDbSpline
 70
8
 71
3
 72
8
 73
4
 74
0
 40
0
 40
0
 40
0
 40
0
 40
1
 40
1
 40
1
 40
1
 10
72.164577
 20
167.278113
 30
0.0
 10
48.908745
 20
155.670009
 30
0.0
 10
29.631829
 20
146.172485
 30
0.0
 10
29.326997
 20
146.172485
 30
0.0
  0
SPLINE
  5
170
100
AcDbEntity
  8
Layer_1
 62
7
100
AcDbSpline
 70
8
 71
3
 72
8
 73
4
 74
0
 40
0
 40
0
 40
0
 40
0
 40
1
 40
1
 40
1
 40
1
 10
29.326997
 20
146.172485
 30
0.0
 10
29.022165
 20
146.172485
 30
0.0
 10
28.655330
 20
146.394106
 30
0.0
 10
28.511808
 20
146.664936
 30
0.0
  0
LINE
  5
171
100
AcDbEntity
  8
Layer_1
 62
7
100
AcDbLine
 10
28.511808
 20
146.664936
 30
0.0
 11
28.511822
 21
146.664936
 31
0.0
  0
SPLINE
  5
172
100
AcDbEntity
  8
Layer_1
 62
7
100
AcDbSpline
 70
8
 71
3
 72
8
 73
4
 74
0
 40
0
 40
0
 40
0
 40
0
 40
1
 40
1
 40
1
 40
1
 10
70.755170
 20
169.247953
 30
0.0
 10
92.770679
 20
180.236961
 30
0.0
 10
110.780121
 20
189.322843
 30
0.0
 10
110.776152
 20
189.438801
 30
0.0
  0
SPLINE
  5
173
100
AcDbEntity
  8
Layer_1
 62
7
100
AcDbSpline
 70
8
 71
3
 72
8
 73
4
 74
0
 40
0
 40
0
 40
0
 40
0
 40
1
 40
1
 40
1
 40
1
 10
110.776152
 20
189.438801
 30
0.0
 10
110.772175
 20
189.554795
 30
0.0
 10
110.323225
 20
190.346125
 30
0.0
 10
109.778461
 20
191.197388
 30
0.0
  0
SPLINE
  5
174
100
AcDbEntity
  8
Layer_1
 62
7
100
AcDbSpline
 70
8
 71
3
 72
8
 73
4
 74
0
 40
0
 40
0
 40
0
 40
0
 40
1
 40
1
 40
1
 40
1
 10
109.778461
 20
191.197388
 30
0.0
 10
108.161958
 20
193.723374
 30
0.0
 10
107.549135
 20
196.140041
 30
0.0
 10
107.566355
 20
199.920979
 30
0.0
  0
SPLINE
  5
175
100
AcDbEntity
  8
Layer_1
 62
7
100
AcDbSpline
 70
8
 71
3
 72
8
 73
4
 74
0
 40
0
 40
0
 40
0
 40
0
 40
1
 40
1
 40
1
 40
1
 10
107.566355
 20
199.920979
 30
0.0
 10
107.578781
 20
202.650549
 30
0.0
 10
107.693561
 20
203.472556
 30
0.0
 10
108.299510
 20
205.172098
 30
0.0
  0
SPLINE
  5
176
100
AcDbEntity
  8
Layer_1
 62
7
100
AcDbSpline
 70
8
 71
3
 72
8
 73
4
 74
0
 40
0
 40
0
 40
0
 40
0
 40
1
 40
1
 40
1
 40
1
 10
108.299510
 20
205.172098
 30
0.0
 10
108.694643
 20
206.280272
 30
0.0
 10
109.415152
 20
207.774597
 30
0.0
 10
109.900651
 20
208.492716
 30
0.0
  0
SPLINE
  5
177
100
AcDbEntity
  8
Layer_1
 62
7
100
AcDbSpline
 70
8
 71
3
 72
8
 73
4
 74
0
 40
0
 40
0
 40
0
 40
0
 40
1
 40
1
 40
1
 40
1
 10
109.900651
 20
208.492716
 30
0.0
 10
110.386146
 20
209.210835
 30
0.0
 10
110.783370
 20
209.918587
 30
0.0
 10
110.783370
 20
210.065506
 30
0.0
  0
SPLINE
  5
178
100
AcDbEntity
  8
Layer_1
 62
7
100
AcDbSpline
 70
8
 71
3
 72
8
 73
4
 74
0
 40
0
 40
0
 40
0
 40
0
 40
1
 40
1
 40
1
 40
1
 10
110.783370
 20
210.065506
 30
0.0
 10
110.783370
 20
210.460816
 30
0.0
 10
30.688232
 20
250.369731
 30
0.0
 10
30.435336
 20
250.100428
 30
0.0
  0
SPLINE
  5
179
100
AcDbEntity
  8
Layer_1
 62
7
100
AcDbSpline
 70
8
 71
3
 72
8
 73
4
 74
0
 40
0
 40
0
 40
0
 40
0
 40
1
 40
1
 40
1
 40
1
 10
30.435336
 20
250.100428
 30
0.0
 10
29.868189
 20
249.496492
 30
0.0
 10
27.035590
 20
238.130494
 30
0.0
 10
25.679249
 20
231.016298
 30
0.0
  0
SPLINE
  5
17a
100
AcDbEntity
  8
Layer_1
 62
7
100
AcDbSpline
 70
8
 71
3
 72
8
 73
4
 74
0
 40
0
 40
0
 40
0
 40
0
 40
1
 40
1
 40
1
 40
1
 10
25.679249
 20
231.016298
 30
0.0
 10
23.357771
 20
218.839869
 30
0.0
 10
22.722427
 20
211.978964
 30
0.0
 10
22.708502
 20
198.936041
 30
0.0
  0
SPLINE
  5
17b
100
AcDbEntity
  8
Layer_1
 62
7
100
AcDbSpline
 70
8
 71
3
 72
8
 73
4
 74
0
 40
0
 40
0
 40
0
 40
0
 40
1
 40
1
 40
1
 40
1
 10
22.708502
 20
198.936041
 30
0.0
 10
22.696267
 20
187.488134
 30
0.0
 10
22.939173
 20
183.979589
 30
0.0
 10
24.413133
 20
174.313062
 30
0.0
  0
SPLINE
  5
17c
100
AcDbEntity
  8
Layer_1
 62
7
100
AcDbSpline
 70
8
 71
3
 72
8
 73
4
 74
0
 40
0
 40
0
 40
0
 40
0
 40
1
 40
1
 40
1
 40
1
 10
24.413133
 20
174.313062
 30
0.0
 10
25.802221
 20
165.203144
 30
0.0
 10
29.647443
 20
149.267932
 30
0.0
 10
30.456615
 20
149.267932
 30
0.0
  0
SPLINE
  5
17d
100
AcDbEntity
  8
Layer_1
 62
7
100
AcDbSpline
 70
8
 71
3
 72
8
 73
4
 74
0
 40
0
 40
0
 40
0
 40
0
 40
1
 40
1
 40
1
 40
1
 10
30.456615
 20
149.267932
 30
0.0
 10
30.605307
 20
149.267932
 30
0.0
 10
48.739657
 20
158.258980
 30
0.0
 10
70.755170
 20
169.247953
 30
0.0
  0
LINE
  5
17e
100
AcDbEntity
  8
Layer_1
 62
7
100
AcDbLine
 10
70.755170
 20
169.247953
 30
0.0
 11
70.755170
 21
169.247953
 31
0.0
  0
SPLINE
  5
17f
100
AcDbEntity
  8
Layer_1
 62
7
100
AcDbSpline
 70
8
 71
3
 72
8
 73
4
 74
0
 40
0
 40
0
 40
0
 40
0
 40
1
 40
1
 40
1
 40
1
 10
116.844409
 20
192.252660
 30
0.0
 10
116.067860
 20
193.015338
 30
0.0
 10
115.110343
 20
194.374851
 30
0.0
 10
114.614710
 20
195.418478
 30
0.0
  0
SPLINE
  5
180
100
AcDbEntity
  8
Layer_1
 62
7
100
AcDbSpline
 70
8
 71
3
 72
8
 73
4
 74
0
 40
0
 40
0
 40
0
 40
0
 40
1
 40
1
 40
1
 40
1
 10
114.614710
 20
195.418478
 30
0.0
 10
113.844569
 20
197.040158
 30
0.0
 10
113.745877
 20
197.535591
 30
0.0
 10
113.744634
 20
199.786203
 30
0.0
  0
SPLINE
  5
181
100
AcDbEntity
  8
Layer_1
 62
7
100
AcDbSpline
 70
8
 71
3
 72
8
 73
4
 74
0
 40
0
 40
0
 40
0
 40
0
 40
1
 40
1
 40
1
 40
1
 10
113.744634
 20
199.786203
 30
0.0
 10
113.743214
 20
202.081657
 30
0.0
 10
113.830733
 20
202.502175
 30
0.0
 10
114.656922
 20
204.177538
 30
0.0
  0
SPLINE
  5
182
100
AcDbEntity
  8
Layer_1
 62
7
100
AcDbSpline
 70
8
 71
3
 72
8
 73
4
 74
0
 40
0
 40
0
 40
0
 40
0
 40
1
 40
1
 40
1
 40
1
 10
114.656922
 20
204.177538
 30
0.0
 10
115.736466
 20
206.366620
 30
0.0
 10
117.996674
 20
208.644534
 30
0.0
 10
119.089184
 20
208.644534
 30
0.0
  0
SPLINE
  5
183
100
AcDbEntity
  8
Layer_1
 62
7
100
AcDbSpline
 70
8
 71
3
 72
8
 73
4
 74
0
 40
0
 40
0
 40
0
 40
0
 40
1
 40
1
 40
1
 40
1
 10
119.089184
 20
208.644534
 30
0.0
 10
119.484572
 20
208.644534
 30
0.0
 10
123.094057
 20
207.003469
 30
0.0
 10
127.110264
 20
204.997663
 30
0.0
  0
SPLINE
  5
184
100
AcDbEntity
  8
Layer_1
 62
7
100
AcDbSpline
 70
8
 71
3
 72
8
 73
4
 74
0
 40
0
 40
0
 40
0
 40
0
 40
1
 40
1
 40
1
 40
1
 10
127.110264
 20
204.997663
 30
0.0
 10
133.771447
 20
201.670902
 30
0.0
 10
134.428274
 20
201.278858
 30
0.0
 10
134.592750
 20
200.531306
 30
0.0
  0
SPLINE
  5
185
100
AcDbEntity
  8
Layer_1
 62
7
100
AcDbSpline
 70
8
 71
3
 72
8
 73
4
 74
0
 40
0
 40
0
 40
0
 40
0
 40
1
 40
1
 40
1
 40
1
 10
134.592750
 20
200.531306
 30
0.0
 10
135.005965
 20
198.653210
 30
0.0
 10
134.956117
 20
198.614617
 30
0.0
 10
126.975321
 20
194.634462
 30
0.0
  0
SPLINE
  5
186
100
AcDbEntity
  8
Layer_1
 62
7
100
AcDbSpline
 70
8
 71
3
 72
8
 73
4
 74
0
 40
0
 40
0
 40
0
 40
0
 40
1
 40
1
 40
1
 40
1
 10
126.975321
 20
194.634462
 30
0.0
 10
122.874474
 20
192.589316
 30
0.0
 10
119.223633
 20
190.915977
 30
0.0
 10
118.862340
 20
190.915977
 30
0.0
  0
SPLINE
  5
187
100
AcDbEntity
  8
Layer_1
 62
7
100
AcDbSpline
 70
8
 71
3
 72
8
 73
4
 74
0
 40
0
 40
0
 40
0
 40
0
 40
1
 40
1
 40
1
 40
1
 10
118.862340
 20
190.915977
 30
0.0
 10
118.457618
 20
190.915977
 30
0.0
 10
117.682950
 20
191.429127
 30
0.0
 10
116.844409
 20
192.252660
 30
0.0
  0
LINE
  5
188
100
AcDbEntity
  8
Layer_1
 62
7
100
AcDbLine
 10
116.844409
 20
192.252660
 30
0.0
 11
116.844409
 21
192.252660
 31
0.0
  0
SPLINE
  5
189
100
AcDbEntity
  8
Layer_1
 62
7
100
AcDbSpline
 70
8
 71
3
 72
8
 73
4
 74
0
 40
0
 40
0
 40
0
 40
0
 40
1
 40
1
 40
1
 40
1
 10
125.444178
 20
196.545328
 30
0.0
 10
128.853718
 20
198.248527
 30
0.0
 10
131.643341
 20
199.704222
 30
0.0
 10
131.643341
 20
199.780273
 30
0.0
  0
SPLINE
  5
18a
100
AcDbEntity
  8
Layer_1
 62
7
100
AcDbSpline
 70
8
 71
3
 72
8
 73
4
 74
0
 40
0
 40
0
 40
0
 40
0
 40
1
 40
1
 40
1
 40
1
 10
131.643341
 20
199.780273
 30
0.0
 10
131.643341
 20
200.109438
 30
0.0
 10
119.222799
 20
206.087623
 30
0.0
 10
118.841982
 20
205.941734
 30
0.0
  0
SPLINE
  5
18b
100
AcDbEntity
  8
Layer_1
 62
7
100
AcDbSpline
 70
8
 71
3
 72
8
 73
4
 74
0
 40
0
 40
0
 40
0
 40
0
 40
1
 40
1
 40
1
 40
1
 10
118.841982
 20
205.941734
 30
0.0
 10
118.142364
 20
205.673709
 30
0.0
 10
116.758364
 20
203.255728
 30
0.0
 10
116.300792
 20
201.502041
 30
0.0
  0
SPLINE
  5
18c
100
AcDbEntity
  8
Layer_1
 62
7
100
AcDbSpline
 70
8
 71
3
 72
8
 73
4
 74
0
 40
0
 40
0
 40
0
 40
0
 40
1
 40
1
 40
1
 40
1
 10
116.300792
 20
201.502041
 30
0.0
 10
115.828327
 20
199.691227
 30
0.0
 10
116.005279
 20
198.251971
 30
0.0
 10
116.961699
 20
196.126549
 30
0.0
  0
SPLINE
  5
18d
100
AcDbEntity
  8
Layer_1
 62
7
100
AcDbSpline
 70
8
 71
3
 72
8
 73
4
 74
0
 40
0
 40
0
 40
0
 40
0
 40
1
 40
1
 40
1
 40
1
 10
116.961699
 20
196.126549
 30
0.0
 10
117.433458
 20
195.078165
 30
0.0
 10
118.727429
 20
193.448638
 30
0.0
 10
119.088161
 20
193.448638
 30
0.0
  0
SPLINE
  5
18e
100
AcDbEntity
  8
Layer_1
 62
7
100
AcDbSpline
 70
8
 71
3
 72
8
 73
4
 74
0
 40
0
 40
0
 40
0
 40
0
 40
1
 40
1
 40
1
 40
1
 10
119.088161
 20
193.448638
 30
0.0
 10
119.174431
 20
193.448638
 30
0.0
 10
122.034641
 20
194.842165
 30
0.0
 10
125.444178
 20
196.545328
 30
0.0
  0
LINE
  5
18f
100
AcDbEntity
  8
Layer_1
 62
7
100
AcDbLine
 10
125.444178
 20
196.545328
 30
0.0
 11
125.444178
 21
196.545328
 31
0.0
  0
SPLINE
  5
190
100
AcDbEntity
  8
Layer_1
 62
7
100
AcDbSpline
 70
8
 71
3
 72
8
 73
4
 74
0
 40
0
 40
0
 40
0
 40
0
 40
1
 40
1
 40
1
 40
1
 10
396.853279
 20
111.700307
 30
0.0
 10
392.925600
 20
117.088084
 30
0.0
 10
387.476258
 20
122.757804
 30
0.0
 10
383.495500
 20
125.598292
 30
0.0
  0
SPLINE
  5
191
100
AcDbEntity
  8
Layer_1
 62
7
100
AcDbSpline
 70
8
 71
3
 72
8
 73
4
 74
0
 40
0
 40
0
 40
0
 40
0
 40
1
 40
1
 40
1
 40
1
 10
383.495500
 20
125.598292
 30
0.0
 10
378.476121
 20
129.179941
 30
0.0
 10
372.676453
 20
131.426824
 30
0.0
 10
366.642241
 20
132.127511
 30
0.0
  0
SPLINE
  5
192
100
AcDbEntity
  8
Layer_1
 62
7
100
AcDbSpline
 70
8
 71
3
 72
8
 73
4
 74
0
 40
0
 40
0
 40
0
 40
0
 40
1
 40
1
 40
1
 40
1
 10
366.642241
 20
132.127511
 30
0.0
 10
361.360340
 20
132.740820
 30
0.0
 10
356.437640
 20
132.087319
 30
0.0
 10
348.328427
 20
129.696287
 30
0.0
  0
SPLINE
  5
193
100
AcDbEntity
  8
Layer_1
 62
7
100
AcDbSpline
 70
8
 71
3
 72
8
 73
4
 74
0
 40
0
 40
0
 40
0
 40
0
 40
1
 40
1
 40
1
 40
1
 10
348.328427
 20
129.696287
 30
0.0
 10
345.974521
 20
129.002240
 30
0.0
 10
342.082415
 20
127.905746
 30
0.0
 10
339.679289
 20
127.259630
 30
0.0
  0
LINE
  5
194
100
AcDbEntity
  8
Layer_1
 62
7
100
AcDbLine
 10
339.679289
 20
127.259630
 30
0.0
 11
335.309974
 21
126.084920
 31
0.0
  0
LINE
  5
195
100
AcDbEntity
  8
Layer_1
 62
7
100
AcDbLine
 10
335.309974
 20
126.084920
 30
0.0
 11
330.094977
 21
126.076754
 31
0.0
  0
SPLINE
  5
196
100
AcDbEntity
  8
Layer_1
 62
7
100
AcDbSpline
 70
8
 71
3
 72
8
 73
4
 74
0
 40
0
 40
0
 40
0
 40
0
 40
1
 40
1
 40
1
 40
1
 10
330.094977
 20
126.076754
 30
0.0
 10
325.117281
 20
126.068943
 30
0.0
 10
324.770949
 20
126.104447
 30
0.0
 10
322.483907
 20
126.862155
 30
0.0
  0
SPLINE
  5
197
100
AcDbEntity
  8
Layer_1
 62
7
100
AcDbSpline
 70
8
 71
3
 72
8
 73
4
 74
0
 40
0
 40
0
 40
0
 40
0
 40
1
 40
1
 40
1
 40
1
 10
322.483907
 20
126.862155
 30
0.0
 10
319.216222
 20
127.944517
 30
0.0
 10
313.041245
 20
131.153083
 30
0.0
 10
309.812630
 20
133.446264
 30
0.0
  0
SPLINE
  5
198
100
AcDbEntity
  8
Layer_1
 62
7
100
AcDbSpline
 70
8
 71
3
 72
8
 73
4
 74
0
 40
0
 40
0
 40
0
 40
0
 40
1
 40
1
 40
1
 40
1
 10
309.812630
 20
133.446264
 30
0.0
 10
304.591576
 20
137.154559
 30
0.0
 10
299.251873
 20
143.139810
 30
0.0
 10
295.525382
 20
149.460758
 30
0.0
  0
SPLINE
  5
199
100
AcDbEntity
  8
Layer_1
 62
7
100
AcDbSpline
 70
8
 71
3
 72
8
 73
4
 74
0
 40
0
 40
0
 40
0
 40
0
 40
1
 40
1
 40
1
 40
1
 10
295.525382
 20
149.460758
 30
0.0
 10
293.297085
 20
153.240453
 30
0.0
 10
290.128935
 20
159.908319
 30
0.0
 10
287.995692
 20
165.308167
 30
0.0
  0
SPLINE
  5
19a
100
AcDbEntity
  8
Layer_1
 62
7
100
AcDbSpline
 70
8
 71
3
 72
8
 73
4
 74
0
 40
0
 40
0
 40
0
 40
0
 40
1
 40
1
 40
1
 40
1
 10
287.995692
 20
165.308167
 30
0.0
 10
285.573763
 20
171.438810
 30
0.0
 10
283.682328
 20
177.610851
 30
0.0
 10
281.441608
 20
186.694993
 30
0.0
  0
SPLINE
  5
19b
100
AcDbEntity
  8
Layer_1
 62
7
100
AcDbSpline
 70
8
 71
3
 72
8
 73
4
 74
0
 40
0
 40
0
 40
0
 40
0
 40
1
 40
1
 40
1
 40
1
 10
281.441608
 20
186.694993
 30
0.0
 10
280.429925
 20
190.796468
 30
0.0
 10
278.727979
 20
197.697955
 30
0.0
 10
277.659496
 20
202.031595
 30
0.0
  0
SPLINE
  5
19c
100
AcDbEntity
  8
Layer_1
 62
7
100
AcDbSpline
 70
8
 71
3
 72
8
 73
4
 74
0
 40
0
 40
0
 40
0
 40
0
 40
1
 40
1
 40
1
 40
1
 10
277.659496
 20
202.031595
 30
0.0
 10
276.590987
 20
206.365235
 30
0.0
 10
275.013042
 20
212.099077
 30
0.0
 10
274.152935
 20
214.773438
 30
0.0
  0
SPLINE
  5
19d
100
AcDbEntity
  8
Layer_1
 62
7
100
AcDbSpline
 70
8
 71
3
 72
8
 73
4
 74
0
 40
0
 40
0
 40
0
 40
0
 40
1
 40
1
 40
1
 40
1
 10
274.152935
 20
214.773438
 30
0.0
 10
272.563632
 20
219.715097
 30
0.0
 10
272.267110
 20
221.483625
 30
0.0
 10
272.981956
 20
221.757473
 30
0.0
  0
SPLINE
  5
19e
100
AcDbEntity
  8
Layer_1
 62
7
100
AcDbSpline
 70
8
 71
3
 72
8
 73
4
 74
0
 40
0
 40
0
 40
0
 40
0
 40
1
 40
1
 40
1
 40
1
 10
272.981956
 20
221.757473
 30
0.0
 10
273.198028
 20
221.840234
 30
0.0
 10
274.304001
 20
221.440806
 30
0.0
 10
275.439685
 20
220.869889
 30
0.0
  0
SPLINE
  5
19f
100
AcDbEntity
  8
Layer_1
 62
7
100
AcDbSpline
 70
8
 71
3
 72
8
 73
4
 74
0
 40
0
 40
0
 40
0
 40
0
 40
1
 40
1
 40
1
 40
1
 10
275.439685
 20
220.869889
 30
0.0
 10
280.483459
 20
218.334246
 30
0.0
 10
287.779397
 20
216.039218
 30
0.0
 10
294.576645
 20
214.850057
 30
0.0
  0
SPLINE
  5
1a0
100
AcDbEntity
  8
Layer_1
 62
7
100
AcDbSpline
 70
8
 71
3
 72
8
 73
4
 74
0
 40
0
 40
0
 40
0
 40
0
 40
1
 40
1
 40
1
 40
1
 10
294.576645
 20
214.850057
 30
0.0
 10
301.497393
 20
213.639309
 30
0.0
 10
307.853907
 20
213.104039
 30
0.0
 10
321.497286
 20
212.583113
 30
0.0
  0
SPLINE
  5
1a1
100
AcDbEntity
  8
Layer_1
 62
7
100
AcDbSpline
 70
8
 71
3
 72
8
 73
4
 74
0
 40
0
 40
0
 40
0
 40
0
 40
1
 40
1
 40
1
 40
1
 10
321.497286
 20
212.583113
 30
0.0
 10
338.820706
 20
211.921659
 30
0.0
 10
346.109940
 20
211.119181
 30
0.0
 10
354.813286
 20
208.915187
 30
0.0
  0
SPLINE
  5
1a2
100
AcDbEntity
  8
Layer_1
 62
7
100
AcDbSpline
 70
8
 71
3
 72
8
 73
4
 74
0
 40
0
 40
0
 40
0
 40
0
 40
1
 40
1
 40
1
 40
1
 10
354.813286
 20
208.915187
 30
0.0
 10
365.269450
 20
206.267349
 30
0.0
 10
374.099093
 20
201.570708
 30
0.0
 10
380.258602
 20
195.380417
 30
0.0
  0
SPLINE
  5
1a3
100
AcDbEntity
  8
Layer_1
 62
7
100
AcDbSpline
 70
8
 71
3
 72
8
 73
4
 74
0
 40
0
 40
0
 40
0
 40
0
 40
1
 40
1
 40
1
 40
1
 10
380.258602
 20
195.380417
 30
0.0
 10
385.495022
 20
190.117723
 30
0.0
 10
388.601227
 20
183.588753
 30
0.0
 10
389.545050
 20
175.860857
 30
0.0
  0
SPLINE
  5
1a4
100
AcDbEntity
  8
Layer_1
 62
7
100
AcDbSpline
 70
8
 71
3
 72
8
 73
4
 74
0
 40
0
 40
0
 40
0
 40
0
 40
1
 40
1
 40
1
 40
1
 10
389.545050
 20
175.860857
 30
0.0
 10
389.987581
 20
172.237596
 30
0.0
 10
389.928182
 20
164.617741
 30
0.0
 10
389.408960
 20
158.410941
 30
0.0
  0
SPLINE
  5
1a5
100
AcDbEntity
  8
Layer_1
 62
7
100
AcDbSpline
 70
8
 71
3
 72
8
 73
4
 74
0
 40
0
 40
0
 40
0
 40
0
 40
1
 40
1
 40
1
 40
1
 10
389.408960
 20
158.410941
 30
0.0
 10
388.365901
 20
145.941775
 30
0.0
 10
390.085503
 20
139.456475
 30
0.0
 10
396.350922
 20
132.229836
 30
0.0
  0
LINE
  5
1a6
100
AcDbEntity
  8
Layer_1
 62
7
100
AcDbLine
 10
396.350922
 20
132.229836
 30
0.0
 11
397.467050
 21
130.942433
 31
0.0
  0
LINE
  5
1a7
100
AcDbEntity
  8
Layer_1
 62
7
100
AcDbLine
 10
397.467050
 20
130.942433
 30
0.0
 11
397.467050
 21
258.787946
 31
0.0
  0
LINE
  5
1a8
100
AcDbEntity
  8
Layer_1
 62
7
100
AcDbLine
 10
397.467050
 20
258.787946
 30
0.0
 11
397.467050
 21
386.633423
 31
0.0
  0
LINE
  5
1a9
100
AcDbEntity
  8
Layer_1
 62
7
100
AcDbLine
 10
397.467050
 20
386.633423
 30
0.0
 11
304.160960
 21
293.488348
 31
0.0
  0
SPLINE
  5
1aa
100
AcDbEntity
  8
Layer_1
 62
7
100
AcDbSpline
 70
8
 71
3
 72
8
 73
4
 74
0
 40
0
 40
0
 40
0
 40
0
 40
1
 40
1
 40
1
 40
1
 10
304.160960
 20
293.488348
 30
0.0
 10
252.842604
 20
242.258668
 30
0.0
 10
210.854860
 20
200.153464
 30
0.0
 10
210.854860
 20
199.921298
 30
0.0
  0
SPLINE
  5
1ab
100
AcDbEntity
  8
Layer_1
 62
7
100
AcDbSpline
 70
8
 71
3
 72
8
 73
4
 74
0
 40
0
 40
0
 40
0
 40
0
 40
1
 40
1
 40
1
 40
1
 10
210.854860
 20
199.921298
 30
0.0
 10
210.854860
 20
199.689133
 30
0.0
 10
252.810891
 20
157.615350
 30
0.0
 10
304.090487
 20
106.423945
 30
0.0
  0
LINE
  5
1ac
100
AcDbEntity
  8
Layer_1
 62
7
100
AcDbLine
 10
304.090487
 20
106.423945
 30
0.0
 11
397.326096
 21
13.348707
 31
0.0
  0
LINE
  5
1ad
100
AcDbEntity
  8
Layer_1
 62
7
100
AcDbLine
 10
397.326096
 20
13.348707
 30
0.0
 11
397.397425
 21
62.102391
 31
0.0
  0
LINE
  5
1ae
100
AcDbEntity
  8
Layer_1
 62
7
100
AcDbLine
 10
397.397425
 20
62.102391
 30
0.0
 11
397.468754
 21
110.856111
 31
0.0
  0
LINE
  5
1af
100
AcDbEntity
  8
Layer_1
 62
7
100
AcDbLine
 10
397.468754
 20
110.856111
 30
0.0
 11
396.853279
 21
111.700307
 31
0.0
  0
LINE
  5
1b0
100
AcDbEntity
  8
Layer_1
 62
7
100
AcDbLine
 10
396.853279
 20
111.700307
 30
0.0
 11
396.853279
 21
111.700307
 31
0.0
  0
SPLINE
  5
1b1
100
AcDbEntity
  8
Layer_1
 62
7
100
AcDbSpline
 70
8
 71
3
 72
8
 73
4
 74
0
 40
0
 40
0
 40
0
 40
0
 40
1
 40
1
 40
1
 40
1
 10
396.133562
 20
128.930343
 30
0.0
 10
393.413578
 20
132.055614
 30
0.0
 10
391.504274
 20
134.539456
 30
0.0
 10
390.450705
 20
136.323322
 30
0.0
  0
SPLINE
  5
1b2
100
AcDbEntity
  8
Layer_1
 62
7
100
AcDbSpline
 70
8
 71
3
 72
8
 73
4
 74
0
 40
0
 40
0
 40
0
 40
0
 40
1
 40
1
 40
1
 40
1
 10
390.450705
 20
136.323322
 30
0.0
 10
387.039905
 20
142.098384
 30
0.0
 10
386.235793
 20
147.939273
 30
0.0
 10
387.176705
 20
160.105193
 30
0.0
  0
SPLINE
  5
1b3
100
AcDbEntity
  8
Layer_1
 62
7
100
AcDbSpline
 70
8
 71
3
 72
8
 73
4
 74
0
 40
0
 40
0
 40
0
 40
0
 40
1
 40
1
 40
1
 40
1
 10
387.176705
 20
160.105193
 30
0.0
 10
388.379961
 20
175.663024
 30
0.0
 10
386.562614
 20
184.185836
 30
0.0
 10
380.424799
 20
191.769405
 30
0.0
  0
SPLINE
  5
1b4
100
AcDbEntity
  8
Layer_1
 62
7
100
AcDbSpline
 70
8
 71
3
 72
8
 73
4
 74
0
 40
0
 40
0
 40
0
 40
0
 40
1
 40
1
 40
1
 40
1
 10
380.424799
 20
191.769405
 30
0.0
 10
374.268664
 20
199.375590
 30
0.0
 10
361.534384
 20
205.679993
 30
0.0
 10
347.503303
 20
208.067973
 30
0.0
  0
SPLINE
  5
1b5
100
AcDbEntity
  8
Layer_1
 62
7
100
AcDbSpline
 70
8
 71
3
 72
8
 73
4
 74
0
 40
0
 40
0
 40
0
 40
0
 40
1
 40
1
 40
1
 40
1
 10
347.503303
 20
208.067973
 30
0.0
 10
340.712002
 20
209.223795
 30
0.0
 10
334.015442
 20
209.761621
 30
0.0
 10
319.242155
 20
210.337757
 30
0.0
  0
SPLINE
  5
1b6
100
AcDbEntity
  8
Layer_1
 62
7
100
AcDbSpline
 70
8
 71
3
 72
8
 73
4
 74
0
 40
0
 40
0
 40
0
 40
0
 40
1
 40
1
 40
1
 40
1
 10
319.242155
 20
210.337757
 30
0.0
 10
298.724766
 20
211.137927
 30
0.0
 10
288.536248
 20
212.756767
 30
0.0
 10
278.661564
 20
216.785634
 30
0.0
  0
SPLINE
  5
1b7
100
AcDbEntity
  8
Layer_1
 62
7
100
AcDbSpline
 70
8
 71
3
 72
8
 73
4
 74
0
 40
0
 40
0
 40
0
 40
0
 40
1
 40
1
 40
1
 40
1
 10
278.661564
 20
216.785634
 30
0.0
 10
277.117643
 20
217.415560
 30
0.0
 10
275.832080
 20
217.930947
 30
0.0
 10
275.804734
 20
217.930947
 30
0.0
  0
SPLINE
  5
1b8
100
AcDbEntity
  8
Layer_1
 62
7
100
AcDbSpline
 70
8
 71
3
 72
8
 73
4
 74
0
 40
0
 40
0
 40
0
 40
0
 40
1
 40
1
 40
1
 40
1
 10
275.804734
 20
217.930947
 30
0.0
 10
275.777395
 20
217.930947
 30
0.0
 10
276.124429
 20
216.759574
 30
0.0
 10
276.575933
 20
215.327915
 30
0.0
  0
SPLINE
  5
1b9
100
AcDbEntity
  8
Layer_1
 62
7
100
AcDbSpline
 70
8
 71
3
 72
8
 73
4
 74
0
 40
0
 40
0
 40
0
 40
0
 40
1
 40
1
 40
1
 40
1
 10
276.575933
 20
215.327915
 30
0.0
 10
278.008987
 20
210.784016
 30
0.0
 10
279.562856
 20
204.842045
 30
0.0
 10
281.892718
 20
194.996362
 30
0.0
  0
SPLINE
  5
1ba
100
AcDbEntity
  8
Layer_1
 62
7
100
AcDbSpline
 70
8
 71
3
 72
8
 73
4
 74
0
 40
0
 40
0
 40
0
 40
0
 40
1
 40
1
 40
1
 40
1
 10
281.892718
 20
194.996362
 30
0.0
 10
286.406896
 20
175.920114
 30
0.0
 10
289.278497
 20
167.181398
 30
0.0
 10
294.561257
 20
156.443800
 30
0.0
  0
SPLINE
  5
1bb
100
AcDbEntity
  8
Layer_1
 62
7
100
AcDbSpline
 70
8
 71
3
 72
8
 73
4
 74
0
 40
0
 40
0
 40
0
 40
0
 40
1
 40
1
 40
1
 40
1
 10
294.561257
 20
156.443800
 30
0.0
 10
301.053413
 20
143.248100
 30
0.0
 10
307.678907
 20
136.307451
 30
0.0
 10
318.860390
 20
130.988731
 30
0.0
  0
SPLINE
  5
1bc
100
AcDbEntity
  8
Layer_1
 62
7
100
AcDbSpline
 70
8
 71
3
 72
8
 73
4
 74
0
 40
0
 40
0
 40
0
 40
0
 40
1
 40
1
 40
1
 40
1
 10
318.860390
 20
130.988731
 30
0.0
 10
323.362816
 20
128.847084
 30
0.0
 10
325.577724
 20
128.312134
 30
0.0
 10
329.954034
 20
128.309471
 30
0.0
  0
SPLINE
  5
1bd
100
AcDbEntity
  8
Layer_1
 62
7
100
AcDbSpline
 70
8
 71
3
 72
8
 73
4
 74
0
 40
0
 40
0
 40
0
 40
0
 40
1
 40
1
 40
1
 40
1
 10
329.954034
 20
128.309471
 30
0.0
 10
334.335077
 20
128.305920
 30
0.0
 10
336.466573
 20
128.732474
 30
0.0
 10
345.431654
 20
131.400444
 30
0.0
  0
SPLINE
  5
1be
100
AcDbEntity
  8
Layer_1
 62
7
100
AcDbSpline
 70
8
 71
3
 72
8
 73
4
 74
0
 40
0
 40
0
 40
0
 40
0
 40
1
 40
1
 40
1
 40
1
 10
345.431654
 20
131.400444
 30
0.0
 10
354.976417
 20
134.240932
 30
0.0
 10
356.286958
 20
134.470754
 30
0.0
 10
362.935331
 20
134.469796
 30
0.0
  0
SPLINE
  5
1bf
100
AcDbEntity
  8
Layer_1
 62
7
100
AcDbSpline
 70
8
 71
3
 72
8
 73
4
 74
0
 40
0
 40
0
 40
0
 40
0
 40
1
 40
1
 40
1
 40
1
 10
362.935331
 20
134.469796
 30
0.0
 10
367.728048
 20
134.469796
 30
0.0
 10
368.966347
 20
134.377341
 30
0.0
 10
371.196047
 20
133.857551
 30
0.0
  0
SPLINE
  5
1c0
100
AcDbEntity
  8
Layer_1
 62
7
100
AcDbSpline
 70
8
 71
3
 72
8
 73
4
 74
0
 40
0
 40
0
 40
0
 40
0
 40
1
 40
1
 40
1
 40
1
 10
371.196047
 20
133.857551
 30
0.0
 10
376.494103
 20
132.622447
 30
0.0
 10
381.440307
 20
130.211532
 30
0.0
 10
386.050458
 20
126.617030
 30
0.0
  0
SPLINE
  5
1c1
100
AcDbEntity
  8
Layer_1
 62
7
100
AcDbSpline
 70
8
 71
3
 72
8
 73
4
 74
0
 40
0
 40
0
 40
0
 40
0
 40
1
 40
1
 40
1
 40
1
 10
386.050458
 20
126.617030
 30
0.0
 10
388.510086
 20
124.699240
 30
0.0
 10
394.044994
 20
119.132093
 30
0.0
 10
396.059783
 20
116.549406
 30
0.0
  0
LINE
  5
1c2
100
AcDbEntity
  8
Layer_1
 62
7
100
AcDbLine
 10
396.059783
 20
116.549406
 30
0.0
 11
397.326096
 21
114.926164
 31
0.0
  0
LINE
  5
1c3
100
AcDbEntity
  8
Layer_1
 62
7
100
AcDbLine
 10
397.326096
 20
114.926164
 30
0.0
 11
397.402076
 21
121.155865
 31
0.0
  0
LINE
  5
1c4
100
AcDbEntity
  8
Layer_1
 62
7
100
AcDbLine
 10
397.402076
 20
121.155865
 30
0.0
 11
397.478021
 21
127.385530
 31
0.0
  0
LINE
  5
1c5
100
AcDbEntity
  8
Layer_1
 62
7
100
AcDbLine
 10
397.478021
 20
127.385530
 30
0.0
 11
396.133562
 21
128.930343
 31
0.0
  0
LINE
  5
1c6
100
AcDbEntity
  8
Layer_1
 62
7
100
AcDbLine
 10
396.133562
 20
128.930343
 30
0.0
 11
396.133562
 21
128.930343
 31
0.0
  0
SPLINE
  5
1c7
100
AcDbEntity
  8
Layer_1
 62
7
100
AcDbSpline
 70
8
 71
3
 72
8
 73
4
 74
0
 40
0
 40
0
 40
0
 40
0
 40
1
 40
1
 40
1
 40
1
 10
371.715765
 20
150.463910
 30
0.0
 10
371.333805
 20
150.812176
 30
0.0
 10
369.424963
 20
153.018158
 30
0.0
 10
367.473834
 20
155.366088
 30
0.0
  0
SPLINE
  5
1c8
100
AcDbEntity
  8
Layer_1
 62
7
100
AcDbSpline
 70
8
 71
3
 72
8
 73
4
 74
0
 40
0
 40
0
 40
0
 40
0
 40
1
 40
1
 40
1
 40
1
 10
367.473834
 20
155.366088
 30
0.0
 10
356.134571
 20
169.011527
 30
0.0
 10
345.715773
 20
176.832161
 30
0.0
 10
333.477676
 20
180.884674
 30
0.0
  0
SPLINE
  5
1c9
100
AcDbEntity
  8
Layer_1
 62
7
100
AcDbSpline
 70
8
 71
3
 72
8
 73
4
 74
0
 40
0
 40
0
 40
0
 40
0
 40
1
 40
1
 40
1
 40
1
 10
333.477676
 20
180.884674
 30
0.0
 10
331.384631
 20
181.577727
 30
0.0
 10
325.516045
 20
183.169867
 30
0.0
 10
320.436361
 20
184.422724
 30
0.0
  0
SPLINE
  5
1ca
100
AcDbEntity
  8
Layer_1
 62
7
100
AcDbSpline
 70
8
 71
3
 72
8
 73
4
 74
0
 40
0
 40
0
 40
0
 40
0
 40
1
 40
1
 40
1
 40
1
 10
320.436361
 20
184.422724
 30
0.0
 10
306.711598
 20
187.807819
 30
0.0
 10
302.203054
 20
189.699832
 30
0.0
 10
296.971906
 20
194.269615
 30
0.0
  0
SPLINE
  5
1cb
100
AcDbEntity
  8
Layer_1
 62
7
100
AcDbSpline
 70
8
 71
3
 72
8
 73
4
 74
0
 40
0
 40
0
 40
0
 40
0
 40
1
 40
1
 40
1
 40
1
 10
296.971906
 20
194.269615
 30
0.0
 10
294.229696
 20
196.665121
 30
0.0
 10
292.603408
 20
198.704408
 30
0.0
 10
292.603408
 20
199.747609
 30
0.0
  0
SPLINE
  5
1cc
100
AcDbEntity
  8
Layer_1
 62
7
100
AcDbSpline
 70
8
 71
3
 72
8
 73
4
 74
0
 40
0
 40
0
 40
0
 40
0
 40
1
 40
1
 40
1
 40
1
 10
292.603408
 20
199.747609
 30
0.0
 10
292.603408
 20
201.700229
 30
0.0
 10
294.940849
 20
202.598357
 30
0.0
 10
296.289334
 20
201.163823
 30
0.0
  0
SPLINE
  5
1cd
100
AcDbEntity
  8
Layer_1
 62
7
100
AcDbSpline
 70
8
 71
3
 72
8
 73
4
 74
0
 40
0
 40
0
 40
0
 40
0
 40
1
 40
1
 40
1
 40
1
 10
296.289334
 20
201.163823
 30
0.0
 10
297.479905
 20
199.897297
 30
0.0
 10
300.842699
 20
197.471683
 30
0.0
 10
303.043711
 20
196.291824
 30
0.0
  0
SPLINE
  5
1ce
100
AcDbEntity
  8
Layer_1
 62
7
100
AcDbSpline
 70
8
 71
3
 72
8
 73
4
 74
0
 40
0
 40
0
 40
0
 40
0
 40
1
 40
1
 40
1
 40
1
 10
303.043711
 20
196.291824
 30
0.0
 10
307.202625
 20
194.062409
 30
0.0
 10
311.783080
 20
192.886207
 30
0.0
 10
325.678558
 20
190.479481
 30
0.0
  0
SPLINE
  5
1cf
100
AcDbEntity
  8
Layer_1
 62
7
100
AcDbSpline
 70
8
 71
3
 72
8
 73
4
 74
0
 40
0
 40
0
 40
0
 40
0
 40
1
 40
1
 40
1
 40
1
 10
325.678558
 20
190.479481
 30
0.0
 10
339.792556
 20
188.034943
 30
0.0
 10
348.740523
 20
184.703744
 30
0.0
 10
356.497181
 20
179.006259
 30
0.0
  0
SPLINE
  5
1d0
100
AcDbEntity
  8
Layer_1
 62
7
100
AcDbSpline
 70
8
 71
3
 72
8
 73
4
 74
0
 40
0
 40
0
 40
0
 40
0
 40
1
 40
1
 40
1
 40
1
 10
356.497181
 20
179.006259
 30
0.0
 10
359.053879
 20
177.128271
 30
0.0
 10
364.500239
 20
171.653898
 30
0.0
 10
366.703984
 20
168.746945
 30
0.0
  0
SPLINE
  5
1d1
100
AcDbEntity
  8
Layer_1
 62
7
100
AcDbSpline
 70
8
 71
3
 72
8
 73
4
 74
0
 40
0
 40
0
 40
0
 40
0
 40
1
 40
1
 40
1
 40
1
 10
366.703984
 20
168.746945
 30
0.0
 10
369.759275
 20
164.716729
 30
0.0
 10
372.625078
 20
159.712190
 30
0.0
 10
374.462201
 20
155.198790
 30
0.0
  0
SPLINE
  5
1d2
100
AcDbEntity
  8
Layer_1
 62
7
100
AcDbSpline
 70
8
 71
3
 72
8
 73
4
 74
0
 40
0
 40
0
 40
0
 40
0
 40
1
 40
1
 40
1
 40
1
 10
374.462201
 20
155.198790
 30
0.0
 10
375.605063
 20
152.391002
 30
0.0
 10
375.648557
 20
151.762923
 30
0.0
 10
374.772051
 20
150.723059
 30
0.0
  0
SPLINE
  5
1d3
100
AcDbEntity
  8
Layer_1
 62
7
100
AcDbSpline
 70
8
 71
3
 72
8
 73
4
 74
0
 40
0
 40
0
 40
0
 40
0
 40
1
 40
1
 40
1
 40
1
 10
374.772051
 20
150.723059
 30
0.0
 10
373.859472
 20
149.640341
 30
0.0
 10
372.724491
 20
149.544124
 30
0.0
 10
371.715765
 20
150.463910
 30
0.0
  0
LINE
  5
1d4
100
AcDbEntity
  8
Layer_1
 62
7
100
AcDbLine
 10
371.715765
 20
150.463910
 30
0.0
 11
371.715765
 21
150.463910
 31
0.0
  0
SPLINE
  5
1d5
100
AcDbEntity
  8
Layer_1
 62
7
100
AcDbSpline
 70
8
 71
3
 72
8
 73
4
 74
0
 40
0
 40
0
 40
0
 40
0
 40
1
 40
1
 40
1
 40
1
 10
372.476455
 20
153.700098
 30
0.0
 10
371.913740
 20
155.364632
 30
0.0
 10
368.512561
 20
161.907485
 30
0.0
 10
367.100501
 20
164.041748
 30
0.0
  0
SPLINE
  5
1d6
100
AcDbEntity
  8
Layer_1
 62
7
100
AcDbSpline
 70
8
 71
3
 72
8
 73
4
 74
0
 40
0
 40
0
 40
0
 40
0
 40
1
 40
1
 40
1
 40
1
 10
367.100501
 20
164.041748
 30
0.0
 10
360.027633
 20
174.732161
 30
0.0
 10
352.094048
 20
180.648639
 30
0.0
 10
339.256452
 20
184.806424
 30
0.0
  0
SPLINE
  5
1d7
100
AcDbEntity
  8
Layer_1
 62
7
100
AcDbSpline
 70
8
 71
3
 72
8
 73
4
 74
0
 40
0
 40
0
 40
0
 40
0
 40
1
 40
1
 40
1
 40
1
 10
339.256452
 20
184.806424
 30
0.0
 10
334.489246
 20
186.350420
 30
0.0
 10
330.915510
 20
187.159573
 30
0.0
 10
322.202017
 20
188.667780
 30
0.0
  0
SPLINE
  5
1d8
100
AcDbEntity
  8
Layer_1
 62
7
100
AcDbSpline
 70
8
 71
3
 72
8
 73
4
 74
0
 40
0
 40
0
 40
0
 40
0
 40
1
 40
1
 40
1
 40
1
 10
322.202017
 20
188.667780
 30
0.0
 10
309.280531
 20
190.904402
 30
0.0
 10
304.719809
 20
192.266614
 30
0.0
 10
299.802069
 20
195.358333
 30
0.0
  0
SPLINE
  5
1d9
100
AcDbEntity
  8
Layer_1
 62
7
100
AcDbSpline
 70
8
 71
3
 72
8
 73
4
 74
0
 40
0
 40
0
 40
0
 40
0
 40
1
 40
1
 40
1
 40
1
 10
299.802069
 20
195.358333
 30
0.0
 10
297.916273
 20
196.543943
 30
0.0
 10
299.255285
 20
195.255653
 30
0.0
 10
301.362031
 20
193.857475
 30
0.0
  0
SPLINE
  5
1da
100
AcDbEntity
  8
Layer_1
 62
7
100
AcDbSpline
 70
8
 71
3
 72
8
 73
4
 74
0
 40
0
 40
0
 40
0
 40
0
 40
1
 40
1
 40
1
 40
1
 10
301.362031
 20
193.857475
 30
0.0
 10
305.708964
 20
190.972643
 30
0.0
 10
310.133199
 20
189.412705
 30
0.0
 10
322.795848
 20
186.300038
 30
0.0
  0
SPLINE
  5
1db
100
AcDbEntity
  8
Layer_1
 62
7
100
AcDbSpline
 70
8
 71
3
 72
8
 73
4
 74
0
 40
0
 40
0
 40
0
 40
0
 40
1
 40
1
 40
1
 40
1
 10
322.795848
 20
186.300038
 30
0.0
 10
332.392817
 20
183.940995
 30
0.0
 10
336.685687
 20
182.565718
 30
0.0
 10
341.229693
 20
180.394531
 30
0.0
  0
SPLINE
  5
1dc
100
AcDbEntity
  8
Layer_1
 62
7
100
AcDbSpline
 70
8
 71
3
 72
8
 73
4
 74
0
 40
0
 40
0
 40
0
 40
0
 40
1
 40
1
 40
1
 40
1
 10
341.229693
 20
180.394531
 30
0.0
 10
350.898688
 20
175.774580
 30
0.0
 10
360.112347
 20
167.994741
 30
0.0
 10
369.652015
 20
156.395158
 30
0.0
  0
SPLINE
  5
1dd
100
AcDbEntity
  8
Layer_1
 62
7
100
AcDbSpline
 70
8
 71
3
 72
8
 73
4
 74
0
 40
0
 40
0
 40
0
 40
0
 40
1
 40
1
 40
1
 40
1
 10
369.652015
 20
156.395158
 30
0.0
 10
372.190926
 20
153.308019
 30
0.0
 10
372.808034
 20
152.719208
 30
0.0
 10
372.476455
 20
153.700098
 30
0.0
  0
LINE
  5
1de
100
AcDbEntity
  8
Layer_1
 62
7
100
AcDbLine
 10
372.476455
 20
153.700098
 30
0.0
 11
372.476455
 21
153.700098
 31
0.0
  0
SPLINE
  5
1df
100
AcDbEntity
  8
Layer_1
 62
7
100
AcDbSpline
 70
8
 71
3
 72
8
 73
4
 74
0
 40
0
 40
0
 40
0
 40
0
 40
1
 40
1
 40
1
 40
1
 10
21.141864
 20
148.704294
 30
0.0
 10
21.141864
 20
148.858598
 30
0.0
 10
20.511177
 20
151.422894
 30
0.0
 10
19.740336
 20
154.402773
 30
0.0
  0
SPLINE
  5
1e0
100
AcDbEntity
  8
Layer_1
 62
7
100
AcDbSpline
 70
8
 71
3
 72
8
 73
4
 74
0
 40
0
 40
0
 40
0
 40
0
 40
1
 40
1
 40
1
 40
1
 10
19.740336
 20
154.402773
 30
0.0
 10
17.298645
 20
163.841678
 30
0.0
 10
15.786154
 20
172.258260
 30
0.0
 10
14.746438
 20
182.192421
 30
0.0
  0
SPLINE
  5
1e1
100
AcDbEntity
  8
Layer_1
 62
7
100
AcDbSpline
 70
8
 71
3
 72
8
 73
4
 74
0
 40
0
 40
0
 40
0
 40
0
 40
1
 40
1
 40
1
 40
1
 10
14.746438
 20
182.192421
 30
0.0
 10
14.038928
 20
188.952457
 30
0.0
 10
14.039483
 20
208.484550
 30
0.0
 10
14.747361
 20
215.398286
 30
0.0
  0
SPLINE
  5
1e2
100
AcDbEntity
  8
Layer_1
 62
7
100
AcDbSpline
 70
8
 71
3
 72
8
 73
4
 74
0
 40
0
 40
0
 40
0
 40
0
 40
1
 40
1
 40
1
 40
1
 10
14.747361
 20
215.398286
 30
0.0
 10
15.893485
 20
226.592014
 30
0.0
 10
17.858046
 20
237.488603
 30
0.0
 10
20.444559
 20
246.998234
 30
0.0
  0
SPLINE
  5
1e3
100
AcDbEntity
  8
Layer_1
 62
7
100
AcDbSpline
 70
8
 71
3
 72
8
 73
4
 74
0
 40
0
 40
0
 40
0
 40
0
 40
1
 40
1
 40
1
 40
1
 10
20.444559
 20
246.998234
 30
0.0
 10
20.983107
 20
248.978264
 30
0.0
 10
21.423737
 20
250.719489
 30
0.0
 10
21.423737
 20
250.867543
 30
0.0
  0
SPLINE
  5
1e4
100
AcDbEntity
  8
Layer_1
 62
7
100
AcDbSpline
 70
8
 71
3
 72
8
 73
4
 74
0
 40
0
 40
0
 40
0
 40
0
 40
1
 40
1
 40
1
 40
1
 10
21.423737
 20
250.867543
 30
0.0
 10
21.423737
 20
251.033599
 30
0.0
 10
17.803864
 20
251.136812
 30
0.0
 10
11.980370
 20
251.136812
 30
0.0
  0
LINE
  5
1e5
100
AcDbEntity
  8
Layer_1
 62
7
100
AcDbLine
 10
11.980370
 20
251.136812
 30
0.0
 11
2.537004
 21
251.136812
 31
0.0
  0
LINE
  5
1e6
100
AcDbEntity
  8
Layer_1
 62
7
100
AcDbLine
 10
2.537004
 20
251.136812
 30
0.0
 11
2.537004
 21
199.780273
 31
0.0
  0
LINE
  5
1e7
100
AcDbEntity
  8
Layer_1
 62
7
100
AcDbLine
 10
2.537004
 20
199.780273
 30
0.0
 11
2.537004
 21
148.423735
 31
0.0
  0
LINE
  5
1e8
100
AcDbEntity
  8
Layer_1
 62
7
100
AcDbLine
 10
2.537004
 20
148.423735
 30
0.0
 11
11.839424
 21
148.423735
 31
0.0
  0
SPLINE
  5
1e9
100
AcDbEntity
  8
Layer_1
 62
7
100
AcDbSpline
 70
8
 71
3
 72
8
 73
4
 74
0
 40
0
 40
0
 40
0
 40
0
 40
1
 40
1
 40
1
 40
1
 10
11.839424
 20
148.423735
 30
0.0
 10
17.833975
 20
148.423735
 30
0.0
 10
21.141846
 20
148.523504
 30
0.0
 10
21.141846
 20
148.704294
 30
0.0
  0
LINE
  5
1ea
100
AcDbEntity
  8
Layer_1
 62
7
100
AcDbLine
 10
21.141846
 20
148.704294
 30
0.0
 11
21.141864
 21
148.704294
 31
0.0
  0
LINE
  5
1eb
100
AcDbEntity
  8
Layer_1
 62
7
100
AcDbLine
 10
294.012695
 20
304.446254
 30
0.0
 11
387.177699
 21
397.467773
 31
0.0
  0
LINE
  5
1ec
100
AcDbEntity
  8
Layer_1
 62
7
100
AcDbLine
 10
387.177699
 20
397.467773
 30
0.0
 11
310.714767
 21
397.467773
 31
0.0
  0
SPLINE
  5
1ed
100
AcDbEntity
  8
Layer_1
 62
7
100
AcDbSpline
 70
8
 71
3
 72
8
 73
4
 74
0
 40
0
 40
0
 40
0
 40
0
 40
1
 40
1
 40
1
 40
1
 10
310.714767
 20
397.467773
 30
0.0
 10
247.607054
 20
397.467773
 30
0.0
 10
234.251856
 20
397.402941
 30
0.0
 10
234.251856
 20
397.096677
 30
0.0
  0
SPLINE
  5
1ee
100
AcDbEntity
  8
Layer_1
 62
7
100
AcDbSpline
 70
8
 71
3
 72
8
 73
4
 74
0
 40
0
 40
0
 40
0
 40
0
 40
1
 40
1
 40
1
 40
1
 10
234.251856
 20
397.096677
 30
0.0
 10
234.251856
 20
396.505025
 30
0.0
 10
236.245022
 20
393.405034
 30
0.0
 10
237.701389
 20
391.731588
 30
0.0
  0
SPLINE
  5
1ef
100
AcDbEntity
  8
Layer_1
 62
7
100
AcDbSpline
 70
8
 71
3
 72
8
 73
4
 74
0
 40
0
 40
0
 40
0
 40
0
 40
1
 40
1
 40
1
 40
1
 10
237.701389
 20
391.731588
 30
0.0
 10
238.435829
 20
390.887675
 30
0.0
 10
243.088391
 20
386.322650
 30
0.0
 10
248.040411
 20
381.587060
 30
0.0
  0
SPLINE
  5
1f0
100
AcDbEntity
  8
Layer_1
 62
7
100
AcDbSpline
 70
8
 71
3
 72
8
 73
4
 74
0
 40
0
 40
0
 40
0
 40
0
 40
1
 40
1
 40
1
 40
1
 10
248.040411
 20
381.587060
 30
0.0
 10
256.926706
 20
373.089138
 30
0.0
 10
260.676204
 20
369.129078
 30
0.0
 10
264.084402
 20
364.641986
 30
0.0
  0
SPLINE
  5
1f1
100
AcDbEntity
  8
Layer_1
 62
7
100
AcDbSpline
 70
8
 71
3
 72
8
 73
4
 74
0
 40
0
 40
0
 40
0
 40
0
 40
1
 40
1
 40
1
 40
1
 10
264.084402
 20
364.641986
 30
0.0
 10
269.268084
 20
357.817368
 30
0.0
 10
272.742125
 20
350.462805
 30
0.0
 10
274.187439
 20
343.253847
 30
0.0
  0
SPLINE
  5
1f2
100
AcDbEntity
  8
Layer_1
 62
7
100
AcDbSpline
 70
8
 71
3
 72
8
 73
4
 74
0
 40
0
 40
0
 40
0
 40
0
 40
1
 40
1
 40
1
 40
1
 10
274.187439
 20
343.253847
 30
0.0
 10
274.877481
 20
339.812050
 30
0.0
 10
274.876015
 20
331.432216
 30
0.0
 10
274.184598
 20
327.679150
 30
0.0
  0
SPLINE
  5
1f3
100
AcDbEntity
  8
Layer_1
 62
7
100
AcDbSpline
 70
8
 71
3
 72
8
 73
4
 74
0
 40
0
 40
0
 40
0
 40
0
 40
1
 40
1
 40
1
 40
1
 10
274.184598
 20
327.679150
 30
0.0
 10
271.276322
 20
311.889934
 30
0.0
 10
263.193258
 20
296.722974
 30
0.0
 10
249.554916
 20
281.464270
 30
0.0
  0
SPLINE
  5
1f4
100
AcDbEntity
  8
Layer_1
 62
7
100
AcDbSpline
 70
8
 71
3
 72
8
 73
4
 74
0
 40
0
 40
0
 40
0
 40
0
 40
1
 40
1
 40
1
 40
1
 10
249.554916
 20
281.464270
 30
0.0
 10
242.916552
 20
274.037241
 30
0.0
 10
232.113078
 20
264.712342
 30
0.0
 10
227.583863
 20
262.500217
 30
0.0
  0
SPLINE
  5
1f5
100
AcDbEntity
  8
Layer_1
 62
7
100
AcDbSpline
 70
8
 71
3
 72
8
 73
4
 74
0
 40
0
 40
0
 40
0
 40
0
 40
1
 40
1
 40
1
 40
1
 10
227.583863
 20
262.500217
 30
0.0
 10
225.346761
 20
261.407594
 30
0.0
 10
223.160804
 20
261.276226
 30
0.0
 10
221.873018
 20
262.157064
 30
0.0
  0
SPLINE
  5
1f6
100
AcDbEntity
  8
Layer_1
 62
7
100
AcDbSpline
 70
8
 71
3
 72
8
 73
4
 74
0
 40
0
 40
0
 40
0
 40
0
 40
1
 40
1
 40
1
 40
1
 10
221.873018
 20
262.157064
 30
0.0
 10
220.344864
 20
263.202324
 30
0.0
 10
219.759586
 20
264.640622
 30
0.0
 10
219.779170
 20
267.302591
 30
0.0
  0
SPLINE
  5
1f7
100
AcDbEntity
  8
Layer_1
 62
7
100
AcDbSpline
 70
8
 71
3
 72
8
 73
4
 74
0
 40
0
 40
0
 40
0
 40
0
 40
1
 40
1
 40
1
 40
1
 10
219.779170
 20
267.302591
 30
0.0
 10
219.806616
 20
271.033006
 30
0.0
 10
224.759846
 20
293.157088
 30
0.0
 10
229.358884
 20
310.091298
 30
0.0
  0
SPLINE
  5
1f8
100
AcDbEntity
  8
Layer_1
 62
7
100
AcDbSpline
 70
8
 71
3
 72
8
 73
4
 74
0
 40
0
 40
0
 40
0
 40
0
 40
1
 40
1
 40
1
 40
1
 10
229.358884
 20
310.091298
 30
0.0
 10
230.661927
 20
314.889269
 30
0.0
 10
231.871965
 20
319.408955
 30
0.0
 10
232.047852
 20
320.134992
 30
0.0
  0
LINE
  5
1f9
100
AcDbEntity
  8
Layer_1
 62
7
100
AcDbLine
 10
232.047852
 20
320.134992
 30
0.0
 11
232.367650
 21
321.455094
 31
0.0
  0
LINE
  5
1fa
100
AcDbEntity
  8
Layer_1
 62
7
100
AcDbLine
 10
232.367650
 20
321.455094
 30
0.0
 11
230.313771
 21
323.870164
 31
0.0
  0
SPLINE
  5
1fb
100
AcDbEntity
  8
Layer_1
 62
7
100
AcDbSpline
 70
8
 71
3
 72
8
 73
4
 74
0
 40
0
 40
0
 40
0
 40
0
 40
1
 40
1
 40
1
 40
1
 10
230.313771
 20
323.870164
 30
0.0
 10
215.570656
 20
341.205790
 30
0.0
 10
196.086225
 20
346.525397
 30
0.0
 10
176.149846
 20
338.657968
 30
0.0
  0
SPLINE
  5
1fc
100
AcDbEntity
  8
Layer_1
 62
7
100
AcDbSpline
 70
8
 71
3
 72
8
 73
4
 74
0
 40
0
 40
0
 40
0
 40
0
 40
1
 40
1
 40
1
 40
1
 10
176.149846
 20
338.657968
 30
0.0
 10
172.615411
 20
337.263164
 30
0.0
 10
168.071955
 20
334.803500
 30
0.0
 10
167.879867
 20
334.180889
 30
0.0
  0
SPLINE
  5
1fd
100
AcDbEntity
  8
Layer_1
 62
7
100
AcDbSpline
 70
8
 71
3
 72
8
 73
4
 74
0
 40
0
 40
0
 40
0
 40
0
 40
1
 40
1
 40
1
 40
1
 10
167.879867
 20
334.180889
 30
0.0
 10
167.381547
 20
332.565635
 30
0.0
 10
162.055450
 20
302.807602
 30
0.0
 10
161.251480
 20
297.146617
 30
0.0
  0
SPLINE
  5
1fe
100
AcDbEntity
  8
Layer_1
 62
7
100
AcDbSpline
 70
8
 71
3
 72
8
 73
4
 74
0
 40
0
 40
0
 40
0
 40
0
 40
1
 40
1
 40
1
 40
1
 10
161.251480
 20
297.146617
 30
0.0
 10
159.755600
 20
286.613774
 30
0.0
 10
158.106777
 20
281.611366
 30
0.0
 10
155.763264
 20
280.495771
 30
0.0
  0
SPLINE
  5
1ff
100
AcDbEntity
  8
Layer_1
 62
7
100
AcDbSpline
 70
8
 71
3
 72
8
 73
4
 74
0
 40
0
 40
0
 40
0
 40
0
 40
1
 40
1
 40
1
 40
1
 10
155.763264
 20
280.495771
 30
0.0
 10
153.249882
 20
279.299296
 30
0.0
 10
150.937982
 20
281.819495
 30
0.0
 10
147.043649
 20
290.001070
 30
0.0
  0
SPLINE
  5
200
100
AcDbEntity
  8
Layer_1
 62
7
100
AcDbSpline
 70
8
 71
3
 72
8
 73
4
 74
0
 40
0
 40
0
 40
0
 40
0
 40
1
 40
1
 40
1
 40
1
 10
147.043649
 20
290.001070
 30
0.0
 10
140.399029
 20
303.960939
 30
0.0
 10
135.815964
 20
319.461005
 30
0.0
 10
133.989365
 20
334.151491
 30
0.0
  0
SPLINE
  5
201
100
AcDbEntity
  8
Layer_1
 62
7
100
AcDbSpline
 70
8
 71
3
 72
8
 73
4
 74
0
 40
0
 40
0
 40
0
 40
0
 40
1
 40
1
 40
1
 40
1
 10
133.989365
 20
334.151491
 30
0.0
 10
133.324108
 20
339.501810
 30
0.0
 10
133.328852
 20
350.795910
 30
0.0
 10
133.998312
 20
355.397612
 30
0.0
  0
SPLINE
  5
202
100
AcDbEntity
  8
Layer_1
 62
7
100
AcDbSpline
 70
8
 71
3
 72
8
 73
4
 74
0
 40
0
 40
0
 40
0
 40
0
 40
1
 40
1
 40
1
 40
1
 10
133.998312
 20
355.397612
 30
0.0
 10
134.675483
 20
360.052570
 30
0.0
 10
135.733039
 20
364.650614
 30
0.0
 10
136.903308
 20
368.028005
 30
0.0
  0
SPLINE
  5
203
100
AcDbEntity
  8
Layer_1
 62
7
100
AcDbSpline
 70
8
 71
3
 72
8
 73
4
 74
0
 40
0
 40
0
 40
0
 40
0
 40
1
 40
1
 40
1
 40
1
 10
136.903308
 20
368.028005
 30
0.0
 10
139.759751
 20
376.271678
 30
0.0
 10
143.025312
 20
379.147635
 30
0.0
 10
162.129743
 20
390.244755
 30
0.0
  0
SPLINE
  5
204
100
AcDbEntity
  8
Layer_1
 62
7
100
AcDbSpline
 70
8
 71
3
 72
8
 73
4
 74
0
 40
0
 40
0
 40
0
 40
0
 40
1
 40
1
 40
1
 40
1
 10
162.129743
 20
390.244755
 30
0.0
 10
165.087276
 20
391.962688
 30
0.0
 10
166.318489
 20
393.186750
 30
0.0
 10
167.709572
 20
395.792196
 30
0.0
  0
LINE
  5
205
100
AcDbEntity
  8
Layer_1
 62
7
100
AcDbLine
 10
167.709572
 20
395.792196
 30
0.0
 11
168.604182
 21
397.467773
 31
0.0
  0
LINE
  5
206
100
AcDbEntity
  8
Layer_1
 62
7
100
AcDbLine
 10
168.604182
 20
397.467773
 30
0.0
 11
90.856226
 21
397.467773
 31
0.0
  0
LINE
  5
207
100
AcDbEntity
  8
Layer_1
 62
7
100
AcDbLine
 10
90.856226
 20
397.467773
 30
0.0
 11
13.108264
 21
397.467773
 31
0.0
  0
LINE
  5
208
100
AcDbEntity
  8
Layer_1
 62
7
100
AcDbLine
 10
13.108264
 20
397.467773
 30
0.0
 11
106.536933
 21
304.199815
 31
0.0
  0
SPLINE
  5
209
100
AcDbEntity
  8
Layer_1
 62
7
100
AcDbSpline
 70
8
 71
3
 72
8
 73
4
 74
0
 40
0
 40
0
 40
0
 40
0
 40
1
 40
1
 40
1
 40
1
 10
106.536933
 20
304.199815
 30
0.0
 10
180.008486
 20
230.854645
 30
0.0
 10
200.059818
 20
210.984476
 30
0.0
 10
200.406654
 20
211.178261
 30
0.0
  0
SPLINE
  5
20a
100
AcDbEntity
  8
Layer_1
 62
7
100
AcDbSpline
 70
8
 71
3
 72
8
 73
4
 74
0
 40
0
 40
0
 40
0
 40
0
 40
1
 40
1
 40
1
 40
1
 10
200.406654
 20
211.178261
 30
0.0
 10
200.649229
 20
211.313818
 30
0.0
 10
242.771944
 20
253.284424
 30
0.0
 10
294.012684
 20
304.446254
 30
0.0
  0
LINE
  5
20b
100
AcDbEntity
  8
Layer_1
 62
7
100
AcDbLine
 10
294.012684
 20
304.446254
 30
0.0
 11
294.012695
 21
304.446254
 31
0.0
  0
SPLINE
  5
20c
100
AcDbEntity
  8
Layer_1
 62
7
100
AcDbSpline
 70
8
 71
3
 72
8
 73
4
 74
0
 40
0
 40
0
 40
0
 40
0
 40
1
 40
1
 40
1
 40
1
 10
225.425780
 20
264.222340
 30
0.0
 10
228.214718
 20
265.049140
 30
0.0
 10
235.560799
 20
270.774851
 30
0.0
 10
242.385809
 20
277.441402
 30
0.0
  0
SPLINE
  5
20d
100
AcDbEntity
  8
Layer_1
 62
7
100
AcDbSpline
 70
8
 71
3
 72
8
 73
4
 74
0
 40
0
 40
0
 40
0
 40
0
 40
1
 40
1
 40
1
 40
1
 10
242.385809
 20
277.441402
 30
0.0
 10
259.708984
 20
294.362404
 30
0.0
 10
270.410826
 20
313.941825
 30
0.0
 10
272.332255
 20
332.229582
 30
0.0
  0
SPLINE
  5
20e
100
AcDbEntity
  8
Layer_1
 62
7
100
AcDbSpline
 70
8
 71
3
 72
8
 73
4
 74
0
 40
0
 40
0
 40
0
 40
0
 40
1
 40
1
 40
1
 40
1
 10
272.332255
 20
332.229582
 30
0.0
 10
273.282145
 20
341.270302
 30
0.0
 10
270.472671
 20
350.913928
 30
0.0
 10
264.128095
 20
360.390717
 30
0.0
  0
SPLINE
  5
20f
100
AcDbEntity
  8
Layer_1
 62
7
100
AcDbSpline
 70
8
 71
3
 72
8
 73
4
 74
0
 40
0
 40
0
 40
0
 40
0
 40
1
 40
1
 40
1
 40
1
 10
264.128095
 20
360.390717
 30
0.0
 10
259.812050
 20
366.837565
 30
0.0
 10
256.508907
 20
370.437180
 30
0.0
 10
244.525372
 20
381.752797
 30
0.0
  0
SPLINE
  5
210
100
AcDbEntity
  8
Layer_1
 62
7
100
AcDbSpline
 70
8
 71
3
 72
8
 73
4
 74
0
 40
0
 40
0
 40
0
 40
0
 40
1
 40
1
 40
1
 40
1
 10
244.525372
 20
381.752797
 30
0.0
 10
240.485782
 20
385.567251
 30
0.0
 10
236.473694
 20
389.555536
 30
0.0
 10
235.609615
 20
390.615673
 30
0.0
  0
SPLINE
  5
211
100
AcDbEntity
  8
Layer_1
 62
7
100
AcDbSpline
 70
8
 71
3
 72
8
 73
4
 74
0
 40
0
 40
0
 40
0
 40
0
 40
1
 40
1
 40
1
 40
1
 10
235.609615
 20
390.615673
 30
0.0
 10
233.565737
 20
393.123268
 30
0.0
 10
232.027103
 20
395.557368
 30
0.0
 10
231.814230
 20
396.619883
 30
0.0
  0
LINE
  5
212
100
AcDbEntity
  8
Layer_1
 62
7
100
AcDbLine
 10
231.814230
 20
396.619883
 30
0.0
 11
231.644361
 21
397.467773
 31
0.0
  0
LINE
  5
213
100
AcDbEntity
  8
Layer_1
 62
7
100
AcDbLine
 10
231.644361
 20
397.467773
 30
0.0
 11
201.422342
 21
397.467773
 31
0.0
  0
LINE
  5
214
100
AcDbEntity
  8
Layer_1
 62
7
100
AcDbLine
 10
201.422342
 20
397.467773
 30
0.0
 11
171.200322
 21
397.467773
 31
0.0
  0
LINE
  5
215
100
AcDbEntity
  8
Layer_1
 62
7
100
AcDbLine
 10
171.200322
 20
397.467773
 30
0.0
 11
170.023719
 21
395.097368
 31
0.0
  0
SPLINE
  5
216
100
AcDbEntity
  8
Layer_1
 62
7
100
AcDbSpline
 70
8
 71
3
 72
8
 73
4
 74
0
 40
0
 40
0
 40
0
 40
0
 40
1
 40
1
 40
1
 40
1
 10
170.023719
 20
395.097368
 30
0.0
 10
168.189515
 20
391.402174
 30
0.0
 10
166.671875
 20
390.063183
 30
0.0
 10
159.831027
 20
386.104402
 30
0.0
  0
SPLINE
  5
217
100
AcDbEntity
  8
Layer_1
 62
7
100
AcDbSpline
 70
8
 71
3
 72
8
 73
4
 74
0
 40
0
 40
0
 40
0
 40
0
 40
1
 40
1
 40
1
 40
1
 10
159.831027
 20
386.104402
 30
0.0
 10
148.619379
 20
379.616298
 30
0.0
 10
144.186858
 20
376.375778
 30
0.0
 10
141.984742
 20
373.057467
 30
0.0
  0
SPLINE
  5
218
100
AcDbEntity
  8
Layer_1
 62
7
100
AcDbSpline
 70
8
 71
3
 72
8
 73
4
 74
0
 40
0
 40
0
 40
0
 40
0
 40
1
 40
1
 40
1
 40
1
 10
141.984742
 20
373.057467
 30
0.0
 10
138.135099
 20
367.256486
 30
0.0
 10
135.776131
 20
356.497265
 30
0.0
 10
135.799113
 20
344.844886
 30
0.0
  0
SPLINE
  5
219
100
AcDbEntity
  8
Layer_1
 62
7
100
AcDbSpline
 70
8
 71
3
 72
8
 73
4
 74
0
 40
0
 40
0
 40
0
 40
0
 40
1
 40
1
 40
1
 40
1
 10
135.799113
 20
344.844886
 30
0.0
 10
135.818889
 20
334.828247
 30
0.0
 10
137.373157
 20
324.990836
 30
0.0
 10
140.794974
 20
313.225126
 30
0.0
  0
SPLINE
  5
21a
100
AcDbEntity
  8
Layer_1
 62
7
100
AcDbSpline
 70
8
 71
3
 72
8
 73
4
 74
0
 40
0
 40
0
 40
0
 40
0
 40
1
 40
1
 40
1
 40
1
 10
140.794974
 20
313.225126
 30
0.0
 10
144.691494
 20
299.827226
 30
0.0
 10
152.464466
 20
282.654247
 30
0.0
 10
154.632227
 20
282.654247
 30
0.0
  0
SPLINE
  5
21b
100
AcDbEntity
  8
Layer_1
 62
7
100
AcDbSpline
 70
8
 71
3
 72
8
 73
4
 74
0
 40
0
 40
0
 40
0
 40
0
 40
1
 40
1
 40
1
 40
1
 10
154.632227
 20
282.654247
 30
0.0
 10
155.444147
 20
282.654247
 30
0.0
 10
156.924731
 20
286.591583
 30
0.0
 10
157.830834
 20
291.160336
 30
0.0
  0
SPLINE
  5
21c
100
AcDbEntity
  8
Layer_1
 62
7
100
AcDbSpline
 70
8
 71
3
 72
8
 73
4
 74
0
 40
0
 40
0
 40
0
 40
0
 40
1
 40
1
 40
1
 40
1
 10
157.830834
 20
291.160336
 30
0.0
 10
158.146162
 20
292.750310
 30
0.0
 10
158.733514
 20
296.330540
 30
0.0
 10
159.136053
 20
299.116456
 30
0.0
  0
SPLINE
  5
21d
100
AcDbEntity
  8
Layer_1
 62
7
100
AcDbSpline
 70
8
 71
3
 72
8
 73
4
 74
0
 40
0
 40
0
 40
0
 40
0
 40
1
 40
1
 40
1
 40
1
 10
159.136053
 20
299.116456
 30
0.0
 10
159.768307
 20
303.492205
 30
0.0
 10
160.755709
 20
309.065991
 30
0.0
 10
164.838785
 20
331.307879
 30
0.0
  0
SPLINE
  5
21e
100
AcDbEntity
  8
Layer_1
 62
7
100
AcDbSpline
 70
8
 71
3
 72
8
 73
4
 74
0
 40
0
 40
0
 40
0
 40
0
 40
1
 40
1
 40
1
 40
1
 10
164.838785
 20
331.307879
 30
0.0
 10
165.543867
 20
335.148713
 30
0.0
 10
165.633577
 20
335.408288
 30
0.0
 10
166.569269
 20
336.315470
 30
0.0
  0
SPLINE
  5
21f
100
AcDbEntity
  8
Layer_1
 62
7
100
AcDbSpline
 70
8
 71
3
 72
8
 73
4
 74
0
 40
0
 40
0
 40
0
 40
0
 40
1
 40
1
 40
1
 40
1
 10
166.569269
 20
336.315470
 30
0.0
 10
167.798672
 20
337.507365
 30
0.0
 10
173.943108
 20
340.537697
 30
0.0
 10
177.857103
 20
341.882404
 30
0.0
  0
SPLINE
  5
220
100
AcDbEntity
  8
Layer_1
 62
7
100
AcDbSpline
 70
8
 71
3
 72
8
 73
4
 74
0
 40
0
 40
0
 40
0
 40
0
 40
1
 40
1
 40
1
 40
1
 10
177.857103
 20
341.882404
 30
0.0
 10
179.475975
 20
342.438586
 30
0.0
 10
182.393550
 20
343.232260
 30
0.0
 10
184.340607
 20
343.646174
 30
0.0
  0
SPLINE
  5
221
100
AcDbEntity
  8
Layer_1
 62
7
100
AcDbSpline
 70
8
 71
3
 72
8
 73
4
 74
0
 40
0
 40
0
 40
0
 40
0
 40
1
 40
1
 40
1
 40
1
 10
184.340607
 20
343.646174
 30
0.0
 10
187.568142
 20
344.332233
 30
0.0
 10
188.428252
 20
344.398627
 30
0.0
 10
194.082315
 20
344.397881
 30
0.0
  0
SPLINE
  5
222
100
AcDbEntity
  8
Layer_1
 62
7
100
AcDbSpline
 70
8
 71
3
 72
8
 73
4
 74
0
 40
0
 40
0
 40
0
 40
0
 40
1
 40
1
 40
1
 40
1
 10
194.082315
 20
344.397881
 30
0.0
 10
199.424890
 20
344.397881
 30
0.0
 10
200.681755
 20
344.310894
 30
0.0
 10
203.155954
 20
343.774950
 30
0.0
  0
SPLINE
  5
223
100
AcDbEntity
  8
Layer_1
 62
7
100
AcDbSpline
 70
8
 71
3
 72
8
 73
4
 74
0
 40
0
 40
0
 40
0
 40
0
 40
1
 40
1
 40
1
 40
1
 10
203.155954
 20
343.774950
 30
0.0
 10
210.397080
 20
342.206527
 30
0.0
 10
216.896351
 20
339.031975
 30
0.0
 10
223.300753
 20
333.935409
 30
0.0
  0
SPLINE
  5
224
100
AcDbEntity
  8
Layer_1
 62
7
100
AcDbSpline
 70
8
 71
3
 72
8
 73
4
 74
0
 40
0
 40
0
 40
0
 40
0
 40
1
 40
1
 40
1
 40
1
 10
223.300753
 20
333.935409
 30
0.0
 10
227.477057
 20
330.611914
 30
0.0
 10
234.280164
 20
323.323390
 30
0.0
 10
234.660548
 20
321.765051
 30
0.0
  0
SPLINE
  5
225
100
AcDbEntity
  8
Layer_1
 62
7
100
AcDbSpline
 70
8
 71
3
 72
8
 73
4
 74
0
 40
0
 40
0
 40
0
 40
0
 40
1
 40
1
 40
1
 40
1
 10
234.660548
 20
321.765051
 30
0.0
 10
234.768702
 20
321.321951
 30
0.0
 10
234.065097
 20
318.233605
 30
0.0
 10
232.738242
 20
313.327450
 30
0.0
  0
SPLINE
  5
226
100
AcDbEntity
  8
Layer_1
 62
7
100
AcDbSpline
 70
8
 71
3
 72
8
 73
4
 74
0
 40
0
 40
0
 40
0
 40
0
 40
1
 40
1
 40
1
 40
1
 10
232.738242
 20
313.327450
 30
0.0
 10
229.341349
 20
300.767215
 30
0.0
 10
228.446313
 20
297.259096
 30
0.0
 10
226.671554
 20
289.548668
 30
0.0
  0
SPLINE
  5
227
100
AcDbEntity
  8
Layer_1
 62
7
100
AcDbSpline
 70
8
 71
3
 72
8
 73
4
 74
0
 40
0
 40
0
 40
0
 40
0
 40
1
 40
1
 40
1
 40
1
 10
226.671554
 20
289.548668
 30
0.0
 10
224.021287
 20
278.034651
 30
0.0
 10
222.130523
 20
268.821095
 30
0.0
 10
222.130523
 20
267.420609
 30
0.0
  0
SPLINE
  5
228
100
AcDbEntity
  8
Layer_1
 62
7
100
AcDbSpline
 70
8
 71
3
 72
8
 73
4
 74
0
 40
0
 40
0
 40
0
 40
0
 40
1
 40
1
 40
1
 40
1
 10
222.130523
 20
267.420609
 30
0.0
 10
222.130523
 20
265.717872
 30
0.0
 10
222.626010
 20
264.374656
 30
0.0
 10
223.363855
 20
264.077232
 30
0.0
  0
SPLINE
  5
229
100
AcDbEntity
  8
Layer_1
 62
7
100
AcDbSpline
 70
8
 71
3
 72
8
 73
4
 74
0
 40
0
 40
0
 40
0
 40
0
 40
1
 40
1
 40
1
 40
1
 10
223.363855
 20
264.077232
 30
0.0
 10
223.693283
 20
263.944409
 30
0.0
 10
223.971505
 20
263.827705
 30
0.0
 10
223.982128
 20
263.817906
 30
0.0
  0
SPLINE
  5
22a
100
AcDbEntity
  8
Layer_1
 62
7
100
AcDbSpline
 70
8
 71
3
 72
8
 73
4
 74
0
 40
0
 40
0
 40
0
 40
0
 40
1
 40
1
 40
1
 40
1
 10
223.982128
 20
263.817906
 30
0.0
 10
223.992744
 20
263.807964
 30
0.0
 10
224.642389
 20
263.990104
 30
0.0
 10
225.425780
 20
264.222340
 30
0.0
  0
LINE
  5
22b
100
AcDbEntity
  8
Layer_1
 62
7
100
AcDbLine
 10
225.425780
 20
264.222340
 30
0.0
 11
225.425780
 21
264.222340
 31
0.0
  0
ENDSEC
  0
SECTION
  2
OBJECTS
  0
DICTIONARY
  5
C
330
0
100
AcDbDictionary
  3
ACAD_GROUP
350
D
  3
ACAD_MLINESTYLE
350
17
  0
DICTIONARY
  5
D
330
C
100
AcDbDictionary
  0
DICTIONARY
  5
1A
330
C
100
AcDbDictionary
  0
DICTIONARY
  5
17
330
C
100
AcDbDictionary
  3
STANDARD
350
18
  0
DICTIONARY
  5
19
330
C
100
AcDbDictionary
  0
ENDSEC
  0
EOF
