<?xml version="1.0" encoding="UTF-8" standalone="no"?>
<!-- Created with Inkscape (http://www.inkscape.org/) -->

<svg
   xmlns:dc="http://purl.org/dc/elements/1.1/"
   xmlns:cc="http://creativecommons.org/ns#"
   xmlns:rdf="http://www.w3.org/1999/02/22-rdf-syntax-ns#"
   xmlns:svg="http://www.w3.org/2000/svg"
   xmlns="http://www.w3.org/2000/svg"
   xmlns:sodipodi="http://sodipodi.sourceforge.net/DTD/sodipodi-0.dtd"
   xmlns:inkscape="http://www.inkscape.org/namespaces/inkscape"
   id="svg2985"
   version="1.1"
   inkscape:version="0.48.2 r9819"
   width="1052.3625"
   height="744.1"
   xml:space="preserve"
   sodipodi:docname="Unser FablabLogoSchriftdabei.ai"><metadata
     id="metadata2991"><rdf:RDF><cc:Work
         rdf:about=""><dc:format>image/svg+xml</dc:format><dc:type
           rdf:resource="http://purl.org/dc/dcmitype/StillImage" /><dc:title></dc:title></cc:Work></rdf:RDF></metadata><defs
     id="defs2989"><clipPath
       clipPathUnits="userSpaceOnUse"
       id="clipPath2999"><path
         d="m 0,595.28 841.89,0 L 841.89,0 0,0 0,595.28 z"
         id="path3001" /></clipPath></defs><sodipodi:namedview
     pagecolor="#ffffff"
     bordercolor="#666666"
     borderopacity="1"
     objecttolerance="10"
     gridtolerance="10"
     guidetolerance="10"
     inkscape:pageopacity="0"
     inkscape:pageshadow="2"
     inkscape:window-width="1119"
     inkscape:window-height="709"
     id="namedview2987"
     showgrid="false"
     inkscape:zoom="0.29362504"
     inkscape:cx="526.18127"
     inkscape:cy="372.04999"
     inkscape:window-x="61"
     inkscape:window-y="29"
     inkscape:window-maximized="0"
     inkscape:current-layer="g2993" /><g
     id="g2993"
     inkscape:groupmode="layer"
     inkscape:label="Unser FablabLogoSchriftdabei"
     transform="matrix(1.25,0,0,-1.25,0,744.1)"><g
       id="g2995"><g
         id="g2997"
         clip-path="url(#clipPath2999)"><g
           id="g3003"
           transform="translate(298.8911,273.4795)"><path
             d="m 0,0 c -9.219,-0.148 -16.912,-7.006 -26.121,-2.102 -10.182,4.627 -14.494,13.694 -18.195,23.565 -3.622,10.314 -4.473,19.113 -8.094,29.429 l -0.074,1.313 C -33.701,41.865 -10.23,51.847 7.621,38.921 16.502,32.236 16.367,23.986 15.461,14.043 14.728,4.707 17.699,1.65 21.664,-2.701 l 0,153.218 L -89.408,39.421 21.664,-71.672 l 0,57.592 C 16.416,-6.639 10.453,-0.018 0,0"
             style="fill:#96c22c;fill-opacity:1;fill-rule:nonzero;stroke:none"
             id="path3005" /></g><g
           id="g3007"
           transform="translate(259.2056,312.9985)"><path
             d="m 0,0 c 1.584,-1.713 3.52,-3.023 5.623,-3.926 2.107,-0.906 4.359,-1.435 6.639,-1.857 4.551,-0.862 9.287,-1.406 13.89,-2.924 2.301,-0.74 4.559,-1.695 6.705,-2.889 2.141,-1.201 4.102,-2.726 5.807,-4.476 3.395,-3.519 5.941,-7.715 7.504,-12.217 l -0.262,-0.146 c -2.998,3.676 -5.92,7.23 -9.314,10.193 -3.369,2.941 -6.992,5.621 -11.254,7.277 -4.227,1.707 -8.822,2.547 -13.41,3.719 -2.283,0.621 -4.58,1.359 -6.705,2.486 -2.127,1.112 -4.026,2.674 -5.452,4.565 L 0,0 z"
             style="fill:#96c22c;fill-opacity:1;fill-rule:nonzero;stroke:none"
             id="path3009" /></g><g
           id="g3011"
           transform="translate(223.8794,430.0625)"><path
             d="M 0,0 90.92,0 -20.173,-111.074 -131.268,0 l 92.551,0 0.64,-0.242 c -0.8,-2.227 -1.868,-4.004 -3.289,-4.822 -11.525,-6.625 -13.933,-8.242 -15.693,-13.584 -5.967,-18.102 2.979,-39.922 7.176,-47.896 5.012,-9.524 6.369,4.423 6.942,8.257 0.61,4.088 3.664,20.268 3.664,20.268 0,0 20.711,14.625 38.295,-7.789 -2.317,-8.76 -3.725,-12.897 -7.166,-29.518 -1.237,-5.398 1.543,-6.652 5.009,-4.299 8.065,5.475 23.516,20.323 26.227,38.114 1.713,11.222 -3.635,20.244 -14.445,29.99 -3.76,3.848 -7.159,6.104 -9.139,10.105 L 0,0 z"
             style="fill:#c4c4c7;fill-opacity:1;fill-rule:nonzero;stroke:none"
             id="path3013" /></g><g
           id="g3015"
           transform="translate(86.7319,344.9106)"><path
             d="m 0,0 0,-0.766 17.071,0.002 62.58,-31.316 -62.576,-31.263 -15.095,0 -1.979,0 0,-79.805 111.073,111.097 -111.073,111.092 0,-79.805"
             style="fill:#68c6df;fill-opacity:1;fill-rule:nonzero;stroke:none"
             id="path3017" /></g><g
           id="g3019"
           transform="translate(166.4609,312.8091)"><path
             d="m 0,0 c 0,-4.021 -3.262,-7.285 -7.287,-7.285 -4.024,0 -7.285,3.264 -7.285,7.285 0,4.025 3.261,7.289 7.285,7.289 C -3.262,7.289 0,4.025 0,0 z"
             style="fill:none;stroke:#68c6df;stroke-opacity:1;stroke-width:4;stroke-linecap:butt;stroke-linejoin:miter;stroke-miterlimit:4;stroke-dasharray:none"
             id="path3021" /></g><g
           id="g3023"
           transform="translate(283.5884,227.0186)"><path
             d="m 0,0 -4.773,-2.238 c -9.305,-3.891 -20.399,-6.153 -32.309,-6.153 -3.309,0 -6.764,0.373 -9.924,0.709 0,0 -38.057,-21.41 -33.472,-13.627 9.511,16.153 7.023,20.934 7.023,20.934 -14.846,7.414 -23.197,18.699 -23.197,30.521 -0.001,13.776 11.174,25.864 27.978,32.68 l 4.278,1.557 -2.19,2.189 -13.296,13.295 -111.094,-111.074 222.187,0 L 0,0 z"
             style="fill:#e94f2c;fill-opacity:1;fill-rule:nonzero;stroke:none"
             id="path3025" /></g><g
           id="g3027"
           transform="translate(103.3774,348.3325)"><path
             d="M 0,0 C -7.845,-23.215 -8.878,-46.498 0.004,-71.046"
             style="fill:none;stroke:#68c6df;stroke-opacity:1;stroke-width:4;stroke-linecap:butt;stroke-linejoin:miter;stroke-miterlimit:4;stroke-dasharray:none"
             id="path3029" /></g></g></g><text
       transform="matrix(1,0,0,-1,337.623,246.0664)"
       id="text3031"><tspan
         style="fill:#6d6c6e;fill-opacity:1;fill-rule:nonzero;stroke:none;font-family:Coolvetica Rg;font-variant:normal;font-weight:normal;font-stretch:normal;font-size:119.9027;writing-mode:lr;-inkscape-font-specification:CoolveticaRg-Regular"
         x="0 32.373729 90.0469277"
         y="0"
         sodipodi:role="line"
         id="tspan3033">fab</tspan><tspan
         style="fill:#c4c4c7;fill-opacity:1;fill-rule:nonzero;stroke:none;font-family:Coolvetica Rg;font-variant:normal;font-weight:normal;font-stretch:normal;font-size:119.9027;writing-mode:lr;-inkscape-font-specification:CoolveticaRg-Regular"
         x="153.1157479 174.8181366 232.4913353"
         y="0"
         sodipodi:role="line"
         id="tspan3035">lab</tspan></text>
<text
       transform="matrix(1,0,0,-1,345.2002,196.8115)"
       id="text3037"><tspan
         style="fill:#6d6c6e;fill-opacity:1;fill-rule:nonzero;stroke:none;font-family:Coolvetica Rg;font-variant:normal;font-weight:normal;font-stretch:normal;font-size:66.9499;writing-mode:lr;-inkscape-font-specification:CoolveticaRg-Regular"
         x="0 41.9106374 75.8542367 100.0231506 116.6936757 151.1059243 175.3417881 212.4989826 249.1205779"
         y="0"
         sodipodi:role="line"
         id="tspan3039">Karlsruhe</tspan></text>
</g></svg>