  0
SECTION
  2
HEADER
  9
$ACADVER
  1
AC1009
  9
$EXTMIN
 10
0.0
 20
0.0
 30
0.0
  9
$EXTMAX
 10
1000.0
 20
1000.0
 30
0.0
  9
$FILLMODE
 70
 0
  9
$SPLFRAME
 70
 1
  0
ENDSEC
  0
SECTION
  2
TABLES
  0
TABLE
  2
LAYER
 70
1
  0
LAYER
  2
0
 70
     0
 62
     7
  6
CONTINUOUS
  0
ENDTAB
  0
ENDSEC
  0
SECTION
  2
ENTITIES
  0
LINE
  8
0
 62
     70
 10
4.27954
 20
1.56665
 30
0.0
 11
4.2111
 21
1.55993
 31
0.0
  0
LINE
  8
0
 62
     70
 10
4.2111
 20
1.55993
 30
0.0
 11
4.14486
 21
1.54488
 31
0.0
  0
LINE
  8
0
 62
     70
 10
4.14486
 20
1.54488
 30
0.0
 11
4.08008
 21
1.52587
 31
0.0
  0
LINE
  8
0
 62
     70
 10
4.08008
 20
1.52587
 30
0.0
 11
4.01599
 21
1.50728
 31
0.0
  0
LINE
  8
0
 62
     70
 10
4.01599
 20
1.50728
 30
0.0
 11
3.95194
 21
1.49344
 31
0.0
  0
LINE
  8
0
 62
     70
 10
3.95194
 20
1.49344
 30
0.0
 11
3.88717
 21
1.48876
 31
0.0
  0
LINE
  8
0
 62
     70
 10
3.88717
 20
1.48876
 30
0.0
 11
3.82096
 21
1.4976
 31
0.0
  0
LINE
  8
0
 62
     70
 10
3.82096
 20
1.4976
 30
0.0
 11
3.75264
 21
1.52429
 31
0.0
  0
LINE
  8
0
 62
     70
 10
3.75264
 20
1.52429
 30
0.0
 11
3.61914
 21
1.60994
 31
0.0
  0
LINE
  8
0
 62
     70
 10
3.61914
 20
1.60994
 30
0.0
 11
3.5201
 21
1.72229
 31
0.0
  0
LINE
  8
0
 62
     70
 10
3.5201
 20
1.72229
 30
0.0
 11
3.44556
 21
1.85446
 31
0.0
  0
LINE
  8
0
 62
     70
 10
3.44556
 20
1.85446
 30
0.0
 11
3.38563
 21
1.9996
 31
0.0
  0
LINE
  8
0
 62
     70
 10
3.38563
 20
1.9996
 30
0.0
 11
3.33956
 21
2.15088
 31
0.0
  0
LINE
  8
0
 62
     70
 10
3.33956
 20
2.15088
 30
0.0
 11
3.304
 21
2.29643
 31
0.0
  0
LINE
  8
0
 62
     70
 10
3.304
 20
2.29643
 30
0.0
 11
3.26839
 21
2.44197
 31
0.0
  0
LINE
  8
0
 62
     70
 10
3.26839
 20
2.44197
 30
0.0
 11
3.22238
 21
2.59322
 31
0.0
  0
LINE
  8
0
 62
     70
 10
3.22238
 20
2.59322
 30
0.0
 11
3.22086
 21
2.61971
 31
0.0
  0
LINE
  8
0
 62
     70
 10
3.22086
 20
2.61971
 30
0.0
 11
3.36694
 21
2.55904
 31
0.0
  0
LINE
  8
0
 62
     70
 10
3.36694
 20
2.55904
 30
0.0
 11
3.51949
 21
2.52653
 31
0.0
  0
LINE
  8
0
 62
     70
 10
3.51949
 20
2.52653
 30
0.0
 11
3.67599
 21
2.51204
 31
0.0
  0
LINE
  8
0
 62
     70
 10
3.67599
 20
2.51204
 30
0.0
 11
3.83407
 21
2.50529
 31
0.0
  0
LINE
  8
0
 62
     70
 10
3.83407
 20
2.50529
 30
0.0
 11
3.99129
 21
2.49614
 31
0.0
  0
LINE
  8
0
 62
     70
 10
3.99129
 20
2.49614
 30
0.0
 11
4.14518
 21
2.47432
 31
0.0
  0
LINE
  8
0
 62
     70
 10
4.14518
 20
2.47432
 30
0.0
 11
4.29329
 21
2.42961
 31
0.0
  0
LINE
  8
0
 62
     70
 10
4.29329
 20
2.42961
 30
0.0
 11
4.43326
 21
2.35176
 31
0.0
  0
LINE
  8
0
 62
     70
 10
4.43326
 20
2.35176
 30
0.0
 11
4.5361
 21
2.24471
 31
0.0
  0
LINE
  8
0
 62
     70
 10
4.5361
 20
2.24471
 30
0.0
 11
4.58635
 21
2.12553
 31
0.0
  0
LINE
  8
0
 62
     70
 10
4.58635
 20
2.12553
 30
0.0
 11
4.59957
 21
1.99401
 31
0.0
  0
LINE
  8
0
 62
     70
 10
4.59957
 20
1.99401
 30
0.0
 11
4.59139
 21
1.84993
 31
0.0
  0
LINE
  8
0
 62
     70
 10
4.59139
 20
1.84993
 30
0.0
 11
4.59346
 21
1.73006
 31
0.0
  0
LINE
  8
0
 62
     70
 10
4.59346
 20
1.73006
 30
0.0
 11
4.6184
 21
1.64339
 31
0.0
  0
LINE
  8
0
 62
     70
 10
4.6184
 20
1.64339
 30
0.0
 11
4.66114
 21
1.57553
 31
0.0
  0
LINE
  8
0
 62
     70
 10
4.66114
 20
1.57553
 30
0.0
 11
4.71656
 21
1.51217
 31
0.0
  0
LINE
  8
0
 62
     70
 10
4.71656
 20
1.51217
 30
0.0
 11
4.71656
 21
4.60278
 31
0.0
  0
LINE
  8
0
 62
     70
 10
4.71656
 20
4.60278
 30
0.0
 11
2.47603
 21
2.36186
 31
0.0
  0
LINE
  8
0
 62
     70
 10
2.47603
 20
2.36186
 30
0.0
 11
4.71656
 21
0.120931
 31
0.0
  0
LINE
  8
0
 62
     70
 10
4.71656
 20
0.120931
 30
0.0
 11
4.71656
 21
1.28267
 31
0.0
  0
LINE
  8
0
 62
     70
 10
4.71656
 20
1.28267
 30
0.0
 11
4.67603
 21
1.33797
 31
0.0
  0
LINE
  8
0
 62
     70
 10
4.67603
 20
1.33797
 30
0.0
 11
4.63322
 21
1.39033
 31
0.0
  0
LINE
  8
0
 62
     70
 10
4.63322
 20
1.39033
 30
0.0
 11
4.58732
 21
1.43839
 31
0.0
  0
LINE
  8
0
 62
     70
 10
4.58732
 20
1.43839
 30
0.0
 11
4.53739
 21
1.48083
 31
0.0
  0
LINE
  8
0
 62
     70
 10
4.53739
 20
1.48083
 30
0.0
 11
4.48254
 21
1.51624
 31
0.0
  0
LINE
  8
0
 62
     70
 10
4.48254
 20
1.51624
 30
0.0
 11
4.42188
 21
1.54325
 31
0.0
  0
LINE
  8
0
 62
     70
 10
4.42188
 20
1.54325
 30
0.0
 11
4.35449
 21
1.5605
 31
0.0
  0
LINE
  8
0
 62
     70
 10
4.35449
 20
1.5605
 30
0.0
 11
4.27954
 21
1.56665
 31
0.0
  0
LINE
  8
0
 62
     70
 10
3.47904
 20
2.36381
 30
0.0
 11
3.53178
 21
2.31811
 31
0.0
  0
LINE
  8
0
 62
     70
 10
3.53178
 20
2.31811
 30
0.0
 11
3.59244
 21
2.28462
 31
0.0
  0
LINE
  8
0
 62
     70
 10
3.59244
 20
2.28462
 30
0.0
 11
3.65808
 21
2.26225
 31
0.0
  0
LINE
  8
0
 62
     70
 10
3.65808
 20
2.26225
 30
0.0
 11
3.72636
 21
2.24715
 31
0.0
  0
LINE
  8
0
 62
     70
 10
3.72636
 20
2.24715
 30
0.0
 11
3.86604
 21
2.22265
 31
0.0
  0
LINE
  8
0
 62
     70
 10
3.86604
 20
2.22265
 30
0.0
 11
4.00656
 21
2.18819
 31
0.0
  0
LINE
  8
0
 62
     70
 10
4.00656
 20
2.18819
 30
0.0
 11
4.07532
 21
2.16247
 31
0.0
  0
LINE
  8
0
 62
     70
 10
4.07532
 20
2.16247
 30
0.0
 11
4.14181
 21
2.12992
 31
0.0
  0
LINE
  8
0
 62
     70
 10
4.14181
 20
2.12992
 30
0.0
 11
4.20365
 21
2.0889
 31
0.0
  0
LINE
  8
0
 62
     70
 10
4.20365
 20
2.0889
 30
0.0
 11
4.25896
 21
2.0396
 31
0.0
  0
LINE
  8
0
 62
     70
 10
4.25896
 20
2.0396
 30
0.0
 11
4.34847
 21
1.92383
 31
0.0
  0
LINE
  8
0
 62
     70
 10
4.34847
 20
1.92383
 30
0.0
 11
4.41032
 21
1.79317
 31
0.0
  0
LINE
  8
0
 62
     70
 10
4.41032
 20
1.79317
 30
0.0
 11
4.40503
 21
1.79024
 31
0.0
  0
LINE
  8
0
 62
     70
 10
4.40503
 20
1.79024
 30
0.0
 11
4.31404
 21
1.89844
 31
0.0
  0
LINE
  8
0
 62
     70
 10
4.31404
 20
1.89844
 30
0.0
 11
4.21712
 21
1.99585
 31
0.0
  0
LINE
  8
0
 62
     70
 10
4.21712
 20
1.99585
 30
0.0
 11
4.11035
 21
2.07899
 31
0.0
  0
LINE
  8
0
 62
     70
 10
4.11035
 20
2.07899
 30
0.0
 11
3.99011
 21
2.14262
 31
0.0
  0
LINE
  8
0
 62
     70
 10
3.99011
 20
2.14262
 30
0.0
 11
3.85758
 21
2.18421
 31
0.0
  0
LINE
  8
0
 62
     70
 10
3.85758
 20
2.18421
 30
0.0
 11
3.71964
 21
2.21765
 31
0.0
  0
LINE
  8
0
 62
     70
 10
3.71964
 20
2.21765
 30
0.0
 11
3.65079
 21
2.23893
 31
0.0
  0
LINE
  8
0
 62
     70
 10
3.65079
 20
2.23893
 30
0.0
 11
3.58439
 21
2.26782
 31
0.0
  0
LINE
  8
0
 62
     70
 10
3.58439
 20
2.26782
 30
0.0
 11
3.52408
 21
2.30794
 31
0.0
  0
LINE
  8
0
 62
     70
 10
3.52408
 20
2.30794
 30
0.0
 11
3.4744
 21
2.35986
 31
0.0
  0
LINE
  8
0
 62
     70
 10
3.4744
 20
2.35986
 30
0.0
 11
3.47904
 21
2.36381
 31
0.0
  0
LINE
  8
0
 62
     254
 10
2.76644
 20
4.72514
 30
0.0
 11
4.60042
 21
4.72514
 31
0.0
  0
LINE
  8
0
 62
     254
 10
4.60042
 20
4.72514
 30
0.0
 11
2.35954
 21
2.48467
 31
0.0
  0
LINE
  8
0
 62
     254
 10
2.35954
 20
2.48467
 30
0.0
 11
0.118612
 21
4.72514
 31
0.0
  0
LINE
  8
0
 62
     254
 10
0.118612
 20
4.72514
 30
0.0
 11
1.98547
 21
4.72514
 31
0.0
  0
LINE
  8
0
 62
     254
 10
1.98547
 20
4.72514
 30
0.0
 11
1.99837
 21
4.72025
 31
0.0
  0
LINE
  8
0
 62
     254
 10
1.99837
 20
4.72025
 30
0.0
 11
1.96989
 21
4.66101
 31
0.0
  0
LINE
  8
0
 62
     254
 10
1.96989
 20
4.66101
 30
0.0
 11
1.93204
 21
4.623
 31
0.0
  0
LINE
  8
0
 62
     254
 10
1.93204
 20
4.623
 30
0.0
 11
1.85315
 21
4.57731
 31
0.0
  0
LINE
  8
0
 62
     254
 10
1.85315
 20
4.57731
 30
0.0
 11
1.78947
 21
4.53899
 31
0.0
  0
LINE
  8
0
 62
     254
 10
1.78947
 20
4.53899
 30
0.0
 11
1.7391
 21
4.50603
 31
0.0
  0
LINE
  8
0
 62
     254
 10
1.7391
 20
4.50603
 30
0.0
 11
1.69992
 21
4.47632
 31
0.0
  0
LINE
  8
0
 62
     254
 10
1.69992
 20
4.47632
 30
0.0
 11
1.66996
 21
4.44783
 31
0.0
  0
LINE
  8
0
 62
     254
 10
1.66996
 20
4.44783
 30
0.0
 11
1.64722
 21
4.4185
 31
0.0
  0
LINE
  8
0
 62
     254
 10
1.64722
 20
4.4185
 30
0.0
 11
1.62976
 21
4.38624
 31
0.0
  0
LINE
  8
0
 62
     254
 10
1.62976
 20
4.38624
 30
0.0
 11
1.61551
 21
4.349
 31
0.0
  0
LINE
  8
0
 62
     254
 10
1.61551
 20
4.349
 30
0.0
 11
1.58365
 21
4.20926
 31
0.0
  0
LINE
  8
0
 62
     254
 10
1.58365
 20
4.20926
 30
0.0
 11
1.5754
 21
4.06665
 31
0.0
  0
LINE
  8
0
 62
     254
 10
1.5754
 20
4.06665
 30
0.0
 11
1.58606
 21
3.92529
 31
0.0
  0
LINE
  8
0
 62
     254
 10
1.58606
 20
3.92529
 30
0.0
 11
1.61096
 21
3.78935
 31
0.0
  0
LINE
  8
0
 62
     254
 10
1.61096
 20
3.78935
 30
0.0
 11
1.64547
 21
3.66296
 31
0.0
  0
LINE
  8
0
 62
     254
 10
1.64547
 20
3.66296
 30
0.0
 11
1.68497
 21
3.55033
 31
0.0
  0
LINE
  8
0
 62
     254
 10
1.68497
 20
3.55033
 30
0.0
 11
1.72478
 21
3.45561
 31
0.0
  0
LINE
  8
0
 62
     254
 10
1.72478
 20
3.45561
 30
0.0
 11
1.76025
 21
3.38285
 31
0.0
  0
LINE
  8
0
 62
     254
 10
1.76025
 20
3.38285
 30
0.0
 11
1.77832
 21
3.35225
 31
0.0
  0
LINE
  8
0
 62
     254
 10
1.77832
 20
3.35225
 30
0.0
 11
1.79481
 21
3.33171
 31
0.0
  0
LINE
  8
0
 62
     254
 10
1.79481
 20
3.33171
 30
0.0
 11
1.80969
 21
3.32028
 31
0.0
  0
LINE
  8
0
 62
     254
 10
1.80969
 20
3.32028
 30
0.0
 11
1.82313
 21
3.31697
 31
0.0
  0
LINE
  8
0
 62
     254
 10
1.82313
 20
3.31697
 30
0.0
 11
1.83517
 21
3.32081
 31
0.0
  0
LINE
  8
0
 62
     254
 10
1.83517
 20
3.32081
 30
0.0
 11
1.8459
 21
3.33076
 31
0.0
  0
LINE
  8
0
 62
     254
 10
1.8459
 20
3.33076
 30
0.0
 11
1.85543
 21
3.34586
 31
0.0
  0
LINE
  8
0
 62
     254
 10
1.85543
 20
3.34586
 30
0.0
 11
1.86381
 21
3.36511
 31
0.0
  0
LINE
  8
0
 62
     254
 10
1.86381
 20
3.36511
 30
0.0
 11
1.87114
 21
3.38753
 31
0.0
  0
LINE
  8
0
 62
     254
 10
1.87114
 20
3.38753
 30
0.0
 11
1.87753
 21
3.41211
 31
0.0
  0
LINE
  8
0
 62
     254
 10
1.87753
 20
3.41211
 30
0.0
 11
1.88301
 21
3.43786
 31
0.0
  0
LINE
  8
0
 62
     254
 10
1.88301
 20
3.43786
 30
0.0
 11
1.88769
 21
3.46379
 31
0.0
  0
LINE
  8
0
 62
     254
 10
1.88769
 20
3.46379
 30
0.0
 11
1.89168
 21
3.48889
 31
0.0
  0
LINE
  8
0
 62
     254
 10
1.89168
 20
3.48889
 30
0.0
 11
1.89506
 21
3.51221
 31
0.0
  0
LINE
  8
0
 62
     254
 10
1.89506
 20
3.51221
 30
0.0
 11
1.89786
 21
3.53271
 31
0.0
  0
LINE
  8
0
 62
     254
 10
1.89786
 20
3.53271
 30
0.0
 11
1.90026
 21
3.54944
 31
0.0
  0
LINE
  8
0
 62
     254
 10
1.90026
 20
3.54944
 30
0.0
 11
1.90694
 21
3.59069
 31
0.0
  0
LINE
  8
0
 62
     254
 10
1.90694
 20
3.59069
 30
0.0
 11
1.91699
 21
3.64811
 31
0.0
  0
LINE
  8
0
 62
     254
 10
1.91699
 20
3.64811
 30
0.0
 11
1.92904
 21
3.71504
 31
0.0
  0
LINE
  8
0
 62
     254
 10
1.92904
 20
3.71504
 30
0.0
 11
1.94182
 21
3.78479
 31
0.0
  0
LINE
  8
0
 62
     254
 10
1.94182
 20
3.78479
 30
0.0
 11
1.95401
 21
3.85067
 31
0.0
  0
LINE
  8
0
 62
     254
 10
1.95401
 20
3.85067
 30
0.0
 11
1.96432
 21
3.906
 31
0.0
  0
LINE
  8
0
 62
     254
 10
1.96432
 20
3.906
 30
0.0
 11
1.97147
 21
3.9441
 31
0.0
  0
LINE
  8
0
 62
     254
 10
1.97147
 20
3.9441
 30
0.0
 11
1.97417
 21
3.95825
 31
0.0
  0
LINE
  8
0
 62
     254
 10
1.97417
 20
3.95825
 30
0.0
 11
1.97892
 21
3.96147
 31
0.0
  0
LINE
  8
0
 62
     254
 10
1.97892
 20
3.96147
 30
0.0
 11
1.99279
 21
3.97006
 31
0.0
  0
LINE
  8
0
 62
     254
 10
1.99279
 20
3.97006
 30
0.0
 11
2.01506
 21
3.9825
 31
0.0
  0
LINE
  8
0
 62
     254
 10
2.01506
 20
3.9825
 30
0.0
 11
2.04496
 21
3.99732
 31
0.0
  0
LINE
  8
0
 62
     254
 10
2.04496
 20
3.99732
 30
0.0
 11
2.08188
 21
4.0129
 31
0.0
  0
LINE
  8
0
 62
     254
 10
2.08188
 20
4.0129
 30
0.0
 11
2.12504
 21
4.02779
 31
0.0
  0
LINE
  8
0
 62
     254
 10
2.12504
 20
4.02779
 30
0.0
 11
2.17379
 21
4.0404
 31
0.0
  0
LINE
  8
0
 62
     254
 10
2.17379
 20
4.0404
 30
0.0
 11
2.22738
 21
4.04928
 31
0.0
  0
LINE
  8
0
 62
     254
 10
2.22738
 20
4.04928
 30
0.0
 11
2.28511
 21
4.05282
 31
0.0
  0
LINE
  8
0
 62
     254
 10
2.28511
 20
4.05282
 30
0.0
 11
2.34636
 21
4.04956
 31
0.0
  0
LINE
  8
0
 62
     254
 10
2.34636
 20
4.04956
 30
0.0
 11
2.41028
 21
4.03792
 31
0.0
  0
LINE
  8
0
 62
     254
 10
2.41028
 20
4.03792
 30
0.0
 11
2.47628
 21
4.01644
 31
0.0
  0
LINE
  8
0
 62
     254
 10
2.47628
 20
4.01644
 30
0.0
 11
2.54363
 21
3.98356
 31
0.0
  0
LINE
  8
0
 62
     254
 10
2.54363
 20
3.98356
 30
0.0
 11
2.61157
 21
3.93771
 31
0.0
  0
LINE
  8
0
 62
     254
 10
2.61157
 20
3.93771
 30
0.0
 11
2.67949
 21
3.87744
 31
0.0
  0
LINE
  8
0
 62
     254
 10
2.67949
 20
3.87744
 30
0.0
 11
2.74663
 21
3.80115
 31
0.0
  0
LINE
  8
0
 62
     254
 10
2.74663
 20
3.80115
 30
0.0
 11
2.72982
 21
3.73861
 31
0.0
  0
LINE
  8
0
 62
     254
 10
2.72982
 20
3.73861
 30
0.0
 11
2.71407
 21
3.68075
 31
0.0
  0
LINE
  8
0
 62
     254
 10
2.71407
 20
3.68075
 30
0.0
 11
2.69865
 21
3.62354
 31
0.0
  0
LINE
  8
0
 62
     254
 10
2.69865
 20
3.62354
 30
0.0
 11
2.68286
 21
3.5629
 31
0.0
  0
LINE
  8
0
 62
     254
 10
2.68286
 20
3.5629
 30
0.0
 11
2.66597
 21
3.49487
 31
0.0
  0
LINE
  8
0
 62
     254
 10
2.66597
 20
3.49487
 30
0.0
 11
2.64737
 21
3.41536
 31
0.0
  0
LINE
  8
0
 62
     254
 10
2.64737
 20
3.41536
 30
0.0
 11
2.62631
 21
3.32035
 31
0.0
  0
LINE
  8
0
 62
     254
 10
2.62631
 20
3.32035
 30
0.0
 11
2.6021
 21
3.20574
 31
0.0
  0
LINE
  8
0
 62
     254
 10
2.6021
 20
3.20574
 30
0.0
 11
2.59639
 21
3.16882
 31
0.0
  0
LINE
  8
0
 62
     254
 10
2.59639
 20
3.16882
 30
0.0
 11
2.5975
 21
3.13957
 31
0.0
  0
LINE
  8
0
 62
     254
 10
2.5975
 20
3.13957
 30
0.0
 11
2.60465
 21
3.11796
 31
0.0
  0
LINE
  8
0
 62
     254
 10
2.60465
 20
3.11796
 30
0.0
 11
2.61703
 21
3.10376
 31
0.0
  0
LINE
  8
0
 62
     254
 10
2.61703
 20
3.10376
 30
0.0
 11
2.63383
 21
3.09689
 31
0.0
  0
LINE
  8
0
 62
     254
 10
2.63383
 20
3.09689
 30
0.0
 11
2.65433
 21
3.09725
 31
0.0
  0
LINE
  8
0
 62
     254
 10
2.65433
 20
3.09725
 30
0.0
 11
2.67765
 21
3.10465
 31
0.0
  0
LINE
  8
0
 62
     254
 10
2.67765
 20
3.10465
 30
0.0
 11
2.70313
 21
3.11901
 31
0.0
  0
LINE
  8
0
 62
     254
 10
2.70313
 20
3.11901
 30
0.0
 11
2.77031
 21
3.16907
 31
0.0
  0
LINE
  8
0
 62
     254
 10
2.77031
 20
3.16907
 30
0.0
 11
2.84672
 21
3.23526
 31
0.0
  0
LINE
  8
0
 62
     254
 10
2.84672
 20
3.23526
 30
0.0
 11
2.92757
 21
3.31621
 31
0.0
  0
LINE
  8
0
 62
     254
 10
2.92757
 20
3.31621
 30
0.0
 11
3.00814
 21
3.41028
 31
0.0
  0
LINE
  8
0
 62
     254
 10
3.00814
 20
3.41028
 30
0.0
 11
3.08362
 21
3.51599
 31
0.0
  0
LINE
  8
0
 62
     254
 10
3.08362
 20
3.51599
 30
0.0
 11
3.14929
 21
3.63183
 31
0.0
  0
LINE
  8
0
 62
     254
 10
3.14929
 20
3.63183
 30
0.0
 11
3.2004
 21
3.75631
 31
0.0
  0
LINE
  8
0
 62
     254
 10
3.2004
 20
3.75631
 30
0.0
 11
3.23218
 21
3.88782
 31
0.0
  0
LINE
  8
0
 62
     254
 10
3.23218
 20
3.88782
 30
0.0
 11
3.23185
 21
4.05021
 31
0.0
  0
LINE
  8
0
 62
     254
 10
3.23185
 20
4.05021
 30
0.0
 11
3.18119
 21
4.20146
 31
0.0
  0
LINE
  8
0
 62
     254
 10
3.18119
 20
4.20146
 30
0.0
 11
3.08317
 21
4.34717
 31
0.0
  0
LINE
  8
0
 62
     254
 10
3.08317
 20
4.34717
 30
0.0
 11
2.94079
 21
4.49276
 31
0.0
  0
LINE
  8
0
 62
     254
 10
2.94079
 20
4.49276
 30
0.0
 11
2.88558
 21
4.54601
 31
0.0
  0
LINE
  8
0
 62
     254
 10
2.88558
 20
4.54601
 30
0.0
 11
2.83512
 21
4.5935
 31
0.0
  0
LINE
  8
0
 62
     254
 10
2.83512
 20
4.5935
 30
0.0
 11
2.79142
 21
4.6416
 31
0.0
  0
LINE
  8
0
 62
     254
 10
2.79142
 20
4.6416
 30
0.0
 11
2.75643
 21
4.69657
 31
0.0
  0
LINE
  8
0
 62
     254
 10
2.75643
 20
4.69657
 30
0.0
 11
2.76644
 21
4.72514
 31
0.0
  0
LINE
  8
0
 62
     121
 10
0
 20
3.00753
 30
0.0
 11
0
 21
2.99207
 31
0.0
  0
LINE
  8
0
 62
     121
 10
0
 20
2.99207
 30
0.0
 11
0.34436
 21
2.99211
 31
0.0
  0
LINE
  8
0
 62
     121
 10
0.34436
 20
2.99211
 30
0.0
 11
1.60665
 21
2.36043
 31
0.0
  0
LINE
  8
0
 62
     121
 10
1.60665
 20
2.36043
 30
0.0
 11
0.344401
 21
1.72982
 31
0.0
  0
LINE
  8
0
 62
     121
 10
0.344401
 20
1.72982
 30
0.0
 11
0.0399576
 21
1.72982
 31
0.0
  0
LINE
  8
0
 62
     121
 10
0.0399576
 20
1.72982
 30
0.0
 11
0
 21
1.72982
 31
0.0
  0
LINE
  8
0
 62
     121
 10
0
 20
1.72982
 30
0.0
 11
0
 21
1.43933
 31
0.0
  0
LINE
  8
0
 62
     121
 10
0
 20
1.43933
 30
0.0
 11
0
 21
1.15308
 31
0.0
  0
LINE
  8
0
 62
     121
 10
0
 20
1.15308
 30
0.0
 11
0
 21
0.881714
 31
0.0
  0
LINE
  8
0
 62
     121
 10
0
 20
0.881714
 30
0.0
 11
0
 21
0.635824
 31
0.0
  0
LINE
  8
0
 62
     121
 10
0
 20
0.635824
 30
0.0
 11
0
 21
0.426107
 31
0.0
  0
LINE
  8
0
 62
     121
 10
0
 20
0.426107
 30
0.0
 11
0
 21
0.263183
 31
0.0
  0
LINE
  8
0
 62
     121
 10
0
 20
0.263183
 30
0.0
 11
0
 21
0.157593
 31
0.0
  0
LINE
  8
0
 62
     121
 10
0
 20
0.157593
 30
0.0
 11
0
 21
0.120036
 31
0.0
  0
LINE
  8
0
 62
     121
 10
0
 20
0.120036
 30
0.0
 11
2.24051
 21
2.361
 31
0.0
  0
LINE
  8
0
 62
     121
 10
2.24051
 20
2.361
 30
0.0
 11
0
 21
4.60189
 31
0.0
  0
LINE
  8
0
 62
     121
 10
0
 20
4.60189
 30
0.0
 11
0
 21
2.99211
 31
0.0
  0
LINE
  8
0
 62
     121
 10
1.60824
 20
2.35999
 30
0.0
 11
1.60522
 21
2.3304
 31
0.0
  0
LINE
  8
0
 62
     121
 10
1.60522
 20
2.3304
 30
0.0
 11
1.59668
 21
2.30282
 31
0.0
  0
LINE
  8
0
 62
     121
 10
1.59668
 20
2.30282
 30
0.0
 11
1.58313
 21
2.27788
 31
0.0
  0
LINE
  8
0
 62
     121
 10
1.58313
 20
2.27788
 30
0.0
 11
1.56518
 21
2.25614
 31
0.0
  0
LINE
  8
0
 62
     121
 10
1.56518
 20
2.25614
 30
0.0
 11
1.54342
 21
2.23819
 31
0.0
  0
LINE
  8
0
 62
     121
 10
1.54342
 20
2.23819
 30
0.0
 11
1.51847
 21
2.22461
 31
0.0
  0
LINE
  8
0
 62
     121
 10
1.51847
 20
2.22461
 30
0.0
 11
1.49085
 21
2.21607
 31
0.0
  0
LINE
  8
0
 62
     121
 10
1.49085
 20
2.21607
 30
0.0
 11
1.46126
 21
2.21306
 31
0.0
  0
LINE
  8
0
 62
     121
 10
1.46126
 20
2.21306
 30
0.0
 11
1.43164
 21
2.21607
 31
0.0
  0
LINE
  8
0
 62
     121
 10
1.43164
 20
2.21607
 30
0.0
 11
1.40401
 21
2.22461
 31
0.0
  0
LINE
  8
0
 62
     121
 10
1.40401
 20
2.22461
 30
0.0
 11
1.37907
 21
2.23819
 31
0.0
  0
LINE
  8
0
 62
     121
 10
1.37907
 20
2.23819
 30
0.0
 11
1.3573
 21
2.25614
 31
0.0
  0
LINE
  8
0
 62
     121
 10
1.3573
 20
2.25614
 30
0.0
 11
1.33936
 21
2.27788
 31
0.0
  0
LINE
  8
0
 62
     121
 10
1.33936
 20
2.27788
 30
0.0
 11
1.32581
 21
2.30282
 31
0.0
  0
LINE
  8
0
 62
     121
 10
1.32581
 20
2.30282
 30
0.0
 11
1.31726
 21
2.3304
 31
0.0
  0
LINE
  8
0
 62
     121
 10
1.31726
 20
2.3304
 30
0.0
 11
1.31429
 21
2.35999
 31
0.0
  0
LINE
  8
0
 62
     121
 10
1.31429
 20
2.35999
 30
0.0
 11
1.31726
 21
2.38965
 31
0.0
  0
LINE
  8
0
 62
     121
 10
1.31726
 20
2.38965
 30
0.0
 11
1.32581
 21
2.41724
 31
0.0
  0
LINE
  8
0
 62
     121
 10
1.32581
 20
2.41724
 30
0.0
 11
1.33936
 21
2.44222
 31
0.0
  0
LINE
  8
0
 62
     121
 10
1.33936
 20
2.44222
 30
0.0
 11
1.3573
 21
2.46394
 31
0.0
  0
LINE
  8
0
 62
     121
 10
1.3573
 20
2.46394
 30
0.0
 11
1.37907
 21
2.48193
 31
0.0
  0
LINE
  8
0
 62
     121
 10
1.37907
 20
2.48193
 30
0.0
 11
1.40401
 21
2.49549
 31
0.0
  0
LINE
  8
0
 62
     121
 10
1.40401
 20
2.49549
 30
0.0
 11
1.43164
 21
2.50403
 31
0.0
  0
LINE
  8
0
 62
     121
 10
1.43164
 20
2.50403
 30
0.0
 11
1.46126
 21
2.507
 31
0.0
  0
LINE
  8
0
 62
     121
 10
1.46126
 20
2.507
 30
0.0
 11
1.49085
 21
2.50403
 31
0.0
  0
LINE
  8
0
 62
     121
 10
1.49085
 20
2.50403
 30
0.0
 11
1.51847
 21
2.49549
 31
0.0
  0
LINE
  8
0
 62
     121
 10
1.51847
 20
2.49549
 30
0.0
 11
1.54342
 21
2.48193
 31
0.0
  0
LINE
  8
0
 62
     121
 10
1.54342
 20
2.48193
 30
0.0
 11
1.56518
 21
2.46394
 31
0.0
  0
LINE
  8
0
 62
     121
 10
1.56518
 20
2.46394
 30
0.0
 11
1.58313
 21
2.44222
 31
0.0
  0
LINE
  8
0
 62
     121
 10
1.58313
 20
2.44222
 30
0.0
 11
1.59668
 21
2.41724
 31
0.0
  0
LINE
  8
0
 62
     121
 10
1.59668
 20
2.41724
 30
0.0
 11
1.60522
 21
2.38965
 31
0.0
  0
LINE
  8
0
 62
     121
 10
1.60522
 20
2.38965
 30
0.0
 11
1.60824
 21
2.35999
 31
0.0
  0
LINE
  8
0
 62
     20
 10
3.97086
 20
0.629476
 30
0.0
 11
3.8746
 21
0.58435
 31
0.0
  0
LINE
  8
0
 62
     20
 10
3.8746
 20
0.58435
 30
0.0
 11
3.72733
 21
0.53186
 31
0.0
  0
LINE
  8
0
 62
     20
 10
3.72733
 20
0.53186
 30
0.0
 11
3.5684
 21
0.492879
 31
0.0
  0
LINE
  8
0
 62
     20
 10
3.5684
 20
0.492879
 30
0.0
 11
3.39961
 21
0.468628
 31
0.0
  0
LINE
  8
0
 62
     20
 10
3.39961
 20
0.468628
 30
0.0
 11
3.22286
 21
0.460246
 31
0.0
  0
LINE
  8
0
 62
     20
 10
3.22286
 20
0.460246
 30
0.0
 11
3.02271
 21
0.474528
 31
0.0
  0
LINE
  8
0
 62
     20
 10
3.02271
 20
0.474528
 30
0.0
 11
3.01408
 21
0.469726
 31
0.0
  0
LINE
  8
0
 62
     20
 10
3.01408
 20
0.469726
 30
0.0
 11
2.98987
 21
0.456299
 31
0.0
  0
LINE
  8
0
 62
     20
 10
2.98987
 20
0.456299
 30
0.0
 11
2.95243
 21
0.43575
 31
0.0
  0
LINE
  8
0
 62
     20
 10
2.95243
 20
0.43575
 30
0.0
 11
2.90418
 21
0.409506
 31
0.0
  0
LINE
  8
0
 62
     20
 10
2.90418
 20
0.409506
 30
0.0
 11
2.84746
 21
0.379192
 31
0.0
  0
LINE
  8
0
 62
     20
 10
2.84746
 20
0.379192
 30
0.0
 11
2.78467
 21
0.346192
 31
0.0
  0
LINE
  8
0
 62
     20
 10
2.78467
 20
0.346192
 30
0.0
 11
2.71818
 21
0.312053
 31
0.0
  0
LINE
  8
0
 62
     20
 10
2.71818
 20
0.312053
 30
0.0
 11
2.65043
 21
0.278239
 31
0.0
  0
LINE
  8
0
 62
     20
 10
2.65043
 20
0.278239
 30
0.0
 11
2.58374
 21
0.246297
 31
0.0
  0
LINE
  8
0
 62
     20
 10
2.58374
 20
0.246297
 30
0.0
 11
2.52051
 21
0.217651
 31
0.0
  0
LINE
  8
0
 62
     20
 10
2.52051
 20
0.217651
 30
0.0
 11
2.46314
 21
0.193889
 31
0.0
  0
LINE
  8
0
 62
     20
 10
2.46314
 20
0.193889
 30
0.0
 11
2.41399
 21
0.176392
 31
0.0
  0
LINE
  8
0
 62
     20
 10
2.41399
 20
0.176392
 30
0.0
 11
2.37549
 21
0.166749
 31
0.0
  0
LINE
  8
0
 62
     20
 10
2.37549
 20
0.166749
 30
0.0
 11
2.34997
 21
0.166422
 31
0.0
  0
LINE
  8
0
 62
     20
 10
2.34997
 20
0.166422
 30
0.0
 11
2.33985
 21
0.176921
 31
0.0
  0
LINE
  8
0
 62
     20
 10
2.33985
 20
0.176921
 30
0.0
 11
2.34753
 21
0.199667
 31
0.0
  0
LINE
  8
0
 62
     20
 10
2.34753
 20
0.199667
 30
0.0
 11
2.40869
 21
0.311361
 31
0.0
  0
LINE
  8
0
 62
     20
 10
2.40869
 20
0.311361
 30
0.0
 11
2.4506
 21
0.403117
 31
0.0
  0
LINE
  8
0
 62
     20
 10
2.4506
 20
0.403117
 30
0.0
 11
2.47664
 21
0.476481
 31
0.0
  0
LINE
  8
0
 62
     20
 10
2.47664
 20
0.476481
 30
0.0
 11
2.49028
 21
0.533
 31
0.0
  0
LINE
  8
0
 62
     20
 10
2.49028
 20
0.533
 30
0.0
 11
2.49492
 21
0.574219
 31
0.0
  0
LINE
  8
0
 62
     20
 10
2.49492
 20
0.574219
 30
0.0
 11
2.49401
 21
0.601765
 31
0.0
  0
LINE
  8
0
 62
     20
 10
2.49401
 20
0.601765
 30
0.0
 11
2.49093
 21
0.617147
 31
0.0
  0
LINE
  8
0
 62
     20
 10
2.49093
 20
0.617147
 30
0.0
 11
2.48918
 21
0.621907
 31
0.0
  0
LINE
  8
0
 62
     20
 10
2.48918
 20
0.621907
 30
0.0
 11
2.38306
 21
0.68156
 31
0.0
  0
LINE
  8
0
 62
     20
 10
2.38306
 20
0.68156
 30
0.0
 11
2.28971
 21
0.747681
 31
0.0
  0
LINE
  8
0
 62
     20
 10
2.28971
 20
0.747681
 30
0.0
 11
2.20947
 21
0.819581
 31
0.0
  0
LINE
  8
0
 62
     20
 10
2.20947
 20
0.819581
 30
0.0
 11
2.1429
 21
0.896443
 31
0.0
  0
LINE
  8
0
 62
     20
 10
2.1429
 20
0.896443
 30
0.0
 11
2.09033
 21
0.977458
 31
0.0
  0
LINE
  8
0
 62
     20
 10
2.09033
 20
0.977458
 30
0.0
 11
2.05221
 21
1.06185
 31
0.0
  0
LINE
  8
0
 62
     20
 10
2.05221
 20
1.06185
 30
0.0
 11
2.02906
 21
1.1488
 31
0.0
  0
LINE
  8
0
 62
     20
 10
2.02906
 20
1.1488
 30
0.0
 11
2.02124
 21
1.23759
 31
0.0
  0
LINE
  8
0
 62
     20
 10
2.02124
 20
1.23759
 30
0.0
 11
2.03157
 21
1.34009
 31
0.0
  0
LINE
  8
0
 62
     20
 10
2.03157
 20
1.34009
 30
0.0
 11
2.06172
 21
1.43851
 31
0.0
  0
LINE
  8
0
 62
     20
 10
2.06172
 20
1.43851
 30
0.0
 11
2.11043
 21
1.53203
 31
0.0
  0
LINE
  8
0
 62
     20
 10
2.11043
 20
1.53203
 30
0.0
 11
2.17631
 21
1.61983
 31
0.0
  0
LINE
  8
0
 62
     20
 10
2.17631
 20
1.61983
 30
0.0
 11
2.25806
 21
1.70106
 31
0.0
  0
LINE
  8
0
 62
     20
 10
2.25806
 20
1.70106
 30
0.0
 11
2.35442
 21
1.77486
 31
0.0
  0
LINE
  8
0
 62
     20
 10
2.35442
 20
1.77486
 30
0.0
 11
2.46403
 21
1.84038
 31
0.0
  0
LINE
  8
0
 62
     20
 10
2.46403
 20
1.84038
 30
0.0
 11
2.58561
 21
1.89676
 31
0.0
  0
LINE
  8
0
 62
     20
 10
2.58561
 20
1.89676
 30
0.0
 11
2.67192
 21
1.92818
 31
0.0
  0
LINE
  8
0
 62
     20
 10
2.67192
 20
1.92818
 30
0.0
 11
2.62772
 21
1.97233
 31
0.0
  0
LINE
  8
0
 62
     20
 10
2.62772
 20
1.97233
 30
0.0
 11
2.35954
 21
2.24051
 31
0.0
  0
LINE
  8
0
 62
     20
 10
2.35954
 20
2.24051
 30
0.0
 11
0.118612
 21
-0
 31
0.0
  0
LINE
  8
0
 62
     20
 10
0.118612
 20
-0
 30
0.0
 11
4.60042
 21
-0
 31
0.0
  0
LINE
  8
0
 62
     20
 10
4.60042
 20
-0
 30
0.0
 11
3.97086
 21
0.629476
 31
0.0
  0
LINE
  8
0
 62
     121
 10
0.335775
 20
3.07654
 30
0.0
 11
0.282958
 21
2.90083
 31
0.0
  0
LINE
  8
0
 62
     121
 10
0.282958
 20
2.90083
 30
0.0
 11
0.243815
 21
2.72474
 31
0.0
  0
LINE
  8
0
 62
     121
 10
0.243815
 20
2.72474
 30
0.0
 11
0.218994
 21
2.54789
 31
0.0
  0
LINE
  8
0
 62
     121
 10
0.218994
 20
2.54789
 30
0.0
 11
0.209269
 21
2.37011
 31
0.0
  0
LINE
  8
0
 62
     121
 10
0.209269
 20
2.37011
 30
0.0
 11
0.215372
 21
2.19104
 31
0.0
  0
LINE
  8
0
 62
     121
 10
0.215372
 20
2.19104
 30
0.0
 11
0.237996
 21
2.01046
 31
0.0
  0
LINE
  8
0
 62
     121
 10
0.237996
 20
2.01046
 30
0.0
 11
0.277914
 21
1.82804
 31
0.0
  0
LINE
  8
0
 62
     121
 10
0.277914
 20
1.82804
 30
0.0
 11
0.335856
 21
1.64347
 31
0.0
  0
ENDSEC
  0
EOF
