<?xml version="1.0" encoding="UTF-8" standalone="no"?>
<!-- Created with Inkscape (http://www.inkscape.org/) -->

<svg
   xmlns:dc="http://purl.org/dc/elements/1.1/"
   xmlns:cc="http://creativecommons.org/ns#"
   xmlns:rdf="http://www.w3.org/1999/02/22-rdf-syntax-ns#"
   xmlns:svg="http://www.w3.org/2000/svg"
   xmlns="http://www.w3.org/2000/svg"
   xmlns:sodipodi="http://sodipodi.sourceforge.net/DTD/sodipodi-0.dtd"
   xmlns:inkscape="http://www.inkscape.org/namespaces/inkscape"
   sodipodi:docname="logo_raster_500mm.svg"
   xml:space="preserve"
   height="600mm"
   width="1200mm"
   inkscape:version="0.91 r13725"
   version="1.1"
   id="svg2985"><sodipodi:namedview
     inkscape:document-units="mm"
     units="mm"
     inkscape:current-layer="g2993"
     inkscape:window-maximized="1"
     inkscape:window-y="1"
     inkscape:window-x="0"
     inkscape:cy="1015.9109"
     inkscape:cx="1190.5518"
     inkscape:zoom="0.29362505"
     showgrid="false"
     id="namedview2987"
     inkscape:window-height="1151"
     inkscape:window-width="1920"
     inkscape:pageshadow="2"
     inkscape:pageopacity="0"
     guidetolerance="10"
     gridtolerance="10"
     objecttolerance="10"
     borderopacity="1"
     bordercolor="#666666"
     pagecolor="#ffffff" /><metadata
     id="metadata2991"><rdf:RDF><cc:Work
         rdf:about=""><dc:format>image/svg+xml</dc:format><dc:type
           rdf:resource="http://purl.org/dc/dcmitype/StillImage" /><dc:title></dc:title></cc:Work></rdf:RDF></metadata><defs
     id="defs2989"><clipPath
       clipPathUnits="userSpaceOnUse"
       id="clipPath2999"><path
         d="m 0,595.28 841.89,0 L 841.89,0 0,0 0,595.28 Z"
         id="path3001"
         inkscape:connector-curvature="0" /></clipPath></defs><g
     id="g2993"
     inkscape:groupmode="layer"
     inkscape:label="Unser FablabLogoSchriftdabei"
     transform="matrix(1.25,0,0,-1.25,0,2125.9843)"><g
       style="fill:none;stroke:#ff9797;stroke-opacity:1"
       transform="matrix(6.0357277,0,0,6.0357277,11.851898,1165.8027)"
       id="g4852"><path
         inkscape:connector-curvature="0"
         id="path4854"
         style="fill:none;fill-opacity:1;fill-rule:nonzero;stroke:#ff9797;stroke-opacity:1"
         d="M 0.001,-143.148 111.074,-32.051 0.001,79.041 Z"
         sodipodi:nodetypes="ccc" /></g><g
       id="g3003"
       transform="matrix(6.0357277,0,0,6.0357277,1292.387,734.66402)"
       style="fill:none;stroke:#87ff80;stroke-opacity:1"><path
         d="M 21.664,150.517 -89.408,39.421 21.664,-71.672 Z"
         style="fill:none;fill-opacity:1;fill-rule:nonzero;stroke:#87ff80;stroke-opacity:1"
         id="path3005"
         inkscape:connector-curvature="0"
         sodipodi:nodetypes="ccc" /></g><path
       d="m 839.63684,1679.7564 -233.68527,0 3.86287,-1.4606 c -4.82859,-13.4416 -11.27474,-24.1671 -19.85151,-29.1043 -69.56176,-39.9867 -84.0958,-49.7465 -94.71868,-81.9894 -36.01518,-109.2587 17.98044,-240.9583 43.31239,-289.0872 30.25106,-57.4842 38.44154,26.6961 41.90002,49.837 3.68179,24.6741 22.1149,122.3322 22.1149,122.3322 0,0 125.00596,88.2725 231.1382,-47.0123 -13.98479,-52.873 -22.48309,-77.8428 -43.25203,-178.1626 -7.46619,-32.5809 9.31313,-40.1497 30.23296,-25.9476 48.67814,33.0456 141.93617,122.6641 158.29903,230.0457 10.3392,67.7329 -21.93987,122.1873 -87.18609,181.0115 -22.69433,23.2255 -43.20977,36.8421 -55.16051,60.991 z"
       style="fill:none;fill-opacity:1;fill-rule:nonzero;stroke:#170ebf;stroke-width:4.82858229;stroke-miterlimit:4;stroke-dasharray:none;stroke-opacity:1"
       id="path3013"
       inkscape:connector-curvature="0"
       sodipodi:nodetypes="ccccccccccccccc" /><path
       id="path6958"
       style="fill:none;fill-opacity:1;stroke:#100a88;stroke-width:0.9999994;stroke-miterlimit:4;stroke-dasharray:none;stroke-opacity:1"
       d="m 483.78022,1468.7295 0,36.4527 m 2,20.5476 0,-79.7792 m 2,-13.9513 0,105.8953 m 2,9.6338 0,-128.0149 m 2,-9.6128 0,145.6085 m 2,6.8515 0,-162.0729 m 2,-8.0053 0,176.4346 m 2,5.4516 0,-189.7935 m 2,-7.3544 0,201.8661 m 2,4.046 0,-212.7059 m 2,-6.7939 0,222.9353 m 2,3.0844 0,-232.2005 m 2,-6.006 0,241.0239 m 2,2.4064 0,-249.4363 m 2,-5.4892 0,257.2632 m 2,2.0393 0,-264.7174 m 2,-5.4149 0,272.1631 m 2,1.7828 0,-278.9557 m 2,-4.95 0,285.6884 m 2,1.6603 0,-292.2988 m 2,-4.6232 0,298.5131 m 2,1.5912 0,-304.673 m 2,-4.5687 0,310.7057 m 2,1.4499 0,-316.4245 m 2,-4.2419 0,322.1162 m 2,1.3397 0,-327.6563 m 2,-3.9463 0,332.9107 m 2,1.3081 0,-338.1652 m 2,-3.7304 0,343.2037 m 2,1.3081 0,-348.0085 m 2,-3.1652 0,352.4818 m 2,1.3081 0,-356.5533 m 2,-2.4236 0,360.2605 m 2,1.2039 0,-363.5105 m 2,-1.6282 0,366.3426 m 2,1.2039 0,-368.7134 m 2,-0.6589 0,370.5762 m 2,1.2039 0,-371.8809 m 2,0.5109 0,372.5739 m 2,1.204 0,-372.5981 m 2,1.9095 0,371.8925 m 2,1.2039 0,-370.1302 m 2,3.6943 0,367.6079 m 2,1.1591 0,-364.0041 m 2,6.1336 0,359.0296 m 2,1.1592 0,-352.3247 m 2,10.1421 0,343.3417 m 2,1.1591 0,-332.7268 m 2,13.6929 0,320.193 m 2,1.1591 0,-308.6955 m 2,11.789 0,298.0656 m 2,1.1591 0,-287.5585 m 2,11.009 0,277.7087 m 2,1.1591 0,-267.8589 m 2,11.009 0,258.1897 m 2,1.5108 0,-248.8153 m 2,10.7295 0,239.8805 m 2,2.2095 0,-231.3606 m 2,10.7295 0,223.1535 m 2,2.8941 0,-215.3182 m 2,5.0099 0,213.6418 m 2,3.8844 0,-216.2611 m 2,1.2651 0,219.7907 m 0,6.3869 0,-0.6915 m 2,-224.3399 0,223.4879 m 0,1.5435 0,-1.4477 m 2,-222.4643 0,223.912 m 2,0 0,-222.7927 m 2,1.0555 0,221.7372 m 2,0 0,-220.7491 m 2,0.9882 0,219.7609 m 2,0 0,-218.7728 m 2,0.9869 0,217.7859 m 2,0 0,-216.9407 m 2,0.8452 0,216.0955 m 2,0 0,-215.2504 m 2,0.8452 0,214.4052 m 2,0 0,-213.56 m 2,0.769 0,212.791 m 2,0 0,-212.1019 m 2,0.6892 0,211.4127 m 2,0 0,-210.7236 m 2,0.6892 0,210.0344 m 2,0 0,-209.3453 m 2,0.6855 0,208.6598 m 2,0 0,-208.0956 m 2,0.5643 0,207.5313 m 2,0 0,-206.967 m 2,0.5212 0,206.4458 m 2,0 0,-205.9711 m 2,0.4748 0,205.4963 m 2,0 0,-205.0216 m 2,0.4055 0,204.6161 m 2,0 0,-204.2353 m 2,0.3809 0,203.8544 m 2,0 0,-203.4735 m 2,0.3007 0,203.1728 m 2,0 0,-202.8905 m 2,0.2823 0,202.6081 m 2,0 0,-202.3258 m 2,0.2077 0,202.1181 m 2,0 0,-201.9393 m 2,0.1787 0,201.7606 m 2,0 0,-201.5819 m 2,0.1274 0,201.4545 m 2,0 0,-201.3848 m 2,0.07 0,201.3152 m 2,0 0,-201.2455 m 2,0.061 0,201.185 m 2,0 0,-201.2303 m 2,-0.045 0,201.2756 m 2,0 0,-201.3208 m 2,-0.045 0,201.3661 m 2,0 0,-201.4791 m 2,-0.1666 0,201.6456 m 2,0 0,-201.8122 m 2,-0.1666 0,201.9788 m 2,0 0,-202.1453 m 2,-0.2848 0,202.4301 m 2,0 0,-202.7249 m 2,-0.2947 0,203.0196 m 2,0 0,-203.3144 m 2,-0.3196 0,203.634 m 2,0 0,-204.0645 m 2,-0.4305 0,204.495 m 2,0 0,-204.9255 m 2,-0.4306 0,205.356 m 2,0 0,-205.8374 m 2,-0.5744 0,206.4119 m 2,0 0,-206.9864 m 2,-0.5744 0,207.5608 m 2,0 0,-208.1352 m 2,-0.6431 0,208.7783 m 2,0 0,-209.5056 m 2,-0.7273 0,210.2329 m 2,0 0,-210.9603 m 2,-0.7273 0,211.6876 m 2,0 0,-212.4931 m 2,-0.89 0,213.3831 m 2,0 0,-214.2732 m 2,-0.8901 0,215.1633 m 2,0 0,-216.0533 m 2,-0.9702 0,217.0235 m 2,0 0,-218.0871 m 2,-1.0636 0,219.1507 m 2,0 0,-220.2143 m 2,-1.0637 0,221.278 m 2,0 0,-222.4169 m 2,-1.2491 0,223.666 m 2,0 0,-224.915 m 2,-1.2491 0,226.1641 m 2,0 0,-227.4132 m 2,-1.314 0,228.7272 m 2,0 0,-230.175 m 2,-1.4477 0,231.6227 m 2,-458.1636 0,-19.1119 m 0,244.205 0,233.0705 m 2,-448.3905 0,-33.3243 m 0,247.1966 0,234.5182 m 2,-438.9286 0,-45.1923 m 0,248.1044 0,236.0165 m 2,-429.4666 0,-56.1649 m 0,247.9539 0,237.6776 m 2,-420.0211 0,-66.5786 m 0,247.261 0,239.3387 m 2,-411.0019 0,-76.1631 m 0,246.1652 0,240.9998 m 2,-401.9827 0,-85.3671 m 0,244.6889 0,242.6609 m 2,-392.9636 0,-94.3811 m 0,242.9884 0,244.3563 m 2,-384.3677 0,-102.7771 m 0,240.8977 0,246.2471 m 2,-375.8271 0,-110.8657 m 0,238.5549 0,248.1379 m 2,-367.333 0,-118.8229 m 0,236.1272 0,250.0287 m 2,-359.2632 0,-126.1275 m 0,233.4713 0,251.9194 m 2,-351.1933 0,-133.346 m 0,230.7097 0,253.8296 m 2,-343.4259 0,-140.1024 m 0,227.56 0,255.9683 m 2,-335.8809 0,-146.5246 m 0,224.2984 0,258.1071 m 2,-328.3359 0,-152.8254 m 0,220.9155 0,260.2458 m 2,-320.7909 0,-159.0282 m 0,217.4345 0,262.3846 m 2,-313.246 0,-165.1491 m 0,213.8622 0,264.5329 m 2,-305.8305 0,-171.1405 m 0,210.0308 0,266.9402 m 2,-298.4289 0,-177.1181 m 0,206.1995 0,269.3475 m 2,-291.0272 0,-183.0958 m 0,202.3682 0,271.7548 m 2,-283.6255 0,-188.9821 m 0,198.4455 0,274.1621 m 2,0 0,-471.0592 m 2,1.5483 0,469.5109 m 2,-10.5548 0,-457.4077 m 0,462.6621 0,5.3004 m 2,-14.0868 0,-452.3274 m 2,1.6081 0,447.2842 m 2,-2.8043 0,-442.8101 m 2,1.6698 0,438.336 m 2,-2.6514 0,-434.0147 m 2,1.6698 0,429.9985 m 2,-2.3464 0,-425.9823 m 2,1.7826 0,421.9117 m 2,-2.0659 0,-418.0513 m 2,1.7945 0,414.1908 m 2,-2.0659 0,-410.3303 m 2,1.7945 0,406.6146 m 2,-1.8835 0,-402.9285 m 2,1.9276 0,399.1174 m 2,-1.8834 0,-395.3064 m 2,1.9276 0,391.4953 m 2,-1.8835 0,-387.6842 m 2,1.9276 0,383.8732 m 2,-1.8829 0,-380.0554 m 2,2.0742 0,376.1002 m 2,-1.881 0,-372.1451 m 2,2.0742 0,368.1899 m 2,-1.8988 0,-364.2169 m 2,2.0741 0,360.166 m 2,-1.9769 0,-356.1149 m 2,2.2339 0,351.9042 m 2,-1.9768 0,-347.6873 m 2,2.2402 0,343.5913 m 2,-1.8544 0,-339.4968 m 2,2.2401 0,335.4023 m 2,-1.8544 0,-331.3077 m 2,2.4111 0,327.0422 m 2,-1.8622 0,-322.7469 m 2,2.433 0,318.3414 m 2,-1.9725 0,-313.9358 m 2,2.4331 0,309.5302 m 2,-1.9724 0,-305.1248 m 2,2.6427 0,300.5096 m 2,-2.0499 0,-295.7965 m 2,2.6632 0,291.0167 m 2,-2.1166 0,-286.2368 m 2,2.6632 0,281.4569 m 2,-2.1166 0,-276.6419 m 2,2.9456 0,271.5073 m 2,-2.2941 0,-266.2676 m 2,2.9456 0,261.0279 m 2,-2.2941 0,-255.7882 m 2,2.9457 0,250.5485 m 2,-2.446 0,-244.9363 m 2,3.3034 0,239.1177 m 2,-2.5151 0,-233.2992 m 2,3.3034 0,227.4806 m 2,-2.6217 0,-221.5555 m 2,3.4643 0,215.2961 m 2,-2.7951 0,-208.8595 m 2,3.6609 0,202.4035 m 2,-2.9745 0,-195.5138 m 2,3.9152 0,188.4415 m 2,-3.1571 0,-181.1127 m 2,4.2392 0,173.6973 m 2,-3.6387 0,-165.5665 m 2,4.6295 0,157.2984 m 2,-3.6517 0,-148.7047 m 2,5.1088 0,139.2915 m 2,-4.3044 0,-129.3866 m 2,5.8274 0,118.8252 m 2,-5.2761 0,-107.0531 m 2,7.1953 0,94.098 m 2,-6.8131 0,-79.1771 m 2,9.7074 0,60.8704 m 2,-12.4003 0,-34.6897"
       inkscape:connector-curvature="0" /><g
       id="g3023"
       transform="matrix(6.0357277,0,0,6.0357277,1200.0241,454.23868)"
       style="fill:none;fill-opacity:1;stroke:#ff7afe;stroke-opacity:1"><path
         d="m 0,0 -64.396,64.383 -2.19,2.189 -13.296,13.295 -111.094,-111.074 222.187,0 z"
         style="fill:none;fill-opacity:1;fill-rule:nonzero;stroke:#ff7afe;stroke-opacity:1"
         id="path3025"
         inkscape:connector-curvature="0"
         sodipodi:nodetypes="ccccccc" /></g><g
       style="fill:none;stroke:#879cff;stroke-width:0.80000001;stroke-miterlimit:4;stroke-dasharray:none;stroke-opacity:1"
       transform="matrix(6.0357277,0,0,6.0357277,839.63684,1679.7564)"
       id="g4837"><path
         inkscape:connector-curvature="0"
         id="path4839"
         style="fill:none;fill-opacity:1;fill-rule:nonzero;stroke:#879cff;stroke-width:0.80000001;stroke-miterlimit:4;stroke-dasharray:none;stroke-opacity:1"
         d="M 90.92,0 -20.173,-111.074 -131.268,0 c 0,0 93.042323,0 222.188,0 z"
         sodipodi:nodetypes="cccc" /></g><path
       inkscape:connector-curvature="0"
       id="path4843"
       style="fill:none;fill-opacity:1;fill-rule:nonzero;stroke:#e911e7;stroke-width:6.0357275;stroke-opacity:1"
       d="m 1200.0241,454.23868 -28.8085,-13.50796 c -56.1625,-23.48502 -123.1228,-37.13783 -195.00835,-37.13783 -19.97223,0 -40.82567,2.25133 -59.89857,4.27933 0,0 -229.70169,-129.22493 -202.02787,-82.24886 57.4058,97.49511 42.38891,126.35192 42.38891,126.35192 -89.60641,44.74889 -140.01077,112.86207 -140.01077,184.21645 -0.006,83.14818 67.44322,156.10806 168.86759,197.24758 l 25.82084,9.39763 z"
       sodipodi:nodetypes="ccsccccccc" /><path
       inkscape:connector-curvature="0"
       id="path6852"
       style="fill:none;fill-opacity:1;stroke:#a00c9f;stroke-width:0.9999994;stroke-opacity:1"
       d="m 617.09727,626.24931 0,20.89578 m 2,16.01931 0,-53.97941 m 2.00001,-9.0271 0,72.55896 m 2,7.41926 0,-87.4413 m 1.99999,-6.41189 0,100.11091 m 2,5.55049 0,-111.22195 m 2,-4.94729 0,121.2539 m 2.00001,4.55453 0,-130.74945 m 1.99999,-4.00543 0,139.01404 m 2,4.05427 0,-147.07373 m 2,-4.00543 0,154.78649 m 2,3.64694 0,-161.85597 m 2.00001,-3.34483 0,168.52727 m 1.99999,3.3082 0,-175.1803 m 2,-3.23824 0,181.47551 m 2,3.02156 0,-187.3499 m 2,-2.85283 0,193.06524 m 2.00001,2.77539 0,-198.69346 m 1.99999,-2.84605 0,204.25967 m 2,2.56124 0,-209.29067 m 2,-2.46976 0,214.32167 m 2.00001,2.42658 0,-219.218 m 2,-2.46976 0,224.06066 m 1.99999,2.36791 0,-228.80768 m 2,-2.16108 0,233.09755 m 2,2.12878 0,-237.38741 m 2.00001,-2.16108 0,241.67728 m 1.99999,2.12878 0,-245.96715 m 2,-2.14757 0,250.24351 m 2,2.07758 0,-254.22651 m 2,-1.90543 0,257.98939 m 2.00001,1.85746 0,-261.75227 m 1.99999,-1.90541 0,265.51513 m 2,1.85746 0,-269.27801 m 2,-1.83972 0,272.97518 m 2,1.85745 0,-276.52145 m 2.00001,-1.68882 0,279.88999 m 1.99999,1.63167 0,-283.21048 m 2,-1.68881 0,286.53096 m 2,1.63167 0,-289.85146 m 2.00001,-1.67881 0,293.16193 m 2,1.63167 0,-296.2954 m 1.99999,-1.50179 0,299.42886 m 2,1.46995 0,-302.4006 m 2,-1.50179 0,305.34162 m 2.00001,1.43923 0,-308.28264 m 1.99999,-1.50179 0,311.22366 m 2,1.43923 0,-314.11358 m 2,-162.41339 0,6.48905 m 0,471.47716 0,-316.89048 m 2,-162.06176 0,11.39801 m 0,468.99345 0,-319.66735 m 2.00001,-160.92298 0,15.11645 m 0,466.85071 0,-322.38184 m 1.99999,-159.62704 0,18.67776 m 0,464.60294 0,-324.99132 m 2,-158.09332 0,22.00127 m 0,462.35519 0,-327.60079 m 2,-156.5089 0,25.27409 m 0,460.10741 0,-330.21026 m 2,-154.74906 0,28.49892 m 0,457.73222 0,-332.80728 m 2.00001,-153.00169 0,31.88586 m 0,455.19493 0,-335.27068 m 1.99999,-151.30528 0,35.19014 m 0,452.65764 0,-337.73408 m 2,-149.54504 0,38.43059 m 0,450.12035 0,-340.19747 m 2,-147.7848 0,41.76389 m 0,447.42956 0,-342.60023 m 2.00001,-145.95874 0,45.30029 m 0,444.38224 0,-344.91536 m 2,-144.05612 0,48.76013 m 0,441.3349 0,-347.23049 m 1.99999,-142.15348 0,52.21995 m 0,438.28758 0,-349.54562 m 2,-140.25086 0,56.04883 m 0,434.87121 0,-351.81031 m 2,-138.39867 0,59.97354 m 0,431.35899 0,-353.99381 m 2.00001,-136.62766 0,63.89826 m 0,427.84678 0,-356.17732 m 1.99999,-134.85667 0,68.4347 m 0,423.72284 0,-358.36083 m 2,-133.0725 0,72.96569 m 0,419.5912 0,-360.54434 m 2,-131.18309 0,78.06183 m 0,414.65931 0,-362.59799 m 2,-129.29368 0,83.46884 m 0,409.413 0,-364.64812 m 2.00001,-127.40425 0,90.05848 m 0,402.98406 0,-366.69824 m 1.99999,-125.51483 0,98.72388 m 0,394.47935 0,-369.66885 m 2,-122.70492 0,493.36394 m 2,0.99017 0,-493.52464 m 2,0.82947 0,493.68534 m 2.00001,0.99017 0,-493.84604 m 1.99999,0.86956 0,493.9556 m 2,0.86846 0,-493.91858 m 2,0.90547 0,493.88156 m 2.00001,0.86845 0,-493.84454 m 2,0.90548 0,493.80751 m 1.99999,0.86845 0,-493.77048 m 2,0.90548 0,493.73346 m 2,0.86845 0,-493.69644 m 2.00001,0.90548 0,493.65941 m 1.99999,0.86845 0,-493.61877 m 2,0.9584 0,493.41844 m 2,0.72792 0,-493.18796 m 2,0.95839 0,492.95748 m 2.00001,0.7279 0,-492.72698 m 1.99999,0.9584 0,492.4965 m 2,0.72791 0,-492.26601 m 2,0.9584 0,492.03552 m 2,0.72791 0,-491.80504 m 2.00001,0.9584 0,491.57455 m 1.99999,0.72791 0,-491.33922 m 2,1.01216 0,491.05497 m 2,0.72791 0,-490.77073 m 2.00001,1.01216 0,490.48648 m 2,-1.65851 0,-487.81581 m 1.99999,1.01216 0,484.80405 m 2,-1.9996 0,-481.7923 m 2,1.01216 0,478.78055 m 2.00001,-1.9996 0,-475.76879 m 2,1.01215 0,472.75704 m 1.99999,-1.99959 0,-469.74529 m 2,1.01215 0,466.73354 m 2,-1.9996 0,-463.72179 m 2.00001,1.01216 0,460.71004 m 1.99999,-1.9996 0,-457.69828 m 2,1.01216 0,454.68652 m 2,-1.99959 0,-451.67478 m 2,1.01216 0,448.66303 m 2.00001,-1.9996 0,-445.65128 m 1.99999,1.01216 0,442.63952 m 2,-1.99959 0,-439.62757 m 2,1.05997 0,436.568 m 2.00001,-1.9996 0,-433.50843 m 2,1.05997 0,430.44886 m 1.99999,-1.99959 0,-427.3893 m 2,1.05997 0,424.32973 m 2,-1.99959 0,-421.27016 m 2.00001,1.05997 0,418.21059 m 2,-1.9996 0,-415.15102 m 1.99999,1.05997 0,412.09145 m 2,-1.99958 0,-409.0319 m 2,1.05997 0,405.97232 m 2.00001,-1.99959 0,-402.91276 m 1.99999,1.05997 0,399.85319 m 2,-1.99959 0,-396.79363 m 2,1.05998 0,393.73405 m 2,-1.99959 0,-390.67449 m 2.00001,1.05997 0,387.61492 m 1.99999,-1.9996 0,-384.55071 m 2,1.09747 0,381.45364 m 2,-1.99959 0,-378.35658 m 2.00001,1.09748 0,375.2595 m 2,-1.99959 0,-372.16243 m 1.99999,1.09747 0,369.06536 m 2,-1.9996 0,-365.96829 m 2,1.09748 0,362.87122 m 2.00001,-1.99959 0,-359.77415 m 2,1.09747 0,356.67708 m 1.99999,-1.9996 0,-353.58001 m 2,1.09748 0,350.48294 m 2,-1.9996 0,-347.38587 m 2.00001,1.09748 0,344.28879 m 1.99999,-1.99959 0,-341.19173 m 2,1.09747 0,338.09466 m 2,-1.9996 0,-334.99758 m 2,1.09747 0,331.90052 m 2.00001,-1.9996 0,-329.3134 m 1.99999,-0.19588 0,327.50968 m 2,-1.99959 0,-325.70597 m 2,-0.19588 0,323.90226 m 2.00001,-1.99961 0,-322.09852 m 2,-0.19588 0,320.29481 m 1.99999,-1.9996 0,-318.49109 m 2,-0.19588 0,316.68738 m 2,-1.9996 0,-314.88365 m 2.00001,-0.19588 0,313.07994 m 2,-1.9996 0,-311.27622 m 1.99999,-0.19588 0,309.4725 m 2,-1.99959 0,-307.66878 m 2,-0.19588 0,305.86506 m 2.00001,-1.9996 0,-304.06134 m 1.99999,-0.1578 0,302.21955 m 2,-1.9996 0,-300.35111 m 2,-0.13115 0,298.48266 m 2,-1.99959 0,-296.61423 m 2.00001,-0.13115 0,294.74578 m 1.99999,-1.99959 0,-292.87735 m 2,-0.13115 0,291.0089 m 2,-1.9996 0,-289.14045 m 2,-0.0511 0,287.19193 m 2.00001,-1.99959 0,-285.24312 m 1.99999,-0.0508 0,283.2943 m 2,-1.9996 0,-281.34547 m 2,-0.0508 0,279.39666 m 2.00001,-1.99961 0,-277.44784 m 2,-0.0508 0,275.49903 m 1.99999,-1.9996 0,-273.51706 m 2,0.0237 0,271.49376 m 2,-1.99959 0,-269.47046 m 2.00001,0.0237 0,267.44716 m 1.99999,-1.9996 0,-265.42385 m 2,0.0237 0,263.40055 m 2,-1.9996 0,-261.37724 m 2,0.0587 0,259.31901 m 2.00001,-1.9996 0,-257.24819 m 1.99999,0.0712 0,255.17737 m 2,-1.99959 0,-253.10656 m 2,0.0712 0,251.03574 m 2.00003,-1.99959 0,-248.96492 m 2,0.0754 0,246.88994 m 2,-1.9996 0,-244.77148 m 2,0.11886 0,242.65302 m 2,-1.99959 0,-240.53457 m 2,0.11886 0,238.41611 m 2,-1.9996 0,-236.29766 m 2,0.11886 0,234.1792 m 2,-1.99959 0,-232.03652 m 2,0.16672 0,229.8702 m 2,-1.99959 0,-227.70389 m 2,0.16671 0,225.53758 m 2,-1.9996 0,-223.37127 m 2,0.16672 0,221.20496 m 2,-1.99959 0,-219.03865 m 2,0.21468 0,216.82437 m 2,-1.9996 0,-214.60987 m 2,0.2149 0,212.39538 m 2,-1.9996 0,-210.18088 m 2,0.21489 0,207.96639 m 2,-1.99959 0,-205.75189 m 2,0.24211 0,203.51018 m 2,-1.9996 0,-201.24707 m 2,0.26351 0,198.98397 m 2,-1.9996 0,-196.72086 m 2,0.26352 0,194.45774 m 2,-1.99959 0,-192.19463 m 2,0.2735 0,189.92153 m 2,-1.9996 0,-187.60925 m 2,0.31268 0,185.29698 m 2,-1.99959 0,-182.98471 m 2,0.31268 0,180.67243 m 2,-1.9996 0,-178.36015 m 2,0.31268 0,176.04788 m 2,-1.9996 0,-173.68925 m 2,0.36252 0,171.32713 m 2,-1.99959 0,-168.96501 m 2,0.36251 0,166.6029 m 2,-1.9996 0,-164.24078 m 2,0.36253 0,161.87866 m 2,-1.9996 0,-159.47882 m 2,0.41317 0,157.06605 m 2,-1.99959 0,-154.65329 m 2,0.41317 0,152.24052 m 2,-1.99959 0,-149.82776 m 2,0.41316 0,147.415 m 2,-1.9996 0,-144.96859 m 2,0.46477 0,142.50423 m 2,-1.9996 0,-140.03985 m 2,0.46477 0,137.57548 m 2,-1.99959 0,-135.11111 m 2,0.46477 0,132.64674 m 2,-1.99959 0,-130.14784 m 2,0.51749 0,127.63075 m 2,-1.9996 0,-125.11365 m 2,0.5175 0,122.59656 m 2,-1.9996 0,-120.07947 m 2,0.5175 0,117.56237 m 2,-1.99959 0,-115.00428 m 2,0.5715 0,112.43318 m 2,-1.99959 0,-109.86208 m 2,0.57151 0,107.29097 m 2,-1.9996 0,-104.71987 m 2,0.57151 0,102.14877 m 2,-1.9996 0,-99.52393 m 2,0.627 0,96.89733 m 2,-1.99959 0,-94.27074 m 2,0.62701 0,91.64413 m 2,-1.99959 0,-89.01753 m 2,0.64339 0,86.37454 m 2,-1.9996 0,-83.69073 m 2,0.6842 0,81.00694 m 2,-1.9996 0,-78.32314 m 2,0.6842 0,75.63934 m 2,-1.99959 0,-72.95554 m 2,0.72671 0,70.22923 m 2,-1.99959 0,-67.4863 m 2,0.74335 0,64.74335 m 2,-1.9996 0,-62.00041 m 2,0.74335 0,59.25747 m 2,-1.9996 0,-56.49804 m 2,0.8047 0,53.69374 m 2,-1.99959 0,-50.88944 m 2,0.8047 0,48.08514 m 2,-1.9996 0,-45.28084 m 2,0.80471 0,42.47654 m 2,-1.9996 0,-39.54704 m 2,0.93777 0,36.60967 m 2,-1.99959 0,-33.6723 m 2,0.93778 0,30.73493 m 2,-1.9996 0,-27.79755 m 2,0.93777 0,24.86018 m 2,-1.99959 0,-21.92282 m 2,0.93777 0,18.98545 m 2,-1.9996 0,-16.04807 m 2,0.93778 0,13.1107 m 2,-1.9996 0,-10.17332 m 2,0.93777 0,7.23595 m 2,-1.99959 0,-4.29859 m 2,0.93777 0,1.36122" /><path
       inkscape:connector-curvature="0"
       id="path4847"
       d="m 975.61225,1049.7586 0.44302,-7.922 c 21.85537,-62.26454 26.99023,-115.37701 48.85163,-177.62951 22.3383,-59.57866 48.3663,-114.29893 109.822,-142.22625 55.5831,-29.5992 102.0117,11.79116 157.6551,12.68445 63.0915,-0.10865 99.0829,-40.06933 130.7584,-84.98118 l 0,68.6753 c -23.9317,26.26145 -41.8646,44.7111 -37.4404,101.06065 5.4683,60.01324 6.2888,109.80878 -47.3145,150.15762 -107.7437,78.01782 -249.4064,17.77148 -362.77543,80.18092 z m 77.24785,-76.5689 c 9.5606,-10.3392 21.239,-18.24944 33.9321,-23.69971 12.7173,-5.46836 26.3101,-8.65668 40.0716,-11.20375 27.4686,-5.2028 56.0576,-8.48286 83.84,-17.64509 13.8883,-4.46644 27.5151,-10.23092 40.4677,-17.43758 12.9225,-7.24891 24.7635,-16.45684 35.0544,-27.01936 20.4913,-21.23973 35.8529,-46.56672 45.2868,-73.73957 l -1.5844,-0.87705 c -18.0951,22.18733 -35.7319,43.63336 -56.2171,61.51722 -20.3344,17.75108 -42.1965,33.92423 -67.9208,43.9194 -25.513,10.30298 -53.2435,15.3809 -80.9354,22.45477 -13.7795,3.74819 -27.6511,8.2022 -40.4771,15.00446 -12.838,6.71173 -24.2972,16.13386 -32.9042,27.54742 l 1.3864,1.17884 z"
       style="fill:none;fill-opacity:1;fill-rule:nonzero;stroke:#4ef02e;stroke-width:6.0357275;stroke-opacity:1" /><path
       id="path6807"
       style="fill:none;stroke:#2cc20e;stroke-width:1;stroke-opacity:1"
       d="m 977.23436,1038.2167 0,10.7088 m 2,-1.027 0,-15.8219 m 2,-6.1402 0,20.935 m 2,-1.027 0,-26.0481 m 2,-6.941 0,31.962 m 2,-0.964 0,-38.0793 m 2,-7.08136 0,44.27176 m 2,-0.889 0,-51.05913 m 2,-7.93136 0,58.10159 m 2,-0.8889 0,-65.14405 m 2,-8.42267 0,72.68082 m 2,-0.7642 0,-80.37012 m 2.00004,-8.45323 0,88.05925 m 2,-0.7642 0,-95.74786 m 2,-8.4528 0,103.43656 m 2,-0.7642 0,-110.699 m 2,-7.92953 0,117.92293 m 2,-0.6518 0,-125.15392 m 2,-7.07884 0,131.58086 m 2,-0.6518 0,-138.0079 m 2,-7.07884 0,144.43494 m 2,-0.6518 0,-150.01157 m 2,-6.13747 0,155.59304 m 2,-0.5511 0,-161.17941 m 2,-5.97184 0,166.60005 m 2,-0.5511 0,-171.1748 m 2,-5.12586 0,175.74956 m 2,-0.5222 0,-180.35321 m 2,-5.12585 0,185.01756 m 2,-0.4614 0,-189.34978 m 2,-4.73855 0,193.62683 m 2,-0.4614 0,-197.72236 m 2,-4.42644 0,201.6873 m 2,-0.4107 0,-205.63843 m 2,-4.09166 0,209.34789 m 2,-0.3821 0,-213.05745 m 2,-3.86103 0,216.53628 m 2,-0.3822 0,-219.90043 m 2,-3.74635 0,169.36669 m 0,53.89799 0,-50.88677 m 2,-175.78436 0,170.33721 m 0,56.01462 0,-52.50077 m 2,-177.25174 0,171.52637 m 0,57.91344 0,-54.12136 m 2,-178.6799 0,172.77155 m 0,59.71691 0,-55.74186 m 2,-179.80914 0,173.86261 m 0,61.37559 0,-57.20424 m 2,-181.0965 0,175.05329 m 0,62.93465 0,-58.44093 m 2,-182.59567 0,176.33973 m 0,64.39197 0,-59.68552 m 2,-183.78385 0,177.43657 m 0,65.7799 0,-60.98211 m 2,-184.97203 0,178.68323 m 0,67.01801 0,-62.18813 m 2,-186.25078 0,179.92989 m 0,68.25622 0,-63.17407 m 2,-187.52187 0,180.94871 m 0,69.49433 0,-64.15991 m 2,-188.71301 0,181.91886 m 0,70.70116 0,-65.14575 m 2,-189.90415 0,183.16531 m 0,71.64789 0,-66.14779 m 2,-191.04182 0,184.35828 m 0,72.62923 0,-66.9547 m 2,-192.1742 0,185.31623 m 0,73.61057 0,-67.72947 m 2,-193.33872 0,186.27419 m 0,74.5918 0,-68.50414 m 2,-194.50325 0,187.32922 m 0,75.47607 0,-69.2789 m 2,-195.57264 0,188.41871 m 0,76.23073 0,-70.00649 m 2,-196.51617 0,189.33517 m 0,77.01319 0,-70.59565 m 2,-197.62593 0,190.25163 m 0,77.82645 0,-71.21561 m 2,-198.73568 0,191.16808 m 0,78.63971 0,-71.83557 m 2,-199.78964 0,192.11936 m 0,79.36235 0,-72.45552 m 2,-200.65164 0,192.95926 m 0,80.0045 0,-73.01511 m 2,-201.57411 0,193.79917 m 0,80.64655 0,-73.47403 m 2,-202.59715 0,194.63908 m 0,81.2886 0,-73.93295 m 2,-203.62018 0,195.47897 m 0,81.93066 0,-74.39187 m 2,-204.46697 0,196.20374 m 0,82.5116 0,-74.85079 m 2,-205.26216 0,196.94109 m 0,83.02836 0,-75.26201 m 2,-206.10504 0,197.67843 m 0,83.54522 0,-75.60147 m 2,-207.01978 0,198.41576 m 0,84.06199 0,-75.94083 m 2,-207.93452 0,199.1531 m 0,84.61435 0,-76.31579 m 2,-208.64534 0,199.71707 m 0,85.15046 0,-76.70505 m 2,-209.35122 0,200.33118 m 0,85.63149 0,-77.06745 m 2,-210.08396 0,200.94529 m 0,86.11262 0,-77.37404 m 2,-210.87261 0,201.5594 m 0,86.59365 0,-77.68052 m 2,-211.66126 0,202.1735 m 0,87.07468 0,-77.98701 m 2,-212.29508 0,202.64973 m 0,87.53876 0,-78.2935 m 2,-212.89269 0,203.16219 m 0,87.9305 0,-78.591 m 2,-213.4994 0,203.67467 m 0,88.32213 0,-78.84848 m 2,-214.14602 0,204.18713 m 0,88.71377 0,-79.10594 m 2,-214.79266 0,204.69959 m 0,89.10541 0,-79.36341 m 2,-215.43773 0,205.21049 m 0,89.49715 0,-79.62098 m 2,-216.07819 0,205.71678 m 0,89.90389 0,-79.89355 m 2,-216.71864 0,206.22307 m 0,90.31252 0,-80.16802 m 2,-217.26375 0,206.63401 m 0,90.72116 0,-80.44249 m 2,-217.75984 0,206.99593 m 0,91.1297 0,-80.71686 m 2,-218.24291 0,207.34483 m 0,91.53834 0,-80.99133 m 2,-218.59933 0,207.56709 m 0,91.94697 0,-81.2658 m 2,-218.95576 0,207.78935 m 0,92.35551 0,-81.54017 m 2,-219.23826 0,207.93768 m 0,92.76415 0,-81.81464 m 2,-219.46014 0,208.02539 m 0,93.17279 0,-82.08911 m 2,-219.67848 0,208.10956 m 0,93.58143 0,-82.36358 m 2,-219.77134 0,208.06826 m 0,93.98996 0,-82.63795 m 2,-219.86421 0,208.02696 m 0,94.3976 0,-82.91142 m 2,-219.89237 0,207.92095 m 0,94.79054 0,-83.17019 m 2,-219.86214 0,207.75655 m 0,95.18338 0,-83.42885 m 2,-219.82467 0,207.58491 m 0,95.57631 0,-83.68762 m 2,-219.62275 0,207.21116 m 0,96.00681 0,-83.94629 m 2,-219.42083 0,206.80627 m 0,96.46855 0,-84.21686 m 2,-219.2071 0,206.40136 m 0,96.9302 0,-84.51707 m 2,-218.96364 0,205.99647 m 0,97.39194 0,-84.81737 m 2,-218.69468 0,205.56606 m 0,97.85359 0,-85.11758 m 2,-218.24513 0,204.95508 m 0,98.31533 0,-85.41788 m 2,-217.79559 0,204.34409 m 0,98.77698 0,-85.71873 m 2,-217.3454 0,203.73311 m 0,99.23872 0,-86.07193 m 2,-216.84296 0,203.12212 m 0,99.68747 0,-86.41212 m 2,-216.29496 0,202.46557 m 0,100.10041 0,-86.71651 m 2,-215.61645 0,201.62987 m 0,100.56189 0,-87.0208 m 2,-214.93795 0,200.74141 m 0,101.07614 0,-87.3251 m 2,-214.25944 0,199.85294 m 0,101.5904 0,-87.68256 m 2,-213.52776 0,198.96447 m 0,102.10465 0,-88.0583 m 2,-212.7154 0,198.0136 m 0,102.6189 0,-88.43405 m 2,-211.82161 0,196.92791 m 0,103.18665 0,-88.80989 m 2,-210.92783 0,195.79947 m 0,103.79705 0,-89.18563 m 2,-210.03405 0,194.67104 m 0,104.40744 0,-89.60592 m 2,-209.09572 0,193.5426 m 0,105.01784 0,-90.0723 m 2,-208.04149 0,192.34436 m 0,105.62823 0,-90.53868 m 2,-206.94724 0,191.03444 m 0,106.27878 0,-90.97357 m 2,-205.85297 0,189.69692 m 0,106.93042 0,-91.38195 m 2,-204.75872 0,188.35941 m 0,107.58196 0,-91.81317 m 2,-203.64152 0,187.02188 m 0,108.23361 0,-92.30802 m 2,-202.38082 0,185.60439 m 0,108.88525 0,-92.80288 m 2,-201.10602 0,184.02855 m 0,109.68115 0,-93.29773 m 2,-199.83123 0,182.45079 m 0,110.44227 0,-93.75589 m 2,-198.55643 0,180.87303 m 0,111.18949 0,-94.20924 m 2,-197.27254 0,179.29528 m 0,111.9368 0,-94.76074 m 2,-195.8906 0,177.6582 m 0,112.74344 0,-95.31224 m 2,-194.50866 0,175.93894 m 0,113.63226 0,-95.86375 m 2,-193.12671 0,174.21968 m 0,114.52098 0,-96.41515 m 2,-191.74477 0,172.50042 m 0,115.3532 0,-96.91005 m 2,-190.3612 0,170.77883 m 0,116.18292 0,-97.51485 m 2,-188.86002 0,168.91846 m 0,117.14691 0,-98.12281 m 2,-187.35568 0,167.05809 m 0,118.1109 0,-98.73076 m 2,-185.85135 0,165.19773 m 0,119.07488 0,-99.33871 m 2,-184.34702 0,163.33736 m 0,120.02417 0,-99.93197 m 2,-182.84268 0,161.38454 m 0,121.01121 0,-100.5912 m 2,-181.21767 0,159.39773 m 0,122.03224 0,-101.25696 m 2,-179.58613 0,157.41092 m 0,123.05317 0,-101.92263 m 2,-177.95458 0,155.42411 m 0,124.0742 0,-102.5884 m 2,-176.32303 0,153.36972 m 0,125.16271 0,-103.25964 m 2,-174.73301 0,151.31419 m 0,126.25806 0,-104.06149 m 2,-173.00636 0,149.29404 m 0,127.31531 0,-104.82525 m 2,-171.2797 0,147.27389 m 0,128.37256 0,-105.589 m 2,-169.55306 0,145.17327 m 0,129.51029 0,-106.35275 m 2,-167.82641 0,143.00638 m 0,130.71428 0,-107.17779 m 2,-166.10269 0,140.90371 m 0,131.91827 0,-108.15249 m 2,-164.26398 0,138.83571 m 0,133.04236 0,-109.04729 m 2,-162.42526 0,136.7677 m 0,134.15615 0,-109.93178 m 2,-160.58655 0,134.69969 m 0,135.26994 0,-110.81628 m 2,-158.74783 0,132.63168 m 0,136.38373 0,-111.87761 m 2,-156.81763 0,130.64903 m 0,137.49751 0,-112.99045 m 2,-154.87984 0,128.59175 m 0,138.69834 0,-114.07179 m 2,-152.94204 0,126.49735 m 0,139.86632 0,-115.08317 m 2,-151.00425 0,124.40296 m 0,141.03426 0,-116.22212 m 2,-148.93884 0,122.30856 m 0,142.20221 0,-117.48619 m 2,-146.84108 0,120.17034 m 0,143.50673 0,-118.75025 m 2,-144.80778 0,118.09437 m 0,144.81347 0,-120.01431 m 2,-142.77448 0,116.0184 m 0,146.02948 0,-121.32709 m 2,-140.60175 0,113.88387 m 0,147.28128 0,-122.75417 m 2,-138.29193 0,111.62537 m 0,148.65705 0,-124.18126 m 2,-136.06808 0,109.45285 m 0,150.0328 0,-125.60835 m 2,-133.96046 0,107.39656 m 0,151.40857 0,-127.23684 m 2,-131.65144 0,105.34026 m 0,152.73891 0,-128.87568 m 2,-129.28665 0,103.28397 m 0,153.98834 0,-130.43361 m 2,-126.92185 0,101.22767 m 0,155.23778 0,-132.08124 m 2,-124.46736 0,99.12262 m 0,156.53596 0,-133.9312 m 2,-121.92139 0,96.98906 m 0,157.97352 0,-135.78118 m 2,-119.4309 0,94.91099 m 0,159.41107 0,-137.65843 m 2,-116.91313 0,92.83293 m 0,160.70898 0,-139.70584 m 2,-114.08558 0,90.75487 m 0,162.0064 0,-141.75274 m 2,-111.25803 0,88.6768 m 0,163.30382 0,-143.84296 m 2,-108.42353 0,86.6351 m 0,164.60124 0,-146.28638 m 2,-105.37394 0,84.68771 m 0,165.94246 0,-148.7298 m 2,-102.32435 0,82.68023 m 0,167.23281 0,-151.25153 m 2,-99.08549 0,80.67275 m 0,168.47906 0,-154.017 m 2,-95.55879 0,78.66527 m 0,169.7253 0,-156.78245 m 2,-92.03843 0,76.66412 m 0,170.97155 0,-160.10727 m 2,-88.13461 0,74.83886 m 0,172.2178 0,-163.46275 m 2,-84.20013 0,73.01362 m 0,173.37453 0,-167.30843 m 2,-79.68593 0,73.49915 m 0,172.13872 0,-171.24763 m 2,-74.99646 0,244.88759 m 2,-1.35649 0,-244.16165 m 2,-0.79558 0,243.60074 m 2,-1.47185 0,-242.92448 m 2,-0.79559 0,242.09114 m 2,-1.62892 0,-241.2578 m 2,-0.88812 0,240.517 m 2,-1.62893 0,-239.87923 m 2,-0.99116 0,239.0336 m 2,-1.92131 0,-238.10345 m 2,-1.00156 0,237.1837 m 2,-1.92131 0,-236.45405 m 2,-1.19165 0,235.50303 m 2,-2.29041 0,-234.40427 m 2,-1.19165 0,233.30551 m 2,-2.31583 0,-232.35409 m 2,-1.39535 0,230.98351 m 2,-2.76592 0,-229.61294 m 2,-1.39535 0,228.22003 m 2,-3.39406 0,-226.39434 m 2,-1.60009 0,224.60038 m 2,-3.83045 0,-222.37002 m 2,-1.6054 0,219.72502 m 2,-4.7847 0,-216.74354 m 2,-1.80322 0,213.07968 m 2,-6.90795 0,-207.97496 m 2,-1.87754 0,100.73572 m 0,100.27083 0,-85.40814 m 2,-117.60002 0,84.8629 m 0,104.54065 0,-44.06397 m 2,-147.3412 0,78.31415 m 2,-6.05884 0,-74.25692 m 2,-2.16768 0,71.57159 m 2,-4.17329 0,-69.58998 m 2,-2.19168 0,68.03914 m 2,-3.36013 0,-66.96081 m 2,-2.36945 0,66.30722 m 2,-2.90422 0,-65.77246 m 2,-2.41097 0,65.53539 m 2,-2.55661 0,-65.50952 m 2,-2.53075 0,65.66914 m 2,-2.37114 0,-65.8502 m 2,-2.7285 0,66.20756 m 2,-2.31049 0,-66.62557 m 2,-2.7285 0,67.14396 m 2,-2.21011 0,-67.66235 m 2,-2.7285 0,68.18074"
       inkscape:connector-curvature="0" /><path
       inkscape:connector-curvature="0"
       id="path3017"
       d="m 11.847963,1165.8049 0,-4.6212 0.0095,0 0,0.012 -0.0095,4.6117 z m 0.0095,-4.6212 0,-377.70446 11.94881,0 67.138054,0 C 50.67977,913.15636 55.082713,1037.9693 91.651642,1161.1931 l -79.794203,-0.012 z m 104.776417,-0.8676 C 78.822968,1036.7888 74.295062,913.61218 116.0869,784.07339 l 294.71328,147.23404 c -10.88647,10.24365 -17.7488,24.71346 -17.7488,40.73174 0,16.13718 6.95823,30.70903 17.97512,40.96743 l -294.39262,147.3095 z m 318.66758,-159.4658 c -10.74896,-5.10532 -18.10719,-16.00295 -18.10719,-28.81113 0,-12.66978 7.2254,-23.46824 17.81482,-28.63198 l 45.42826,22.69995 c 0.35587,1.92358 0.56585,3.89835 0.56585,5.93203 0,2.14238 -0.21089,4.23388 -0.60357,6.25259 l -45.09819,22.55854 z"
       style="fill:none;fill-opacity:1;fill-rule:nonzero;stroke:#f02e2e;stroke-width:4.82858229;stroke-opacity:1" /><path
       id="path6907"
       style="fill:none;stroke:#9b0b0b;stroke-width:1;stroke-opacity:1"
       d="m 13.819626,783.47924 0,377.70216 m 2,3e-4 0,-377.70246 m 2,0 0,377.70276 m 2,3e-4 0,-377.70306 m 2,0 0,377.70336 m 2,3e-4 0,-377.70366 m 2,0 0,377.70396 m 2,3e-4 0,-377.70426 m 2,0 0,377.70456 m 2,3e-4 0,-377.70486 m 2,0 0,377.70516 m 2,3e-4 0,-377.70546 m 2,0 0,377.70576 m 2,3e-4 0,-377.70606 m 2,0 0,377.70636 m 2,3e-4 0,-377.70666 m 2,0 0,377.70696 m 2,3e-4 0,-377.70726 m 2,0 0,377.70756 m 2,3e-4 0,-377.70786 m 2,0 0,377.70816 m 2,3e-4 0,-377.70846 m 2,0 0,377.70876 m 2,3e-4 0,-377.70906 m 2,0 0,377.70936 m 2,-233.45283 0,-144.25653 m 0,224.47406 0,153.2356 m 2,-256.5285 0,-121.18116 m 0,248.61306 0,129.0969 m 2,-272.59136 0,-105.1186 m 0,266.22346 0,111.4868 m 2,-286.66651 0,-91.04375 m 0,280.45216 0,97.2584 m 2,-298.64411 0,-79.06645 m 0,292.70076 0,85.0101 m 2,-309.5736 0,-68.13726 m 0,304.03506 0,73.6761 m 2,-319.21034 0,-58.50082 m 0,314.17796 0,63.5335 m 2,-328.84707 0,-48.86439 m 0,323.62566 0,54.0861 m 2,-336.97152 0,-40.74024 m 0,332.84186 0,44.8702 m 2,-345.02066 0,-32.6914 m 0,340.96386 0,36.7485 m 2,-353.0698 0,-24.64256 m 0,349.08596 0,28.6267 m 2,-360.02698 0,-17.68568 m 0,356.89166 0,20.8213 m 2,-366.92941 0,-10.78355 m 0,146.08459 0,77.05687 m 0,154.5718 0,-13.681 m 2,-364.03226 0,3.88142 m 0,242.99884 0,-123.65474 m 0,247.94744 0,6.5406 m 2,-113.4599 0,-156.99996 m 2,-14.00834 0,184.7299 m 2,12.1901 0,-208.39178 m 2,-10.97971 0,230.30769 m 2,10.1591 0,-249.70842 m 2.000004,-9.24163 0,268.07485 m 2,9.1248 0,-285.4894 m 2,-7.72938 0,301.21378 m 2,7.8548 0,-316.79796 m 2,-7.16769 0,331.82045 m 2,6.9722 0,-345.43039 m 2,-6.63773 0,358.98492 m 2,6.9169 0,-372.53956 m 2,-0.0214 0,374.78376 m 2,-1.0008 0,-372.78379 m 2,0.99917 0,370.78382 m 2,-1.0007 0,-368.78395 m 2,0.99916 0,366.78399 m 2,-1.0008 0,-364.78402 m 2,0.99917 0,362.78415 m 2,-1.0008 0,-360.78418 m 2,0.99917 0,358.78421 m 2,-1.0007 0,-356.78435 m 2,0.99917 0,354.78438 m 2,-1.0008 0,-352.78441 m 2,0.99917 0,350.78444 m 2,-1.0007 0,-348.78457 m 2,0.99916 0,346.78461 m 2,-1.0008 0,-344.78464 m 2,0.99917 0,342.78477 m 2,-1.0008 0,-340.7848 m 2,0.99917 0,338.78483 m 2,-1.0007 0,-336.78497 m 2,0.99917 0,334.785 m 2,-1.0008 0,-332.78503 m 2,0.99917 0,330.78516 m 2,-1.0008 0,-328.78519 m 2,0.99916 0,326.78523 m 2,-1.0008 0,-324.78526 m 2,0.99917 0,322.78539 m 2,-1.0008 0,-320.78542 m 2,0.99917 0,318.78545 m 2,-1.0007 0,-316.78559 m 2,0.99917 0,314.78562 m 2,-1.0008 0,-312.78565 m 2,0.99917 0,310.78578 m 2,-1.0008 0,-308.78581 m 2,0.99916 0,306.78585 m 2,-1.0007 0,-304.78598 m 2,0.99917 0,302.78601 m 2,-1.0008 0,-300.78604 m 2,0.99917 0,298.78617 m 2,-1.0008 0,-296.78621 m 2,0.99917 0,294.78624 m 2,-1.0008 0,-292.78627 m 2,0.99917 0,290.7864 m 2,-1.0008 0,-288.78643 m 2,0.99916 0,286.78647 m 2,-1.0007 0,-284.7866 m 2,0.99917 0,282.78663 m 2,-1.0008 0,-280.78666 m 2,0.99917 0,278.78679 m 2,-1.0008 0,-276.78683 m 2,0.99917 0,274.78686 m 2,-1.0007 0,-272.78699 m 2,0.99917 0,270.78702 m 2,-1.0008 0,-268.78705 m 2,0.99916 0,266.78709 m 2,-1.0007 0,-264.78722 m 2,0.99917 0,262.78725 m 2,-1.0008 0,-260.78728 m 2,0.99917 0,258.78741 m 2,-1.0008 0,-256.78745 m 2,0.99917 0,254.78748 m 2,-1.0007 0,-252.78761 m 2,0.99917 0,250.78764 m 2,-1.0008 0,-248.78767 m 2,0.99916 0,246.78781 m 2,-1.0008 0,-244.78784 m 2,0.99917 0,242.78787 m 2,-1.0007 0,-240.788 m 2,0.99917 0,238.78803 m 2,-1.0008 0,-236.78807 m 2,0.99917 0,234.7881 m 2,-1.0007 0,-232.78823 m 2,0.99917 0,230.78826 m 2,-1.0008 0,-228.78829 m 2,0.99916 0,226.78843 m 2,-1.0008 0,-224.78846 m 2,0.99917 0,222.78849 m 2,-1.0007 0,-220.78862 m 2,0.99917 0,218.78865 m 2,-1.0008 0,-216.78869 m 2,0.99917 0,214.78882 m 2,-1.0008 0,-212.78885 m 2,0.99917 0,210.78888 m 2,-1.0008 0,-208.78891 m 2,0.99916 0,206.78905 m 2,-1.0008 0,-204.78908 m 2,0.99917 0,202.78911 m 2,-1.0007 0,-200.78924 m 2,0.99917 0,198.78927 m 2,-1.0008 0,-196.78931 m 2,0.99917 0,194.78944 m 2,-1.0008 0,-192.78947 m 2,0.99917 0,190.7895 m 2,-1.0007 0,-188.78963 m 2,0.99916 0,186.78967 m 2,-1.0008 0,-184.7897 m 2,0.99917 0,182.78973 m 2,-1.0007 0,-180.78986 m 2,0.99917 0,178.78989 m 2,-1.0008 0,-176.78993 m 2,0.99917 0,174.79006 m 2,-1.0008 0,-172.79009 m 2,0.99917 0,170.79012 m 2,-1.0007 0,-168.79025 m 2,0.99916 0,166.79029 m 2,-1.0008 0,-164.79032 m 2,0.99917 0,162.79045 m 2,-1.0008 0,-160.79048 m 2,0.99917 0,158.79051 m 2,-1.0007 0,-156.79065 m 2,0.99917 0,154.79068 m 2,-1.0008 0,-152.79071 m 2,0.99917 0,150.79074 m 2,-1.0007 0,-148.79087 m 2,0.99917 0,146.7909 m 2,-1.0008 0,-144.79094 m 2,0.99917 0,142.79107 m 2,-1.0008 0,-140.7911 m 2,0.99917 0,138.79113 m 2,-1.0007 0,-136.79126 m 2,0.99916 0,134.7913 m 2,-1.0008 0,-132.79133 m 2,0.99917 0,130.79146 m 2,-1.0008 0,-128.79149 m 2,0.99916 0,126.79153 m 2,-1.0007 0,-124.79166 m 2,0.99917 0,122.79169 m 2,-1.0008 0,-120.79172 m 2,0.99917 0,118.79175 m 2,-1.0007 0,-116.79189 m 2,0.99917 0,114.79192 m 2,-1.0008 0,-112.79195 m 2,0.99917 0,110.79208 m 2,-1.0008 0,-108.79211 m 2,0.99916 0,106.79215 m 2,-1.0007 0,-104.79228 m 2,0.99917 0,102.79231 m 2,-1.0008 0,-100.79234 m 2,0.99917 0,40.47791 m 0,58.31456 0,-40.84178 m 2,-56.95152 0,30.9304 m 0,65.8621 0,-31.28028 m 2,-64.51306 0,24.74677 m 0,70.04577 0,-25.1142 m 2,-68.67917 0,19.79479 m 0,72.99778 0,-20.14878 m 2,-71.64462 0,15.43834 m 0,75.35436 0,-15.7762 m 2,-74.01733 0,11.43314 m 0,77.35959 0,-11.7529 m 2,-76.04067 0,7.90413 m 0,78.88864 0,-8.2438 m 2,-77.5498 0,4.5815 m 0,80.2114 0,-4.8998 m 2,-78.89393 0,1.50724 m 0,81.28569 0,-1.844 m 8,-45.73844 0,12.03418 m 2,6.65545 0,-25.35393 m 2,-3.88063 0,33.12262 m 2,2.88012 0,-38.87016 m 2,-2.34971 0,43.58524 m 2,2.02531 0,-47.64664 m 2,-1.55425 0,50.75935 m 2,1.45241 0,-53.64222 m 2,-1.15254 0,55.92224 m 2,0.5762 0,-56.77889 m 2,0.99938 0,54.7791 m 2,-1.00042 0,-52.7793 m 2,0.99937 0,50.77951 m 2,-1.00042 0,-48.77971 m 2,0.99937 0,46.77992 m 2,-1.00041 0,-44.78013 m 2,0.99937 0,42.78034 m 2,-1.00042 0,-40.78054 m 2,0.99938 0,38.78074 m 2,-1.00042 0,-36.78095 m 2,0.99938 0,34.78115 m 2,-1.00042 0,-32.78136 m 2,0.99938 0,30.78156 m 2,-1.00042 0,-28.78177 m 2,0.99938 0,26.78198 m 2,-1.00042 0,-24.78218 m 2,0.99937 0,22.78239 m 2,-1.00042 0,-20.78259 m 2,0.99937 0,18.7828 m 2,-1.00042 0,-16.783 m 2,0.99937 0,14.78321 m 2,-1.00042 0,-12.78341"
       inkscape:connector-curvature="0" /></g></svg>