<?xml version="1.0" encoding="UTF-8" standalone="no"?>
<!-- Created with Inkscape (http://www.inkscape.org/) -->

<svg
   xmlns:dc="http://purl.org/dc/elements/1.1/"
   xmlns:cc="http://creativecommons.org/ns#"
   xmlns:rdf="http://www.w3.org/1999/02/22-rdf-syntax-ns#"
   xmlns:svg="http://www.w3.org/2000/svg"
   xmlns="http://www.w3.org/2000/svg"
   xmlns:sodipodi="http://sodipodi.sourceforge.net/DTD/sodipodi-0.dtd"
   xmlns:inkscape="http://www.inkscape.org/namespaces/inkscape"
   id="svg2985"
   version="1.1"
   inkscape:version="0.91 r13725"
   width="338.66666mm"
   height="169.33333mm"
   xml:space="preserve"
   sodipodi:docname="logo_raster_80mm.svg"><sodipodi:namedview
     pagecolor="#ffffff"
     bordercolor="#666666"
     borderopacity="1"
     objecttolerance="10"
     gridtolerance="10"
     guidetolerance="10"
     inkscape:pageopacity="0"
     inkscape:pageshadow="2"
     inkscape:window-width="1920"
     inkscape:window-height="1151"
     id="namedview2987"
     showgrid="false"
     inkscape:zoom="1.6609941"
     inkscape:cx="106.64688"
     inkscape:cy="408.36797"
     inkscape:window-x="0"
     inkscape:window-y="1"
     inkscape:window-maximized="1"
     inkscape:current-layer="g2993"
     units="mm"
     inkscape:document-units="mm" /><metadata
     id="metadata2991"><rdf:RDF><cc:Work
         rdf:about=""><dc:format>image/svg+xml</dc:format><dc:type
           rdf:resource="http://purl.org/dc/dcmitype/StillImage" /><dc:title></dc:title></cc:Work></rdf:RDF></metadata><defs
     id="defs2989"><clipPath
       clipPathUnits="userSpaceOnUse"
       id="clipPath2999"><path
         d="m 0,595.28 841.89,0 L 841.89,0 0,0 0,595.28 Z"
         id="path3001"
         inkscape:connector-curvature="0" /></clipPath></defs><g
     id="g2993"
     inkscape:groupmode="layer"
     inkscape:label="Unser FablabLogoSchriftdabei"
     transform="matrix(1.25,0,0,-1.25,0,600.00002)"><g
       id="g6717"
       transform="translate(-82.841956,46.237371)"><g
         id="g4852"
         transform="translate(86.7319,344.9106)"
         style="fill:none;stroke:#000000;stroke-opacity:1"><path
           sodipodi:nodetypes="ccc"
           d="M 0.001,-143.148 111.074,-32.051 0.001,79.041 Z"
           style="fill:none;fill-opacity:1;fill-rule:nonzero;stroke:#000000;stroke-opacity:1"
           id="path4854"
           inkscape:connector-curvature="0" /></g><g
         style="fill:none;stroke:#000000;stroke-opacity:1"
         transform="translate(298.8911,273.4795)"
         id="g3003"><path
           sodipodi:nodetypes="ccc"
           inkscape:connector-curvature="0"
           id="path3005"
           style="fill:none;fill-opacity:1;fill-rule:nonzero;stroke:#000000;stroke-opacity:1"
           d="M 21.664,150.517 -89.408,39.421 21.664,-71.672 Z" /></g><path
         sodipodi:nodetypes="ccccccccccccccc"
         inkscape:connector-curvature="0"
         id="path3013"
         style="fill:none;fill-opacity:1;fill-rule:nonzero;stroke:#f40000;stroke-width:0.80000001;stroke-miterlimit:4;stroke-dasharray:none;stroke-opacity:1"
         d="m 223.8794,430.0625 -38.717,0 0.64,-0.242 c -0.8,-2.227 -1.868,-4.004 -3.289,-4.822 -11.525,-6.625 -13.933,-8.242 -15.693,-13.584 -5.967,-18.102 2.979,-39.922 7.176,-47.896 5.012,-9.524 6.369,4.423 6.942,8.257 0.61,4.088 3.664,20.268 3.664,20.268 0,0 20.711,14.625 38.295,-7.789 -2.317,-8.76 -3.725,-12.897 -7.166,-29.518 -1.237,-5.398 1.543,-6.652 5.009,-4.299 8.065,5.475 23.516,20.323 26.227,38.114 1.713,11.222 -3.635,20.244 -14.445,29.99 -3.76,3.848 -7.159,6.104 -9.139,10.105 z" /><path
         inkscape:connector-curvature="0"
         id="path6511"
         style="fill:none;fill-opacity:1;stroke:#0bff12;stroke-width:1;stroke-miterlimit:4;stroke-dasharray:none;stroke-opacity:1"
         d="m 166.36552,384.93125 0,24.83727 m 2,5.02766 0,-37.55552 m 2,-5.64269 0,45.4253 m 2,1.65375 0,-51.52947 m 2,-4.17545 0,57.10389 m 2,1.29797 0,-60.89459 m 2,0.68789 0,61.38582 m 2,1.17912 0,-55.87072 m 2,11.80836 0,45.24148 m 2,1.93819 0,-36.11636 m 2,2.28206 0,37.04729 m 2,0 0,-35.98807 m 2,0.76106 0,35.22701 m 2,0 0,-34.51417 m 2,0.41997 0,34.0942 m 2,0 0,-33.67422 m 2,0.24053 0,33.43369 m 2,0 0,-33.35024 m 2,-0.10668 0,33.45692 m 2,0 0,-33.73196 m 2,-0.38369 0,34.11565 m 2,0 0,-34.76703 m 2,-0.79308 0,35.56011 m 2,0 0,-36.53726 m 2,-1.26159 0,37.79885 m 2,-72.52209 0,-7.73765 m 0,41.07773 0,39.18201 m 2,-63.6786 0,-17.00682 m 0,39.72766 0,40.95776 m 2,-55.26692 0,-24.52547 m 0,36.8612 0,42.93119 m 2,-47.79507 0,-30.62013 m 0,33.21154 0,45.20366 m 2,-2.95934 0,-73.93104 m 2,1.73358 0,69.64278 m 2,-2.04209 0,-65.79937 m 2,2.00135 0,61.89039 m 2,-1.90762 0,-57.89825 m 2,2.33579 0,53.65134 m 2,-1.91846 0,-49.27991 m 2,2.80094 0,44.27729 m 2,-2.37677 0,-38.82276 m 2,3.52812 0,32.62086 m 2,-3.38166 0,-24.69973 m 2,6.53075 0,12.88599" /><g
         style="fill:none;fill-opacity:1;stroke:#000000;stroke-opacity:1"
         transform="translate(283.5884,227.0186)"
         id="g3023"><path
           sodipodi:nodetypes="ccccccc"
           inkscape:connector-curvature="0"
           id="path3025"
           style="fill:none;fill-opacity:1;fill-rule:nonzero;stroke:#000000;stroke-opacity:1"
           d="m 0,0 -64.396,64.383 -2.19,2.189 -13.296,13.295 -111.094,-111.074 222.187,0 z" /></g><g
         id="g4837"
         transform="translate(223.8794,430.0625)"
         style="fill:none;stroke:#000000;stroke-width:0.80000001;stroke-miterlimit:4;stroke-dasharray:none;stroke-opacity:1"><path
           sodipodi:nodetypes="cccc"
           d="M 90.92,0 -20.173,-111.074 -131.268,0 c 0,0 93.042323,0 222.188,0 z"
           style="fill:none;fill-opacity:1;fill-rule:nonzero;stroke:#000000;stroke-width:0.80000001;stroke-miterlimit:4;stroke-dasharray:none;stroke-opacity:1"
           id="path4839"
           inkscape:connector-curvature="0" /></g><path
         sodipodi:nodetypes="ccsccccccc"
         d="m 283.5884,227.0186 -4.773,-2.238 c -9.305,-3.891 -20.399,-6.153 -32.309,-6.153 -3.309,0 -6.764,0.373 -9.924,0.709 0,0 -38.057,-21.41 -33.472,-13.627 9.511,16.153 7.023,20.934 7.023,20.934 -14.846,7.414 -23.197,18.699 -23.197,30.521 -0.001,13.776 11.174,25.864 27.978,32.68 l 4.278,1.557 z"
         style="fill:none;fill-opacity:1;fill-rule:nonzero;stroke:#f40000;stroke-opacity:1"
         id="path4843"
         inkscape:connector-curvature="0" /><path
         inkscape:connector-curvature="0"
         d="m 188.1278,249.74723 0,14.71199 m 2,4.93887 0,-24.61289 m 2,-3.23982 0,31.24265 m 2,2.66581 0,-36.54121 m 2,-2.30742 0,41.00373 m 2,1.98681 0,-44.81964 m 2,-1.7926 0,48.26914 m 2,1.53197 0,-51.24015 m 2,-27.47223 0,3.49509 m 0,76.63584 0,-54.07558 m 2,-25.64195 0,6.73363 m 0,74.17946 0,-56.50433 m 2,-23.67202 0,10.3704 m 0,71.00151 0,-58.82372 m 2,-21.77335 0,15.98515 m 0,65.6415 0,-60.97712 m 2,-19.83985 0,81.74486 m 2,0.9279 0,-81.74011 m 2,0.93264 0,81.61403 m 2,0.72791 0,-81.40926 m 2,1.03468 0,79.82684 m 2,-1.9996 0,-76.79257 m 2,1.03468 0,73.7583 m 2,-1.9996 0,-70.72403 m 2,1.03468 0,67.68976 m 2,-1.9996 0,-64.65549 m 2,1.07927 0,61.57662 m 2,-1.99959 0,-58.47955 m 2,1.09747 0,55.38248 m 2,-1.9996 0,-53.28478 m 2,-0.19587 0,51.48106 m 2,-1.9996 0,-49.64384 m 2,-0.0911 0,47.73533 m 2,-1.9996 0,-45.8268 m 2,0.0594 0,43.76781 m 2,-1.99959 0,-41.67369 m 2,0.0945 0,39.57956 m 2,-1.9996 0,-37.48543 m 2,0.17726 0,35.30858 m 2,-1.9996 0,-33.02139 m 2,0.28759 0,30.73421 m 2,-1.9996 0,-28.44702 m 2,0.33733 0,26.11009 m 2,-1.99959 0,-23.61988 m 2,0.49062 0,21.12966 m 2,-1.9996 0,-18.63944 m 2,0.55867 0,16.08118 m 2,-1.9996 0,-13.36836 m 2,0.71323 0,10.65554 m 2,-1.9996 0,-7.94271 m 2,0.86058 0,5.08253 m 2,-1.99959 0,-2.14517"
         style="fill:none;fill-opacity:1;stroke:#0bff12;stroke-width:1;stroke-opacity:1"
         id="path6566" /><path
         style="fill:none;fill-opacity:1;fill-rule:nonzero;stroke:#f40000;stroke-width:1;stroke-opacity:1"
         d="m 246.40782,325.6844 0.0734,-1.31251 c 3.621,-10.316 4.47175,-19.11569 8.09375,-29.42969 3.701,-9.871 8.01331,-18.93705 18.19531,-23.56405 9.209,-4.904 16.90131,1.95356 26.12031,2.10156 10.453,-0.018 16.41607,-6.63869 21.66407,-14.07969 l 0,11.37813 c -3.965,4.351 -6.93613,7.40774 -6.20313,16.74374 0.906,9.943 1.04193,18.19313 -7.83907,24.87813 -17.851,12.926 -41.32168,2.94438 -60.10468,13.28438 z m 12.79843,-12.68594 c 1.584,-1.713 3.51888,-3.02357 5.62188,-3.92657 2.107,-0.906 4.35905,-1.43425 6.63905,-1.85625 4.551,-0.862 9.28764,-1.40544 13.89064,-2.92344 2.301,-0.74 4.55868,-1.69505 6.70468,-2.88905 2.141,-1.201 4.10281,-2.72657 5.80781,-4.47657 3.395,-3.519 5.94013,-7.71518 7.50313,-12.21718 l -0.2625,-0.14532 c -2.998,3.676 -5.92007,7.22919 -9.31407,10.19219 -3.369,2.941 -6.99112,5.62057 -11.25312,7.27657 -4.227,1.707 -8.82137,2.54831 -13.40937,3.72031 -2.283,0.621 -4.58125,1.35893 -6.70625,2.48593 -2.127,1.112 -4.02557,2.67307 -5.45157,4.56407 l 0.22969,0.19531 z"
         id="path4847"
         inkscape:connector-curvature="0" /><path
         d="m 247.75355,320.192 0,4.84812 m 2,-0.95749 0,-11.25877 m 2,-8.18202 0,18.70459 m 2,-0.69733 0,-25.00926 m 2,-5.55052 0,30.05371 m 2,-0.47799 0,-34.32152 m 2,-3.74871 0,28.39625 m 0,9.32664 0,-8.79348 m 2,-31.9896 0,29.48525 m 0,10.99429 0,-10.22293 m 2,-32.76591 0,30.66291 m 0,12.14066 0,-11.16366 m 2,-33.64217 0,31.63951 m 0,12.98106 0,-11.88725 m 2,-34.33926 0,32.37951 m 0,13.66173 0,-12.38384 m 2,-35.05264 0,33.15745 m 0,14.13286 0,-12.71851 m 2,-35.66153 0,33.67077 m 0,14.62417 0,-13.06171 m 2,-36.17138 0,34.12368 m 0,15.02432 0,-13.32769 m 2,-36.60169 0,34.41982 m 0,15.42445 0,-13.59365 m 2,-36.62152 0,34.30549 m 0,15.80968 0,-13.84472 m 2,-36.47269 0,33.89604 m 0,16.30468 0,-14.17388 m 2,-35.88222 0,33.12402 m 0,16.8154 0,-14.54758 m 2,-35.08898 0,32.19376 m 0,17.32612 0,-14.92128 m 2,-34.16692 0,30.95611 m 0,17.91925 0,-15.24966 m 2,-33.04744 0,29.43727 m 0,18.57604 0,-15.71314 m 2,-31.71635 0,27.64854 m 0,19.49716 0,-16.29146 m 2,-30.27041 0,25.63989 m 0,20.6382 0,-16.98805 m 2,-28.8056 0,23.59823 m 0,21.74454 0,-17.80908 m 2,-27.11185 0,21.61917 m 0,22.79839 0,-18.77387 m 2,-25.44677 0,19.4224 m 0,24.11128 0,-19.87071 m 2,-23.62181 0,17.37159 m 0,25.39178 0,-21.42553 m 2,-21.50194 0,15.31331 m 0,26.65462 0,-23.22046 m 2,-19.11133 0,13.29792 m 0,27.97318 0,-25.63803 m 2,-16.14575 0,40.51371 m 2,-1.57729 0,-39.7906 m 2,-1.0506 0,38.95806 m 2,-2.59934 0,-37.66586 m 2,-1.69939 0,34.8172 m 2,-25.09224 0,-11.74137 m 2,-2.4202 0,10.98577 m 2,-2.31188 0,-11.25879"
         style="fill:none;stroke:#0bff12;stroke-width:1;stroke-opacity:1"
         id="path6618"
         inkscape:connector-curvature="0" /><path
         style="fill:none;fill-opacity:1;fill-rule:nonzero;stroke:#f40000;stroke-width:0.80000001;stroke-opacity:1"
         d="m 86.731248,344.91096 0,-0.76563 0.0016,0 0,0.002 -0.0016,0.76407 z m 0.0016,-0.76563 0,-62.57813 1.97968,0 11.12344,0 c -6.671032,21.48493 -5.941552,42.16395 0.117192,62.57969 l -13.220312,-0.002 z m 17.359372,-0.14375 c -6.264516,-20.46602 -7.0147,-40.87394 -0.0906,-62.33594 l 48.82813,24.39376 c -1.80367,1.69716 -2.94062,4.09453 -2.94062,6.74844 0,2.6736 1.15284,5.08788 2.97812,6.78749 l -48.775,24.40625 z m 52.79688,-26.42031 c -1.78089,-0.84585 -3,-2.65137 -3,-4.77343 0,-2.09913 1.1971,-3.88822 2.95156,-4.74376 l 7.52656,3.76094 c 0.059,0.3187 0.0937,0.64588 0.0937,0.98282 0,0.35495 -0.035,0.70147 -0.1,1.03593 l -7.47187,3.7375 z"
         id="path3017"
         inkscape:connector-curvature="0" /><path
         id="path6674"
         style="fill:none;stroke:#0bff12;stroke-width:1;stroke-opacity:1"
         d="m 87.46044,281.5672 0,62.57822 m 2,2.3e-4 0,-62.57845 m 2,0 0,62.57869 m 2,2.3e-4 0,-62.57892 m 2,0 0,22.76991 m 0,39.80925 0,-23.81721 m 2,-38.76195 0,9.17715 m 0,53.40225 0,-10.11429 m 2,-52.46511 0,1.39503 m 0,37.48841 0,-16.14085 m 0,37.96482 0,1.87223 m 2,-10.53189 0,-42.41266 m 2,-7.60469 0,58.08039 m 2,1.63893 0,-60.92244 m 2,0.99916 0,58.92252 m 2,-1.00077 0,-56.92258 m 2,0.99917 0,54.92264 m 2,-1.00077 0,-52.9227 m 2,0.99917 0,50.92276 m 2,-1.00076 0,-48.92284 m 2,0.99917 0,46.9229 m 2,-1.00077 0,-44.92296 m 2,0.99917 0,42.92302 m 2,-1.00077 0,-40.92308 m 2,0.99916 0,38.92315 m 2,-1.00077 0,-36.92321 m 2,0.99917 0,34.92327 m 2,-1.00077 0,-32.92333 m 2,0.99917 0,30.9234 m 2,-1.00077 0,-28.92347 m 2,0.99917 0,26.92353 m 2,-1.00077 0,-24.92359 m 2,0.99917 0,22.92365 m 2,-1.00076 0,-20.92372 m 2,0.99916 0,18.92378 m 2,-1.00077 0,-16.92384 m 2,0.99917 0,2.34134 m 0,12.58256 0,-2.40269 m 4,-8.81479 0,7.45232 m 2,0.76138 0,-8.92166 m 2,0.99937 0,6.92187 m 2,-1.00041 0,-4.92207 m 2,0.99937 0,2.92228"
         inkscape:connector-curvature="0" /></g></g></svg>