999
DXF created by Inkscape
  0
SECTION
  2
HEADER
  9
$ACADVER
  1
AC1014
  9
$HANDSEED
  5
FFFF
  9
$MEASUREMENT
 70
     1
  0
ENDSEC
  0
SECTION
  2
TABLES
  0
TABLE
  2
VPORT
  5
8
330
0
100
AcDbSymbolTable
 70
     4
  0
VPORT
  5
2E
330
8
100
AcDbSymbolTableRecord
100
AcDbViewportTableRecord
  2
*ACTIVE
 70
     0
 10
0.0
 20
0.0
 11
1.0
 21
1.0
 12
210.0
 22
148.5
 13
0.0
 23
0.0
 14
10.0
 24
10.0
 15
10.0
 25
10.0
 16
0.0
 26
0.0
 36
1.0
 17
0.0
 27
0.0
 37
0.0
 40
341.0
 41
1.24
 42
50.0
 43
0.0
 44
0.0
 50
0.0
 51
0.0
 71
     0
 72
   100
 73
     1
 74
     3
 75
     0
 76
     0
 77
     0
 78
     0
  0
ENDTAB
  0
TABLE
  2
LTYPE
  5
5
330
0
100
AcDbSymbolTable
 70
     1
  0
LTYPE
  5
14
330
5
100
AcDbSymbolTableRecord
100
AcDbLinetypeTableRecord
  2
BYBLOCK
 70
     0
  3

 72
    65
 73
     0
 40
0.0
  0
LTYPE
  5
15
330
5
100
AcDbSymbolTableRecord
100
AcDbLinetypeTableRecord
  2
BYLAYER
 70
     0
  3

 72
    65
 73
     0
 40
0.0
  0
LTYPE
  5
16
330
5
100
AcDbSymbolTableRecord
100
AcDbLinetypeTableRecord
  2
CONTINUOUS
 70
     0
  3
Solid line
 72
    65
 73
     0
 40
0.0
  0
ENDTAB
  0
TABLE
  2
LAYER
  5
2
100
AcDbSymbolTable
 70
2
  0
LAYER
  5
50
100
AcDbSymbolTableRecord
100
AcDbLayerTableRecord
  2
0
 70
0
  6
CONTINUOUS
  0
LAYER
  5
51
100
AcDbSymbolTableRecord
100
AcDbLayerTableRecord
  2
Unser_FablabLogoSchriftdabei
 70
0
  6
CONTINUOUS
  0
ENDTAB
  0
TABLE
  2
STYLE
  5
3
330
0
100
AcDbSymbolTable
 70
     1
  0
STYLE
  5
11
330
3
100
AcDbSymbolTableRecord
100
AcDbTextStyleTableRecord
  2
STANDARD
 70
     0
 40
0.0
 41
1.0
 50
0.0
 71
     0
 42
2.5
  3
txt
  4

  0
ENDTAB
  0
TABLE
  2
VIEW
  5
6
330
0
100
AcDbSymbolTable
 70
     0
  0
ENDTAB
  0
TABLE
  2
UCS
  5
7
330
0
100
AcDbSymbolTable
 70
     0
  0
ENDTAB
  0
TABLE
  2
APPID
  5
9
330
0
100
AcDbSymbolTable
 70
     2
  0
APPID
  5
12
330
9
100
AcDbSymbolTableRecord
100
AcDbRegAppTableRecord
  2
ACAD
 70
     0
  0
ENDTAB
  0
TABLE
  2
DIMSTYLE
  5
A
330
0
100
AcDbSymbolTable
 70
     1
  0
DIMSTYLE
105
27
330
A
100
AcDbSymbolTableRecord
100
AcDbDimStyleTableRecord
  2
ISO-25
 70
     0
  3

  4

  5

  6

  7

 40
1.0
 41
2.5
 42
0.625
 43
3.75
 44
1.25
 45
0.0
 46
0.0
 47
0.0
 48
0.0
140
2.5
141
2.5
142
0.0
143
0.03937007874016
144
1.0
145
0.0
146
1.0
147
0.625
 71
     0
 72
     0
 73
     0
 74
     0
 75
     0
 76
     0
 77
     1
 78
     8
170
     0
171
     3
172
     1
173
     0
174
     0
175
     0
176
     0
177
     0
178
     0
270
     2
271
     2
272
     2
273
     2
274
     3
340
11
275
     0
280
     0
281
     0
282
     0
283
     0
284
     8
285
     0
286
     0
287
     3
288
     0
  0
ENDTAB
  0
TABLE
  2
BLOCK_RECORD
  5
1
330
0
100
AcDbSymbolTable
 70
     1
  0
BLOCK_RECORD
  5
1F
330
1
100
AcDbSymbolTableRecord
100
AcDbBlockTableRecord
  2
*MODEL_SPACE
  0
BLOCK_RECORD
  5
1B
330
1
100
AcDbSymbolTableRecord
100
AcDbBlockTableRecord
  2
*PAPER_SPACE
  0
ENDTAB
  0
ENDSEC
  0
SECTION
  2
BLOCKS
  0
BLOCK
  5
20
330
1F
100
AcDbEntity
  8
0
100
AcDbBlockBegin
  2
*MODEL_SPACE
 70
     0
 10
0.0
 20
0.0
 30
0.0
  3
*MODEL_SPACE
  1

  0
ENDBLK
  5
21
330
1F
100
AcDbEntity
  8
0
100
AcDbBlockEnd
  0
BLOCK
  5
1C
330
1B
100
AcDbEntity
 67
     1
  8
0
100
AcDbBlockBegin
  2
*PAPER_SPACE
  1

  0
ENDBLK
  5
1D
330
1B
100
AcDbEntity
 67
     1
  8
0
100
AcDbBlockEnd
  0
ENDSEC
  0
SECTION
  2
ENTITIES
  0
SPLINE
  5
100
100
AcDbEntity
  8
Unser_FablabLogoSchriftdabei
 62
7
100
AcDbSpline
 70
8
 71
3
 72
8
 73
4
 74
0
 40
0
 40
0
 40
0
 40
0
 40
1
 40
1
 40
1
 40
1
 10
105.442138
 20
96.477490
 30
0.0
 10
102.189880
 20
96.425279
 30
0.0
 10
99.475960
 20
94.005929
 30
0.0
 10
96.227230
 20
95.735951
 30
0.0
  0
SPLINE
  5
101
100
AcDbEntity
  8
Unser_FablabLogoSchriftdabei
 62
7
100
AcDbSpline
 70
8
 71
3
 72
8
 73
4
 74
0
 40
0
 40
0
 40
0
 40
0
 40
1
 40
1
 40
1
 40
1
 10
96.227230
 20
95.735951
 30
0.0
 10
92.635246
 20
97.368254
 30
0.0
 10
91.114069
 20
100.566890
 30
0.0
 10
89.808438
 20
104.049160
 30
0.0
  0
SPLINE
  5
102
100
AcDbEntity
  8
Unser_FablabLogoSchriftdabei
 62
7
100
AcDbSpline
 70
8
 71
3
 72
8
 73
4
 74
0
 40
0
 40
0
 40
0
 40
0
 40
1
 40
1
 40
1
 40
1
 10
89.808438
 20
104.049160
 30
0.0
 10
88.530677
 20
107.687710
 30
0.0
 10
88.230463
 20
110.791801
 30
0.0
 10
86.953055
 20
114.431057
 30
0.0
  0
LINE
  5
103
100
AcDbEntity
  8
Unser_FablabLogoSchriftdabei
 62
7
100
AcDbLine
 10
86.953055
 20
114.431057
 30
0.0
 11
86.926949
 21
114.894254
 31
0.0
  0
SPLINE
  5
104
100
AcDbEntity
  8
Unser_FablabLogoSchriftdabei
 62
7
100
AcDbSpline
 70
8
 71
3
 72
8
 73
4
 74
0
 40
0
 40
0
 40
0
 40
0
 40
1
 40
1
 40
1
 40
1
 10
86.926949
 20
114.894254
 30
0.0
 10
93.553174
 20
111.246532
 30
0.0
 10
101.833221
 20
114.767960
 30
0.0
 10
108.130657
 20
110.207954
 30
0.0
  0
SPLINE
  5
105
100
AcDbEntity
  8
Unser_FablabLogoSchriftdabei
 62
7
100
AcDbSpline
 70
8
 71
3
 72
8
 73
4
 74
0
 40
0
 40
0
 40
0
 40
0
 40
1
 40
1
 40
1
 40
1
 10
108.130657
 20
110.207954
 30
0.0
 10
111.263677
 20
107.849635
 30
0.0
 10
111.216052
 20
104.939218
 30
0.0
 10
110.896435
 20
101.431549
 30
0.0
  0
SPLINE
  5
106
100
AcDbEntity
  8
Unser_FablabLogoSchriftdabei
 62
7
100
AcDbSpline
 70
8
 71
3
 72
8
 73
4
 74
0
 40
0
 40
0
 40
0
 40
0
 40
1
 40
1
 40
1
 40
1
 10
110.896435
 20
101.431549
 30
0.0
 10
110.637849
 20
98.138015
 30
0.0
 10
111.685952
 20
97.059574
 30
0.0
 10
113.084716
 20
95.524637
 30
0.0
  0
LINE
  5
107
100
AcDbEntity
  8
Unser_FablabLogoSchriftdabei
 62
7
100
AcDbLine
 10
113.084716
 20
95.524637
 30
0.0
 11
113.084716
 21
149.576543
 31
0.0
  0
LINE
  5
108
100
AcDbEntity
  8
Unser_FablabLogoSchriftdabei
 62
7
100
AcDbLine
 10
113.084716
 20
149.576543
 30
0.0
 11
73.900982
 21
110.384343
 31
0.0
  0
LINE
  5
109
100
AcDbEntity
  8
Unser_FablabLogoSchriftdabei
 62
7
100
AcDbLine
 10
73.900982
 20
110.384343
 30
0.0
 11
113.084716
 21
71.193201
 31
0.0
  0
LINE
  5
10a
100
AcDbEntity
  8
Unser_FablabLogoSchriftdabei
 62
7
100
AcDbLine
 10
113.084716
 20
71.193201
 30
0.0
 11
113.084716
 21
91.510379
 31
0.0
  0
SPLINE
  5
10b
100
AcDbEntity
  8
Unser_FablabLogoSchriftdabei
 62
7
100
AcDbSpline
 70
8
 71
3
 72
8
 73
4
 74
0
 40
0
 40
0
 40
0
 40
0
 40
1
 40
1
 40
1
 40
1
 10
113.084716
 20
91.510379
 30
0.0
 10
111.233338
 20
94.135399
 30
0.0
 10
109.129724
 20
96.471140
 30
0.0
 10
105.442138
 20
96.477490
 30
0.0
  0
SPLINE
  5
10c
100
AcDbEntity
  8
Unser_FablabLogoSchriftdabei
 62
7
100
AcDbSpline
 70
8
 71
3
 72
8
 73
4
 74
0
 40
0
 40
0
 40
0
 40
0
 40
1
 40
1
 40
1
 40
1
 10
91.441976
 20
110.418915
 30
0.0
 10
92.000776
 20
109.814607
 30
0.0
 10
92.683753
 20
109.352468
 30
0.0
 10
93.425645
 20
109.033910
 30
0.0
  0
SPLINE
  5
10d
100
AcDbEntity
  8
Unser_FablabLogoSchriftdabei
 62
7
100
AcDbSpline
 70
8
 71
3
 72
8
 73
4
 74
0
 40
0
 40
0
 40
0
 40
0
 40
1
 40
1
 40
1
 40
1
 10
93.425645
 20
109.033910
 30
0.0
 10
94.168948
 20
108.714293
 30
0.0
 10
94.963403
 20
108.527674
 30
0.0
 10
95.767737
 20
108.378801
 30
0.0
  0
SPLINE
  5
10e
100
AcDbEntity
  8
Unser_FablabLogoSchriftdabei
 62
7
100
AcDbSpline
 70
8
 71
3
 72
8
 73
4
 74
0
 40
0
 40
0
 40
0
 40
0
 40
1
 40
1
 40
1
 40
1
 10
95.767737
 20
108.378801
 30
0.0
 10
97.373228
 20
108.074707
 30
0.0
 10
99.043984
 20
107.882796
 30
0.0
 10
100.667820
 20
107.347279
 30
0.0
  0
SPLINE
  5
10f
100
AcDbEntity
  8
Unser_FablabLogoSchriftdabei
 62
7
100
AcDbSpline
 70
8
 71
3
 72
8
 73
4
 74
0
 40
0
 40
0
 40
0
 40
0
 40
1
 40
1
 40
1
 40
1
 10
100.667820
 20
107.347279
 30
0.0
 10
101.479562
 20
107.086224
 30
0.0
 10
102.276134
 20
106.749321
 30
0.0
 10
103.033195
 20
106.328104
 30
0.0
  0
SPLINE
  5
110
100
AcDbEntity
  8
Unser_FablabLogoSchriftdabei
 62
7
100
AcDbSpline
 70
8
 71
3
 72
8
 73
4
 74
0
 40
0
 40
0
 40
0
 40
0
 40
1
 40
1
 40
1
 40
1
 10
103.033195
 20
106.328104
 30
0.0
 10
103.788492
 20
105.904418
 30
0.0
 10
104.480289
 20
105.366432
 30
0.0
 10
105.081776
 20
104.749071
 30
0.0
  0
SPLINE
  5
111
100
AcDbEntity
  8
Unser_FablabLogoSchriftdabei
 62
7
100
AcDbSpline
 70
8
 71
3
 72
8
 73
4
 74
0
 40
0
 40
0
 40
0
 40
0
 40
1
 40
1
 40
1
 40
1
 10
105.081776
 20
104.749071
 30
0.0
 10
106.279456
 20
103.507646
 30
0.0
 10
107.177628
 20
102.027390
 30
0.0
 10
107.729020
 20
100.439185
 30
0.0
  0
LINE
  5
112
100
AcDbEntity
  8
Unser_FablabLogoSchriftdabei
 62
7
100
AcDbLine
 10
107.729020
 20
100.439185
 30
0.0
 11
107.636592
 21
100.387679
 31
0.0
  0
SPLINE
  5
113
100
AcDbEntity
  8
Unser_FablabLogoSchriftdabei
 62
7
100
AcDbSpline
 70
8
 71
3
 72
8
 73
4
 74
0
 40
0
 40
0
 40
0
 40
0
 40
1
 40
1
 40
1
 40
1
 10
107.636592
 20
100.387679
 30
0.0
 10
106.578964
 20
101.684490
 30
0.0
 10
105.548148
 20
102.938262
 30
0.0
 10
104.350820
 20
103.983543
 30
0.0
  0
SPLINE
  5
114
100
AcDbEntity
  8
Unser_FablabLogoSchriftdabei
 62
7
100
AcDbSpline
 70
8
 71
3
 72
8
 73
4
 74
0
 40
0
 40
0
 40
0
 40
0
 40
1
 40
1
 40
1
 40
1
 10
104.350820
 20
103.983543
 30
0.0
 10
103.162312
 20
105.021062
 30
0.0
 10
101.884198
 20
105.966507
 30
0.0
 10
100.380659
 20
106.550707
 30
0.0
  0
SPLINE
  5
115
100
AcDbEntity
  8
Unser_FablabLogoSchriftdabei
 62
7
100
AcDbSpline
 70
8
 71
3
 72
8
 73
4
 74
0
 40
0
 40
0
 40
0
 40
0
 40
1
 40
1
 40
1
 40
1
 10
100.380659
 20
106.550707
 30
0.0
 10
98.889467
 20
107.152899
 30
0.0
 10
97.268453
 20
107.449232
 30
0.0
 10
95.649909
 20
107.862687
 30
0.0
  0
SPLINE
  5
116
100
AcDbEntity
  8
Unser_FablabLogoSchriftdabei
 62
7
100
AcDbSpline
 70
8
 71
3
 72
8
 73
4
 74
0
 40
0
 40
0
 40
0
 40
0
 40
1
 40
1
 40
1
 40
1
 10
95.649909
 20
107.862687
 30
0.0
 10
94.844517
 20
108.081762
 30
0.0
 10
94.034187
 20
108.342112
 30
0.0
 10
93.284534
 20
108.739693
 30
0.0
  0
SPLINE
  5
117
100
AcDbEntity
  8
Unser_FablabLogoSchriftdabei
 62
7
100
AcDbSpline
 70
8
 71
3
 72
8
 73
4
 74
0
 40
0
 40
0
 40
0
 40
0
 40
1
 40
1
 40
1
 40
1
 10
93.284534
 20
108.739693
 30
0.0
 10
92.534176
 20
109.131982
 30
0.0
 10
91.864251
 20
109.683021
 30
0.0
 10
91.361189
 20
110.350124
 30
0.0
  0
LINE
  5
118
100
AcDbEntity
  8
Unser_FablabLogoSchriftdabei
 62
7
100
AcDbLine
 10
91.361189
 20
110.350124
 30
0.0
 11
91.441976
 21
110.418915
 31
0.0
  0
LINE
  5
119
100
AcDbEntity
  8
Unser_FablabLogoSchriftdabei
 62
7
100
AcDbLine
 10
91.441976
 20
110.418915
 30
0.0
 11
91.441976
 21
110.418915
 31
0.0
  0
LINE
  5
11a
100
AcDbEntity
  8
Unser_FablabLogoSchriftdabei
 62
7
100
AcDbLine
 10
78.979677
 20
151.716493
 30
0.0
 11
111.054233
 21
151.716493
 31
0.0
  0
LINE
  5
11b
100
AcDbEntity
  8
Unser_FablabLogoSchriftdabei
 62
7
100
AcDbLine
 10
111.054233
 20
151.716493
 30
0.0
 11
71.863091
 21
112.532054
 31
0.0
  0
LINE
  5
11c
100
AcDbEntity
  8
Unser_FablabLogoSchriftdabei
 62
7
100
AcDbLine
 10
71.863091
 20
112.532054
 30
0.0
 11
32.671244
 21
151.716493
 31
0.0
  0
LINE
  5
11d
100
AcDbEntity
  8
Unser_FablabLogoSchriftdabei
 62
7
100
AcDbLine
 10
32.671244
 20
151.716493
 30
0.0
 11
65.321180
 21
151.716493
 31
0.0
  0
LINE
  5
11e
100
AcDbEntity
  8
Unser_FablabLogoSchriftdabei
 62
7
100
AcDbLine
 10
65.321180
 20
151.716493
 30
0.0
 11
65.546958
 21
151.631121
 31
0.0
  0
SPLINE
  5
11f
100
AcDbEntity
  8
Unser_FablabLogoSchriftdabei
 62
7
100
AcDbSpline
 70
8
 71
3
 72
8
 73
4
 74
0
 40
0
 40
0
 40
0
 40
0
 40
1
 40
1
 40
1
 40
1
 10
65.546958
 20
151.631121
 30
0.0
 10
65.264736
 20
150.845485
 30
0.0
 10
64.887969
 20
150.218599
 30
0.0
 10
64.386672
 20
149.930026
 30
0.0
  0
SPLINE
  5
120
100
AcDbEntity
  8
Unser_FablabLogoSchriftdabei
 62
7
100
AcDbSpline
 70
8
 71
3
 72
8
 73
4
 74
0
 40
0
 40
0
 40
0
 40
0
 40
1
 40
1
 40
1
 40
1
 10
64.386672
 20
149.930026
 30
0.0
 10
60.320908
 20
147.592874
 30
0.0
 10
59.471419
 20
147.022432
 30
0.0
 10
58.850530
 20
145.137893
 30
0.0
  0
SPLINE
  5
121
100
AcDbEntity
  8
Unser_FablabLogoSchriftdabei
 62
7
100
AcDbSpline
 70
8
 71
3
 72
8
 73
4
 74
0
 40
0
 40
0
 40
0
 40
0
 40
1
 40
1
 40
1
 40
1
 10
58.850530
 20
145.137893
 30
0.0
 10
56.745505
 20
138.751910
 30
0.0
 10
59.901455
 20
131.054299
 30
0.0
 10
61.382063
 20
128.241249
 30
0.0
  0
SPLINE
  5
122
100
AcDbEntity
  8
Unser_FablabLogoSchriftdabei
 62
7
100
AcDbSpline
 70
8
 71
3
 72
8
 73
4
 74
0
 40
0
 40
0
 40
0
 40
0
 40
1
 40
1
 40
1
 40
1
 10
61.382063
 20
128.241249
 30
0.0
 10
63.150186
 20
124.881393
 30
0.0
 10
63.628905
 20
129.801585
 30
0.0
 10
63.831047
 20
131.154135
 30
0.0
  0
SPLINE
  5
123
100
AcDbEntity
  8
Unser_FablabLogoSchriftdabei
 62
7
100
AcDbSpline
 70
8
 71
3
 72
8
 73
4
 74
0
 40
0
 40
0
 40
0
 40
0
 40
1
 40
1
 40
1
 40
1
 10
63.831047
 20
131.154135
 30
0.0
 10
64.046241
 20
132.596290
 30
0.0
 10
65.123624
 20
138.304235
 30
0.0
 10
65.123624
 20
138.304235
 30
0.0
  0
SPLINE
  5
124
100
AcDbEntity
  8
Unser_FablabLogoSchriftdabei
 62
7
100
AcDbSpline
 70
8
 71
3
 72
8
 73
4
 74
0
 40
0
 40
0
 40
0
 40
0
 40
1
 40
1
 40
1
 40
1
 10
65.123624
 20
138.304235
 30
0.0
 10
65.123624
 20
138.304235
 30
0.0
 10
72.430005
 20
143.463610
 30
0.0
 10
78.633249
 20
135.556449
 30
0.0
  0
SPLINE
  5
125
100
AcDbEntity
  8
Unser_FablabLogoSchriftdabei
 62
7
100
AcDbSpline
 70
8
 71
3
 72
8
 73
4
 74
0
 40
0
 40
0
 40
0
 40
0
 40
1
 40
1
 40
1
 40
1
 10
78.633249
 20
135.556449
 30
0.0
 10
77.815863
 20
132.466115
 30
0.0
 10
77.319152
 20
131.006674
 30
0.0
 10
76.105244
 20
125.143154
 30
0.0
  0
SPLINE
  5
126
100
AcDbEntity
  8
Unser_FablabLogoSchriftdabei
 62
7
100
AcDbSpline
 70
8
 71
3
 72
8
 73
4
 74
0
 40
0
 40
0
 40
0
 40
0
 40
1
 40
1
 40
1
 40
1
 10
76.105244
 20
125.143154
 30
0.0
 10
75.668858
 20
123.238860
 30
0.0
 10
76.649580
 20
122.796476
 30
0.0
 10
77.872308
 20
123.626562
 30
0.0
  0
SPLINE
  5
127
100
AcDbEntity
  8
Unser_FablabLogoSchriftdabei
 62
7
100
AcDbSpline
 70
8
 71
3
 72
8
 73
4
 74
0
 40
0
 40
0
 40
0
 40
0
 40
1
 40
1
 40
1
 40
1
 10
77.872308
 20
123.626562
 30
0.0
 10
80.717461
 20
125.558021
 30
0.0
 10
86.168230
 20
130.796065
 30
0.0
 10
87.124611
 20
137.072335
 30
0.0
  0
SPLINE
  5
128
100
AcDbEntity
  8
Unser_FablabLogoSchriftdabei
 62
7
100
AcDbSpline
 70
8
 71
3
 72
8
 73
4
 74
0
 40
0
 40
0
 40
0
 40
0
 40
1
 40
1
 40
1
 40
1
 10
87.124611
 20
137.072335
 30
0.0
 10
87.728919
 20
141.031207
 30
0.0
 10
85.842263
 20
144.213968
 30
0.0
 10
82.028736
 20
147.652140
 30
0.0
  0
SPLINE
  5
129
100
AcDbEntity
  8
Unser_FablabLogoSchriftdabei
 62
7
100
AcDbSpline
 70
8
 71
3
 72
8
 73
4
 74
0
 40
0
 40
0
 40
0
 40
0
 40
1
 40
1
 40
1
 40
1
 10
82.028736
 20
147.652140
 30
0.0
 10
80.702291
 20
149.009629
 30
0.0
 10
79.503199
 20
149.805496
 30
0.0
 10
78.804699
 20
151.216960
 30
0.0
  0
LINE
  5
12a
100
AcDbEntity
  8
Unser_FablabLogoSchriftdabei
 62
7
100
AcDbLine
 10
78.804699
 20
151.216960
 30
0.0
 11
78.979677
 21
151.716493
 31
0.0
  0
LINE
  5
12b
100
AcDbEntity
  8
Unser_FablabLogoSchriftdabei
 62
7
100
AcDbLine
 10
78.979677
 20
151.716493
 30
0.0
 11
78.979677
 21
151.716493
 31
0.0
  0
LINE
  5
12c
100
AcDbEntity
  8
Unser_FablabLogoSchriftdabei
 62
7
100
AcDbLine
 10
30.597087
 20
121.676795
 30
0.0
 11
30.597087
 21
121.406567
 31
0.0
  0
LINE
  5
12d
100
AcDbEntity
  8
Unser_FablabLogoSchriftdabei
 62
7
100
AcDbLine
 10
30.597087
 20
121.406567
 30
0.0
 11
36.619356
 21
121.407273
 31
0.0
  0
LINE
  5
12e
100
AcDbEntity
  8
Unser_FablabLogoSchriftdabei
 62
7
100
AcDbLine
 10
36.619356
 20
121.407273
 30
0.0
 11
58.696190
 21
110.359684
 31
0.0
  0
LINE
  5
12f
100
AcDbEntity
  8
Unser_FablabLogoSchriftdabei
 62
7
100
AcDbLine
 10
58.696190
 20
110.359684
 30
0.0
 11
36.620767
 21
99.330792
 31
0.0
  0
LINE
  5
130
100
AcDbEntity
  8
Unser_FablabLogoSchriftdabei
 62
7
100
AcDbLine
 10
36.620767
 20
99.330792
 30
0.0
 11
31.295587
 21
99.330792
 31
0.0
  0
LINE
  5
131
100
AcDbEntity
  8
Unser_FablabLogoSchriftdabei
 62
7
100
AcDbLine
 10
31.295587
 20
99.330792
 30
0.0
 11
30.597440
 21
99.330792
 31
0.0
  0
LINE
  5
132
100
AcDbEntity
  8
Unser_FablabLogoSchriftdabei
 62
7
100
AcDbLine
 10
30.597440
 20
99.330792
 30
0.0
 11
30.597440
 21
71.177362
 31
0.0
  0
LINE
  5
133
100
AcDbEntity
  8
Unser_FablabLogoSchriftdabei
 62
7
100
AcDbLine
 10
30.597440
 20
71.177362
 30
0.0
 11
69.781526
 21
110.369914
 31
0.0
  0
LINE
  5
134
100
AcDbEntity
  8
Unser_FablabLogoSchriftdabei
 62
7
100
AcDbLine
 10
69.781526
 20
110.369914
 30
0.0
 11
30.597440
 21
149.560703
 31
0.0
  0
LINE
  5
135
100
AcDbEntity
  8
Unser_FablabLogoSchriftdabei
 62
7
100
AcDbLine
 10
30.597440
 20
149.560703
 30
0.0
 11
30.597440
 21
121.407273
 31
0.0
  0
SPLINE
  5
136
100
AcDbEntity
  8
Unser_FablabLogoSchriftdabei
 62
4
100
AcDbSpline
 70
8
 71
3
 72
8
 73
4
 74
0
 40
0
 40
0
 40
0
 40
0
 40
1
 40
1
 40
1
 40
1
 10
58.723706
 20
110.352099
 30
0.0
 10
58.723706
 20
108.933580
 30
0.0
 10
57.572945
 20
107.782113
 30
0.0
 10
56.153015
 20
107.782113
 30
0.0
  0
SPLINE
  5
137
100
AcDbEntity
  8
Unser_FablabLogoSchriftdabei
 62
4
100
AcDbSpline
 70
8
 71
3
 72
8
 73
4
 74
0
 40
0
 40
0
 40
0
 40
0
 40
1
 40
1
 40
1
 40
1
 10
56.153015
 20
107.782113
 30
0.0
 10
54.733437
 20
107.782113
 30
0.0
 10
53.583029
 20
108.933580
 30
0.0
 10
53.583029
 20
110.352099
 30
0.0
  0
SPLINE
  5
138
100
AcDbEntity
  8
Unser_FablabLogoSchriftdabei
 62
4
100
AcDbSpline
 70
8
 71
3
 72
8
 73
4
 74
0
 40
0
 40
0
 40
0
 40
0
 40
1
 40
1
 40
1
 40
1
 10
53.583029
 20
110.352099
 30
0.0
 10
53.583029
 20
111.772030
 30
0.0
 10
54.733437
 20
112.923496
 30
0.0
 10
56.153015
 20
112.923496
 30
0.0
  0
SPLINE
  5
139
100
AcDbEntity
  8
Unser_FablabLogoSchriftdabei
 62
4
100
AcDbSpline
 70
8
 71
3
 72
8
 73
4
 74
0
 40
0
 40
0
 40
0
 40
0
 40
1
 40
1
 40
1
 40
1
 10
56.153015
 20
112.923496
 30
0.0
 10
57.572945
 20
112.923496
 30
0.0
 10
58.723706
 20
111.772030
 30
0.0
 10
58.723706
 20
110.352099
 30
0.0
  0
LINE
  5
13a
100
AcDbEntity
  8
Unser_FablabLogoSchriftdabei
 62
4
100
AcDbLine
 10
58.723706
 20
110.352099
 30
0.0
 11
58.723706
 21
110.352099
 31
0.0
  0
LINE
  5
13b
100
AcDbEntity
  8
Unser_FablabLogoSchriftdabei
 62
7
100
AcDbLine
 10
100.043686
 20
80.087117
 30
0.0
 11
98.359877
 21
79.297601
 31
0.0
  0
SPLINE
  5
13c
100
AcDbEntity
  8
Unser_FablabLogoSchriftdabei
 62
7
100
AcDbSpline
 70
8
 71
3
 72
8
 73
4
 74
0
 40
0
 40
0
 40
0
 40
0
 40
1
 40
1
 40
1
 40
1
 10
98.359877
 20
79.297601
 30
0.0
 10
95.077280
 20
77.924942
 30
0.0
 10
91.163563
 20
77.126959
 30
0.0
 10
86.961980
 20
77.126959
 30
0.0
  0
SPLINE
  5
13d
100
AcDbEntity
  8
Unser_FablabLogoSchriftdabei
 62
7
100
AcDbSpline
 70
8
 71
3
 72
8
 73
4
 74
0
 40
0
 40
0
 40
0
 40
0
 40
1
 40
1
 40
1
 40
1
 10
86.961980
 20
77.126959
 30
0.0
 10
85.794638
 20
77.126959
 30
0.0
 10
84.575791
 20
77.258545
 30
0.0
 10
83.461013
 20
77.377078
 30
0.0
  0
SPLINE
  5
13e
100
AcDbEntity
  8
Unser_FablabLogoSchriftdabei
 62
7
100
AcDbSpline
 70
8
 71
3
 72
8
 73
4
 74
0
 40
0
 40
0
 40
0
 40
0
 40
1
 40
1
 40
1
 40
1
 10
83.461013
 20
77.377078
 30
0.0
 10
83.461013
 20
77.377078
 30
0.0
 10
70.035349
 20
69.824106
 30
0.0
 10
71.652836
 20
72.569776
 30
0.0
  0
SPLINE
  5
13f
100
AcDbEntity
  8
Unser_FablabLogoSchriftdabei
 62
7
100
AcDbSpline
 70
8
 71
3
 72
8
 73
4
 74
0
 40
0
 40
0
 40
0
 40
0
 40
1
 40
1
 40
1
 40
1
 10
71.652836
 20
72.569776
 30
0.0
 10
75.008105
 20
78.268195
 30
0.0
 10
74.130394
 20
79.954826
 30
0.0
 10
74.130394
 20
79.954826
 30
0.0
  0
SPLINE
  5
140
100
AcDbEntity
  8
Unser_FablabLogoSchriftdabei
 62
7
100
AcDbSpline
 70
8
 71
3
 72
8
 73
4
 74
0
 40
0
 40
0
 40
0
 40
0
 40
1
 40
1
 40
1
 40
1
 10
74.130394
 20
79.954826
 30
0.0
 10
68.893055
 20
82.570320
 30
0.0
 10
65.947008
 20
86.551417
 30
0.0
 10
65.947008
 20
90.721956
 30
0.0
  0
SPLINE
  5
141
100
AcDbEntity
  8
Unser_FablabLogoSchriftdabei
 62
7
100
AcDbSpline
 70
8
 71
3
 72
8
 73
4
 74
0
 40
0
 40
0
 40
0
 40
0
 40
1
 40
1
 40
1
 40
1
 10
65.947008
 20
90.721956
 30
0.0
 10
65.946655
 20
95.581823
 30
0.0
 10
69.888947
 20
99.846201
 30
0.0
 10
75.817024
 20
102.250734
 30
0.0
  0
LINE
  5
142
100
AcDbEntity
  8
Unser_FablabLogoSchriftdabei
 62
7
100
AcDbLine
 10
75.817024
 20
102.250734
 30
0.0
 11
77.326208
 21
102.800009
 31
0.0
  0
LINE
  5
143
100
AcDbEntity
  8
Unser_FablabLogoSchriftdabei
 62
7
100
AcDbLine
 10
77.326208
 20
102.800009
 30
0.0
 11
76.553624
 21
103.572239
 31
0.0
  0
LINE
  5
144
100
AcDbEntity
  8
Unser_FablabLogoSchriftdabei
 62
7
100
AcDbLine
 10
76.553624
 20
103.572239
 30
0.0
 11
71.863091
 21
108.262420
 31
0.0
  0
LINE
  5
145
100
AcDbEntity
  8
Unser_FablabLogoSchriftdabei
 62
7
100
AcDbLine
 10
71.863091
 20
108.262420
 30
0.0
 11
32.671597
 21
69.077981
 31
0.0
  0
LINE
  5
146
100
AcDbEntity
  8
Unser_FablabLogoSchriftdabei
 62
7
100
AcDbLine
 10
32.671597
 20
69.077981
 30
0.0
 11
111.054233
 21
69.077981
 31
0.0
  0
LINE
  5
147
100
AcDbEntity
  8
Unser_FablabLogoSchriftdabei
 62
7
100
AcDbLine
 10
111.054233
 20
69.077981
 30
0.0
 11
100.043686
 21
80.087117
 31
0.0
  0
LINE
  5
148
100
AcDbEntity
  8
Unser_FablabLogoSchriftdabei
 62
7
100
AcDbLine
 10
100.043686
 20
80.087117
 30
0.0
 11
100.043686
 21
80.087117
 31
0.0
  0
SPLINE
  5
149
100
AcDbEntity
  8
Unser_FablabLogoSchriftdabei
 62
4
100
AcDbSpline
 70
8
 71
3
 72
8
 73
4
 74
0
 40
0
 40
0
 40
0
 40
0
 40
1
 40
1
 40
1
 40
1
 10
36.469249
 20
122.883965
 30
0.0
 10
33.701708
 20
114.694229
 30
0.0
 10
33.337288
 20
106.480504
 30
0.0
 10
36.470661
 20
97.820515
 30
0.0
  0
ENDSEC
  0
SECTION
  2
OBJECTS
  0
DICTIONARY
  5
C
330
0
100
AcDbDictionary
  3
ACAD_GROUP
350
D
  3
ACAD_MLINESTYLE
350
17
  0
DICTIONARY
  5
D
330
C
100
AcDbDictionary
  0
DICTIONARY
  5
1A
330
C
100
AcDbDictionary
  0
DICTIONARY
  5
17
330
C
100
AcDbDictionary
  3
STANDARD
350
18
  0
DICTIONARY
  5
19
330
C
100
AcDbDictionary
  0
ENDSEC
  0
EOF
